<svg id="圖層_1" data-name="圖層 1" xmlns="http://www.w3.org/2000/svg" viewBox="0 0 594.05 130.82"><defs><style>.cls-1{fill:#f0935f;}.cls-2{fill:#fccb00;}.cls-3{fill:#fff6b3;}.cls-4{fill:#fff8cf;}.cls-5{fill:#b7b1c2;}.cls-6,.cls-8{fill:#0bacc9;}.cls-7{fill:#23b6bc;stroke:#23b6bc;stroke-width:0.7px;}.cls-15,.cls-7,.cls-8{stroke-miterlimit:10;}.cls-8{stroke:#0090c8;stroke-width:0.05px;}.cls-9{fill:#fff;}.cls-10{fill:#eb6c43;}.cls-11{fill:#ebc882;}.cls-12{fill:#c69857;}.cls-13{fill:#6581a5;}.cls-14{fill:#95b0be;}.cls-15{fill:none;stroke:#6581a5;stroke-width:0.55px;}.cls-16{fill:#231b00;}.cls-17{fill:#f29600;}</style></defs><rect class="cls-1" x="132.77" y="61.31" width="30.26" height="6.51"/><rect class="cls-2" x="133.15" y="78.54" width="29.11" height="6.51"/><rect class="cls-3" x="111.12" y="99.01" width="64.61" height="4.04"/><rect class="cls-4" x="410.45" y="35.11" width="40.48" height="8.02"/><rect class="cls-4" x="410.45" y="53.17" width="40.48" height="8.02"/><rect class="cls-4" x="410.45" y="71.22" width="40.48" height="8.02"/><path class="cls-5" d="M724.63,306.42V261.78h-5.54v45.55A47,47,0,0,1,724.63,306.42Z" transform="translate(-373.72 -192.56)"/><polygon class="cls-5" points="366.55 98.35 366.3 68.88 361.05 68.88 361.06 98.35 366.55 98.35"/><path class="cls-2" d="M897.7,296.86a8.94,8.94,0,0,0-3.29-6.93,6.2,6.2,0,0,0,.23-1.68,6.29,6.29,0,0,0-12.58,0,6.41,6.41,0,0,0,.41,2.24,8.95,8.95,0,0,0,1.4,13.86,3.84,3.84,0,1,0,7.4,1.45c0-.12,0-.24,0-.36A8.94,8.94,0,0,0,897.7,296.86Z" transform="translate(-373.72 -192.56)"/><path class="cls-3" d="M619.91,291.51a10.18,10.18,0,0,0-3.74-7.88,7,7,0,0,0,.26-1.9,7.16,7.16,0,1,0-13.85,2.54A10.18,10.18,0,0,0,604.17,300a4.33,4.33,0,0,0-.32,1.65,4.38,4.38,0,1,0,8.75,0c0-.13,0-.27,0-.4A10.2,10.2,0,0,0,619.91,291.51Z" transform="translate(-373.72 -192.56)"/><path class="cls-2" d="M708.76,289a10.87,10.87,0,0,0-4-8.43,7.65,7.65,0,1,0-14.53.68,10.87,10.87,0,0,0,1.7,16.87,4.68,4.68,0,0,0,4.33,6.45,4.68,4.68,0,0,0,4.68-4.68c0-.15,0-.29,0-.44A10.89,10.89,0,0,0,708.76,289Z" transform="translate(-373.72 -192.56)"/><path class="cls-1" d="M926.8,296.34a8.93,8.93,0,0,0-3.28-6.92,6.61,6.61,0,0,0,.22-1.68,6.29,6.29,0,0,0-12.57,0,6.41,6.41,0,0,0,.41,2.24,8.93,8.93,0,0,0,1.4,13.86,3.64,3.64,0,0,0-.29,1.45,3.85,3.85,0,0,0,7.69,0c0-.12,0-.24,0-.36A9,9,0,0,0,926.8,296.34Z" transform="translate(-373.72 -192.56)"/><rect class="cls-4" x="410.45" y="90.64" width="41.72" height="8.02"/><polygon class="cls-6" points="214.84 74.17 214.84 69.67 213.06 69.67 213.06 68.75 217.84 68.75 217.84 69.67 216.06 69.67 216.06 74.17 214.84 74.17"/><path class="cls-6" d="M598,266.73h-1.32l-.53-1.23h-2.4l-.5,1.23h-1.29l2.34-5.42h1.29Zm-2.24-2.14-.83-2-.81,2Z" transform="translate(-373.72 -192.56)"/><rect class="cls-6" x="225.71" y="68.76" width="1.21" height="5.41"/><polygon class="cls-6" points="229.77 74.17 228.34 68.75 229.58 68.75 230.49 72.47 231.59 68.75 233.03 68.75 234.08 72.53 235.01 68.75 236.23 68.75 234.77 74.17 233.48 74.17 232.28 70.12 231.09 74.17 229.77 74.17"/><path class="cls-6" d="M616.36,266.73H615l-.52-1.23h-2.41l-.49,1.23h-1.29l2.34-5.42H614Zm-2.23-2.14-.83-2-.81,2Z" transform="translate(-373.72 -192.56)"/><polygon class="cls-6" points="244.14 74.17 244.14 68.75 245.33 68.75 247.79 72.37 247.79 68.75 248.91 68.75 248.91 74.17 247.7 74.17 245.27 70.64 245.27 74.17 244.14 74.17"/><path class="cls-6" d="M627.62,265l1.18-.11a1.3,1.3,0,0,0,.44.79,1.38,1.38,0,0,0,.88.25,1.52,1.52,0,0,0,.88-.22.66.66,0,0,0,.3-.53.44.44,0,0,0-.13-.32,1.06,1.06,0,0,0-.43-.24l-1-.23a3.64,3.64,0,0,1-1.37-.54,1.35,1.35,0,0,1-.55-1.09,1.32,1.32,0,0,1,.26-.77,1.66,1.66,0,0,1,.75-.55,3.21,3.21,0,0,1,1.18-.19,2.73,2.73,0,0,1,1.71.45,1.52,1.52,0,0,1,.6,1.19l-1.21.05a.93.93,0,0,0-.34-.6,1.35,1.35,0,0,0-.77-.18,1.52,1.52,0,0,0-.83.19.42.42,0,0,0-.19.34.4.4,0,0,0,.18.33,3.72,3.72,0,0,0,1.12.36,5.66,5.66,0,0,1,1.31.39,1.63,1.63,0,0,1,.66.55,1.57,1.57,0,0,1,0,1.73,1.83,1.83,0,0,1-.82.61,3.78,3.78,0,0,1-1.31.19,2.78,2.78,0,0,1-1.75-.47,2,2,0,0,1-.73-1.38" transform="translate(-373.72 -192.56)"/><polygon class="cls-6" points="262.01 74.17 262.01 69.67 260.23 69.67 260.23 68.75 265.01 68.75 265.01 69.67 263.23 69.67 263.23 74.17 262.01 74.17"/><path class="cls-6" d="M645.15,266.73h-1.33l-.52-1.23h-2.4l-.5,1.23h-1.29l2.34-5.42h1.29Zm-2.24-2.14-.83-2-.81,2Z" transform="translate(-373.72 -192.56)"/><path class="cls-6" d="M646.63,266.73v-5.42h2.56a4.7,4.7,0,0,1,1.4.15,1.36,1.36,0,0,1,.7.52,1.4,1.4,0,0,1,.26.85,1.39,1.39,0,0,1-.39,1,2.08,2.08,0,0,1-1.19.5,3.36,3.36,0,0,1,.65.45,6.75,6.75,0,0,1,.69.88l.73,1.06h-1.45l-.88-1.18a7.2,7.2,0,0,0-.64-.8,1.06,1.06,0,0,0-.36-.22,2.29,2.29,0,0,0-.61-.06h-.25v2.26Zm1.22-3.13h.9a5.72,5.72,0,0,0,1.09-.06.69.69,0,0,0,.34-.23.66.66,0,0,0,.12-.41.6.6,0,0,0-.16-.44.79.79,0,0,0-.46-.21,8,8,0,0,0-.88,0h-.95Z" transform="translate(-373.72 -192.56)"/><polygon class="cls-6" points="281.17 74.17 281.17 69.67 279.39 69.67 279.39 68.75 284.17 68.75 284.17 69.67 282.39 69.67 282.39 74.17 281.17 74.17"/><path class="cls-6" d="M660.55,261.31h1.22v2.94a5.7,5.7,0,0,0,0,.9.87.87,0,0,0,.37.53,1.36,1.36,0,0,0,.8.2,1.28,1.28,0,0,0,.78-.19.73.73,0,0,0,.32-.46,6.35,6.35,0,0,0,0-.92v-3h1.22v2.85a6.83,6.83,0,0,1-.1,1.37,1.54,1.54,0,0,1-.36.68,1.75,1.75,0,0,1-.71.44,3.16,3.16,0,0,1-1.16.17,3.7,3.7,0,0,1-1.31-.18,1.91,1.91,0,0,1-.7-.47,1.41,1.41,0,0,1-.34-.6,5.82,5.82,0,0,1-.12-1.37Z" transform="translate(-373.72 -192.56)"/><path class="cls-6" d="M667.47,266.73v-5.42h1.95a7.13,7.13,0,0,1,1.44.09,1.53,1.53,0,0,1,.86.53,1.52,1.52,0,0,1,.35,1.05,1.58,1.58,0,0,1-.2.84,1.52,1.52,0,0,1-.51.53,1.79,1.79,0,0,1-.63.26,8.07,8.07,0,0,1-1.26.07h-.79v2.05Zm1.21-4.5v1.54h.66a3.27,3.27,0,0,0,1-.09.78.78,0,0,0,.38-.27.61.61,0,0,0,.14-.42.65.65,0,0,0-.19-.48.84.84,0,0,0-.49-.24,5.41,5.41,0,0,0-.87,0Z" transform="translate(-373.72 -192.56)"/><polygon class="cls-6" points="305.35 74.17 305.35 68.75 306.56 68.75 306.56 70.89 308.94 70.89 308.94 68.75 310.15 68.75 310.15 74.17 308.94 74.17 308.94 71.8 306.56 71.8 306.56 74.17 305.35 74.17"/><path class="cls-6" d="M686,261.31h1.21v2.94a5.29,5.29,0,0,0,.05.9.83.83,0,0,0,.37.53,1.7,1.7,0,0,0,1.58,0,.71.71,0,0,0,.31-.46,4.92,4.92,0,0,0,.06-.92v-3h1.21v2.85a6.14,6.14,0,0,1-.1,1.37,1.36,1.36,0,0,1-.36.68,1.69,1.69,0,0,1-.71.44,3.1,3.1,0,0,1-1.15.17,3.66,3.66,0,0,1-1.31-.18,1.83,1.83,0,0,1-.7-.47,1.31,1.31,0,0,1-.34-.6,5.82,5.82,0,0,1-.12-1.37Z" transform="translate(-373.72 -192.56)"/><path class="cls-6" d="M692.88,261.31h2.4a6.75,6.75,0,0,1,1.06.06,1.57,1.57,0,0,1,.63.22,1.55,1.55,0,0,1,.47.45,1.19,1.19,0,0,1-.05,1.33,1.36,1.36,0,0,1-.62.48,1.66,1.66,0,0,1,.85.49,1.19,1.19,0,0,1,.29.82,1.49,1.49,0,0,1-.19.72,1.45,1.45,0,0,1-.52.55,1.8,1.8,0,0,1-.81.26c-.2,0-.69,0-1.47,0h-2Zm1.21.91v1.25h.8c.47,0,.76,0,.88,0a.87.87,0,0,0,.49-.19.55.55,0,0,0,.18-.43.54.54,0,0,0-.16-.41.78.78,0,0,0-.45-.19h-1.74Zm0,2.15v1.45h1.13a6.09,6.09,0,0,0,.83,0,.83.83,0,0,0,.44-.21.65.65,0,0,0,.17-.46.64.64,0,0,0-.13-.42.87.87,0,0,0-.38-.25,4.9,4.9,0,0,0-1.08-.07Z" transform="translate(-373.72 -192.56)"/><rect class="cls-7" x="342.98" y="129.09" width="56.78" height="1.29"/><rect class="cls-7" x="203.54" y="129.09" width="78.68" height="1.29"/><rect class="cls-7" x="387.07" y="58.43" width="1.29" height="39.1"/><rect class="cls-7" x="334.29" y="58.43" width="1.29" height="29.46"/><path class="cls-7" d="M767.46,251.63H702.55l11.88-23.75h42.93Zm-62.82-1.29H765.5l-9-21.17H715.22Z" transform="translate(-373.72 -192.56)"/><rect class="cls-7" x="178.18" y="129.09" width="21.96" height="1.29"/><rect class="cls-7" x="132.22" y="128.71" width="21.96" height="1.29"/><polygon class="cls-7" points="125.58 95.98 124.29 95.98 124.29 45.6 163.17 45.6 163.17 11.03 179.94 0.35 207.59 0.35 207.59 57.76 206.3 57.76 206.3 1.64 180.31 1.64 164.46 11.74 164.46 46.9 125.58 46.9 125.58 95.98"/><polygon class="cls-7" points="163.34 67.61 130.44 67.61 130.44 57.85 138.17 57.85 138.17 59.14 131.73 59.14 131.73 66.32 162.05 66.32 162.05 59.14 153.04 59.14 153.04 57.85 163.34 57.85 163.34 67.61"/><polygon class="cls-7" points="163.34 84.72 130.44 84.72 130.44 74.96 135.12 74.96 135.12 76.25 131.73 76.25 131.73 83.43 162.05 83.43 162.05 76.25 156.96 76.25 156.96 74.96 163.34 74.96 163.34 84.72"/><polygon class="cls-7" points="459.02 81.24 457.73 81.24 457.73 78.62 465.95 78.62 465.95 69.8 457.73 69.8 457.73 60.31 465.95 60.31 465.95 51.49 457.73 51.49 457.73 42 465.95 42 465.95 33.18 457.73 33.18 457.73 26.68 408.35 26.68 408.35 25.39 459.02 25.39 459.02 31.89 467.24 31.89 467.24 43.29 459.02 43.29 459.02 50.2 467.24 50.2 467.24 61.6 459.02 61.6 459.02 68.51 467.24 68.51 467.24 79.91 459.02 79.91 459.02 81.24"/><polyline class="cls-7" points="459.02 78.76 459.02 85.26 467.24 85.26 467.24 96.66 459.02 96.66 459.02 103.57 467.24 103.57 467.24 114.97 459.02 114.97 459.02 129.87 457.73 129.87 457.73 113.68 465.95 113.68 465.95 104.86 457.73 104.86 457.73 95.37 465.95 95.37 465.95 86.55 457.73 86.55 457.73 80.05"/><polygon class="cls-7" points="399.13 97.53 397.84 97.53 397.71 18.04 447.83 18.04 447.83 19.33 399 19.33 399.13 97.53"/><rect class="cls-7" x="462.54" y="42.64" width="1.29" height="8.2"/><rect class="cls-7" x="462.54" y="60.61" width="1.29" height="8.2"/><polygon class="cls-7" points="452.68 43.29 444.44 43.29 444.44 41.99 451.39 41.99 451.39 33.18 410.72 33.18 410.72 41.99 433.89 41.99 433.89 43.29 409.43 43.29 409.43 31.88 452.68 31.88 452.68 43.29"/><polygon class="cls-7" points="452.68 61.26 409.43 61.26 409.43 49.86 421.68 49.86 421.68 51.15 410.72 51.15 410.72 59.97 451.39 59.97 451.39 51.15 435.09 51.15 435.09 49.86 452.68 49.86 452.68 61.26"/><polygon class="cls-7" points="452.68 79.23 444.44 79.23 444.44 77.94 451.39 77.94 451.39 69.12 410.72 69.12 410.72 77.94 421.58 77.94 421.58 79.23 409.43 79.23 409.43 67.83 452.68 67.83 452.68 79.23"/><path class="cls-7" d="M818.16,271.79h-1.65V270.5h1.65Zm-3.53,0h-1.88V270.5h1.88Zm-3.75,0H809V270.5h1.88Zm-3.76,0h-1.88V270.5h1.88Zm-3.76,0h-1.88V270.5h1.88Zm-3.76,0h-1.88V270.5h1.88Z" transform="translate(-373.72 -192.56)"/><polyline class="cls-7" points="208.32 62.09 241.09 62.09 274.28 39.69 274.98 39.69 305.49 62.09 332.9 62.09 332.9 63.41 305.05 63.41 274.63 41.08 241.53 63.41 208.32 63.41"/><polyline class="cls-7" points="247.73 57.99 206.79 57.99 206.79 56.7 247.73 56.7"/><polygon class="cls-7" points="248.66 58.21 247.37 58.21 247.37 46.26 233.27 46.26 233.27 29.15 211.84 29.15 211.84 27.86 234.56 27.86 234.56 44.97 248.66 44.97 248.66 58.21"/><polygon class="cls-7" points="158.33 46.77 157.03 46.77 157.03 29.02 150.81 29.02 150.81 46.34 149.52 46.34 149.52 27.73 158.33 27.73 158.33 46.77"/><polyline class="cls-7" points="150.01 34.91 134.79 34.91 134.79 46.25 133.5 46.25 133.5 33.62 149.31 33.62"/><line class="cls-7" x1="133.5" y1="33.62" x2="150.31" y2="33.62"/><polygon class="cls-7" points="176.96 117.66 175.67 117.66 175.67 87.88 222.53 87.88 222.53 89.14 176.96 89.14 176.96 117.66"/><path class="cls-7" d="M696.55,305.75a5.49,5.49,0,0,1-5.48-5.27,12.71,12.71,0,0,1-5.71-5.5l1.07-.57a11.51,11.51,0,0,0,5.5,5.13l.37.17v.4s0,.07,0,.1v.06a4.27,4.27,0,1,0,8.53,0v-.06a.38.38,0,0,0,0-.1v-.4l.37-.17a11.44,11.44,0,0,0,3.81-18.2l-.21-.22.06-.31a8,8,0,0,0,.18-1.7,8.46,8.46,0,0,0-16.91,0,8,8,0,0,0,.18,1.7l-1.19.25a9.77,9.77,0,0,1-.2-1.95,9.67,9.67,0,0,1,19.33,0,10,10,0,0,1-.14,1.64A12.66,12.66,0,0,1,702,300.48,5.49,5.49,0,0,1,696.55,305.75Z" transform="translate(-373.72 -192.56)"/><path class="cls-7" d="M685.36,295a12,12,0,0,1-.66-1.47l1.13-.42a11.15,11.15,0,0,0,.6,1.32Zm-1.18-3.24a12.6,12.6,0,0,1-.26-1.83l1.21-.08a13.1,13.1,0,0,0,.23,1.65Zm1-3.58-1.2-.1a12.64,12.64,0,0,1,.28-1.83l1.18.28A11.34,11.34,0,0,0,685.14,288.16Zm.75-3.25-1.13-.44a15,15,0,0,1,.8-1.67l1.05.6A12.27,12.27,0,0,0,685.89,284.91Z" transform="translate(-373.72 -192.56)"/><polygon class="cls-7" points="324.17 130 323.53 114.4 324.74 114.28 325.38 129.89 324.17 130"/><polygon class="cls-7" points="321.7 130 320.5 129.88 321.17 114.28 322.37 114.4 321.7 130"/><path class="cls-7" d="M696.39,298.32a9,9,0,0,1-9-9h1.21a7.82,7.82,0,0,0,15.63,0h1.21A9,9,0,0,1,696.39,298.32Z" transform="translate(-373.72 -192.56)"/><path class="cls-7" d="M917,309.66a4.52,4.52,0,0,1-4.51-4.34,10.45,10.45,0,0,1-4.7-4.53l.88-.47a9.49,9.49,0,0,0,4.53,4.23l.31.13,0,.34v.13a3.51,3.51,0,0,0,7,0v-.47l.3-.13a9.42,9.42,0,0,0,3.14-15l-.17-.19.05-.24a7.33,7.33,0,0,0,.14-1.41,7,7,0,0,0-13.92,0,7.33,7.33,0,0,0,.14,1.41l-1,.19a7.76,7.76,0,0,1-.17-1.6,8,8,0,0,1,15.92,0,7.73,7.73,0,0,1-.12,1.36,10.4,10.4,0,0,1-3.33,16.24A4.52,4.52,0,0,1,917,309.66Z" transform="translate(-373.72 -192.56)"/><path class="cls-7" d="M907.81,300.79a11,11,0,0,1-.55-1.21l.94-.35a8.86,8.86,0,0,0,.49,1.09Zm-1-2.67a9.46,9.46,0,0,1-.21-1.51l1-.06a8.73,8.73,0,0,0,.19,1.36Zm.79-2.95-1-.08a10.87,10.87,0,0,1,.23-1.5l1,.22A10.39,10.39,0,0,0,907.63,295.17Zm.62-2.67-.93-.36a8.74,8.74,0,0,1,.66-1.38l.86.5A8.27,8.27,0,0,0,908.25,292.5Z" transform="translate(-373.72 -192.56)"/><polygon class="cls-7" points="546.08 130.47 540.68 130.47 541.94 118 542.93 118.1 541.78 129.47 544.98 129.47 543.88 118.1 544.87 118 546.08 130.47"/><path class="cls-7" d="M916.89,303.54a7.43,7.43,0,0,1-7.43-7.43h1a6.43,6.43,0,1,0,12.86,0h1A7.43,7.43,0,0,1,916.89,303.54Z" transform="translate(-373.72 -192.56)"/><path class="cls-7" d="M608.6,306.69a5.36,5.36,0,0,1-5.42-5.09,12.56,12.56,0,0,1-5.66-5.32l1.05-.57a11.26,11.26,0,0,0,5.44,5l.37.16v.4a.28.28,0,0,1,0,.09v.06a4.18,4.18,0,1,0,8.36-.1.13.13,0,0,1,0-.06.28.28,0,0,0,0-.09v-.4l.36-.17a11.2,11.2,0,0,0,3.52-17.85l-.21-.22.06-.3a9.34,9.34,0,0,0,.15-1.67,8.28,8.28,0,1,0-16.36,1.86l-1.16.25a9.29,9.29,0,0,1-.21-1.9,9.46,9.46,0,1,1,18.91-.22,8.67,8.67,0,0,1-.12,1.61,12.37,12.37,0,0,1-3.73,19.35A5.37,5.37,0,0,1,608.6,306.69Z" transform="translate(-373.72 -192.56)"/><path class="cls-7" d="M597.53,296.28a10.94,10.94,0,0,1-.67-1.43l1.11-.43a10.07,10.07,0,0,0,.6,1.29Zm-1.2-3.16a11.88,11.88,0,0,1-.26-1.79l1.18-.09a10.91,10.91,0,0,0,.24,1.62Zm.91-3.52-1.18-.08a12,12,0,0,1,.25-1.79l1.16.26A11,11,0,0,0,597.24,289.6Zm.69-3.18-1.11-.42a12.86,12.86,0,0,1,.77-1.64l1,.58A11.08,11.08,0,0,0,597.93,286.42Z" transform="translate(-373.72 -192.56)"/><polygon class="cls-7" points="238.37 129.98 231.95 130.05 233.27 115.22 234.45 115.32 233.25 128.85 237.05 128.81 235.59 115.31 236.76 115.18 238.37 129.98"/><path class="cls-7" d="M608.36,299.43a8.85,8.85,0,0,1-8.94-8.73l1.19,0a7.65,7.65,0,1,0,15.29-.18h1.19A8.85,8.85,0,0,1,608.36,299.43Z" transform="translate(-373.72 -192.56)"/><path class="cls-7" d="M887.35,309.48a4.54,4.54,0,0,1-4.53-4.37,10.54,10.54,0,0,1-4.74-4.55l.89-.47a9.51,9.51,0,0,0,4.56,4.25l.31.13,0,.34v.13a3.54,3.54,0,1,0,7.07,0s0,0,0-.05v-.42l.31-.13a9.48,9.48,0,0,0,3.15-15.07l-.17-.19.05-.25a7.49,7.49,0,0,0,.14-1.41,7,7,0,1,0-14,0,7.49,7.49,0,0,0,.14,1.41l-1,.2a7.92,7.92,0,0,1-.16-1.61,8,8,0,1,1,16,0,8.91,8.91,0,0,1-.11,1.36,10.46,10.46,0,0,1-3.36,16.33A4.53,4.53,0,0,1,887.35,309.48Z" transform="translate(-373.72 -192.56)"/><path class="cls-7" d="M878.08,300.56a11,11,0,0,1-.54-1.22l.94-.35a9.73,9.73,0,0,0,.49,1.1Zm-1-2.69a9.46,9.46,0,0,1-.21-1.51l1-.07a9,9,0,0,0,.19,1.37Zm.8-3-1-.08a10.78,10.78,0,0,1,.23-1.51l1,.22A8,8,0,0,0,877.91,294.91Zm.62-2.69-.94-.37a11.64,11.64,0,0,1,.66-1.38l.87.5A8.38,8.38,0,0,0,878.53,292.22Z" transform="translate(-373.72 -192.56)"/><polygon class="cls-7" points="516.43 130.36 511 130.36 512.26 117.82 513.26 117.92 512.1 129.36 515.32 129.36 514.22 117.92 515.21 117.82 516.43 130.36"/><path class="cls-7" d="M887.22,303.33a7.48,7.48,0,0,1-7.47-7.48h1a6.47,6.47,0,1,0,12.94,0h1A7.48,7.48,0,0,1,887.22,303.33Z" transform="translate(-373.72 -192.56)"/><path class="cls-7" d="M633.33,321H632v-20.2a14.37,14.37,0,0,1,14.35-14.35v1.3a13.07,13.07,0,0,0-13.06,13.05Z" transform="translate(-373.72 -192.56)"/><rect class="cls-7" x="257.29" y="79.48" width="31" height="1.29"/><path class="cls-7" d="M584.54,322.18h-1.29a4.8,4.8,0,0,1,4.08-4.74,5.42,5.42,0,0,1,9.5-4.44,3.25,3.25,0,0,1,4.86,2.81H600.4a2,2,0,0,0-3.28-1.44l-.56.52-.42-.64a4.12,4.12,0,0,0-7.6,2.21,4,4,0,0,0,.23,1.36l.31.89-.94,0h-.08A3.51,3.51,0,0,0,584.54,322.18Z" transform="translate(-373.72 -192.56)"/><rect class="cls-7" x="284.96" y="129.09" width="45.46" height="1.29"/><polygon class="cls-7" points="369.3 129.37 368.17 129.37 368.17 96.91 410.57 96.91 410.57 129.87 409.44 129.87 409.44 98.2 369.3 98.2 369.3 129.37"/><rect class="cls-7" x="334.29" y="101.93" width="1.29" height="16.5"/><polygon class="cls-7" points="345.3 116.2 344.01 116.2 344.01 66.32 352.66 66.32 352.66 113.93 351.37 113.93 351.37 67.61 345.3 67.61 345.3 116.2"/><polygon class="cls-7" points="360.18 115.74 358.89 115.74 358.89 66.32 367.54 66.32 367.54 95.82 366.25 95.82 366.25 67.61 360.18 67.61 360.18 115.74"/><path class="cls-7" d="M732.68,320.71h-1.29a6.27,6.27,0,0,0-1.13-3.6l-.44-.64.71-.32a2.73,2.73,0,0,0-1.12-5.22,2.7,2.7,0,0,0-1.85.72l-.56.52-.42-.65a5.56,5.56,0,0,0-10.24,3,5.45,5.45,0,0,0,.32,1.82l.31.89-.94,0h-.13a4.69,4.69,0,0,0-2.15.51l-.41.21-.33-.31a6.61,6.61,0,0,0-3-1.54l-.88-.2.47-.77a2,2,0,0,0-1.68-3,2,2,0,0,0-2,2,1.51,1.51,0,0,0,.05.42l.1.5-.45.22a1.64,1.64,0,0,0-.88,1.12l-1.26-.28a2.9,2.9,0,0,1,1.16-1.75,1.77,1.77,0,0,1,0-.23,3.27,3.27,0,1,1,6.53,0,3.08,3.08,0,0,1-.14.95,7.76,7.76,0,0,1,2.55,1.35,6.3,6.3,0,0,1,1.64-.43,6.84,6.84,0,0,1,12.07-5.67,3.9,3.9,0,0,1,2.14-.62A4,4,0,0,1,731.7,317,7.62,7.62,0,0,1,732.68,320.71Z" transform="translate(-373.72 -192.56)"/><path class="cls-7" d="M556.82,322.2h-1.29a6.27,6.27,0,0,0-1.13-3.6L554,318l.71-.32a2.73,2.73,0,0,0-1.12-5.22,2.68,2.68,0,0,0-1.84.72l-.57.52-.42-.65a5.55,5.55,0,0,0-9.92,4.81l.31.89-.94,0H540a4.74,4.74,0,0,0-2.15.52l-.4.21-.34-.31a6.51,6.51,0,0,0-3-1.54l-.88-.2.47-.77a2,2,0,0,0,.29-1,2,2,0,1,0-4,0,2,2,0,0,0,.05.42l.11.5-.46.22a1.64,1.64,0,0,0-.88,1.12l-.07.29-.25.14a4,4,0,0,0-2.42,3.43h-1.3a5.3,5.3,0,0,1,2.86-4.43,2.92,2.92,0,0,1,1.08-1.46,1.77,1.77,0,0,1,0-.23,3.27,3.27,0,1,1,6.54,0,3.41,3.41,0,0,1-.14.95,7.59,7.59,0,0,1,2.55,1.35,6.1,6.1,0,0,1,1.64-.43,6.27,6.27,0,0,1-.16-1.43,6.85,6.85,0,0,1,12.22-4.25,4,4,0,0,1,4.43,6.72A7.51,7.51,0,0,1,556.82,322.2Z" transform="translate(-373.72 -192.56)"/><rect class="cls-7" x="515.01" y="129.17" width="78.68" height="1.29"/><rect class="cls-7" x="7.53" y="128.71" width="94.69" height="1.29"/><rect class="cls-7" x="495.32" y="129.17" width="21.96" height="1.29"/><polygon class="cls-7" points="172.85 103.63 109.42 103.63 109.42 96.69 174.34 96.69 174.34 97.98 110.71 97.98 110.71 102.34 172.85 102.34 172.85 103.63"/><rect class="cls-7" x="112.12" y="102.99" width="1.29" height="26.41"/><polygon class="cls-7" points="487.34 54.5 486.05 54.5 486.05 44.39 467.83 44.39 467.83 43.09 487.34 43.09 487.34 54.5"/><polygon class="cls-7" points="498.63 126.72 497.34 126.72 497.34 55.15 471.94 55.15 471.94 53.86 498.63 53.86 498.63 126.72"/><rect class="cls-7" x="483.79" y="66.7" width="9.96" height="1.29"/><rect class="cls-7" x="483.79" y="89.67" width="9.96" height="1.29"/><rect class="cls-7" x="483.79" y="99.95" width="9.96" height="1.29"/><rect class="cls-7" x="483.79" y="109.05" width="9.96" height="1.29"/><rect class="cls-7" x="483.79" y="78.4" width="9.96" height="1.29"/><rect class="cls-7" x="87.4" y="75.51" width="9.96" height="1.29"/><rect class="cls-7" x="87.4" y="98.47" width="9.96" height="1.29"/><rect class="cls-7" x="87.4" y="108.76" width="9.96" height="1.29"/><rect class="cls-7" x="87.4" y="117.86" width="9.96" height="1.29"/><rect class="cls-7" x="87.4" y="87.2" width="9.96" height="1.29"/><rect class="cls-7" x="81.34" y="95.37" width="1.29" height="34.03"/><polygon class="cls-7" points="82.68 92.85 81.39 92.85 81.39 66.32 99.91 66.32 99.91 51.24 122.8 51.24 122.8 52.53 101.2 52.53 101.2 67.61 82.68 67.61 82.68 92.85"/><path class="cls-7" d="M661.37,321h1.29v-20.2a14.36,14.36,0,0,0-14.34-14.35v1.3a13.07,13.07,0,0,1,13,13.05Z" transform="translate(-373.72 -192.56)"/><path class="cls-7" d="M793.87,322.43h-1.2V309.55a13.42,13.42,0,0,1,13.4-13.41v1.21a12.21,12.21,0,0,0-12.2,12.2Z" transform="translate(-373.72 -192.56)"/><path class="cls-7" d="M820.07,322.43h1.2V309.55a13.42,13.42,0,0,0-13.4-13.41v1.21a12.22,12.22,0,0,1,12.2,12.2Z" transform="translate(-373.72 -192.56)"/><polyline class="cls-7" points="410.93 95.68 410.93 90.88 451.6 90.88 451.6 99.7 437.98 99.7 437.98 100.99 452.89 100.99 452.89 89.59 409.63 89.59 409.63 95.68"/><polyline class="cls-7" points="299.23 58.17 330.45 58.17 330.45 56.87 298.23 56.87"/><rect class="cls-8" x="180.26" y="8.61" width="22.21" height="71.62"/><polygon class="cls-9" points="186.79 62.16 187.79 62.16 187.79 65.06 189.05 65.06 189.05 66.02 187.82 66.02 187.81 70.57 188.8 69.89 189.44 70.63 185.9 72.59 185.29 71.75 186.77 71.1 186.78 66.03 185.41 66.03 185.41 65.07 186.78 65.07 186.79 62.16"/><polygon class="cls-9" points="197.13 63.3 197.13 69.79 194.63 69.79 194.58 68.86 196.16 68.86 196.16 64.8 193.93 65.72 193.93 70.84 192.91 70.84 192.91 66.13 191.08 66.91 191.08 72.4 196.34 72.4 196.34 70.47 197.34 70.69 197.34 73.39 190.08 73.39 190.08 67.34 188.97 67.75 188.47 66.88 190.05 66.22 190.05 63.12 191.08 63.12 191.08 65.8 192.9 65.04 192.9 62.04 193.94 62.04 193.94 64.61 197.13 63.3"/><polygon class="cls-9" points="187.59 55.5 190.38 55.5 190.38 54.58 191.37 54.58 191.37 55.5 194.12 55.5 194.12 56.33 191.39 56.33 191.39 57.62 196.5 57.62 196.5 58.45 185.29 58.45 185.29 57.65 190.34 57.65 190.34 56.33 187.57 56.33 187.59 55.5"/><path class="cls-9" d="M559.43,240.42h1.94v-.72h1v.72h5.44v-.72h1v.72h2v.84h-2v4.34h2.32v.88h-3l3.06,1.89-.64.78-3.65-2.67h-3.81l-3.5,2.6-.61-.79,2.8-1.81H559.1v-.86h2.26v-4.36h-1.94Zm8.38.84h-5.42v.92h5.42Zm0,1.7h-5.42v1h5.42Zm0,1.72h-5.42v.92h5.42Z" transform="translate(-373.72 -192.56)"/><polygon class="cls-2" points="196.06 32.13 197.08 32.13 197.08 43.6 193.93 43.33 193.93 42.34 196.06 42.62 196.06 32.13"/><rect class="cls-2" x="193.82" y="33" width="0.99" height="7.64"/><polygon class="cls-2" points="185.29 33.8 189.34 31.9 193.16 33.45 192.75 34.31 189.36 32.89 185.74 34.67 185.29 33.8"/><rect class="cls-2" x="187.36" y="34.22" width="4.15" height="0.83"/><path class="cls-2" d="M559.75,228.3h6.61v3.91h-5.69l-.71,3.85-1-.38.74-3.47Zm.93,1.52h4.78v-.74h-4.78Zm0,1.56h4.78v-.73h-4.78Z" transform="translate(-373.72 -192.56)"/><path class="cls-2" d="M561.08,232.93h5.17v3.16h-5.17Zm.9,2.37h3.37v-1.57H562Z" transform="translate(-373.72 -192.56)"/><polygon class="cls-9" points="185.66 17.36 188.14 17.36 188.14 16.45 189.17 16.45 189.17 17.36 191.5 17.36 191.5 18.26 185.66 18.26 185.66 17.36"/><polygon class="cls-9" points="186.41 19.07 187.23 18.7 187.96 20.2 187.09 20.52 186.41 19.07"/><polygon class="cls-9" points="189.91 18.76 190.78 19.05 190.16 20.75 191.55 20.75 191.55 21.62 189.03 21.62 189.03 22.7 191.55 22.7 191.55 23.55 189.13 23.55 191.22 25.49 190.55 26.14 189.03 24.56 189.03 28.1 188.08 28.1 188.08 24.66 186.1 27.03 185.29 26.55 187.85 23.56 185.46 23.53 185.46 22.69 188.06 22.72 188.07 21.62 185.52 21.62 185.52 20.77 189.14 20.78 189.91 18.76"/><polygon class="cls-9" points="192.35 17.01 196.97 16.59 197.32 17.47 193.31 17.96 193.31 20.06 197.41 20.06 197.41 20.99 196.1 20.99 196.1 28.1 195.15 28.1 195.15 20.99 193.31 20.99 193.19 24.09 191.27 27.97 190.43 27.28 192.24 24.11 192.35 17.01"/><path class="cls-10" d="M407.7,268.43v0Z" transform="translate(-373.72 -192.56)"/><path class="cls-10" d="M407.81,269.79v0l.21,0-.21,0Z" transform="translate(-373.72 -192.56)"/><path class="cls-10" d="M407.73,268.85q0-.18,0-.39Q407.72,268.67,407.73,268.85Z" transform="translate(-373.72 -192.56)"/><path class="cls-10" d="M407.74,269v0Z" transform="translate(-373.72 -192.56)"/><path class="cls-10" d="M415.18,268c1,0,2,.06,3.06.13C417.22,268,416.2,268,415.18,268Z" transform="translate(-373.72 -192.56)"/><path class="cls-10" d="M407.75,269.1v0Z" transform="translate(-373.72 -192.56)"/><path class="cls-10" d="M433.17,265.11a6.17,6.17,0,0,0,1-1.09h0A6.17,6.17,0,0,1,433.17,265.11Z" transform="translate(-373.72 -192.56)"/><path class="cls-10" d="M407.8,269.73v0Z" transform="translate(-373.72 -192.56)"/><path class="cls-10" d="M407.81,269.78v0Z" transform="translate(-373.72 -192.56)"/><path class="cls-10" d="M407.8,269.67c0-.05,0-.09,0-.15S407.79,269.62,407.8,269.67Z" transform="translate(-373.72 -192.56)"/><path class="cls-10" d="M432.9,265.33a6.68,6.68,0,0,1-.87.55A6.68,6.68,0,0,0,432.9,265.33Z" transform="translate(-373.72 -192.56)"/><path class="cls-10" d="M407.78,269.51v0Z" transform="translate(-373.72 -192.56)"/><path class="cls-10" d="M407.76,269.22v0Z" transform="translate(-373.72 -192.56)"/><path class="cls-10" d="M407.77,269.42v0Z" transform="translate(-373.72 -192.56)"/><path class="cls-10" d="M407.77,269.32v0Z" transform="translate(-373.72 -192.56)"/><path class="cls-11" d="M411.46,317.22v0Z" transform="translate(-373.72 -192.56)"/><path class="cls-11" d="M411.44,316.92a1.93,1.93,0,0,1,0,.24A1.93,1.93,0,0,0,411.44,316.92Z" transform="translate(-373.72 -192.56)"/><path class="cls-11" d="M411.47,317.51l0,.21Z" transform="translate(-373.72 -192.56)"/><path class="cls-11" d="M411.49,317.78v0Z" transform="translate(-373.72 -192.56)"/><path class="cls-11" d="M411.51,318.06v0Z" transform="translate(-373.72 -192.56)"/><path class="cls-11" d="M411.36,315.71l0,.27A2.45,2.45,0,0,0,411.36,315.71Z" transform="translate(-373.72 -192.56)"/><path class="cls-11" d="M411.38,316l0,.26Z" transform="translate(-373.72 -192.56)"/><path class="cls-11" d="M411.42,316.63l0,.25Z" transform="translate(-373.72 -192.56)"/><path class="cls-11" d="M411.4,316.33c0,.08,0,.17,0,.26C411.41,316.5,411.41,316.41,411.4,316.33Z" transform="translate(-373.72 -192.56)"/><path class="cls-11" d="M407.94,321.18h0Z" transform="translate(-373.72 -192.56)"/><path class="cls-11" d="M407.67,321.05l0,0Z" transform="translate(-373.72 -192.56)"/><path class="cls-11" d="M407.61,321l0,0Z" transform="translate(-373.72 -192.56)"/><path class="cls-11" d="M407.74,321.1l0,0Z" transform="translate(-373.72 -192.56)"/><path class="cls-11" d="M407.56,321l0,0Z" transform="translate(-373.72 -192.56)"/><path class="cls-11" d="M408.27,321.24h0l.81.06-.81-.06Z" transform="translate(-373.72 -192.56)"/><path class="cls-11" d="M407.85,321.15h0Z" transform="translate(-373.72 -192.56)"/><path class="cls-11" d="M407.4,320.63a.09.09,0,0,1,0-.05A.09.09,0,0,0,407.4,320.63Z" transform="translate(-373.72 -192.56)"/><path class="cls-11" d="M407.38,320.55s0,0,0-.06S407.38,320.53,407.38,320.55Z" transform="translate(-373.72 -192.56)"/><path class="cls-11" d="M407.45,320.79s0,0,0-.05S407.45,320.77,407.45,320.79Z" transform="translate(-373.72 -192.56)"/><path class="cls-11" d="M407.51,320.89l-.06-.1Z" transform="translate(-373.72 -192.56)"/><path class="cls-11" d="M407.42,320.71a.43.43,0,0,1,0,0A.43.43,0,0,0,407.42,320.71Z" transform="translate(-373.72 -192.56)"/><path class="cls-11" d="M409.92,321.26a4.37,4.37,0,0,0,.5-.09l.27-.06-.27.06A4.37,4.37,0,0,1,409.92,321.26Z" transform="translate(-373.72 -192.56)"/><path class="cls-11" d="M410.88,321.07l-.14,0Z" transform="translate(-373.72 -192.56)"/><path class="cls-11" d="M411.57,319.28v0Z" transform="translate(-373.72 -192.56)"/><path class="cls-11" d="M411.55,319v0Z" transform="translate(-373.72 -192.56)"/><path class="cls-11" d="M407.29,301.73c-.09,3,.09,16.3.06,18.43a3.25,3.25,0,0,0,0,.33,8.39,8.39,0,0,0,1.88-1.39,8.76,8.76,0,0,0,2.11-3.42c-.33-5.21-.93-12.56-1.13-14.13,0-.29,0-.65-.32-.8a2,2,0,0,0-1.73,0C407.7,300.93,407.31,301.2,407.29,301.73Z" transform="translate(-373.72 -192.56)"/><path class="cls-11" d="M411.53,318.57v0Z" transform="translate(-373.72 -192.56)"/><path class="cls-11" d="M411.54,318.8v0Z" transform="translate(-373.72 -192.56)"/><path class="cls-11" d="M411.52,318.31v0Z" transform="translate(-373.72 -192.56)"/><path class="cls-11" d="M411.49,320.75a1.83,1.83,0,0,0,.09-1c0-.11,0-.21,0-.33,0,.12,0,.22,0,.33A1.83,1.83,0,0,1,411.49,320.75Z" transform="translate(-373.72 -192.56)"/><path class="cls-11" d="M408,321.21h0Z" transform="translate(-373.72 -192.56)"/><path class="cls-11" d="M408.15,321.23h0Z" transform="translate(-373.72 -192.56)"/><path class="cls-11" d="M409.35,321.3h0Z" transform="translate(-373.72 -192.56)"/><path class="cls-9" d="M409,274.77a2,2,0,0,0-1.2-1c.05,1.35.11,3,.19,4.79.21-.4.42-.8.62-1.23A2.94,2.94,0,0,0,409,274.77Z" transform="translate(-373.72 -192.56)"/><path class="cls-9" d="M406.6,273.78a3.38,3.38,0,0,0-1.68,1.44,49.29,49.29,0,0,1-3.79,4.5,2.68,2.68,0,0,1-.89.67,16,16,0,0,1-7.36,1.59c-.07,0-.34,0-.57.06a5.7,5.7,0,0,1-2.15.31h-.22c-3.64.9-5.06,1.92-5.69,2.62a45.61,45.61,0,0,0-6.17,7.81c-.59,1-.58,1.08.15,2a70.23,70.23,0,0,0,6.77,5.92c.24.16,2.29,1.24,3.12-.59.66-1.16.2-1.84-.84-2.64-.67-.52-1.39-1-2.07-1.49a2.89,2.89,0,0,1-1-3.65,6.7,6.7,0,0,1,1.51-1.72c.32-.25.86-.16.94.21a25.74,25.74,0,0,1,.38,5.78l.61.43a2.62,2.62,0,0,1-.14,4.58c0,.94.06,3.8.06,4.48,0,4.31-.11,8.62-.14,12.93,0,1.53.57,2.24,1.83,2.53a1.86,1.86,0,0,0,1.65-.41c.95-.93.92-2.1,1-3.37.28-3.53.27-7.07.48-10.61a13,13,0,0,1,.12-1.4c.09-.51.24-1.1.85-1.13a1.24,1.24,0,0,1,1.39.74c.95,2.81,2,12.22,2.38,13.88.26,1.22.78,1.78,2,1.9a1.7,1.7,0,0,0,2-1.32,8.2,8.2,0,0,0,0-1.4c-.13-2.3-.56-4.57-.78-6.86-.4-4.12-.7-8.25-1.18-12.35a80.65,80.65,0,0,1-.67-9.44c0-.47,0-.94.05-1.4a2,2,0,0,1,.74-1.38c1.55-1,2.68-1.49,4.38-2.61a3.92,3.92,0,0,0,1.37-1.22c.83-1.24,1.64-2.41,2.37-3.64-.09-2.28-.18-4.35-.24-5.88A1.69,1.69,0,0,0,406.6,273.78Z" transform="translate(-373.72 -192.56)"/><path class="cls-9" d="M389.93,282.36h0Z" transform="translate(-373.72 -192.56)"/><path class="cls-9" d="M392.52,281.1c-.89.25-1.82.4-2.78.58l.62.07A5.18,5.18,0,0,0,393,281Z" transform="translate(-373.72 -192.56)"/><path class="cls-9" d="M407.35,285.74a1.48,1.48,0,0,0,.36,1.07c0-.59,0-1.19-.07-1.79A1.79,1.79,0,0,0,407.35,285.74Z" transform="translate(-373.72 -192.56)"/><path class="cls-12" d="M407.37,320.49h0s0,0,0,.06v0a.09.09,0,0,0,0,.05v0a.43.43,0,0,0,0,0v0s0,0,0,.05h0l.06.1,0,0,0,0,0,0,0,0,0,0,0,0,0,0,0,0,.08,0h0l0,0h0l.06,0h.27l.81.06h.27l.57,0a4.37,4.37,0,0,0,.5-.09l.27-.06h.05l.14,0,.33-.1.09-.05a.52.52,0,0,0,.19-.17,1.83,1.83,0,0,0,.09-1c0-.11,0-.21,0-.33v-1.74l0-.21v-.35a1.93,1.93,0,0,0,0-.24v0l0-.25v0c0-.09,0-.18,0-.26v-.05l0-.26v0l0-.27v0a8.76,8.76,0,0,1-2.11,3.42A8.39,8.39,0,0,1,407.37,320.49Z" transform="translate(-373.72 -192.56)"/><path class="cls-9" d="M437.1,285a12.33,12.33,0,0,0-5.39-3.11,6.21,6.21,0,0,1-.61-.2.55.55,0,0,1-.2-.11,5.88,5.88,0,0,1-2.62.5,4.27,4.27,0,0,1-1.46-.17c-.37.08-.88.18-1.59.3-1.88.33-4.26,1.75-5.27,2.1s-1.84.66-2.74,1c-.31.13-6.23-1.47-6.91-1.54a3.32,3.32,0,0,0-2.11.63c0,1,.08,2,.12,3a6.63,6.63,0,0,0,.59.45c1.08.72,5.91,1.31,6.73,1.52,2,.52,3.13,0,5.17-.47,1.15-.27,1.76.3,1.79,1.5a2.09,2.09,0,0,1,0,.25c-.19,2.43-.37,4.85-.57,7.28-.34,4.12-1,8.21-1.24,12.34-.16,2.51-.54,5-.76,7.51-.13,1.56.27,2.56,1.83,2.76a2.27,2.27,0,0,0,1.84-.57,3.89,3.89,0,0,0,.7-1.9c.51-4.06,1-8.12,1.89-12.13a8.24,8.24,0,0,1,.86-2.79c.16-.26.33-.53.68-.52s.57.35.67.68a6.35,6.35,0,0,1,.27,1.89c.12,3.54.48,12.84.81,13.9a2.41,2.41,0,0,0,3.85.89c.88-.47.8-2.64.8-3.73,0-4.31-.16-10.43-.16-14.75a4.83,4.83,0,0,1,0-.85,2.77,2.77,0,0,1-1.11-1,2,2,0,0,1,0-2.66l1-1a32.66,32.66,0,0,1-.23-3.79c-.14-1,.08-1.91,0-3a11,11,0,0,1,3.51,2.4c.65.64.62,1,0,1.77-1,1.33-2.27,2.42-3.4,3.64a1.78,1.78,0,0,0-.42,2.37c.56.9,1.94.9,2.91.61s4.3-4,5.31-5.34a6.48,6.48,0,0,0,.7-1.36,2.28,2.28,0,0,0-.24-2.18A45.93,45.93,0,0,0,437.1,285Z" transform="translate(-373.72 -192.56)"/><path class="cls-9" d="M433.4,276.48a4.93,4.93,0,0,0-9.85,0c0,2.48,1.17,4.63,4.93,5A4.77,4.77,0,0,0,433.4,276.48Z" transform="translate(-373.72 -192.56)"/><path class="cls-13" d="M443,291.46c-.54-.86-1.12-1.71-1.74-2.51-1.35-1.76-2.88-3.37-4.35-5-1.14-1.27-3.61-2.24-5.31-2.77a4,4,0,0,0,.35-.26l-.72-.24h0a5.2,5.2,0,0,1-2.78.8,9.46,9.46,0,0,1-1.33-.22c-.54,0-1.09,0-1.64,0l-.13,0h-.07c.2.13.4.25.61.36a17.28,17.28,0,0,0-2.4.6c-1.67.64-4,1.58-5.63,2.35-.87.35-2.92-.16-5.68-.9a5.74,5.74,0,0,0-3.86-.06l-.18.08c-.06-1.35-.11-2.7-.16-4a18.53,18.53,0,0,0,1.19-2.18,3.7,3.7,0,0,0,.55-2.33,2.54,2.54,0,0,0-2-2c0-.74-.05-1.38-.07-1.86a3.11,3.11,0,0,1,1-.76,9.93,9.93,0,0,1,4.73-1.79,25.13,25.13,0,0,1,6.25.13c3.69.54,7.27.44,10.72-1.28a14,14,0,0,0,5.48-4.24,6.2,6.2,0,0,1-5-1.38c1.39-1.89,2.21-4.1,3.53-6.2a2.36,2.36,0,0,0-1.41.6,13.63,13.63,0,0,1-7.88,2.17c-2.55-.11-5.09-.48-7.65-.44a17.89,17.89,0,0,0-9.08,2.19c-1,.58-1,.57-1.31-.47a2.78,2.78,0,0,0-.18-.48c-.14-.23-.34-.43-.62-.29s-.19.36-.09.57a3.56,3.56,0,0,1,.41,1.2c.15,1.8.52,8.67.51,10.21,0,0,0,.82.09,2.12l-.15,0a3.26,3.26,0,0,0-1.55.72,23.1,23.1,0,0,0-2.38,2.84c-1.51,2-3.07,3.75-5.71,4.1-.51.06-2.43.48-3.76.63a4.61,4.61,0,0,0,.77-.63q-.66.15-1.32.24a5.18,5.18,0,0,1-2.67.73l-.62-.07c-.38.07-.78.14-1.18.23a1.53,1.53,0,0,1-.52,0,4,4,0,0,0,.73.26,12.27,12.27,0,0,0-3.85,1.49,14.55,14.55,0,0,0-3,3.1,47.08,47.08,0,0,0-4.32,5.54,2.17,2.17,0,0,0,.14,3c3.1,2.82,4.11,4,7.09,6a3.32,3.32,0,0,0,2.11.51c0,1.61.07,9.34,0,11.89-.08,2-.09,4-.09,6a3,3,0,0,0,3.55,2.43,2.92,2.92,0,0,0,2.1-2.73c.17-2,.34-10.52.67-12.77.06-.4,0-1.12.47-1.31.24,0,.7,0,.75.62.43,1.43,1.76,9.55,2.15,13.37a2.4,2.4,0,0,0,1.9,2.34,2.75,2.75,0,0,0,3.05-.8,3,3,0,0,0,.42-2.21c-.23-1.95-.5-3.89-.73-5.84-.64-5.55-1-11.12-1.72-16.66a50.75,50.75,0,0,1-.34-6.64c0-1-.08-1.55.64-2.16,1.59-.9,3.23-1.9,4.65-2.67a4.19,4.19,0,0,0,1.17-1.2,35,35,0,0,1,1.91-3c.05,1.14.1,2.31.15,3.5a2.38,2.38,0,0,0-.39,3.1,4.25,4.25,0,0,0,.55.7c.22,5.13.4,9.6.41,10.22,0,1.08,0,1.92,0,1.92-1.35.74-1.41,1.22-1.41,1.72,0,2.82-.1,7.31-.07,10.12v8.82c0,1.07.13,1.16,1.15,1.22a24.23,24.23,0,0,0,3.3-.14c1.19-.09,1.25-.13,1.19-1.38-.11-2.25-1.15-15.92-1.47-18.85-.12-1.05-.34-1.23-1.31-1.46-.59-.13-.59-.25-.67-.86-.06-.45-.27-5.25-.5-10.83a4.75,4.75,0,0,0,1.74.72c1.5.32,4.61.77,6.11,1.07,2,.4,2.5,0,4.54-.45.93-.21,1.22.1,1.18,1.12-.08,1.88-.14,3.76-.34,5.62-.5,4.79-1.06,9.58-1.49,14.38-.22,2.42-.51,4.84-.76,7.26a4.67,4.67,0,0,0,.16,1.66c.51,1.4,2.64,1.88,4,1.19a2.72,2.72,0,0,0,1.52-2.21c.42-3,.61-6.11,1.24-9.13.34-1.66.55-3.36,1-5,.09-.32.15-.65.62-.73a5,5,0,0,1,.3,2c.13,4,.56,12.82.69,13.28a2.82,2.82,0,0,0,2.84,2.13,3,3,0,0,0,2.84-1.92,8.42,8.42,0,0,0,.34-2.91c0-3.45-.22-6.91-.27-10.36,0-1.11,0-4-.06-5.14v0a3.32,3.32,0,0,0,1.15-.06,5.14,5.14,0,0,0,2.53-1.38c1.8-1.81,3.14-2.9,4.41-5.16C443.12,293.47,443.5,292.2,443,291.46Zm-38-8.25a3.92,3.92,0,0,1-1.37,1.22c-1.7,1.12-2.83,1.59-4.38,2.61a2,2,0,0,0-.74,1.38c0,.46-.05.93-.05,1.4a80.65,80.65,0,0,0,.67,9.44c.48,4.1.78,8.23,1.18,12.35.22,2.29.65,4.56.78,6.86a8.2,8.2,0,0,1,0,1.4,1.7,1.7,0,0,1-2,1.32c-1.2-.12-1.72-.68-2-1.9-.35-1.66-1.43-11.07-2.38-13.88a1.24,1.24,0,0,0-1.39-.74c-.61,0-.76.62-.85,1.13a13,13,0,0,0-.12,1.4c-.21,3.54-.2,7.08-.48,10.61-.1,1.27-.07,2.44-1,3.37a1.86,1.86,0,0,1-1.65.41c-1.26-.29-1.84-1-1.83-2.53,0-4.31.1-8.62.14-12.93,0-.68,0-3.54-.06-4.48a2.62,2.62,0,0,0,.14-4.58l-.61-.43a25.74,25.74,0,0,0-.38-5.78c-.08-.37-.62-.46-.94-.21a6.7,6.7,0,0,0-1.51,1.72,2.89,2.89,0,0,0,1,3.65c.68.51,1.4,1,2.07,1.49,1,.8,1.5,1.48.84,2.64-.83,1.83-2.88.75-3.12.59a70.23,70.23,0,0,1-6.77-5.92c-.73-.95-.74-1-.15-2a45.61,45.61,0,0,1,6.17-7.81c.63-.7,2.05-1.72,5.69-2.62h.22a5.7,5.7,0,0,0,2.15-.31c.23,0,.5,0,.57-.06a16,16,0,0,0,7.36-1.59,2.68,2.68,0,0,0,.89-.67,49.29,49.29,0,0,0,3.79-4.5,3.38,3.38,0,0,1,1.68-1.44,1.69,1.69,0,0,1,.56-.09c.06,1.53.15,3.6.24,5.88C406.67,280.8,405.86,282,405,283.21Zm-18.39,13.12-.73-.56c-1.53-1.24-2-2.68.34-4.54C386.55,292,386.43,294.87,386.64,296.33Zm20.67-34.1c0-.47.06-.49.55-.84a15.37,15.37,0,0,1,9.16-2.68c3-.07,5.87.28,8.81.43a13.12,13.12,0,0,0,4.25-.76c.69-.2,1.49-.59,2.4-.9a9.82,9.82,0,0,1-2.34,4c-.62.67-.6.74.25,1.13A16,16,0,0,0,434.1,264h.07a6.17,6.17,0,0,1-1,1.09l-.27.22a6.68,6.68,0,0,1-.87.55c-1.25.65-2.53,1.25-3.82,1.81a10.24,10.24,0,0,1-3.64.78q-.75,0-1.5,0l-.75,0c-1.36-.09-2.72-.22-4.08-.32-1-.07-2-.13-3.06-.13h-1a11.52,11.52,0,0,0-5.45,1.6,1.34,1.34,0,0,1-.68.28l-.21,0v0h0v0h0v-.05h0c0-.05,0-.09,0-.15h0v-.28h0v-.11h0v-.25q0-.18,0-.39v-.18C407.55,266.42,407.37,263.47,407.31,262.23Zm0,23.51a1.79,1.79,0,0,1,.29-.72c0,.6.05,1.2.07,1.79A1.48,1.48,0,0,1,407.35,285.74Zm.43-11.95a2,2,0,0,1,1.2,1,2.94,2.94,0,0,1-.39,2.58c-.2.43-.41.83-.62,1.23C407.89,276.79,407.83,275.14,407.78,273.79Zm2.13,27c.29.15.28.51.32.8.2,1.57.8,8.92,1.13,14.13v0l0,.27v0l0,.26v.05c0,.08,0,.17,0,.26v0l0,.25v0a1.93,1.93,0,0,1,0,.24v.35l0,.21v1.74c0,.12,0,.22,0,.33a1.83,1.83,0,0,1-.09,1,.52.52,0,0,1-.19.17l-.09.05-.33.1-.14,0h-.05l-.27.06a4.37,4.37,0,0,1-.5.09l-.57,0h-.27l-.81-.06H408l-.06,0h0l0,0h0l-.08,0,0,0,0,0,0,0,0,0,0,0,0,0,0,0,0,0-.06-.1h0s0,0,0-.05v0a.43.43,0,0,1,0,0v0a.09.09,0,0,1,0-.05v0s0,0,0-.06h0a3.25,3.25,0,0,1,0-.33c0-2.13-.15-15.4-.06-18.43,0-.53.41-.8.89-1A2,2,0,0,1,409.91,300.75Zm32.48-7.35a6.48,6.48,0,0,1-.7,1.36c-1,1.38-4.36,5.05-5.31,5.34s-2.35.29-2.91-.61a1.78,1.78,0,0,1,.42-2.37c1.13-1.22,2.39-2.31,3.4-3.64.59-.76.62-1.13,0-1.77a11,11,0,0,0-3.51-2.4c.05,1.06-.17,2,0,3a32.66,32.66,0,0,0,.23,3.79l-1,1a2,2,0,0,0,0,2.66,2.77,2.77,0,0,0,1.11,1,4.83,4.83,0,0,0,0,.85c0,4.32.12,10.44.16,14.75,0,1.09.08,3.26-.8,3.73a2.41,2.41,0,0,1-3.85-.89c-.33-1.06-.69-10.36-.81-13.9a6.35,6.35,0,0,0-.27-1.89c-.1-.33-.25-.66-.67-.68s-.52.26-.68.52a8.24,8.24,0,0,0-.86,2.79c-.86,4-1.38,8.07-1.89,12.13a3.89,3.89,0,0,1-.7,1.9,2.27,2.27,0,0,1-1.84.57c-1.56-.2-2-1.2-1.83-2.76.22-2.5.6-5,.76-7.51.26-4.13.9-8.22,1.24-12.34.21-2.43.38-4.85.57-7.28a2.09,2.09,0,0,0,0-.25c0-1.2-.64-1.77-1.79-1.5-2,.49-3.14,1-5.17.47-.82-.21-5.65-.8-6.73-1.52a6.63,6.63,0,0,1-.59-.45c0-1-.08-2-.12-3a3.32,3.32,0,0,1,2.11-.63c.68.07,6.6,1.67,6.91,1.54.9-.38,1.81-.72,2.74-1s3.39-1.77,5.27-2.1c.71-.12,1.22-.22,1.59-.3a4.27,4.27,0,0,0,1.46.17,5.88,5.88,0,0,0,2.62-.5.55.55,0,0,0,.2.11,6.21,6.21,0,0,0,.61.2A12.33,12.33,0,0,1,437.1,285a45.93,45.93,0,0,1,5,6.24A2.28,2.28,0,0,1,442.39,293.4Zm-8.18-1.85a9.53,9.53,0,0,1,0-1.15c.37-.2,1.62.78,1.79.9,1.64,1.11,1.46,1.25.09,2.67-.57.59-1.16,1.17-1.75,1.75C434.32,294.67,434.33,292.55,434.21,291.55Z" transform="translate(-373.72 -192.56)"/><path class="cls-14" d="M389.93,282.36h0Z" transform="translate(-373.72 -192.56)"/><path class="cls-14" d="M445.28,291.74c-.14.87.41,1.71-.1,2.5a27.32,27.32,0,0,1-1.89,2.05C445.64,295.55,446.81,293.23,445.28,291.74Z" transform="translate(-373.72 -192.56)"/><path class="cls-14" d="M375.11,291.14c-.54-.31-.67.45-.87.81a2.79,2.79,0,0,0,.36,3.67c-.45-2-.42-2.13.18-3.39C375,291.87,375.54,291.39,375.11,291.14Z" transform="translate(-373.72 -192.56)"/><path class="cls-14" d="M434.84,320.44c-.21,0-.46,0-.43.31s.26.3.47.31h3.4v-.28A8.55,8.55,0,0,0,434.84,320.44Z" transform="translate(-373.72 -192.56)"/><path class="cls-14" d="M417.19,320.9a.31.31,0,0,0,.25.38,3,3,0,0,0,2.42-.39c-.77-.09-1.54-.18-2.31-.25A.3.3,0,0,0,417.19,320.9Z" transform="translate(-373.72 -192.56)"/><path class="cls-14" d="M394.64,321.31a.29.29,0,0,0-.35.28c0,.23.1.45.35.43a7,7,0,0,0,2.56-.41C396.48,321.15,395.27,321.4,394.64,321.31Z" transform="translate(-373.72 -192.56)"/><path class="cls-14" d="M383.78,321.68c0,.25.16.36.37.43a5.94,5.94,0,0,0,3.24-.32c-.76-.19-2.52-.2-3.12-.34C384.05,321.4,383.82,321.41,383.78,321.68Z" transform="translate(-373.72 -192.56)"/><path class="cls-15" d="M389.73,267.28a7.44,7.44,0,1,0,7.46,7.41A7.44,7.44,0,0,0,389.73,267.28Z" transform="translate(-373.72 -192.56)"/><path class="cls-13" d="M387,273.36a2.45,2.45,0,0,0-.23,1.69c.43,1.47,2.17,1.89,2.51,3.1.25.92.28,1.27,1,1.12.52-.12.63-.12.42-1.47-.18-1.13,1.64-2.31,1.15-4.19C391.22,271.32,387.78,272,387,273.36Z" transform="translate(-373.72 -192.56)"/><polygon class="cls-16" points="10.22 76.84 7.28 75.26 7.83 74.45 10.42 76.52 10.22 76.84"/><polygon class="cls-16" points="11.65 75.15 11.94 71.67 13.03 71.8 12 75.12 11.65 75.15"/><polygon class="cls-16" points="10.74 75.91 8.55 72.41 9.48 71.75 11.14 75.56 10.74 75.91"/><path class="cls-15" d="M427.46,266.81a7.44,7.44,0,1,1-7.46,7.41A7.42,7.42,0,0,1,427.46,266.81Z" transform="translate(-373.72 -192.56)"/><path class="cls-13" d="M430.2,272.89a2.47,2.47,0,0,1,.23,1.7c-.44,1.46-2.17,1.88-2.51,3.09-.26.92-.28,1.27-1,1.12-.52-.11-.63-.12-.42-1.47.17-1.13-1.64-2.31-1.16-4.19C426,270.86,429.41,271.51,430.2,272.89Z" transform="translate(-373.72 -192.56)"/><polygon class="cls-16" points="59.53 76.37 62.47 74.8 61.92 73.98 59.34 76.05 59.53 76.37"/><polygon class="cls-16" points="58.1 74.68 57.82 71.2 56.72 71.33 57.76 74.65 58.1 74.68"/><polygon class="cls-16" points="59.02 75.44 61.21 71.94 60.27 71.28 58.62 75.09 59.02 75.44"/><path class="cls-17" d="M407.66,262.11c0-.47.06-.49.55-.84a15.37,15.37,0,0,1,9.16-2.68c2.95-.07,5.88.28,8.81.43a13.12,13.12,0,0,0,4.25-.76c.69-.2,1.49-.59,2.4-.9a9.82,9.82,0,0,1-2.34,4c-.62.67-.6.74.25,1.13a15.88,15.88,0,0,0,3.72,1.43h.07a6.58,6.58,0,0,1-1,1.09l-.28.22a7.09,7.09,0,0,1-.87.55c-1.25.65-2.52,1.25-3.81,1.81a10.34,10.34,0,0,1-3.65.78q-.75,0-1.5,0l-.75,0c-1.36-.09-2.71-.22-4.07-.32-1-.07-2-.13-3.07-.13-.34,0-.68,0-1,0a11.52,11.52,0,0,0-5.45,1.6,1.3,1.3,0,0,1-.67.28.52.52,0,0,1-.21,0v0h0v0h0v-.05h0c0-.05,0-.1,0-.15h0v-.28h0V269h0v-.25c0-.12,0-.25,0-.4v-.17C407.9,266.3,407.72,263.35,407.66,262.11Z" transform="translate(-373.72 -192.56)"/></svg>