<svg id="圖層_1" data-name="圖層 1" xmlns="http://www.w3.org/2000/svg" viewBox="0 0 102.83 118.94"><defs><style>.cls-1{fill:#fff;}</style></defs><path class="cls-1" d="M44.53,7.06,4.7,23.06v6.27L7,28.5V126H68.8V93.33l14.51,1V126h20.57V28l3.65.83v-6.3ZM21.24,31.86l6.66-2.19v15l-6.66,1.84ZM16.7,110.61l-6.16.3V95.49l6.16-.65Zm0-32.06-6.16,1V65.44L16.7,64.1Zm0-30.74-6.16,1.71V35.39l6.16-2Zm4.54,15.3,6.66-1.45v15l-6.66,1.1Zm6.72,47-6.67.32v-16L28,93.64Zm12.09-.59-7.23.35V93.13l7.23-.77Zm0-34.78-7.23,1.19V60.59L40.05,59Zm0-33.35-7.23,2V28.05l7.23-2.39Zm23,68.39-11.44-.36V92.16l11.44.78Zm0-34.13L51.61,74.38V58.62l11.44,1.59Zm0-32.73-11.44-2V25.07l11.44,2.41ZM81.38,77.53,70.85,76.42V61.3l10.53,1.46Zm0-31.42L70.85,44.25V29.12l10.53,2.22ZM98.3,110.83l-9.73-.31V94.67l9.73.66Zm0-31.51-9.73-1V63.77l9.73,1.35Zm0-30.21-9.73-1.73V32.86l9.73,2Z" transform="translate(-4.7 -7.06)"/></svg>