<svg id="圖層_1" data-name="圖層 1" xmlns="http://www.w3.org/2000/svg" viewBox="0 0 50 50"><defs><style>.cls-1{fill:#0bacc9;}.cls-2{fill:#fccb00;}</style></defs><path class="cls-1" d="M15.35,36.85V17.4H10.48V12.67H29.57V17.4H20.16V36.85Z"/><path class="cls-2" d="M33.52,25.06h-8.4V21.35h8.4V12.67H38V36.84H33.52Z"/><path class="cls-1" d="M25.86,36.74H24.17a.67.67,0,0,1-.66-.66v-4a.66.66,0,0,1,.66-.66h1.69a.65.65,0,0,1,.66.66v4A.66.66,0,0,1,25.86,36.74ZM24.47,32.1a.29.29,0,0,0-.28.29v3.38a.29.29,0,0,0,.28.28h1.18a.29.29,0,0,0,.28-.28V32.39a.29.29,0,0,0-.28-.29Z"/><path class="cls-1" d="M29.49,31.43h.79v5.3h-.79Z"/><path class="cls-1" d="M31,31.43h.8v5.3H31Z"/><path class="cls-1" d="M32.49,31.43h.8v5.3h-.8Z"/><polygon class="cls-1" points="28.81 34.02 27.28 35.07 27.28 33.05 28.81 34.02"/><rect class="cls-1" x="21.06" y="32.32" width="0.54" height="3.26" transform="translate(55.29 12.63) rotate(90)"/><rect class="cls-1" x="21.06" y="33.5" width="0.54" height="3.26" transform="translate(56.46 13.8) rotate(90)"/><rect class="cls-1" x="21.06" y="34.84" width="0.54" height="3.26" transform="translate(57.8 15.14) rotate(90)"/><rect class="cls-1" x="21.06" y="31.21" width="0.54" height="3.26" transform="translate(54.17 11.51) rotate(90)"/><rect class="cls-1" x="21.06" y="30.06" width="0.54" height="3.26" transform="translate(53.02 10.37) rotate(90)"/><path class="cls-1" d="M25,50A25,25,0,1,1,50,25,25,25,0,0,1,25,50ZM25,1A24,24,0,1,0,49,25,24,24,0,0,0,25,1Z"/></svg>