<svg xmlns="http://www.w3.org/2000/svg" viewBox="0 0 622.69 348.94"><defs><style>.cls-1{isolation:isolate;}.cls-2{fill:#d4edf9;}.cls-3{fill:#95cef9;}.cls-4{fill:#b5e3ff;}.cls-5{fill:#79a1f2;}.cls-6{fill:#0781de;}.cls-17,.cls-36,.cls-37,.cls-7{fill:#5699f2;}.cls-8{fill:#186bd9;}.cls-36,.cls-8{opacity:0.4;}.cls-36,.cls-37,.cls-8{mix-blend-mode:multiply;}.cls-16,.cls-9{fill:#ffdb79;}.cls-10{fill:#ffb545;}.cls-11{fill:#d8d8d8;}.cls-12{fill:#fff;}.cls-13,.cls-18{fill:#3e47c2;}.cls-14{fill:#3dc5c4;}.cls-15,.cls-31{fill:#2b3670;}.cls-16,.cls-17,.cls-18,.cls-30,.cls-31,.cls-35{fill-rule:evenodd;}.cls-19{fill:#d89e9a;}.cls-20{fill:#f8b7b0;}.cls-21{fill:#e5e5e5;}.cls-22{fill:#327ee3;}.cls-23{fill:#282457;}.cls-24{fill:#140c4f;}.cls-25{fill:#1e1b42;}.cls-26{fill:#f5973b;}.cls-27{fill:#efefef;}.cls-28{fill:#dedede;}.cls-29{fill:#a0d4e8;}.cls-30,.cls-34{fill:#53c4ce;}.cls-32{fill:#f0f0f0;}.cls-33{fill:#24537e;}.cls-35{fill:#eaeaea;}.cls-37{opacity:0.5;}.cls-38{fill:#7dadd1;}.cls-39{fill:#fff9c5;}.cls-40{fill:#2d71cc;}.cls-41{fill:#98d8d5;}.cls-42{fill:#637277;}</style></defs><g class="cls-1"><g id="objects"><path class="cls-2" d="M587.74,293.09c18.56-20.87,28.19-48.06,37.37-74.48,7-20.25,14.13-40.84,15.15-62.25,1.28-26.94-11.53-57.59-28-78.24-19.08-23.92-46-41.28-75-50.62-43.32-14-90.43-11.54-135-2.21-38.08,8-75.5,20.92-114.38,22.11-38.34,1.19-77.9-9-114.42,2.7C134.89,62.47,107,98,94.83,136.66c-8.25,26.12-7.54,52.05-10.26,78.67-4.53,44.3,5.4,90.79,44,117,29.77,20.2,66.67,26.49,102.46,30.11,91.89,9.27,186,3.94,274.23-23.3,30-9.27,60.37-21.77,81.56-45Z" transform="translate(-34.97 -17.66)"/><g id="_3" data-name="3"><path class="cls-3" d="M358.49,314.89c6.47-.68,12.13-7.67,9.41-14.15-.8-1.91-.7-2.74-4.54-6.87-5.33-5.75,8.58-12.8,8.69-16.37.16-5.35-10.64-4.16-10.39-9,.35-6.82,10.5-5.06,8.57-10.91-.79-2.39-14.47,1.72-13.74,4.11,1.1,3.59-12.47,3.67-10.71,7.28,1.61,3.3,15.6,2.66,13.74,9.41,0,0-15.26,16.53-15.15,19.85C344.6,304.86,351.84,315.58,358.49,314.89Z" transform="translate(-34.97 -17.66)"/><path class="cls-4" d="M346.71,316c-6.28-3.88-13.78-17.17-7.6-24,2.64-2.91,7.64-3.41,8.08-6.14.68-4.19-4.14-2.15-4.65-7.49s9.17-11.91,9.34-17.71c.17-5.41-9.23-5.51-9.34-10.49a7.08,7.08,0,0,1,8.18-7.12c5.74.74,14.79,10.41,11.51,19.4-1.27,3.48-2.86,3.79-3.18,7-.64,6.25,5.58,5.6,5.57,15.12,0,4.28-5.14,3.16-7.59,10.66-3.57,10.88,2.59,17.86-1.57,20.78C352.93,317.82,349.09,317.51,346.71,316Z" transform="translate(-34.97 -17.66)"/><path class="cls-5" d="M346.67,270c-1.44,4.41-.8,7.33.24,8.52s2.37,1.07,3.64,2.83c1,1.35,1.88,3.74.95,5.25s-1.66,1-2.19,2.42c-.37,1-1,2.22-.37,2.83,1.5,1.57,4.62,2,8.26-.15l4.05-2.64a13.46,13.46,0,0,0-4.61,7.8,23.8,23.8,0,0,0-.51,3.5c.1,5.64,1.44,15.74,1.44,15.74s-12.13-1.67-12.47-1.17-2.3-25.42-2.3-25.42,5.73-2.4,4.27-5.13c-.91-1.71-2.55-2.14-3.39-2.91-1-.93-2.29-3.73.14-7.48A30.53,30.53,0,0,1,346.67,270Z" transform="translate(-34.97 -17.66)"/><path class="cls-6" d="M357.8,293.41a16.28,16.28,0,0,0,0,3.12c.44,3.83,1.83,9.86,4.31,9.86s1.38-5.25,1.46-8.55c0-1.34.46-3.13,1.08-2.58a14.19,14.19,0,0,1,1.76,2.25c.94,1.39,3.6,5.84,1.52,10.18a24.43,24.43,0,0,1-9.69,10.16L357.07,312S354.16,299.42,357.8,293.41Z" transform="translate(-34.97 -17.66)"/><path class="cls-7" d="M343.6,320.34c-2.58,0-1.41-8.56-5.15-13.66-2.72-3.72-8.64-4.93-8.29-12.54.27-5.79,4-9.54,1.47-16.64-1.92-5.39-5.71-5.71-6.06-10.11-.39-4.87,1.48-7.22,5.46-6.87,3.29.29,9,5.88,9.9,7.88,3.37,7.28-4.35,11.2-1.21,17.51,2.42,4.87,4.7,4,9,4.64,9.46,1.5-.75,18.47,2.7,23.32C354.64,318.34,346.8,320.3,343.6,320.34Z" transform="translate(-34.97 -17.66)"/><path class="cls-8" d="M325.57,267.39a12.12,12.12,0,0,0,4.09,3.54c3.59,1.87,5.15,4.07,5.35,5.69.39,3.23-1.69,14.6-1.36,18.66.41,5.05,5,7.39,8.76,8,7.1,1.17,7.4,3.4,8.3,6.53l.16,6.73-11.63.7s1.49-8.74-.79-10.58c-4.56-3.69-9.24-6.95-8.29-12.54.78-4.55,2.57-14.12,1.47-16.64a9.59,9.59,0,0,0-2.42-4.15C326.78,271.23,325.54,269,325.57,267.39Z" transform="translate(-34.97 -17.66)"/><path class="cls-9" d="M364.64,312l-26.11-.13a3.5,3.5,0,0,0-3.49,4c1,8,3.5,25.54,4.2,30.49a1.52,1.52,0,0,0,1.52,1.32h21.87a1.54,1.54,0,0,0,1.53-1.35l3.72-30.62A3.28,3.28,0,0,0,364.64,312Z" transform="translate(-34.97 -17.66)"/><path class="cls-10" d="M339.24,346.35s1.84-3.44,5.13-3.71,9.9.4,12.46-1.62,7.95-7,8.89-7.54l-1.49,13a1.31,1.31,0,0,1-1.31,1.17H340.56a1.32,1.32,0,0,1-1.32-1.32Z" transform="translate(-34.97 -17.66)"/></g><rect class="cls-11" x="224.51" y="72.12" width="170.92" height="129.9" rx="5"/><rect class="cls-12" x="229.13" y="75.69" width="161.67" height="122.87" rx="5"/><path class="cls-13" d="M290.2,188.17c1.1,0,2-.57,2-1.27V160.62c0-.22-.4-.41-.9-.41h-2.16c-.49,0-.89.19-.89.41V186.9c0,.7.88,1.27,2,1.27Z" transform="translate(-34.97 -17.66)"/><path class="cls-7" d="M296.33,188.17a1.92,1.92,0,0,0,2-1.85V170c0-.32-.41-.59-.9-.59h-2.16c-.5,0-.9.27-.9.59v16.28a1.92,1.92,0,0,0,2,1.85Z" transform="translate(-34.97 -17.66)"/><path class="cls-3" d="M302.45,188.17c1.1,0,2-.36,2-.8v-9c0-.14-.4-.26-.9-.26h-2.16c-.49,0-.89.12-.89.26v9c0,.44.88.8,2,.8Z" transform="translate(-34.97 -17.66)"/><path class="cls-13" d="M308.58,188.17c1.09,0,2-.57,2-1.27V161.53c0-.23-.4-.41-.89-.41H307.5c-.5,0-.9.18-.9.41V186.9c0,.7.89,1.27,2,1.27Z" transform="translate(-34.97 -17.66)"/><path class="cls-9" d="M314.7,188.17a1.92,1.92,0,0,0,2-1.85V153.48c0-.32-.4-.59-.9-.59h-2.16c-.49,0-.89.27-.89.59v32.84a1.91,1.91,0,0,0,2,1.85Z" transform="translate(-34.97 -17.66)"/><path class="cls-3" d="M320.83,188.17c1.09,0,2-.19,2-.43v-6.28c0-.07-.4-.14-.89-.14h-2.16c-.5,0-.9.07-.9.14v6.28c0,.24.89.43,2,.43Z" transform="translate(-34.97 -17.66)"/><path class="cls-14" d="M327,188.17a1.8,1.8,0,0,0,2-1.52V170.51c0-.27-.4-.49-.9-.49h-2.16c-.49,0-.89.22-.89.49v16.14a1.79,1.79,0,0,0,2,1.52Z" transform="translate(-34.97 -17.66)"/><path class="cls-3" d="M333.08,188.17c1.09,0,2-.43,2-1V174.78c0-.17-.4-.31-.89-.31H332c-.5,0-.9.14-.9.31V187.2c0,.54.89,1,2,1Z" transform="translate(-34.97 -17.66)"/><path class="cls-7" d="M339.2,188.17a1.92,1.92,0,0,0,2-1.85V158c0-.33-.4-.59-.9-.59h-2.16c-.49,0-.89.26-.89.59v28.34a1.91,1.91,0,0,0,2,1.85Z" transform="translate(-34.97 -17.66)"/><path class="cls-9" d="M345.33,188.17a1.91,1.91,0,0,0,2-1.85V153.19c0-.33-.4-.59-.89-.59h-2.16c-.5,0-.9.26-.9.59v33.13a1.92,1.92,0,0,0,2,1.85Z" transform="translate(-34.97 -17.66)"/><path class="cls-13" d="M351.45,188.17c1.09,0,2-.54,2-1.2V163.11c0-.21-.4-.38-.9-.38h-2.16c-.49,0-.89.17-.89.38V187c0,.66.88,1.2,2,1.2Z" transform="translate(-34.97 -17.66)"/><path class="cls-13" d="M363.92,190.47H284.09V147a.59.59,0,0,1,.61-.57.59.59,0,0,1,.61.57v42.3h78.61a.59.59,0,0,1,.6.57A.58.58,0,0,1,363.92,190.47Z" transform="translate(-34.97 -17.66)"/><path class="cls-15" d="M393.29,124V108a16.1,16.1,0,0,0-15,21.77Z" transform="translate(-34.97 -17.66)"/><path class="cls-13" d="M393.5,108v15.88l12.43-9.78C403.71,111,397.87,108,393.5,108Z" transform="translate(-34.97 -17.66)"/><path class="cls-3" d="M393.52,124.13l7.66,14.11a16.13,16.13,0,0,0,8.34-14.13c0-4.41-1.06-6.65-3.41-9.91Z" transform="translate(-34.97 -17.66)"/><path class="cls-7" d="M393.35,124.24l-15,5.71A16.11,16.11,0,0,0,401,138.33Z" transform="translate(-34.97 -17.66)"/><path class="cls-16" d="M298.34,138a13.12,13.12,0,1,0-13.11-13.12A13.11,13.11,0,0,0,298.34,138Zm0-1.44a11.68,11.68,0,1,0-11.67-11.68,11.68,11.68,0,0,0,11.67,11.68Z" transform="translate(-34.97 -17.66)"/><path class="cls-17" d="M298.34,113.2a11.68,11.68,0,1,1,0,23.35h0a.72.72,0,0,0,0,1.44h0a13.12,13.12,0,1,0,0-26.23h0a.71.71,0,0,0-.71.71.72.72,0,0,0,.71.73Z" transform="translate(-34.97 -17.66)"/><path class="cls-7" d="M291.62,126.46a2.55,2.55,0,0,0,1.25.36c1,0,1.29-.63,1.28-1.1,0-.79-.72-1.13-1.46-1.13h-.43V124h.43c.55,0,1.26-.29,1.26-1,0-.45-.29-.85-1-.85a2.1,2.1,0,0,0-1.13.37l-.2-.55a2.65,2.65,0,0,1,1.48-.44c1.11,0,1.61.66,1.61,1.35a1.41,1.41,0,0,1-1,1.33v0a1.48,1.48,0,0,1,1.26,1.45c0,.9-.7,1.69-2.06,1.69a2.89,2.89,0,0,1-1.47-.38Z" transform="translate(-34.97 -17.66)"/><path class="cls-7" d="M295.82,125.9a1.62,1.62,0,0,1,1.13-1.51v0a1.41,1.41,0,0,1-.9-1.27,1.59,1.59,0,0,1,1.75-1.51,1.46,1.46,0,0,1,1.64,1.39,1.44,1.44,0,0,1-.93,1.33v0a1.57,1.57,0,0,1,1.14,1.46,1.74,1.74,0,0,1-1.92,1.64C296.54,127.43,295.82,126.73,295.82,125.9Zm3.05,0c0-.69-.48-1-1.25-1.23a1.21,1.21,0,0,0-1,1.16,1,1,0,0,0,1.13,1.08A1,1,0,0,0,298.87,125.87Zm-2.11-2.82c0,.56.43.86,1.08,1a1.11,1.11,0,0,0,.86-1,.88.88,0,0,0-1-.92A.9.9,0,0,0,296.76,123.05Z" transform="translate(-34.97 -17.66)"/><path class="cls-7" d="M302.9,123.28c0,1.19-.63,1.78-1.36,1.78s-1.31-.56-1.32-1.7.62-1.77,1.36-1.77S302.9,122.2,302.9,123.28Zm-2.07,0c0,.72.25,1.27.73,1.27s.73-.54.73-1.29-.2-1.26-.73-1.26S300.83,122.62,300.83,123.33Zm.66,4.1,3.32-5.84h.49L302,127.43Zm5.08-1.81c0,1.19-.62,1.78-1.34,1.78s-1.32-.57-1.33-1.7.62-1.77,1.37-1.77S306.57,124.54,306.57,125.62Zm-2.07,0c0,.72.27,1.27.74,1.27s.73-.54.73-1.29-.2-1.26-.73-1.26S304.5,125,304.5,125.67Z" transform="translate(-34.97 -17.66)"/><path class="cls-18" d="M337.07,135.17a10.29,10.29,0,1,0-10.28-10.3,10.3,10.3,0,0,0,10.28,10.3Zm0-1.14a9.16,9.16,0,1,0-9.15-9.16,9.17,9.17,0,0,0,9.15,9.16Z" transform="translate(-34.97 -17.66)"/><path class="cls-18" d="M337.07,134.9a10,10,0,1,0-10-10,10,10,0,0,0,10,10Zm0-1.58a8.44,8.44,0,1,0-8.43-8.45,8.45,8.45,0,0,0,8.43,8.45Z" transform="translate(-34.97 -17.66)"/><path class="cls-7" d="M332.42,123.66h0l-.6.33-.09-.36.75-.41h.4v3.47h-.45Z" transform="translate(-34.97 -17.66)"/><path class="cls-7" d="M336.45,124.92c0,1.18-.44,1.83-1.21,1.83s-1.14-.63-1.15-1.78.5-1.81,1.21-1.81S336.45,123.81,336.45,124.92Zm-1.89,0c0,.91.28,1.42.71,1.42s.71-.56.71-1.45-.22-1.41-.71-1.41S334.56,124,334.56,125Z" transform="translate(-34.97 -17.66)"/><path class="cls-7" d="M339.19,124.92c0,1.18-.44,1.83-1.21,1.83s-1.14-.63-1.15-1.78.5-1.81,1.21-1.81S339.19,123.81,339.19,124.92Zm-1.89,0c0,.91.28,1.42.71,1.42s.71-.56.71-1.45-.22-1.41-.71-1.41S337.3,124,337.3,125Z" transform="translate(-34.97 -17.66)"/><path class="cls-7" d="M341.19,124.2c0,.73-.39,1.09-.84,1.09s-.8-.34-.81-1,.38-1.09.84-1.09S341.19,123.54,341.19,124.2Zm-1.28,0c0,.44.16.78.45.78s.45-.33.45-.79-.12-.77-.45-.77S339.91,123.79,339.91,124.23Zm.41,2.52,2-3.59h.3l-2,3.59Zm3.12-1.11c0,.73-.38,1.09-.82,1.09s-.81-.35-.82-1,.38-1.09.84-1.09S343.44,125,343.44,125.64Zm-1.27,0c0,.44.17.78.46.78s.45-.33.45-.79-.13-.78-.45-.78S342.17,125.23,342.17,125.67Z" transform="translate(-34.97 -17.66)"/><path class="cls-19" d="M284.32,337.47s3.06,5.92,6.95,6.2,6.77-.22,5.56,1.83-7.35,2.74-11.16,1.4-6.3,2.06-8.23-.39c-1.39-1.76,2-11.24,2.78-12.16C283.1,330.92,284.32,337.47,284.32,337.47Z" transform="translate(-34.97 -17.66)"/><path class="cls-20" d="M267.11,337.78s3.06,5.92,6.95,6.2,6.77-.22,5.56,1.82-6.92,2.35-10.74,1-8.35,1.65-8.9-.52,2.25-10.71,3-11.64C265.89,331.22,267.11,337.78,267.11,337.78Z" transform="translate(-34.97 -17.66)"/><path class="cls-15" d="M297.15,344.36c-.34-.61-1.59-.65-3.48-.7-.72,0-1.53-.05-2.39-.11h0A5.87,5.87,0,0,1,288,342l-.06-.05-.08,0c-3.64,1.78-7.42,1.61-10.12-.45l-.16-.12,0,.19c-.64,2.66-.7,4.35-.17,5,1.07,1.35,2.31,1,3.76.59a7,7,0,0,1,4.53-.17,14.06,14.06,0,0,0,4.56.7c3,0,5.95-.8,6.75-2.15C297.24,345.05,297.31,344.66,297.15,344.36Z" transform="translate(-34.97 -17.66)"/><path class="cls-15" d="M279.94,344.67c-.34-.61-1.59-.65-3.48-.71-.72,0-1.53,0-2.39-.1a6.14,6.14,0,0,1-3.58-1.83l-.06,0-.07,0c-2.3.82-6.63,1.86-9.75-.39l-.15-.11,0,.18a13.13,13.13,0,0,0-.56,4.64c.32,1.23,1.73,1,3.51.64a10.8,10.8,0,0,1,5.48,0,16,16,0,0,0,5.15.82c2.6,0,5-.6,5.73-1.87C280,345.35,280.1,345,279.94,344.67Z" transform="translate(-34.97 -17.66)"/><path class="cls-12" d="M256.12,244.46s-3.43,5.63-1.4,15.66c.73,3.59,4.35,15.78,4.08,28.88-.08,3.59-.43,7.16-.82,13.74-.41,7.13,1.63,26.59,2.32,32.81a2.17,2.17,0,0,0,2.16,1.94h4.81a2.19,2.19,0,0,0,2.16-1.9l5.27-40.14s-1.82,10.1,2.21,40c0,.26.42,2,1.24,2.31,1.19.44,3.59-.11,5.27-.32a2.33,2.33,0,0,0,2.25-2l2.9-41.83c.25-3.52.37-7.05.37-10.57V243.37s-11.75.8-21.84.93C261.52,244.37,258.88,246.07,256.12,244.46Z" transform="translate(-34.97 -17.66)"/><path class="cls-21" d="M282.6,247.26s-22.39,5.64-13.39,13.5c5.84,5.08-12.83,6.62-.9,19.23,4.72,5,3.6,18.86-4.58,28.83-2.17,2.65-3.65,11.22-.61,12.73,3.66,1.82-.07,8.55-.3,11.12-.3,3.43,5.23,5.44,6.61,2.92a2.11,2.11,0,0,1-2.16,1.9h-5.71a4.06,4.06,0,0,1-1.34-2.67c-.2-1.77-1.81-19.33-1.81-19.33s-.93-11.92,0-18.59a71.57,71.57,0,0,0,.24-14.22,127.84,127.84,0,0,0-3.39-20.23s-1.55-5.53-1.18-9.2c0,0,.22-5.12,1.3-6.74S282.6,247.26,282.6,247.26Z" transform="translate(-34.97 -17.66)"/><path class="cls-21" d="M284.54,262.74a77.31,77.31,0,0,0-7.38,39.31c.27,3.15,3.34,4.45,1.63,6.06s-1.67,6.49-.31,7.28c2.22,1.28,3,3.92,2.22,5.4-1,2-2.4,7.59-.2,8.54s.44,4.73,5.17,6.05c0,0,0,1.71-2.25,2s-4.62.48-4.62.48-1.57,0-1.89-2.47-2.21-20-2.21-20S271.51,272,284.54,262.74Z" transform="translate(-34.97 -17.66)"/><path class="cls-20" d="M311.47,209.45s6.17-1.22,8.58-.94,3.68.51,4.76-.38c.66-.54,2.45-.93,3.39-1.74,3.38-2.91.72-3.13.29-3.25-2.54-.71-8.31.18-9.77,0-1.92-.23-8.52,3.27-8.52,3.27Z" transform="translate(-34.97 -17.66)"/><path class="cls-22" d="M278.89,185.28c.66-.68,3.05-1,3.59-.15,2.21,3.37,5.26,10,5.71,13.08.55,3.81,4.44,11.76,4.44,11.76s15.37-5.7,19.42-6.49c3.87-.77,5.34,5.82,3,6.54s-24.24,9.89-26.94,8.52-11.78-24.75-12.35-27.4C275.33,189.15,277,187.24,278.89,185.28Z" transform="translate(-34.97 -17.66)"/><path class="cls-15" d="M314.31,197a16.8,16.8,0,0,0,.53,3.73c.67,2.57,2.21,5.53,5.71,5.62,7.8.2,7.08-9.16,7.08-9.16Z" transform="translate(-34.97 -17.66)"/><path class="cls-15" d="M316.15,203.88a3.66,3.66,0,0,1-3.23-1.73,2.6,2.6,0,0,1,.38-3.11,2.18,2.18,0,0,1,1.86-.88,3.37,3.37,0,0,1,2.16,1.56l-.69.42a2.54,2.54,0,0,0-1.54-1.18,1.46,1.46,0,0,0-1.18.61,1.8,1.8,0,0,0-.29,2.18,3,3,0,0,0,3.23,1.26l.15.79A4.27,4.27,0,0,1,316.15,203.88Z" transform="translate(-34.97 -17.66)"/><path class="cls-7" d="M282.6,247.26c1.94-.68,7.68,0,6.87-4.85-1-5.82-4.73-14-5.05-22.4,0,0-1-9.51,2.47-12.35,2.82-2.3,5.21-8.26-.25-13.06-2.91-2.55-2.49-9.7-5.26-10.13-1.76-.27-3.35,0-4.11.74a2.94,2.94,0,0,0-.66.92c-.65,1.13-1.5,1.18-3.16,1.27-2.07.1-6.15-3.24-7.3-4.35-2-2-10.2-1.52-9.72,6.24.46,7.37,5.39,26.58,2.95,36.26-2.68,10.64-5.75,17.52-4.9,21.56C255.12,250.09,281.14,247.77,282.6,247.26Z" transform="translate(-34.97 -17.66)"/><path class="cls-8" d="M282.6,247.26s-14.29-2.12-14.29-5.64c0-1.88,1.35-6.86,3.19-8.6a2.87,2.87,0,0,0,.29-4c-1.81-2.16-3.8-5.09-3.14-6.95,1.14-3.23,3.55-3.87,3.36-6.89s-6.82-14.94-6.82-14.94L256,237.45s-2.62,8.17-1.51,9.66,2.78,1.19,8.64,1.49S282.6,247.26,282.6,247.26Z" transform="translate(-34.97 -17.66)"/><path class="cls-20" d="M271.51,245.94a64.34,64.34,0,0,1,4.6,4.58c.65,1,1.21,1.61,1.06,1.92s-1.95-.56-2.82-1.22S271.51,245.94,271.51,245.94Z" transform="translate(-34.97 -17.66)"/><path class="cls-20" d="M270.24,253.87c1,2.17,4.65,5.14,6.73,4,1.46-.82-.51-3.13-1-4.15-1.3-2.91-9.23-16.25-9.23-16.25S265.48,243.17,270.24,253.87Z" transform="translate(-34.97 -17.66)"/><path class="cls-7" d="M268.35,192.77A9.65,9.65,0,0,0,262.9,184c-2.06-.94-4.3-1.06-5.82,1.43-3.55,5.82-.5,35.12-.17,37.06s7.6,23.63,8.9,24.15,8.84,1.47,7.48-2.53c-1.5-4.4-3.68-16.74-7.48-24.1C265.81,220,268.36,203.06,268.35,192.77Z" transform="translate(-34.97 -17.66)"/><path class="cls-20" d="M265.19,184.87s9.74,8.23,11.58,1a58.87,58.87,0,0,1,0-12.68c.4-3.35-8.14-7.61-8.14-3.41S267.29,183.32,265.19,184.87Z" transform="translate(-34.97 -17.66)"/><path class="cls-19" d="M268.41,184.93s1.7-5.81,3.94-6.46c0,0-4.48-2.93-4.58-3.08S265,180,265,180l-.58,4.85Z" transform="translate(-34.97 -17.66)"/><path class="cls-20" d="M265.23,168.58a7.55,7.55,0,0,0,2.67,6.55c2.86,2.37,7.05,5.5,8.49,4.79s3.89-4,5-8.38a16.7,16.7,0,0,0,.15-8.24C279.76,156.09,266.82,152.51,265.23,168.58Z" transform="translate(-34.97 -17.66)"/><path class="cls-19" d="M278,160s-2.68,7.31-5.19,8.58-3.25,3-1.82,3.7,2.61,6.76,1.36,6.16a31.85,31.85,0,0,1-5.21-3.48l-3.21,5.81L262.42,165Z" transform="translate(-34.97 -17.66)"/><path class="cls-15" d="M278,160s-5.36,7.46-7.81,8c-3,.61-1.19-4-3.57-1.65-.8.77-.52,2.89,0,3.82,3.48,6.19,1.14,11.32,0,12.3-2.28,1.95-9.7-10.84-9.7-10.84s-.6,1.26-2.08-2.8c-2.79-7.64,5.08-19.91,16.58-17.9,9.46,1.65,13.79,10.14,10.48,18.05C281.89,169,281.63,162.51,278,160Z" transform="translate(-34.97 -17.66)"/><path class="cls-15" d="M257.41,170.67a3.85,3.85,0,0,0-4.25-1.3c-5.45,1.79-17.33,5.49-16.43,17.26.64,8.37,9.37,9.6,3.56,16.85-10.24,12.75.41,15.57,1,23.09.54,6.74,8.95,8.53,11.13,9.32,5.55,2,17.08-6,11.68-11.95-3.16-3.47,7.87-8.87,0-21.08-3.65-5.65,5.05-6,4.52-15.17-.31-5.26-4.23-8.77-5.4-9.7a3.52,3.52,0,0,1-.63-.65Z" transform="translate(-34.97 -17.66)"/><path class="cls-23" d="M254.26,169.17s-12.15,5.06-10.94,11.63,15.65,14.83,12.07,19.49-8.23,15.53-4,14.94,5.46,5,6.87,6.84,5.84,1.87,5.84,1.87,2.61,1.69,1.08,5.13-3.92,5.75-8.75,6.88-12.43-2.84-14.05-6c-1.7-3.33-1.15-5.55-2.26-7.17-1.36-2-5.62-8.25-4.27-11.77,1.83-4.78,5.12-8.13,5.65-9.33a5.56,5.56,0,0,0-.49-6.08c-2-2.72-5.66-7.13-4.26-11.77s.5-4.79,6.51-10.08C243.27,173.75,249.58,169.71,254.26,169.17Z" transform="translate(-34.97 -17.66)"/><path class="cls-20" d="M409.87,177s0-6.17-3.09-11,9.33-11.09,11.57-1.92c2.32,9.5,6.21,8.77,6.21,8.77S418.37,179.07,409.87,177Z" transform="translate(-34.97 -17.66)"/><path class="cls-20" d="M402.91,152.32s0,14.4,3.09,16.46,10.83,1.37,13.92-8.23C422.81,151.58,410.64,142,402.91,152.32Z" transform="translate(-34.97 -17.66)"/><path class="cls-19" d="M417.8,162.55s2.5,7.73,3.64,8.64c0,0-3.06.22-3.64-1.86s.32-3.39-1.39-3.79-1.24-2.61-1.2-3.84-.82-4.95-3-4.55-1.16-4-2.83-3.3c-2.42.94-2.5-.71-4.66.94,0,0,4.26-3.53,6-3,0,0,.59.05,1,.93s2.66,1.74,2.9,1.81,1.88.48,2.08,1,.37.69.26,1.17c0,0,1.36-1.09,2.27-.84.6.17,1,.38.83,1.49A10.21,10.21,0,0,1,417.8,162.55Z" transform="translate(-34.97 -17.66)"/><path class="cls-15" d="M400.59,154.38s.23,3.48,2.44,1.74,7-5.92,8.39-3.8c2.32,3.43,6,1.48,5.22,4.91,0,0,2.12,10.69,2.51,9.49,2.83-8.77.12-11.09,4.64-14.4,2.5-1.84-.78-8.92-4.64-8.23s-7-2.06-11.6-2.75-10.82-1.37-9.28,4.12S402.14,147.52,400.59,154.38Z" transform="translate(-34.97 -17.66)"/><path class="cls-19" d="M416.06,157.12s3.09-2.06,3.86-.69-1.93,6.86-3.09,6.86C415.28,163.29,414.51,158.49,416.06,157.12Z" transform="translate(-34.97 -17.66)"/><path class="cls-15" d="M398.27,142.7a12.61,12.61,0,0,1,11.78,1.92c2.42,1.89,6.91,1.23,8.49,1.27,6,.15,4.21,7,2.9,9.08,0,0,3.74-3.8,3.12-6.26s-2.05-4.18-3.89-4.51-2.64.17-3.6,0-6-2-6.6-2.16-6.71-2.07-10.44-.82A2.85,2.85,0,0,0,398.27,142.7Z" transform="translate(-34.97 -17.66)"/><path class="cls-19" d="M408.91,337.3s-3,6.38-7,6.63-7,.09-5.74,1.95,7,2.22,10.92,1,8.58,1.63,9.14-.35,0-9.63-.78-10.47C412.5,332.94,408.91,337.3,408.91,337.3Z" transform="translate(-34.97 -17.66)"/><path class="cls-24" d="M413.23,341.34a11.72,11.72,0,0,1-5.88-1.44c-1.26,1.8-3.19,3.89-5.44,4-4,.26-7,.09-5.74,1.95s7,2.22,10.92,1,8.58,1.63,9.14-.35a20.54,20.54,0,0,0,.15-5.3A13.81,13.81,0,0,1,413.23,341.34Z" transform="translate(-34.97 -17.66)"/><path class="cls-25" d="M408.91,338.13l7.91-.05c1.47,0,3-.72,3.09-2.08l3.15-79.27L407.53,238l-2.87,12.34s1.29,70.33,1.49,85.28A2.66,2.66,0,0,0,408.91,338.13Z" transform="translate(-34.97 -17.66)"/><path class="cls-24" d="M407.06,337.47s9.24,0,8.44-2.53-4-6.92-2.69-9.85,2.73-11.79,2.73-11.79l4.37,22.7s-.48,1.69-1.79,1.89-9.64.24-9.64.24A8.69,8.69,0,0,1,407.06,337.47Z" transform="translate(-34.97 -17.66)"/><path class="cls-20" d="M423.33,336.48s-2.56,6.78-6.54,7-6.63.5-5.39,2.36,7.08,2.13,11,.91,6.39,2.45,9.07-.26c1.45-1.45-2.26-9.93-3.06-10.77C425.45,332.64,423.33,336.48,423.33,336.48Z" transform="translate(-34.97 -17.66)"/><path class="cls-15" d="M421.81,340.65a5.17,5.17,0,0,1-.63-.21,6.25,6.25,0,0,1-4.43,2.89c-4,.26-6.92.63-6,2.67,1.09,2.45,7.58,1.38,11.66,1.42,4.36,0,7.87.71,9.59-.59.84-.63-.42-3.65-1.3-6.12C428.41,343.17,424.79,341.42,421.81,340.65Z" transform="translate(-34.97 -17.66)"/><path class="cls-15" d="M421.34,338.13h8.23a2.73,2.73,0,0,0,2.85-2.85c-.6-7.13-2-26.12-1.64-40.07.31-10.38,0-11.78.76-16.68,1.2-7.71,7.23-22.35,6.73-28.62-.36-4.51-2.8-16.57-2.8-16.57l-30.81,7a28.3,28.3,0,0,0,0,9.94,44,44,0,0,0,1.52,5.51c1.43,4,1.09,13.38,3.58,29.42,2,12.57,6.46,29.2,8.74,50.49A2.78,2.78,0,0,0,421.34,338.13Z" transform="translate(-34.97 -17.66)"/><path class="cls-23" d="M420.67,244.06s-5.15,3.75.64,4.67c2.5.4,8.74,7.55,7.53,10.14-1.47,3.17-13.34,7.78-8.17,11.12,3.24,2.09-5.84,19.29,0,24s2.29,31.39,6.73,32.33a5.57,5.57,0,0,1,4.73,4.73l-1.32-25.33.36-22.64,2.56-13.19s4.83-13.89,4.61-17.82S436,235.26,436,235.26Z" transform="translate(-34.97 -17.66)"/><path class="cls-20" d="M381.38,199.27s-.93-1.33-2.27-3c-.6-.74-1.29-1.54-2-2.3a11.48,11.48,0,0,0-4.63-2.74c-3.64-1.29-5.16-4.07-6.62-1.48-.81,1.44,1.06,4.8,3.39,6.06,2.7,1.47,6.39,4.39,8.83,4.88C383.56,201.85,381.38,199.27,381.38,199.27Z" transform="translate(-34.97 -17.66)"/><path class="cls-20" d="M375.08,190.58s-1.52-2.47-2.85-1.85c-.85.38.08,1.44,1,2.78a2.08,2.08,0,0,1-.08,2.47l2.88,1.2,1.41-.59S376.09,191.1,375.08,190.58Z" transform="translate(-34.97 -17.66)"/><path class="cls-10" d="M407.87,182.94,403.37,201s-19.38-2.7-22.22-4.59c-2-1.34-3.49,1.21-4.69,3.12a1.49,1.49,0,0,0,.61,2.13,241.56,241.56,0,0,0,25.84,10.72c6.39,1.89,9.68,2.36,10.39,1.1S414.51,182.62,407.87,182.94Z" transform="translate(-34.97 -17.66)"/><path class="cls-9" d="M421.44,171.19s10.19,2.08,12.38,8.54,2.35,45.38,3.08,50.54c.4,2.87,3.94,12.33-3.34,13s-30.67,1.72-30.32-.62c.5-3.3,2.33-12.09,2.33-14.67s-2.9-33.85-2.17-39S408.5,176,410,175.36C410,175.36,416.88,178.3,421.44,171.19Z" transform="translate(-34.97 -17.66)"/><path class="cls-26" d="M420.67,244.06s1.57-2.15,6.42-5.95,8.48-6.46,3-10.48c-2.89-2.12,7-11.23,2.43-14-4-2.48-10-6.8-7.14-9,3.89-3-1.19-9.89.14-12.22,2.3-4.07-1.25-6.46-6.88-7.68-2.74-.6-4.09-4.36-2.27-5.95,3.5-3.07,4.41-7.74,5.11-7.59a31.09,31.09,0,0,1,8.85,3.94c6.87,5.06,3.43,16.71,4.41,23.44,1.4,9.46,1.73,19.83,1.73,19.83s.73,13.45,1.68,15.85c.67,1.69.43,7.35-1.52,8.28C432.74,244.38,420.67,244.06,420.67,244.06Z" transform="translate(-34.97 -17.66)"/><path class="cls-20" d="M399.3,216.67H387.16c-3.37,0-3.37-1.29-5.39,1.94s8.09,3.88,10.79,3.23,8.76-2.58,8.76-2.58Z" transform="translate(-34.97 -17.66)"/><path class="cls-10" d="M422.35,194.23c-.13-.91-3-17.5,6.54-17.61,5.75-.07,8,12.74,7.23,23.07s2.78,17.71-.14,19-27.48,1.21-31.12,2.51-8.74,0-8.74-1.94-2.19-3.23,2.91-3.88,18.21-1.94,23.3-3.87,2.92-1.3,2.92-1.3S423.51,202.35,422.35,194.23Z" transform="translate(-34.97 -17.66)"/><g id="leg2"><path class="cls-19" d="M632.19,346.82s-1.66,7.4-6.9,7.49c-4.59.07-8-.27-6.55,2.14s8.17,2.77,12.66,1.19,6.39,2.16,9.31.27c2.22-1.43-1.46-13.51-2.38-14.6C634.93,339.26,632.19,346.82,632.19,346.82Z" transform="translate(-34.97 -17.66)"/><path class="cls-15" d="M641,351.09l0-.16-.15.08c-3,1.64-7.33,3.13-11.09,1l-.09-.05-.07.07a5.58,5.58,0,0,1-4.24,2.19l-1.68,0c-2.75,0-4.73,0-5.21.87-.21.36-.13.83.23,1.45.89,1.49,3.69,2.19,6.74,2.19a19,19,0,0,0,6.07-1,7.07,7.07,0,0,1,5.25.29c1.4.5,2.6.94,4.09,0C642,357.24,641.54,353.83,641,351.09Z" transform="translate(-34.97 -17.66)"/><path class="cls-6" d="M642.71,259.54c-.72,5.86-6.55,25.18-5.15,33.84,3,18.48,2.79,45.33,2.68,52.05a2.33,2.33,0,0,1-1.59,2.18c-2.19.73-6.07,1.6-7.74-.69-2.15-3-18.48-78.57-18.48-78.57S644.28,246.69,642.71,259.54Z" transform="translate(-34.97 -17.66)"/><path class="cls-8" d="M633.61,277.08s-6.32,18.19-5.16,21.52c1.46,4.2,7.4,9.06,6.07,14.58s-6.3,18.81-3.15,19.68-.82,11.26,1,12.14,3.07,2.68,7.72,1.34c0,0-.63,2.08-6.77,2.06a3.23,3.23,0,0,1-2.56-1.87c-.57-1.64-4.29-15.3-4.29-15.3L616.18,286.3Z" transform="translate(-34.97 -17.66)"/></g><g id="leg1"><path class="cls-20" d="M619.31,346s-3.57,7.84-8.13,8.43-8.52.45-6.45,2.34,8.21,1.67,12.75.86c3.95-.7,5.18,2.81,9.64-.33,2.16-1.52-1.65-14.63-3.55-14.59C619.5,342.77,619.31,346,619.31,346Z" transform="translate(-34.97 -17.66)"/><path class="cls-15" d="M627.52,351.71l0-.17-.14.08c-3.91,2-9.29,3.72-12.76,1l-.08-.07-.08.07a6.4,6.4,0,0,1-3.27,1.67c-.92.12-1.84.21-2.65.29-2.44.24-4.21.42-4.44,1.13-.11.31.08.68.58,1.13,2.15,1.95,8.86,1.6,12.85.89a6.91,6.91,0,0,1,3.74.48,7.21,7.21,0,0,0,2.4.52,6.09,6.09,0,0,0,3.55-1.34C628.27,356.62,627.86,353.5,627.52,351.71Z" transform="translate(-34.97 -17.66)"/><path class="cls-7" d="M625.69,293.33c.12-6.93,5.66-13,8.55-17.14,4.42-6.32,8.24-11.1,9.23-15.24a15.29,15.29,0,0,1,.58-1.46c3.33-9.87-3.9-19.78-3.9-19.78l-29.68,6.13s-2.29,34.7-4,47.49c-.61,4.64,9.42,45.06,10.41,53.62.37,3.2,8.72,1.47,9.78.1v0a3.9,3.9,0,0,0,.8-2.5Z" transform="translate(-34.97 -17.66)"/><path class="cls-6" d="M633.81,251.54s-22.84,8.17-16.74,14.72c2.54,2.73,4.86,13.78-.89,16.46-3.88,1.81-7,12.39-2.64,14.77,6.51,3.54,4.87,7,4.87,10.13,0,3.4-1.49,27,1.46,29.94s.26,8.14,6.83,9.49c0,0-4.4,3.06-9.28.89l-5.09-23.71-5.2-25.17s-1.35-3.93-.62-5.73l1.81-18.48,1.79-24.2S632.76,249.77,633.81,251.54Z" transform="translate(-34.97 -17.66)"/></g><g id="coat"><path class="cls-20" d="M598.6,160.31s-1.85,11.91.46,16.28,11.12-2.63,11.05-3.29S614.67,159.81,598.6,160.31Z" transform="translate(-34.97 -17.66)"/><path class="cls-20" d="M614.42,174.11a9.06,9.06,0,0,1-9-2.85c-3.81-4.26.63,15.06,6.19,14.76-1.91.1,12.45,1.32,10.76-2C621,181.39,621.36,172.32,614.42,174.11Z" transform="translate(-34.97 -17.66)"/><path class="cls-27" d="M609.48,184.17s-11.38,2.14-14.05,8.69-3.09,17.29-3.93,24.85a19.08,19.08,0,0,1-2.13,7c-4.58,7.92-12.37,16.18-12.37,16.18s6.9,6.87,9,5.15a72.81,72.81,0,0,0,14.14-18,45.54,45.54,0,0,0,4.45-15.12s-2.21,4.23,3.83,6.68A98,98,0,0,1,610,237.54c0,4.6-1.18,9.29-1.59,14.47-.26,3.33,36,.59,36.52-6,.27-3.61-5.55-13.54-6.76-20.36-3.29-18.44-6.71-42.08-6.71-42.08S620.54,176.36,609.48,184.17Z" transform="translate(-34.97 -17.66)"/><path class="cls-11" d="M604.6,212.75l0-.25c.52-4.29,6.71-4.79,7.73-.59a2.39,2.39,0,0,1,.06,1c-.52,3.1-1.32,9.82,3.75,13.08,2.62,1.69,8.25,6.08,6.19,9.17s-3.18,7.43,1.92,7.81c7.51.55,6.85,3.68,7.58,5.45s12.72-1.05,13.06-2.43c.19-.79.94,4.41-16.41,6.44s-18.9.93-20.11-.44,1.12-8.58,1.55-13.13c.45-4.71-.66-13.29-1.23-17.21a4,4,0,0,0-2.09-2.94c-1.44-.75-2.89-2-2.1-5.62A2.25,2.25,0,0,0,604.6,212.75Z" transform="translate(-34.97 -17.66)"/></g><g id="head"><path class="cls-9" d="M607.08,169.21c-2.57-6-11.1-5.77-11.77-10.67a6.39,6.39,0,0,1,1.32-4.25c3.07-5,10.24-6.27,14.84-5.94a22.1,22.1,0,0,1,18.29,13.55c3.11,8.21-2.08,13,1.84,18.94,3.35,5.06,12.34,4.88,17.73,9.12,9.84,7.75,12.51,27.65-.5,37.21-6.93,5.09-24.62.09-29.26-9.82-3.67-7.84,2.76-19.36-2.35-26.59-4-5.65-8.24-5.75-10-11.82C605.87,174.43,608.72,173,607.08,169.21Z" transform="translate(-34.97 -17.66)"/><path class="cls-10" d="M611.47,148.35c-3.44.8-14.1,7.21-9.72,8,6.33,1.18,11.28,10.59,10.46,15.69-1.54,9.5,15.44,11.25,11.46,23.92-1.65,5.27,2.69,23.58,15.35,26,9.92,1.91,17.89-6.95,17.89-6.95s-3.31,12.15-11.56,13.87a24.24,24.24,0,0,1-21.45-6.11h0s-8.08-4.86-5.22-16.63h0s2-11.66-1.46-15.42-10.17-8.54-10.76-12.07c-.48-2.88,2.14-7.17.62-9.48s-7-5.64-8.74-6.9c-1.09-.81-2.91-1.59-3-3.77a6.58,6.58,0,0,1,1.94-5.14,14.51,14.51,0,0,1,6.56-4.28c1.66-.67,4.48-.82,7.66-.77Z" transform="translate(-34.97 -17.66)"/></g><g id="table"><g id="_2" data-name="2"><rect class="cls-12" x="353.11" y="250.37" width="55.68" height="4.16"/><polygon class="cls-27" points="397.35 254.53 421.28 342.47 423.88 342.47 405.93 254.53 397.35 254.53"/><polygon class="cls-27" points="367.16 254.53 343.23 342.47 340.63 342.47 358.58 254.53 367.16 254.53"/></g><g id="_1" data-name="1"><rect class="cls-27" x="408.79" y="250.37" width="150.91" height="4.16"/><polygon class="cls-28" points="480.08 254.53 456.15 342.47 453.55 342.47 471.5 254.53 480.08 254.53"/><polygon class="cls-27" points="505.58 254.53 529.52 342.47 532.12 342.47 514.17 254.53 505.58 254.53"/></g></g><g id="computer"><path class="cls-6" d="M476.66,268h26.71s-5.32-3.12-5.32-8.85H476.66S473.53,263.87,476.66,268Z" transform="translate(-34.97 -17.66)"/><path class="cls-7" d="M477.58,268h26.71s-5.31-3.12-5.31-8.85h-21.4S474.46,263.87,477.58,268Z" transform="translate(-34.97 -17.66)"/><rect class="cls-29" x="412.64" y="180.64" width="82.22" height="60.88" rx="6.29"/><rect class="cls-27" x="415.2" y="180.64" width="82.22" height="60.88" rx="5"/><path class="cls-30" d="M470.52,237.9h-1.85v-5.38a1.85,1.85,0,0,1,1.85-1.85h0Z" transform="translate(-34.97 -17.66)"/><path class="cls-30" d="M472.81,237.9H471v-9.7a1.85,1.85,0,0,1,1.85-1.85h0Z" transform="translate(-34.97 -17.66)"/><path class="cls-31" d="M475.1,237.9h-1.84v4.77a1.84,1.84,0,0,0,1.84,1.85h0Z" transform="translate(-34.97 -17.66)"/><path class="cls-31" d="M479.69,237.9h-1.84v4.77a1.84,1.84,0,0,0,1.84,1.85h0Z" transform="translate(-34.97 -17.66)"/><path class="cls-31" d="M486.58,237.9h-1.85v4.77a1.85,1.85,0,0,0,1.85,1.85h0Z" transform="translate(-34.97 -17.66)"/><path class="cls-31" d="M477.4,237.9h-1.85v11.83a1.85,1.85,0,0,0,1.85,1.85h0Z" transform="translate(-34.97 -17.66)"/><path class="cls-31" d="M482,237.9h-1.85v11.83a1.85,1.85,0,0,0,1.85,1.85h0Z" transform="translate(-34.97 -17.66)"/><path class="cls-30" d="M479.7,237.9h-1.85v-8.13a1.84,1.84,0,0,1,1.85-1.85h0Z" transform="translate(-34.97 -17.66)"/><path class="cls-30" d="M482,237.9h-1.85V225.3a1.85,1.85,0,0,1,1.85-1.85h0Z" transform="translate(-34.97 -17.66)"/><path class="cls-31" d="M498.05,237.9H496.2v.7a1.74,1.74,0,0,0,1.74,1.74h.11Z" transform="translate(-34.97 -17.66)"/><path class="cls-30" d="M486.58,237.9h-1.85v-5.38a1.85,1.85,0,0,1,1.85-1.85h0Z" transform="translate(-34.97 -17.66)"/><path class="cls-30" d="M488.87,237.9H487v-8.79a1.84,1.84,0,0,1,1.84-1.85h0Z" transform="translate(-34.97 -17.66)"/><path class="cls-31" d="M491.17,237.9h-1.85v4.5a1.85,1.85,0,0,0,1.85,1.86h0Z" transform="translate(-34.97 -17.66)"/><path class="cls-31" d="M495.76,237.9h-1.85v4.5a1.85,1.85,0,0,0,1.85,1.86h0Z" transform="translate(-34.97 -17.66)"/><path class="cls-30" d="M493.46,237.9h-1.85v-5.38a1.85,1.85,0,0,1,1.85-1.85h0Z" transform="translate(-34.97 -17.66)"/><path class="cls-30" d="M495.76,237.9h-1.85v-.81a1.85,1.85,0,0,1,1.85-1.85h0Z" transform="translate(-34.97 -17.66)"/><path class="cls-30" d="M498.05,237.9H496.2V230a1.85,1.85,0,0,1,1.85-1.85h0Z" transform="translate(-34.97 -17.66)"/><path class="cls-30" d="M500.35,237.9H498.5V225.3a1.85,1.85,0,0,1,1.85-1.85h0Z" transform="translate(-34.97 -17.66)"/><path class="cls-9" d="M510.19,217l-2.43-.4a7.42,7.42,0,0,1,4.66-5.68l.85,2.27A5,5,0,0,0,510.19,217Z" transform="translate(-34.97 -17.66)"/><path class="cls-13" d="M513.37,213.19h0l-.86-2.26a7.4,7.4,0,0,1,7.25,1.18l-1.48,1.82A5,5,0,0,0,513.37,213.19Z" transform="translate(-34.97 -17.66)"/><path class="cls-3" d="M511.88,221.71l-1.53,1.88a7.45,7.45,0,0,1-2.6-6.88l2.43.4a5,5,0,0,0,1.7,4.6Z" transform="translate(-34.97 -17.66)"/><path class="cls-15" d="M518.3,214l1.49-1.81a7.38,7.38,0,0,1,2.59,6.87l-2.27-.37a5,5,0,0,0-.26-2.56A5.14,5.14,0,0,0,518.3,214Z" transform="translate(-34.97 -17.66)"/><path class="cls-13" d="M521.53,223.53l1.24,1.24a10.18,10.18,0,0,1-7.15,3V226A8.54,8.54,0,0,0,521.53,223.53Z" transform="translate(-34.97 -17.66)"/><path class="cls-7" d="M515.53,226v1.69a10.17,10.17,0,0,1-7.15-3l1.15-1.15a8.5,8.5,0,0,0,6,2.42Z" transform="translate(-34.97 -17.66)"/><path class="cls-9" d="M522.84,210.31a10.18,10.18,0,0,1,3,7.15H524a8.45,8.45,0,0,0-2.42-5.9Z" transform="translate(-34.97 -17.66)"/><path class="cls-15" d="M515.48,209a8.51,8.51,0,0,0-6,2.43l-1.15-1.16a10.17,10.17,0,0,1,7.15-3V209Z" transform="translate(-34.97 -17.66)"/><path class="cls-13" d="M515.62,209v-1.7a10.23,10.23,0,0,1,7.15,3l-1.24,1.25A8.45,8.45,0,0,0,515.62,209Z" transform="translate(-34.97 -17.66)"/><path class="cls-3" d="M525.8,217.56a10.16,10.16,0,0,1-3,7.14l-1.25-1.24a8.49,8.49,0,0,0,2.42-5.9Z" transform="translate(-34.97 -17.66)"/></g><g id="buble2"><rect class="cls-9" x="434.75" y="130.67" width="37.06" height="22.32" rx="2.56"/><path class="cls-12" d="M484.44,153.24h-9.95a1.34,1.34,0,0,1-1.34-1.33h0a1.34,1.34,0,0,1,1.34-1.34h9.95a1.34,1.34,0,0,1,1.33,1.34h0A1.34,1.34,0,0,1,484.44,153.24Z" transform="translate(-34.97 -17.66)"/><path class="cls-12" d="M494.08,158.16H476.79a.82.82,0,0,1-.82-.82h0a.82.82,0,0,1,.82-.82h17.29a.82.82,0,0,1,.82.82h0A.82.82,0,0,1,494.08,158.16Z" transform="translate(-34.97 -17.66)"/><path class="cls-12" d="M498.08,161.73H476.64a.68.68,0,0,1-.67-.67h0a.68.68,0,0,1,.67-.67h21.44a.68.68,0,0,1,.67.67h0A.68.68,0,0,1,498.08,161.73Z" transform="translate(-34.97 -17.66)"/><rect class="cls-9" x="463.77" y="134.24" width="5.36" height="6.55" rx="2.24"/></g><g id="buble"><rect class="cls-11" x="461.19" y="114.08" width="45.99" height="32.15" rx="4"/><path class="cls-32" d="M526.37,158.22a.83.83,0,0,1-.82.83h0a.83.83,0,0,1-.83-.83V145a.83.83,0,0,1,.83-.82h0a.82.82,0,0,1,.82.82Z" transform="translate(-34.97 -17.66)"/><path class="cls-33" d="M524.85,150v8.12a.7.7,0,1,0,1.4,0V150Z" transform="translate(-34.97 -17.66)"/><ellipse class="cls-33" cx="490.57" cy="132.37" rx="0.7" ry="0.16"/><path class="cls-32" d="M526.37,158.22a.83.83,0,0,1-.82.83h0a.83.83,0,0,1-.83-.83V145a.83.83,0,0,1,.83-.82h0a.82.82,0,0,1,.82.82Z" transform="translate(-34.97 -17.66)"/><path class="cls-33" d="M524.85,150v8.12a.7.7,0,1,0,1.4,0V150Z" transform="translate(-34.97 -17.66)"/><polygon class="cls-33" points="491.28 132.37 491.28 132.37 491.28 132.37 491.28 132.37"/><path class="cls-32" d="M529.09,158.22a.83.83,0,0,1-.82.83h0a.83.83,0,0,1-.83-.83V145a.83.83,0,0,1,.83-.82h0a.82.82,0,0,1,.82.82Z" transform="translate(-34.97 -17.66)"/><path class="cls-33" d="M527.56,146.71v11.44a.71.71,0,0,0,1.41,0V146.71Z" transform="translate(-34.97 -17.66)"/><path class="cls-14" d="M527.56,146.71v11.44a.71.71,0,0,0,1.41,0V146.71Z" transform="translate(-34.97 -17.66)"/><polygon class="cls-33" points="494 129.05 494 129.05 494 129.05 494 129.05"/><path class="cls-32" d="M531.81,158.22a.83.83,0,0,1-.83.83h0a.83.83,0,0,1-.82-.83V145a.82.82,0,0,1,.82-.82h0a.83.83,0,0,1,.83.82Z" transform="translate(-34.97 -17.66)"/><path class="cls-33" d="M530.28,152v6.15a.71.71,0,0,0,1.41,0V152Z" transform="translate(-34.97 -17.66)"/><path class="cls-9" d="M530.28,152v6.15a.71.71,0,0,0,1.41,0V152Z" transform="translate(-34.97 -17.66)"/><polygon class="cls-33" points="496.71 134.34 496.71 134.34 496.71 134.34 496.71 134.34"/><path class="cls-32" d="M534.53,158.22a.83.83,0,0,1-.83.83h0a.83.83,0,0,1-.82-.83V145a.82.82,0,0,1,.82-.82h0a.83.83,0,0,1,.83.82Z" transform="translate(-34.97 -17.66)"/><path class="cls-33" d="M533,148.33v9.82a.7.7,0,0,0,1.4,0v-9.82Z" transform="translate(-34.97 -17.66)"/><path class="cls-13" d="M533,148.33v9.82a.7.7,0,0,0,1.4,0v-9.82Z" transform="translate(-34.97 -17.66)"/><polygon class="cls-33" points="499.43 130.67 499.43 130.67 499.43 130.67 499.43 130.67"/><path class="cls-32" d="M537.25,158.22a.83.83,0,0,1-.83.83h0a.83.83,0,0,1-.83-.83V145a.83.83,0,0,1,.83-.82h0a.83.83,0,0,1,.83.82Z" transform="translate(-34.97 -17.66)"/><path class="cls-33" d="M535.72,150.75v7.4a.7.7,0,1,0,1.4,0v-7.4Z" transform="translate(-34.97 -17.66)"/><path class="cls-34" d="M535.72,150.75v7.4a.7.7,0,1,0,1.4,0v-7.4Z" transform="translate(-34.97 -17.66)"/><polygon class="cls-33" points="502.15 133.09 502.15 133.09 502.15 133.09 502.15 133.09"/><path class="cls-35" d="M509.19,150.34a6.18,6.18,0,1,0-6.18-6.17,6.18,6.18,0,0,0,6.18,6.17Zm0-1.61a4.57,4.57,0,1,0-4.56-4.56,4.56,4.56,0,0,0,4.56,4.56Z" transform="translate(-34.97 -17.66)"/><path class="cls-18" d="M515.37,144.17h0a6.18,6.18,0,0,0-6.18-6.18v1.61a4.57,4.57,0,0,1,4.56,4.57h1.62Z" transform="translate(-34.97 -17.66)"/><path class="cls-30" d="M503,144.17h0a6.18,6.18,0,0,0,6.18,6.17v-1.61a4.56,4.56,0,0,1-4.56-4.56H503Z" transform="translate(-34.97 -17.66)"/></g><g id="cup"><polygon class="cls-9" points="424.18 231.63 417.42 231.63 419.5 250.37 424.18 250.37 428.87 250.37 430.95 231.63 424.18 231.63"/><path class="cls-10" d="M457,250.34s3,2.3,1.68,3.8-2.46,3.29-.39,4.52,4.18,3,2.79,4.95S464,267,464,267l-.11,1h-9.37l-2.08-17.69Z" transform="translate(-34.97 -17.66)"/><rect class="cls-13" x="416.44" y="231.11" width="15.29" height="1.56" rx="0.65"/><rect class="cls-13" x="418.23" y="230.01" width="11.71" height="1.89" rx="0.79"/></g><path class="cls-19" d="M536.4,347.68s-3.57,5.65-9.29,5.65-9.89-1-8.33,2.09,9.66,4.73,15.38,3.16,10.68,2.36,13.24,0c1.05-1,1.4-4.33.74-8.07-.75-4.26-.35-8.46-3.86-9.62C538,338.76,536.4,347.68,536.4,347.68Z" transform="translate(-34.97 -17.66)"/><path class="cls-15" d="M548.12,350.32c-4,1.77-8.53,1.89-12-1.4q-.18-.18-.33-.36c-1.28,1.6-4.35,4.77-8.64,4.77-5.73,0-9.89-1-8.33,2.09s9.66,4.73,15.38,3.16,10.68,2.36,13.24,0c1.05-1,1.4-4.33.74-8.07A.77.77,0,0,1,548.12,350.32Z" transform="translate(-34.97 -17.66)"/><path class="cls-10" d="M535.23,346.36A2.18,2.18,0,0,0,537,348c3.51.64,11.56,1.56,11.09-1.84-.68-4.89-5.2-46.31-6.24-50.48s-16.66-8.84-16.66,0C525.14,303.59,533.47,339,535.23,346.36Z" transform="translate(-34.97 -17.66)"/><path class="cls-20" d="M520.46,345.12S516.3,355,510.57,355s-9.88-1-8.32,2.09,11,2.69,16,2c6.54-1,12.07,2.55,13.11-.57s2.67-13.89-3.57-16S520.46,345.12,520.46,345.12Z" transform="translate(-34.97 -17.66)"/><path class="cls-15" d="M530.91,350.35a12.22,12.22,0,0,1-2.81,1.06c-3.54.82-7.11-.27-10.5-1.26-1.75,2.44-4.2,4.85-7,4.85-5.72,0-9.88-1-8.32,2.09s11,2.69,16,2c6.54-1,12.07,2.55,13.11-.57a24.07,24.07,0,0,0,.91-8.66C531.8,350,531.36,350.2,530.91,350.35Z" transform="translate(-34.97 -17.66)"/><path class="cls-9" d="M552.2,284.75s-37.85-4-42.06,2.48c-5.72,8.85,8.76,52.68,8.24,57.37s12.49,4.16,13.53-1-.37-32.19-3.49-40c0,0,24.19,3.55,28.93,4.86s34.92,2.86,27.12-24.72Z" transform="translate(-34.97 -17.66)"/><path class="cls-20" d="M574.58,227.29s-8.85.57-8.85-6.37-12-3.29-11.79-.6,2.42,6.41.86,8S571.37,234.31,574.58,227.29Z" transform="translate(-34.97 -17.66)"/><path class="cls-20" d="M558.1,222.92s-8.93,4.59-9.45,0a18.11,18.11,0,0,0-1.74-6.61.77.77,0,0,0-.94-.41c-.21.06-.4.33-.72.33-1.11,0,1.46-4.67.71-6.06-.52-1.82-3.82-8.33,0-10.93s12.92-5.72,16,0,6.28,9.49,3.74,20.79Z" transform="translate(-34.97 -17.66)"/><path class="cls-19" d="M550.81,206.38s.16,11.18,1.5,13,5.2.79,5.79,3.55a23.52,23.52,0,0,0,2.5,5.93s-3.84-2-5.25-2l-.48-2.56s-3.68,1.53-5.65,0c-1-.8-1.64-7-2.31-7.95-.34-.5-.63-.33-1.66-.08-.52.13-.39-.83.7-4.47,0,0,.61-1.27-.93-3.58C544.35,207.16,548.46,205.7,550.81,206.38Z" transform="translate(-34.97 -17.66)"/><path class="cls-15" d="M553.68,206.09c-1.81.41-2.86,1.52-5.4.51a1.67,1.67,0,0,0-1.71.19c-1.29.85-1.65,1.92-2.52,1.82-1.2-.15-2.32-2.41-1.91-4.17.23-1,.74-.94,1-2,.54-1.83-.73-2.78-.26-4s1.63-.88,4.17-2c3.64-1.61,3.66-3.1,5.81-3.21s2.26,1.22,4.68,1.12c2.11-.08,2.47-1.11,4.08-.86a5.42,5.42,0,0,1,3.81,3.12c1,2.11.32,3.49,2.52,4.68,1.59.87.77,2.69,1.38,3.91,1.08,2.12-1.72,1.94-.86,4.42a11.74,11.74,0,0,1,.17,3.12c.13,1.61-1.47,2.07-1.91,4.25-.28,1.39.26,1.78-.17,2.78-.53,1.22.22.79-.87,1.12,0,0-5.72-2.69-4.77-7.37.49-2.39,1.48-6.68.26-6.42-2.63.57-1.7.73-2.6,1.56a2,2,0,0,1-3.25-1.08C555.27,207.21,554.36,205.94,553.68,206.09Z" transform="translate(-34.97 -17.66)"/><path class="cls-20" d="M499.4,240.76c-1.76-1.95-.86-8.18,1.19-9.82.81-.65,2.51,4.27,3.33,5.18,1.63,1.81,6.6,3.77,12.44,12.89,1.31,2.06-5.59,1.85-5.59,1.85s-3-2.67-5.49-5.11C503.85,244.35,502.55,244.27,499.4,240.76Z" transform="translate(-34.97 -17.66)"/><path class="cls-20" d="M506.24,233.5s-1.06,3.38-.61,5.1,2.72,3.05,2.72,3.05-1-5.75-1-6.82S506.44,232.79,506.24,233.5Z" transform="translate(-34.97 -17.66)"/><path class="cls-7" d="M549.31,228.27a14.53,14.53,0,0,1,4.63-1.45c3.71-.34,3.86,1.18,10.28,3.55,6.8,2.52,7.24-2.48,10.36-3.08,2-.39,17.46,4.75,10.79,37.59,0,0-3.34,15.58-1.12,18.92s-34.51,11.69-32.28,1.12,3.34-18.37,1.67-22.82a103.2,103.2,0,0,1-3.9-12.8s-8.34,15.58-16.69,17.81S510.78,256.53,508.56,251s2.78-8.34,6.12-6.12,15,6.68,16.7,9.46C531.38,254.3,543.56,230.82,549.31,228.27Z" transform="translate(-34.97 -17.66)"/><path class="cls-36" d="M560.6,228.85s7.47,2.71,6,5.94c-1.19,2.58,8.53-1.09,8.94,2.5.22,1.94,11.86,3.65,8.48,4.91s-25.61,48.45-25.61,48.45-7.25-1.58-6.41-5.73c0,0,1-4.13,1.79-9.6.47-3.42,1.11-7.33.41-11.21a27.94,27.94,0,0,0-1.47-4.64,90.94,90.94,0,0,1-3-10.17c-1.63-7.16,2.88-8.47,5.62-10.63,5.29-4.16,1.22-8.18-3.05-8.58s-5.38-.07-4.71-.64c4-3.47,7.61-3,10-2.07A15.54,15.54,0,0,1,560.6,228.85Z" transform="translate(-34.97 -17.66)"/><path class="cls-37" d="M510.51,244.41c-.24.23,3.76,1.21,4.53,3.27.65,1.72,3.81,2.5,5.9,3.19,3,1,5.19,5.39,10.44,3.43,0,0-.33-1.36-6.84-4.5-4.8-2.32-9.51-5-11-5.51C512.66,244,511.27,243.67,510.51,244.41Z" transform="translate(-34.97 -17.66)"/><polygon class="cls-3" points="552.09 289.47 565.18 342.41 569.88 342.41 555.72 289 552.09 289.47"/><polygon class="cls-3" points="508.38 291.03 495.27 342.41 490.59 342.41 504.22 291.03 508.38 291.03"/><path class="cls-38" d="M566.25,306.61c-.52-.52,6.88,53.46,6.88,53.46H570l-8.47-54.5Z" transform="translate(-34.97 -17.66)"/><rect class="cls-3" x="495.37" y="287.91" width="40.59" height="3.64" rx="1.5"/><path class="cls-3" d="M562.09,306.61c.52-.52-6.88,53.46-6.88,53.46h3.1l8.46-54.5Z" transform="translate(-34.97 -17.66)"/><path class="cls-38" d="M555.38,298.77A8.58,8.58,0,0,0,563,309c11.74,1.07,29,1.66,33.65-3.4,8-8.72-2.38-23.89,4.17-38.81,7.74-17.65-9.59-30.92-30.4-26.76s-16.13,27.06-12,34.35C561.25,279.22,557.06,290.36,555.38,298.77Z" transform="translate(-34.97 -17.66)"/><path class="cls-3" d="M557.68,298.77A8.52,8.52,0,0,0,565,309c11.17,1.07,27.63,1.66,32-3.4,7.57-8.72-2.26-23.89,4-38.81,7.36-17.65-9.12-30.92-28.92-26.76s-15.34,27.06-11.38,34.35C563.27,279.22,559.29,290.36,557.68,298.77Z" transform="translate(-34.97 -17.66)"/><rect class="cls-11" x="426.37" y="97.34" width="27.34" height="18.59" rx="2"/><path class="cls-12" d="M482.33,121.67H466.87a.89.89,0,0,1-.89-.89h0a.89.89,0,0,1,.89-.88h15.46a.89.89,0,0,1,.89.88h0A.89.89,0,0,1,482.33,121.67Z" transform="translate(-34.97 -17.66)"/><path class="cls-12" d="M470,129h-2.78a1.19,1.19,0,0,1-1.19-1.19h0a1.2,1.2,0,0,1,1.19-1.19H470a1.19,1.19,0,0,1,1.18,1.19h0A1.18,1.18,0,0,1,470,129Z" transform="translate(-34.97 -17.66)"/><path class="cls-12" d="M485.16,125.4H471.9a.77.77,0,0,1-.77-.76h0a.77.77,0,0,1,.77-.76h13.26a.77.77,0,0,1,.76.76h0A.77.77,0,0,1,485.16,125.4Z" transform="translate(-34.97 -17.66)"/><rect class="cls-27" x="234.69" y="45.01" width="74" height="44.74" rx="4"/><path class="cls-26" d="M286.45,87.75,278.28,92a9.46,9.46,0,0,1,3.38-12.24Z" transform="translate(-34.97 -17.66)"/><path class="cls-10" d="M286.48,87.56l-4.71-7.85a9.45,9.45,0,0,1,5-1.43h0Z" transform="translate(-34.97 -17.66)"/><path class="cls-9" d="M286.6,87.75l.32-9.46a9.48,9.48,0,0,1,6.94,15.8Z" transform="translate(-34.97 -17.66)"/><path class="cls-3" d="M286.58,87.9l7.19,6.28a9.45,9.45,0,0,1-8.93,2.9Z" transform="translate(-34.97 -17.66)"/><path class="cls-6" d="M286.45,87.89l-1.74,9.16a9.52,9.52,0,0,1-6.38-4.91Z" transform="translate(-34.97 -17.66)"/><path class="cls-7" d="M297.52,76.23h34.27A1.25,1.25,0,0,0,333,75h0a1.26,1.26,0,0,0-1.25-1.25H297.52A1.26,1.26,0,0,0,296.27,75h0A1.26,1.26,0,0,0,297.52,76.23Z" transform="translate(-34.97 -17.66)"/><path class="cls-7" d="M300.18,85.42h31.27a1.26,1.26,0,0,0,1.25-1.25h0a1.26,1.26,0,0,0-1.25-1.25H300.18a1.25,1.25,0,0,0-1.25,1.25h0A1.25,1.25,0,0,0,300.18,85.42Z" transform="translate(-34.97 -17.66)"/><path class="cls-7" d="M300.52,93.84h31.27A1.25,1.25,0,0,0,333,92.59h0a1.25,1.25,0,0,0-1.25-1.25H300.52a1.26,1.26,0,0,0-1.25,1.25h0A1.26,1.26,0,0,0,300.52,93.84Z" transform="translate(-34.97 -17.66)"/><rect class="cls-27" x="93.36" y="97.44" width="104" height="62.88" rx="12"/><path class="cls-39" d="M204.5,150.35l11.48,6a13.3,13.3,0,0,0-4.75-17.21Z" transform="translate(-34.97 -17.66)"/><path class="cls-9" d="M204.45,150.08l6.62-11a13.23,13.23,0,0,0-7-2h0Z" transform="translate(-34.97 -17.66)"/><path class="cls-13" d="M204.28,150.35l-.45-13.3a13.33,13.33,0,0,0-9.75,22.21Z" transform="translate(-34.97 -17.66)"/><path class="cls-3" d="M204.32,150.56l-10.12,8.83a13.3,13.3,0,0,0,12.56,4.08Z" transform="translate(-34.97 -17.66)"/><path class="cls-7" d="M204.5,150.55l2.44,12.87a13.34,13.34,0,0,0,9-6.9Z" transform="translate(-34.97 -17.66)"/><path class="cls-7" d="M188.93,134.17H140.77a1.76,1.76,0,0,1-1.75-1.76h0a1.76,1.76,0,0,1,1.75-1.76h48.16a1.76,1.76,0,0,1,1.76,1.76h0A1.76,1.76,0,0,1,188.93,134.17Z" transform="translate(-34.97 -17.66)"/><path class="cls-7" d="M185.2,147.08H141.26a1.77,1.77,0,0,1-1.76-1.76h0a1.76,1.76,0,0,1,1.76-1.76H185.2a1.76,1.76,0,0,1,1.76,1.76h0A1.77,1.77,0,0,1,185.2,147.08Z" transform="translate(-34.97 -17.66)"/><path class="cls-7" d="M184.72,158.91H140.77a1.76,1.76,0,0,1-1.75-1.76h0a1.76,1.76,0,0,1,1.75-1.76h43.95a1.77,1.77,0,0,1,1.76,1.76h0A1.77,1.77,0,0,1,184.72,158.91Z" transform="translate(-34.97 -17.66)"/><rect class="cls-27" x="368.48" y="47.57" width="52.11" height="35.43" rx="5.3"/><path class="cls-35" d="M422.54,91.94a9,9,0,1,0-9-9,9,9,0,0,0,9,9Zm0-1a8,8,0,1,0-8-8,8,8,0,0,0,8,8Z" transform="translate(-34.97 -17.66)"/><path class="cls-31" d="M422.54,91.7a8.76,8.76,0,1,0-8.76-8.76,8.75,8.75,0,0,0,8.76,8.76Zm0-1.38a7.38,7.38,0,1,0-7.37-7.38,7.37,7.37,0,0,0,7.37,7.38Z" transform="translate(-34.97 -17.66)"/><path class="cls-7" d="M419.21,84.78h-.51V81.57h-.8v-.38l1.31-.14Zm3.74-1.3a1.45,1.45,0,0,1-.32,1,1.08,1.08,0,0,1-.85.36,1.07,1.07,0,0,1-.85-.36,1.45,1.45,0,0,1-.32-1V82.4a1.46,1.46,0,0,1,.31-1,1.17,1.17,0,0,1,1.71,0,1.46,1.46,0,0,1,.32,1Zm-.5-1.18a1,1,0,0,0-.18-.62.58.58,0,0,0-.49-.24.58.58,0,0,0-.5.24,1,1,0,0,0-.17.62v1.29a1,1,0,0,0,.17.62.59.59,0,0,0,.5.23.56.56,0,0,0,.49-.23,1,1,0,0,0,.18-.62Zm3.4,1.18a1.45,1.45,0,0,1-.31,1,1.1,1.1,0,0,1-.85.36,1.07,1.07,0,0,1-.85-.36,1.41,1.41,0,0,1-.33-1V82.4a1.42,1.42,0,0,1,.33-1,1,1,0,0,1,.84-.37,1.08,1.08,0,0,1,.86.37,1.46,1.46,0,0,1,.31,1Zm-.49-1.18a1,1,0,0,0-.18-.62.57.57,0,0,0-.5-.24.56.56,0,0,0-.49.24,1,1,0,0,0-.18.62v1.29a1,1,0,0,0,.18.62.57.57,0,0,0,.5.23.56.56,0,0,0,.49-.23,1,1,0,0,0,.18-.62Z" transform="translate(-34.97 -17.66)"/><path class="cls-7" d="M426.7,83.1a.38.38,0,0,1,.1-.27.35.35,0,0,1,.27-.11.37.37,0,0,1,.27.11.43.43,0,0,1,.1.27v.09a.43.43,0,0,1-.1.27.41.41,0,0,1-.54,0,.38.38,0,0,1-.1-.27Zm.18.09a.22.22,0,0,0,.05.16.19.19,0,0,0,.28,0,.28.28,0,0,0,.05-.16V83.1a.28.28,0,0,0-.05-.16.19.19,0,0,0-.28,0,.22.22,0,0,0-.05.16Zm.69.92a.35.35,0,0,1,.1-.26.39.39,0,0,1,.54,0,.35.35,0,0,1,.1.26v.09a.36.36,0,0,1-.1.27.39.39,0,0,1-.54,0,.36.36,0,0,1-.1-.27Zm.18.09a.21.21,0,0,0,.05.16.18.18,0,0,0,.28,0,.25.25,0,0,0,.05-.16v-.09a.3.3,0,0,0-.05-.16.18.18,0,0,0-.14-.06.17.17,0,0,0-.14.06.24.24,0,0,0-.05.16Zm-.61.21-.14-.08.88-1.4L428,83Z" transform="translate(-34.97 -17.66)"/><rect class="cls-40" x="125.91" y="306.69" width="5.3" height="40.26" transform="translate(222.15 635.98) rotate(180)"/><rect class="cls-40" x="94.7" y="346.03" width="64.77" height="4.11" transform="translate(219.2 678.51) rotate(180)"/><path class="cls-20" d="M126.19,218.59c.82-.52,2.56.67,2.9,1.6,1.42,3.86,3.17,11.66,2.9,14.86-.33,3.92,1.7,12.73,1.7,12.73s15-2.74,19.19-2.6c4,.13,4.17,5.3,1.67,5.47s-25,6.58-27.34,4.6-6-27.33-5.95-30.1C121.3,223.07,123.84,220.1,126.19,218.59Z" transform="translate(-34.97 -17.66)"/><path class="cls-41" d="M149.66,250.4l-14.15-3.68c-2.15-.57-2.65-2.76-1.09-4.88l13-17.71c1.55-2.12,4.59-3.39,6.74-2.83L168.29,225c2.15.57,2.65,2.76,1.09,4.88l-13,17.71C154.85,249.69,151.81,251,149.66,250.4Z" transform="translate(-34.97 -17.66)"/><path class="cls-27" d="M151.33,250.82l-14.14-3.68c-2.16-.57-2.65-2.76-1.1-4.88l13-17.71c1.55-2.12,4.59-3.39,6.75-2.83L170,225.4c2.16.56,2.65,2.76,1.1,4.88l-13,17.71C156.52,250.11,153.49,251.38,151.33,250.82Z" transform="translate(-34.97 -17.66)"/><path class="cls-20" d="M163.64,242.41s-7.83-1.54-7.35.21,3.17,4,4.42,4S165.7,243.68,163.64,242.41Z" transform="translate(-34.97 -17.66)"/><path class="cls-7" d="M168.9,286.72s-16,30.84-43.39,26.63c-30.4-4.68-35.81-24.65-41.35-41.13s-19.19-83.38,3-87,31.5,56.77,41.55,67.91S165.66,253.31,168.9,286.72Z" transform="translate(-34.97 -17.66)"/><path class="cls-19" d="M135.66,324.18s-2.24,7.39.76,10.76,5.8,5.27,3.14,6-7.63-3.64-9.71-7.83-8.42-5.13-7.13-7.38,10.66-7.29,12.05-7.44C139.93,317.76,135.66,324.18,135.66,324.18Z" transform="translate(-34.97 -17.66)"/><path class="cls-15" d="M122.72,325.72c.52-.91,2.35-2.26,4.44-3.57a11.18,11.18,0,0,0,7.72,6.63c-.11,2.16.15,4.59,1.54,6.16,3,3.37,5.8,5.27,3.14,6s-7.63-3.64-9.71-7.83S121.43,328,122.72,325.72Z" transform="translate(-34.97 -17.66)"/><path class="cls-26" d="M141.81,266.24s39.67-1.44,43.23,5.08c2.93,5.37-31.67,39.62-43.48,52-2.16,2.26-4.3,3.17-6.24.73l-1.46-1.83a5.15,5.15,0,0,1-.19-6.16l30.05-43Z" transform="translate(-34.97 -17.66)"/><path class="cls-20" d="M193.28,336.51s3.76,6.73,8.27,6.91,7.81-.51,6.49,1.9-7.92,3-12.38,1.56-9.54,2.5-10.26,0,2.15-12.74,3-13.84C191.62,329,193.28,336.51,193.28,336.51Z" transform="translate(-34.97 -17.66)"/><path class="cls-23" d="M188.55,343.37a15.18,15.18,0,0,0,9.19-1.54,6.84,6.84,0,0,0,3.81,1.59c4.5.18,7.81-.51,6.49,1.9s-7.92,3-12.38,1.56-9.54,2.5-10.26,0a12.23,12.23,0,0,1,.26-4.4A9.73,9.73,0,0,0,188.55,343.37Z" transform="translate(-34.97 -17.66)"/><path class="cls-9" d="M132.78,250.52a19.47,19.47,0,0,0,4.93,3.59c5.11,2,40.77,3,47.14,3.81,14.73,1.79,9,71,9.25,77,.11,2.54-.14,3.32-2.64,3.74l-.71.11c-1.65.27-4-.05-4.36-1.68-3.86-18.34-9.29-61.14-9.83-60.11s-31.59,8.85-47.39-.95-15.52-19.79-15.84-21.46S132.78,250.52,132.78,250.52Z" transform="translate(-34.97 -17.66)"/><path class="cls-10" d="M186.67,338.39c3-7.74,3.34-14.85,2.29-23.2-.61-4.83-3.15-9.19-3.32-14.11-.13-3.63,1-7.18,1.5-10.77,1.12-7.7-3.38-21.7-13.7-20-6.39,1-20.29,5.08-25.24,1.26s-12.25-7.44-18.26-8c-3.13-.27-7.69-6.66-2.94-12.28l-12,2.33,2,8.95L153.16,281s17.08-.39,23.4-3.94q.88,5.31,1.75,10.63Q182.5,313,186.67,338.39Z" transform="translate(-34.97 -17.66)"/><path class="cls-20" d="M126.22,222.24s-2.93-7.64-.68-11.44-10.14-6.83-8.44-2.94l-.83,14.66Z" transform="translate(-34.97 -17.66)"/><path class="cls-20" d="M135.17,198.64s-4.21,12.76-8,15.25-11.57-4.58-13.32-10.74,1.4-15.48,8.22-15.64S134.7,192.41,135.17,198.64Z" transform="translate(-34.97 -17.66)"/><path class="cls-19" d="M131.7,194.08a7.14,7.14,0,0,1-4.92,4.32c-3.67.78-5.52-.84-4.73,4.59.55,3.79,2.3,4.8-.72,6.68-3.46,2.14-1.71,11.17-1.71,11.17s-2.93-1.18-3.14-2c-.13-.5.26-3.19.34-6,.24-8.39-1.21-22.59-1.21-22.59Z" transform="translate(-34.97 -17.66)"/><path class="cls-12" d="M125,217.83s4.22-.55,6,5.82c.36,1.26,3,1.59,3.66,3.75,1.86,6-5.51,6.58-5.08,11.46s-.27,6.85,3.19,11.66c0,0-9.85,4.8-15.94,6.59l-5.79-.05s-3.92-34.32-5.57-37.51l11.2-.44S124.33,225.13,125,217.83Z" transform="translate(-34.97 -17.66)"/><path class="cls-27" d="M127,251.3s2-2.22-.24-3.63c-3.27-2.07-7.92-7.21-4.84-9.51,5.9-4.4-8.28-11.65-6.58-14.18s3.15-3.57,4.12-3.2-2.77-1.14-3-1.92l-13.84-.08,5,12.83,1,12.38s3.28.13,6.35,9.64Z" transform="translate(-34.97 -17.66)"/><path class="cls-3" d="M153.16,281l-36.24-18.37s-2.4-19.56-10.77-19.85c-4.75-.17-10.14,6.42-13.9,12.15A12,12,0,0,0,94,270.24C104.31,279.9,126,294.49,153.16,281Z" transform="translate(-34.97 -17.66)"/><path class="cls-20" d="M111.88,220.89s-1.26-7.73-10.77,2.78S85.53,254,88.51,256.51s15.93-7.54,22.18-13.1c2.3-2,3.7-4.38,6.63-5.3a65.52,65.52,0,0,0,11.58-5.41,1.57,1.57,0,0,0,.84-.76c.19-.55-.26-1.1-.7-1.48-4.22-3.57-10-2.08-14.32.54a69.35,69.35,0,0,0-5.86,4.49c-2.86,2.19-6.33,4-9,6.37C99.87,241.86,117.57,225.88,111.88,220.89Z" transform="translate(-34.97 -17.66)"/><path class="cls-23" d="M131.7,194.08s-4,3.61-8.93,1.79-4.71-1.23-3.52,3.64-.16,11.26-5,12.52-1.89,2.8-2,8.91c-.11,10.25-5.13,5.6-9.28,8.46-1.21.83-3.72,5.33-4.32,6.68C93.21,248.56,80.51,242.32,79,241c-15.73-14,1.47-25.61,5.44-31.76s5.44-6.06,2.79-11.95,3.53-19,11.23-20.83c6.49-1.55,11.16.52,12.5-2.51s17.71-4.82,24.58,2.78,3.21,10.33,5.68,13.88c3.64,5.24-4.6,12.38-7.54,12.08C133.69,202.68,134.72,196.66,131.7,194.08Z" transform="translate(-34.97 -17.66)"/><path class="cls-15" d="M135.55,176.72s-18.75-6.77-20.11-.05c-.72,3.56-9.66,2.9-12.11,3-4.25.09-13.91,9.31-10.72,16s1.37,15.14-2.27,16.74-15.19,19.75-7.61,25.13c10.54,7.48,14.1,1.85,14.1,1.85s-6.77,9.32-17.59,1.84-5.32-19-5.32-19a22.47,22.47,0,0,1,7.42-9.31s8.31-9.08,6.86-13.09-3.52-4.72,1.25-15.26,16.83-8.69,16.83-8.69,3.57.26,5.13-2.39S129.91,169.3,135.55,176.72Z" transform="translate(-34.97 -17.66)"/><rect class="cls-39" x="153.66" y="168.41" width="32.83" height="21.6" rx="4"/><path class="cls-42" d="M216.27,197.64h0a2.8,2.8,0,0,1-2.79-2.79h0a2.81,2.81,0,0,1,2.79-2.8h0a2.81,2.81,0,0,1,2.8,2.8h0A2.81,2.81,0,0,1,216.27,197.64Z" transform="translate(-34.97 -17.66)"/><path class="cls-42" d="M209.67,197.64H195a.65.65,0,0,1-.65-.65h0a.66.66,0,0,1,.65-.66h14.72a.66.66,0,0,1,.65.66h0A.65.65,0,0,1,209.67,197.64Z" transform="translate(-34.97 -17.66)"/><path class="cls-42" d="M215.62,201.23H195a.65.65,0,0,1-.65-.65h0a.66.66,0,0,1,.65-.66h20.67a.66.66,0,0,1,.65.66h0A.65.65,0,0,1,215.62,201.23Z" transform="translate(-34.97 -17.66)"/><path class="cls-42" d="M209.67,194.83H195a.65.65,0,0,1-.65-.65h0a.66.66,0,0,1,.65-.66h14.72a.66.66,0,0,1,.65.66h0A.65.65,0,0,1,209.67,194.83Z" transform="translate(-34.97 -17.66)"/><path class="cls-42" d="M209.67,192.05H195a.65.65,0,0,1-.65-.65h0a.66.66,0,0,1,.65-.66h14.72a.66.66,0,0,1,.65.66h0A.65.65,0,0,1,209.67,192.05Z" transform="translate(-34.97 -17.66)"/><g id="_1-2" data-name="1"><path class="cls-7" d="M66,311.23c5.76-.65,10.54-11.7,8.11-17.93-.71-1.83-1.44-1.71-4.87-5.69-4.75-5.51-7.4-8.59-7.3-12,.14-5.13,8.24-4.71,8.46-9.33.31-6.55-13.49-16.09-18.61-13a6.43,6.43,0,0,0-2.64,6.56c1,3.44,5.74,2.66,7.31,6.12,1.44,3.18-1.59,6-3.25,12.47a37.09,37.09,0,0,0,.21,16.83C55,301.35,60,311.89,66,311.23Z" transform="translate(-34.97 -17.66)"/><path class="cls-7" d="M55,252.72s-4.58,4.17-2.09,5.9,9.71,4.6,8.4,7.48,2.14,18.64,2.14,18.64l-11.89-.06S53,277,54.84,273.3c1.3-2.54,3.46-8.36-1.29-9.95s-5.16-3.88-4.5-5.81S50.57,252.59,55,252.72Z" transform="translate(-34.97 -17.66)"/><path class="cls-4" d="M55.47,312.4c-5.6-4-5.69-18.67-.18-25.64,2.35-3,4.75-3.31,5.14-6.1.6-4.28-4.62-5.93-5.07-11.38s4.56-7.52,4.72-13.44c.15-5.53-5.76-6.5-5.85-11.6-.1-4.9.66-7,4.25-6.49,5.12.76,13.75,10.72,10.82,19.92-1.13,3.56-2.55,3.87-2.84,7.12-.56,6.39,4.6,8.77,5,15.46.24,4.37-1.89,4.35-4.08,12-3.18,11.13,5.77,17.38,2.06,20.37C67.15,314.45,57.59,313.91,55.47,312.4Z" transform="translate(-34.97 -17.66)"/><path class="cls-6" d="M61.33,311.26c.2-.4-4.07-14.26-2.82-16.88a100.87,100.87,0,0,1,5-9.64c4.12-6-4-12.32-5.62-14.26s.65-4.28,1.95-12.55a19.55,19.55,0,0,1-2.65,5.17,9.34,9.34,0,0,0-1.07,9.18,11,11,0,0,0,1.33,2.08c.6.77,2.62,3.15,3,4.69.44,1.94-.74,3.57-2.52,4.72a9.12,9.12,0,0,0-4.1,9.71c.86,4.21,2.7,17.95,2.7,17.95Z" transform="translate(-34.97 -17.66)"/><path class="cls-5" d="M52.7,316.8c-2.31,0-5.59-7.6-4.6-14,.38-2.4,1.12-3.07.8-4.81-.75-4.13-6.78-2.74-8.18-8-1.5-5.67,2.46-9.45.2-16.71-1.72-5.51-5.48-5.58-5.79-10.08-.35-5,3.84-10.89,7.39-10.53,2.93.29,4.76,4.82,5.58,6.87,3,7.44-1.94,10.91.86,17.36,2.15,5,6.33,4.15,8.33,9.43,1.62,4.3,2.88,10,2.41,14.83C59.14,306.76,55.54,316.76,52.7,316.8Z" transform="translate(-34.97 -17.66)"/><path class="cls-9" d="M71.45,311.38l-23.27-.12a3.23,3.23,0,0,0-3.12,3.7c.94,7.47,3.13,23.91,3.75,28.55a1.39,1.39,0,0,0,1.36,1.24H69.66A1.4,1.4,0,0,0,71,343.48l3.31-28.66A3,3,0,0,0,71.45,311.38Z" transform="translate(-34.97 -17.66)"/><path class="cls-6" d="M43.37,252.9s-7.82,5.82-2.64,11c2.6,2.62,7.2,13.31,5,18s-1.15,8.45,4.17,11.19,2,7.77,1.64,9.93,1.35,8.34,1.35,8.34l-4.14-.14s-2.1-6.78-.54-9.22a4.72,4.72,0,0,0-1.73-6.92c-2.63-1.29-6.33-2.44-6.13-8.48,0,0,2-9.75,1.06-12.08a22.68,22.68,0,0,0-3.67-6.41c-1.43-1.63-4.68-5.24-1.37-10.64S42,252.39,43.37,252.9Z" transform="translate(-34.97 -17.66)"/><path class="cls-10" d="M58.43,344.75s-2.26-3.57-4.31-5c-2.54-1.72-4.14-6.85-2.91-9.06,2.76-5-.83-11.58-1-13.92s1.73-5.52,3.31-5.51H47.33a2.61,2.61,0,0,0-2.59,3l4,29.11a1.6,1.6,0,0,0,1.58,1.38Z" transform="translate(-34.97 -17.66)"/></g></g></g></svg>