<svg id="Vector_illustration" data-name="Vector illustration" xmlns="http://www.w3.org/2000/svg" viewBox="0 0 374.7 305.15"><defs><style>.cls-1{fill:#d6eef8;}.cls-2{fill:#fff;}.cls-3{fill:#aed3e1;}.cls-4{fill:#f1f1f1;}.cls-5{fill:#dfe5e8;}.cls-6{fill:#8ed3ee;}.cls-7{fill:#61b6d0;}.cls-8{fill:#ffbf33;}.cls-9{opacity:0.66;}.cls-10{fill:#ffdc33;}.cls-11{fill:#1c2b49;}.cls-12{fill:#ffbe9e;}.cls-13{fill:#ec8672;opacity:0.5;}.cls-14{fill:#1e2f96;}.cls-15{fill:#797df4;}.cls-16{fill:#a3aaff;}.cls-17{fill:#5259b1;}.cls-18{fill:#8898e4;}.cls-19{fill:#5a6eb6;}.cls-20{fill:#aab4ff;}.cls-21{fill:#0f1a42;}.cls-22{fill:#132060;}.cls-23{fill:#45296d;}.cls-24{fill:#60398d;}.cls-25{fill:#3690cd;}.cls-26{fill:#1f6d98;}.cls-27{fill:#48ace4;}.cls-28,.cls-29{fill:#ff8433;}.cls-29{opacity:0.58;}</style></defs><path class="cls-1" d="M68,338.22S50.44,317,59,296.14s32.53-20.95,26.13-56.45,6.8-53.82,23.52-63.38c28.74-16.42,54.3-33.29,42.9-62.52s2.56-61.08,30.06-65.71c31.53-5.31,60.29,23.52,81.68,23.52s66.1-15.63,88,6.18c16.09,16,17,33.36,24,57.94,7.94,27.8,50.71,40.59,35.48,97.46-11.53,43.06,28.06,56.25,9.17,96C218.49,352.48,68,338.22,68,338.22Z" transform="translate(-56.65 -47.43)"/><path class="cls-2" d="M147,147.6c-.26.34-.53.68-.81,1a66.27,66.27,0,0,1,8.34,25.89c4.74,42.09-24.85,90.39-54.13,121.56-13.75,14.65-20.53,29.12-20.24,43.11l1.21.08c-.33-13.7,6.34-27.92,19.91-42.37,29.46-31.37,59.23-80,54.44-122.51A67.27,67.27,0,0,0,147,147.6Z" transform="translate(-56.65 -47.43)"/><path class="cls-2" d="M369.24,217.45c-13,38-51.75,47.41-85.93,55.68-27.18,6.57-52.85,12.78-63.21,32-5.16,9.57-6.17,21.85-3,37.18h1.22c-3.13-15.15-2.17-27.23,2.88-36.6,10.11-18.75,35.52-24.9,62.43-31.41,34.48-8.34,73.55-17.8,86.79-56.45,7.63-22.28,22.33-33.4,34.86-38.94-.21-.35-.42-.69-.64-1C391.87,183.54,377,194.85,369.24,217.45Z" transform="translate(-56.65 -47.43)"/><path class="cls-2" d="M206.15,49.93l-1.31-.37c-17.71,18.56-40.32,29-56.57,34.55-.07.44-.12.88-.19,1.33C164.64,79.84,188,69.17,206.15,49.93Z" transform="translate(-56.65 -47.43)"/><path class="cls-2" d="M368.7,110.25c-24.76-7.12-47-31.82-56.71-44l-1.49,0c9.6,12.11,32.71,38.17,58.56,45.27Z" transform="translate(-56.65 -47.43)"/><ellipse class="cls-3" cx="189.32" cy="284.88" rx="185.38" ry="20.27"/><rect class="cls-2" x="128.38" y="25.71" width="166.2" height="139.33" rx="4.44"/><path class="cls-4" d="M218.94,170.16a12.73,12.73,0,1,0,12.73,12.73H218.94Z" transform="translate(-56.65 -47.43)"/><path class="cls-5" d="M219.92,167.67v14.24h14.24A14.25,14.25,0,0,0,219.92,167.67Z" transform="translate(-56.65 -47.43)"/><path class="cls-6" d="M346.79,73.14H189.47A4.44,4.44,0,0,0,185,77.58V84.2h166.2V77.58A4.44,4.44,0,0,0,346.79,73.14Z" transform="translate(-56.65 -47.43)"/><circle class="cls-2" cx="136.88" cy="31.24" r="1.52"/><circle class="cls-2" cx="145.68" cy="31.24" r="1.52"/><circle class="cls-2" cx="154.47" cy="31.24" r="1.52"/><rect class="cls-7" x="216.6" y="51.49" width="5.77" height="5.77"/><rect class="cls-4" x="227.13" y="51.49" width="24.1" height="1.43"/><rect class="cls-4" x="227.13" y="55.84" width="15.28" height="1.43"/><rect class="cls-8" x="216.6" y="64.12" width="5.77" height="5.77"/><rect class="cls-4" x="227.13" y="64.12" width="18.94" height="1.43"/><rect class="cls-4" x="227.13" y="68.47" width="24.1" height="1.43"/><g class="cls-9"><rect class="cls-6" x="216.6" y="76.75" width="5.77" height="5.77"/></g><rect class="cls-10" x="191.6" y="95.38" width="5.77" height="5.77"/><rect class="cls-4" x="227.13" y="76.75" width="22.5" height="1.43"/><rect class="cls-4" x="227.13" y="81.1" width="24.1" height="1.43"/><rect class="cls-4" x="209.74" y="147.15" width="22.5" height="1.43" transform="translate(385.32 248.31) rotate(180)"/><rect class="cls-4" x="208.13" y="142.81" width="24.1" height="1.43" transform="translate(383.72 239.61) rotate(180)"/><rect class="cls-4" x="200.62" y="99.73" width="42.77" height="1.43"/><rect class="cls-4" x="200.62" y="95.38" width="45.82" height="1.43"/><rect class="cls-4" x="213.3" y="155.85" width="18.94" height="1.43" transform="translate(388.88 265.7) rotate(180)"/><rect class="cls-4" x="208.13" y="151.5" width="24.1" height="1.43" transform="translate(383.72 257) rotate(180)"/><path class="cls-10" d="M222.73,116.05v17.52a18.4,18.4,0,0,0,18.41-18.4,18.19,18.19,0,0,0-2.92-9.93Z" transform="translate(-56.65 -47.43)"/><path class="cls-7" d="M204.63,111.9l18.1,4.15V96.77A18.39,18.39,0,0,0,204.63,111.9Z" transform="translate(-56.65 -47.43)"/><g class="cls-9"><path class="cls-6" d="M205.94,122.68a18.4,18.4,0,0,0,16.79,10.89V116.05Z" transform="translate(-56.65 -47.43)"/></g><path class="cls-8" d="M222.73,96.77v19.28l15.49-10.81h0A18.37,18.37,0,0,0,222.73,96.77Z" transform="translate(-56.65 -47.43)"/><path class="cls-6" d="M204.34,115.17a18.25,18.25,0,0,0,1.6,7.51l16.79-6.63-18.1-4.15A17.68,17.68,0,0,0,204.34,115.17Z" transform="translate(-56.65 -47.43)"/><rect class="cls-8" x="189.24" y="116.28" width="9.3" height="11.59"/><rect class="cls-6" x="189.24" y="127.87" width="9.3" height="20.36"/><rect class="cls-10" x="189.24" y="122.87" width="9.3" height="5"/><rect class="cls-6" x="208.02" y="122.87" width="9.3" height="25.36"/><rect class="cls-6" x="226.8" y="132" width="9.3" height="16.23"/><rect class="cls-6" x="245.58" y="121.35" width="9.3" height="26.89"/><rect class="cls-6" x="264.36" y="114.86" width="9.3" height="33.38"/><rect class="cls-8" x="208.02" y="114.3" width="9.3" height="8.57"/><rect class="cls-8" x="226.8" y="116.28" width="9.3" height="15.72"/><rect class="cls-8" x="245.58" y="108.75" width="9.3" height="12.6"/><rect class="cls-8" x="264.36" y="97.78" width="9.3" height="17.07"/><rect class="cls-10" x="208.02" y="120.6" width="9.3" height="2.27"/><rect class="cls-10" x="226.8" y="126.54" width="9.3" height="5.46"/><rect class="cls-10" x="245.58" y="117.51" width="9.3" height="3.84"/><rect class="cls-10" x="264.36" y="108.12" width="9.3" height="6.73"/><path class="cls-11" d="M204.39,170.87c-.44-1-12.08-1.15-12.71,0-.62-1.9-.83-3.08-2-3.61-2-.92-13.58,5.13-13.58,5.13s-5.5-2.69-3.75-6.26,4.5-6,4.06-8.56-1.12-11.81,3.38-13.18,7.12.56,7.12.56a4.5,4.5,0,0,1,5.75.75,26.15,26.15,0,0,1,5.61,10.14c.41,2.25-.2,1.92,1.31,3.5S206.34,166.94,204.39,170.87Z" transform="translate(-56.65 -47.43)"/><path class="cls-12" d="M192.8,163.22a23.74,23.74,0,0,0-.59,3.88s0,0,0,0c-.13,1.69-.15,3.09-.15,3.09s.24,3.71-1.58,5.45-5.22,4.49-5.63.78a37.53,37.53,0,0,1,.51-8.8,4.59,4.59,0,0,0,1.25-1.79,2.46,2.46,0,0,0,.1-.56,1.92,1.92,0,0,0-.31-1.13,14.25,14.25,0,0,1-3.75-2.91c-1.32-1.63-3.51-4.84-3.43-5.28s2.17-4.88,2.59-5.81,2.5-2.07,4.59-2.19,2.33,1.69,2,3-.06,4.31,1.81,5.75a7.78,7.78,0,0,1,1.92,2.15A5.55,5.55,0,0,1,192.8,163.22Z" transform="translate(-56.65 -47.43)"/><path class="cls-13" d="M192.8,163.22a26.33,26.33,0,0,0-.59,3.88s0,0,0,0c-1.28,2.51-3.57,2.26-4.26,1.08a8.74,8.74,0,0,1-1.24-2.91c-.19-.68-.31-1.13-.31-1.13a2.47,2.47,0,0,0,2.71-.19c.91-.75,2.42-4.28,2.57-5.71A5.61,5.61,0,0,1,192.8,163.22Z" transform="translate(-56.65 -47.43)"/><path class="cls-12" d="M221.78,181.05s3.83-5.58,4.21-7.51.93-8.57,1.68-8-.31,3.75,0,3.37,2.07-4.69,2.44-4.37a5.55,5.55,0,0,1,.56,4.37c-.62,1.63-3.06,5.44-3.25,6.13s-3.5,9.81-3.5,9.81Z" transform="translate(-56.65 -47.43)"/><path class="cls-12" d="M205.23,329.59c-1.62-.12-5.87-4.74-6.43-6.06-.38-.88.06-2.19.52-3.56a17.45,17.45,0,0,0,.6-2c.44-2-1.25-8.69-2.06-12.88s-1.94-10-2.69-14-3.31-15.62-3.31-17.5-1.81-10.81-1.81-10.81l-1.24.63s2.11,21.94,2.36,23.06,1.25,7.25,2.5,11.5,2.63,20.12,2.69,20.75c0,0,0,0,0,.08.11.7.77,2.45,0,3.29s-7.63.19-8.63,0-2.68-.56-2.68-1.24,1.82-1.24,2.73-1.45l.27,0c.75-.13,4.37-1.19,4.68-1.69s-1.24-6.5-2.06-9.19-5.81-18.31-6.87-24.19-3.44-15.87-3.5-17.87a11,11,0,0,0-1.19-4.09l17.75-2.1s1.25,9.06,1.75,10.44,1,7.43,1.31,11.75,1.94,19.5,2.31,23.5.88,13.62,1.07,15.31c.09.82,1,1.86,2,2.92a14.29,14.29,0,0,1,2.68,3.27C208.73,329.22,206.86,329.72,205.23,329.59Z" transform="translate(-56.65 -47.43)"/><path class="cls-11" d="M203.86,219.14a121,121,0,0,0-3.33-11.67l-11.42-5.25s-11.25,2.42-12.25,4.84-4.58,14.25-4.08,20.16,1,12.19,1,12.19l1,9.46s1.83,12.1,2.66,12.69,5.67,2.58,13.17,2.58,9.5-.42,10-1.67,3.25-22.34,3.25-22.34S205.11,224.81,203.86,219.14Z" transform="translate(-56.65 -47.43)"/><path class="cls-14" d="M173.67,178.37l3.19,13.52a7,7,0,0,0,1.92-.67.44.44,0,0,1,.44,0c1,.53,2.39,3.54,2.39,3.54s-1.47,2-3.23,4.21c-1.95,2.41-4.26,5-5.27,5.13-1.92.25-1.83-1.59-1.92-8s2.42-25.84,3-27.17c.36-.82,4.49-1.13,7.62-1.25,2-.08,3.55-.08,3.55-.08l.08.41a67.07,67.07,0,0,1,3.39,7.18,3.87,3.87,0,0,1,.28,1.24.76.76,0,0,1-.05.21l-13.33-.76A2,2,0,0,0,173.67,178.37Z" transform="translate(-56.65 -47.43)"/><path class="cls-14" d="M179.24,197.94s-3.75,10.74-2.63,11.2,12.13,2,12.5,0,0-10.42,0-10.42Z" transform="translate(-56.65 -47.43)"/><path class="cls-14" d="M225.36,185.05c-.33.59-8,17.09-12.5,15.92-4.15-1.08-11.27-17.95-12.36-20.58.5,1.3,2.23,6,1.44,7.25a11.39,11.39,0,0,0-1.58,6.16c0,2.75,2.42,16.85,1.33,17.13s-10.91,0-11.16-1-.5-11.25-.5-11.25l-.92-21.83s1.93-3.36,3.46-5.44a6.54,6.54,0,0,0,1.74,3c3.29,2.64,6.45.45,10.08-3.57,2.15,5,8.57,19.82,9.47,19.34a24.09,24.09,0,0,0,5.17-5.83c.83-1.59,1.91-3.92,2.75-3.34S225.69,184.47,225.36,185.05Z" transform="translate(-56.65 -47.43)"/><path class="cls-15" d="M189.11,176.47a11.66,11.66,0,0,1-2,3.09,42.75,42.75,0,0,0-2.34-3.76c-.59-.58,2.25-1.41,2.25-1.41a9.84,9.84,0,0,0-2.09-1.25c-1.08-.46-2.87-4.79-3.13-5.42,2-.08,3.55-.08,3.55-.08l.08.41S189.19,175,189.11,176.47Z" transform="translate(-56.65 -47.43)"/><path class="cls-15" d="M193.69,172.85c-.83.54-2.46,1.54-2.06,1.87a8.91,8.91,0,0,1,1.06,2.17l-1.5.91-2.08-1.33a58.62,58.62,0,0,1,2.57-5.64c.39-.89.65-1.75.83-1.27.57-.79.79,1.1,1.28.66C194.24,171.21,194.31,172.45,193.69,172.85Z" transform="translate(-56.65 -47.43)"/><path class="cls-14" d="M181.61,194.8s-1.47,2-3.23,4.21l-1.52-7.12a7,7,0,0,0,1.92-.67.44.44,0,0,1,.44,0C180.19,191.79,181.61,194.8,181.61,194.8Z" transform="translate(-56.65 -47.43)"/><path class="cls-16" d="M197.49,204l-16.73-.9a2,2,0,0,1-1.84-1.58l-.54-2.53c1.76-2.18,3.23-4.21,3.23-4.21s-1.42-3-2.39-3.54a.44.44,0,0,0-.44,0,7,7,0,0,1-1.92.67l-3.19-13.52a2,2,0,0,1,2.06-2.45l13.33.76,3.57.2a2,2,0,0,1,1.84,1.57l5.08,23.15A2,2,0,0,1,197.49,204Z" transform="translate(-56.65 -47.43)"/><path class="cls-12" d="M190.45,176.76a2.33,2.33,0,0,0-1.62-1.53c-.81-.27-1.66-.2-1.8.32-.27,1-.55,2.75-1.57,2.25s-1.52-.25-1.52.75.55,4.34-.26,5.31l-.19.24c-1.06,1.52-4.27,7.16-4.27,7.16,1,.53,2.39,3.54,2.39,3.54s4.25-10.41,5.58-11.75S190.77,178.33,190.45,176.76Z" transform="translate(-56.65 -47.43)"/><path class="cls-11" d="M196.37,318.8c.11.7.77,2.45,0,3.29s-7.63.19-8.63,0-2.68-.56-2.68-1.24,1.82-1.24,2.73-1.45a7.86,7.86,0,0,0,3.52,1A10.52,10.52,0,0,0,196.37,318.8Z" transform="translate(-56.65 -47.43)"/><path class="cls-11" d="M205.23,329.59c-1.62-.12-5.87-4.74-6.43-6.06-.38-.88.06-2.19.52-3.56,1.19,2.26,3,5.35,4,5.31a2.64,2.64,0,0,0,1.95-1.14,14.29,14.29,0,0,1,2.68,3.27C208.73,329.22,206.86,329.72,205.23,329.59Z" transform="translate(-56.65 -47.43)"/><path class="cls-11" d="M197.51,167.32c-.26,0-4.8-.66-5.44,2.59a7.42,7.42,0,0,0,2.07,5.17c3.29,2.64,8.29-.27,10.25-4.2h0C204,169.85,199.05,167.55,197.51,167.32Z" transform="translate(-56.65 -47.43)"/><path class="cls-16" d="M385.13,281.91l7.68,50.24A1,1,0,0,0,394,333l.36-.06a1,1,0,0,0,.82-1.14l-7.77-49.87Z" transform="translate(-56.65 -47.43)"/><path class="cls-17" d="M397.32,280.72,405,332.13a1,1,0,0,0,1.16.85l.36-.06a1,1,0,0,0,.82-1.17l-7.77-51Z" transform="translate(-56.65 -47.43)"/><path class="cls-16" d="M415.94,222.64c-.33,1.58-10.41,53.83-12.33,56.33s-6,2.58-9.25,2.83-26.08,0-26.08,0v-1.71s2.24,0,5.5,0c7.71-.07,21.13-.39,24.21-1.79,4.37-2,4.87-6.83,5.87-10.33s8.72-45.33,9.5-46.75c.68-1.24,1.57-.95,1.78-.86l.05,0A2,2,0,0,1,415.94,222.64Z" transform="translate(-56.65 -47.43)"/><path class="cls-17" d="M415.14,220.36c-.21-.09-1.1-.38-1.78.86-.78,1.42-8.5,43.25-9.5,46.75s-1.5,8.33-5.87,10.33c-3.08,1.4-16.5,1.72-24.21,1.79-1.45-.29-2.32-.73-2.17-1,.25-.5,22.83-24.58,22.83-24.58.17-.5,6.92-32.17,8.59-34.17s2.83-2.66,5.16-2.66S414.62,220.06,415.14,220.36Z" transform="translate(-56.65 -47.43)"/><path class="cls-16" d="M368.65,280.27,358.46,332a1,1,0,0,1-1.21.81l-.35-.09a1,1,0,0,1-.76-1.22l10.26-51.3Z" transform="translate(-56.65 -47.43)"/><rect class="cls-18" x="86.81" y="196.42" width="239.65" height="5.03"/><polygon class="cls-19" points="86.81 196.42 79.01 188.99 79.03 194.24 86.81 201.44 86.81 196.42"/><polygon class="cls-20" points="79.01 188.99 295.71 191.08 326.46 196.42 86.81 196.42 79.01 188.99"/><polygon class="cls-2" points="98.02 193.67 98.02 191.99 121.71 191.99 134.77 172.3 136.21 173.36 122.46 193.67 98.02 193.67"/><polygon class="cls-11" points="175.58 192.71 171.21 175.55 196.33 175.55 200.71 190.17 175.58 192.71"/><polygon class="cls-2" points="172.03 176.28 195.81 176.28 199.88 189.6 176.12 191.94 172.03 176.28"/><polygon class="cls-11" points="175.58 192.71 190.63 196.15 207.29 192.71 200.71 190.17 175.58 192.71"/><polygon class="cls-11" points="175.58 192.71 175.83 193.42 190.29 196.88 207.29 193.34 207.29 192.71 190.63 196.15 175.58 192.71"/><polygon class="cls-11" points="304.02 194.73 285.54 194.73 276.62 178.39 275.35 179.27 284.38 196.13 304.02 196.13 304.02 194.73"/><path class="cls-12" d="M382.53,206.22a10.67,10.67,0,0,0,1-3.79c.25-2.37.5-4.12.5-4.12s-5.46,1.45-6.46-1.92-1.5-13.67,1.71-14.79,14,5.06,13.42,9.75-1.13,11.71-1.13,11.71-2.69,3.54-4.12,4.23S382.53,206.22,382.53,206.22Z" transform="translate(-56.65 -47.43)"/><path class="cls-13" d="M383.73,201a4,4,0,0,0,2.68-3.54,24.37,24.37,0,0,1-2.34.85S383.92,199.39,383.73,201Z" transform="translate(-56.65 -47.43)"/><path class="cls-12" d="M334.35,327.76c.16,1.7.67,3.32-.05,4.59-.81,1.43-16.75,1-15.88,0a7.38,7.38,0,0,1,2.47-2s0,0,0,0a7.19,7.19,0,0,1,1.27-.47,14.84,14.84,0,0,0,6.69-5.16,35.09,35.09,0,0,0,2.94-6.94l3.69,2.87a32.58,32.58,0,0,0-1.19,6.44C334.31,327.31,334.32,327.54,334.35,327.76Z" transform="translate(-56.65 -47.43)"/><path class="cls-11" d="M334.3,332.35c-.81,1.43-16.75,1-15.88,0a7.38,7.38,0,0,1,2.47-2s0,0,0,0c2.61.51,6.93,1.09,8.09-.47s3.83-2,5.36-2.12C334.51,329.46,335,331.08,334.3,332.35Z" transform="translate(-56.65 -47.43)"/><path class="cls-21" d="M357.11,280.41s-3.33,1.56-3.08,6.4,2.08,31.25,1.58,32.08-6.67,1.58-6.92.67-3.33-27.34-3.33-27.34-.25-6.33,1.67-9.41,6-5.92,7.33-4.75S357.11,280.41,357.11,280.41Z" transform="translate(-56.65 -47.43)"/><path class="cls-22" d="M397.27,274.47c-2.33,4.91-9.66,4.75-19.33,5.33s-26.17-.08-27.92,2-5.08,19.08-7.91,25.67-5.59,13-6.09,13.16-6.75-.66-6.5-1.83,3.67-14.83,4.5-18.92,3.34-13.5,3.5-15.58.25-9.83,6.09-12.67a62.15,62.15,0,0,1,5.84-2.33h0c3.1-1.11,6.8-2.35,10.35-3.57,5.38-1.85,10.45-3.67,12.7-5,4.92-2.92,4.34-10.09,4.34-10.09a29.31,29.31,0,0,1,6.33-.95c3.08-.05,12.28,0,12.28,0S399.61,269.55,397.27,274.47Z" transform="translate(-56.65 -47.43)"/><path class="cls-12" d="M371.28,241a54.74,54.74,0,0,1-6.09-.52c-2.5-.41-3.75-2.33-6.33-1.95s-5,1.79-4.33,2.12,5.41-.84,6.16.35a4.7,4.7,0,0,0,4.38,1.86c1.67-.29,6.46.58,6.58.46A12.37,12.37,0,0,0,371.28,241Z" transform="translate(-56.65 -47.43)"/><path class="cls-8" d="M396.49,208.72s-3.8-5.66-4.88-5.66-3.08,1.83-5.25,2.41a25.56,25.56,0,0,1-3.83.75s-9.17,10.42-8.75,14.09,4,14.83,3.33,18,.42,7.25-.42,9.41-.83,2.92.17,2.92,16,.5,17.83-.5,1.25-.83,1.25-3.33-.5-14.88-.58-19.9S396.49,208.72,396.49,208.72Z" transform="translate(-56.65 -47.43)"/><path class="cls-10" d="M396.49,208.72a2.74,2.74,0,0,0-1.35-.57c-1.81-.45-4.38-.74-5.7.91-2,2.5-2.83,8.58-2,16.25s1.34,14.16.75,14.5-15.75-.34-16.5.58a3.48,3.48,0,0,0-.75,3.08c.34.75,10.07,3.09,14.25,3.09s6.67.41,7.92-.67,3.33-12.75,4.08-19.33a74.19,74.19,0,0,0,.42-12.25,15.09,15.09,0,0,0-.52-4.44A2.55,2.55,0,0,0,396.49,208.72Z" transform="translate(-56.65 -47.43)"/><path class="cls-21" d="M375.3,263.56l-25.83,5.73c3.1-1.11,6.8-2.35,10.35-3.57A150,150,0,0,0,375.3,263.56Z" transform="translate(-56.65 -47.43)"/><path class="cls-12" d="M355.05,330.85c-.82.93-15.5,4.06-15.13,2.81a5.93,5.93,0,0,1,1.9-3.07,1.51,1.51,0,0,1,.67-.24c1.24-.13,1.87-.13,3.87-2.26s3.35-6.39,3.61-8.13,4.49-.52,4.49-.52-.6,5.29-.07,6.36a.3.3,0,0,0,.07.11C355.11,326.66,355.86,329.91,355.05,330.85Z" transform="translate(-56.65 -47.43)"/><path class="cls-11" d="M355.05,330.85c-.82.93-15.5,4.06-15.13,2.81a5.93,5.93,0,0,1,1.9-3.07,5.53,5.53,0,0,0,4,.19c3.71-1,5.15-4.24,8.53-5a.3.3,0,0,0,.07.11C355.11,326.66,355.86,329.91,355.05,330.85Z" transform="translate(-56.65 -47.43)"/><path class="cls-11" d="M378.42,182.26s-2.2-2.1-1.57-4.22,4.89-5.5,13.89-4.25,10.5,10.62,9.75,17.43-1.63,9.5-5.07,11-7.56,3.69-8,1.38,2.74-13.2,1.28-14.54-7.34-2.15-7.9-3.84A7.11,7.11,0,0,0,378.42,182.26Z" transform="translate(-56.65 -47.43)"/><path class="cls-12" d="M248.65,242.73a19.46,19.46,0,0,1-3.29-.63c-1.37-.44-.87.13-2.25.31s-2.19.63-.75,1.88,6,1.12,7.75.25S248.65,242.73,248.65,242.73Z" transform="translate(-56.65 -47.43)"/><path class="cls-11" d="M293.86,176.47s-1.5-.31-.5-3.37,2.13-4.63,5.13-3,3.43,0,6.56,1.19,9.44,4.62,7.87,10.25-9.06,12.31-9.06,12.31h-5.25l-3.69-6.44Z" transform="translate(-56.65 -47.43)"/><path class="cls-12" d="M303.05,198l.81-4.12s-5.44-.94-5.62-2.5.43-5,1.87-4.81a1.82,1.82,0,0,0,1.75-2.44c-.44-.81-.91-.75-.83-1.38s1.52-2.25,1-2.81-7.57-4.44-8.13-3.44-3.87,11-2.81,14.44,5.56,1.5,5.94,2.5-1.7,4.75-1.7,4.75,5.09,2.13,6,1.81S303.05,198,303.05,198Z" transform="translate(-56.65 -47.43)"/><path class="cls-13" d="M298.91,192.22a3.05,3.05,0,0,1-.38-.32c-1.27.27-5.46,1-7-.07,1.53,2.12,5.14.69,5.48,1.58a3.67,3.67,0,0,1-.38,2A4.15,4.15,0,0,0,298.91,192.22Z" transform="translate(-56.65 -47.43)"/><path class="cls-11" d="M257.44,329.15s.92,5.82,0,6.41-18.16,1.33-17.33,0,6.13-2.93,8.86-5.25a12.42,12.42,0,0,0,3.39-3.92Z" transform="translate(-56.65 -47.43)"/><path class="cls-11" d="M277.78,326.89s-1.56,3.8-3.85,5.33-4.32,1.75-4.07,2.75,1.5,1.91,4.67,1.33,7.33,0,7.91-1.08-.66-6.91-.66-6.91Z" transform="translate(-56.65 -47.43)"/><path class="cls-23" d="M290.28,279.64s.48,16.17-1.18,26.33-6.49,24.34-7.32,24.34-5-.84-5.35-2.67,3.35-39.17,3.18-43.42S290.28,279.64,290.28,279.64Z" transform="translate(-56.65 -47.43)"/><path class="cls-24" d="M285.57,263.79s-30.83,10.93-33.46,15.93-2,47.63-1.12,48,6.12,2.13,7.5,1.13,6.5-43.5,7.25-44.13,13.87-.5,13.87-.5,16,1.13,18-1.25,5-19.18,5-19.18Z" transform="translate(-56.65 -47.43)"/><path class="cls-25" d="M317.27,230.64c-.58,4.06-1.66,10.16-2.88,16.08-1.81,8.8-3.95,17.21-5.28,18-2.75,1.63-11.12,1.87-17.75,1.13s-6.13-2.38-6.37-4.88c0-.26-.05-.8-.07-1.57-.1-5.14,0-20.37,0-27.46,4.91-6.82,10.94-15.79,12.48-19.47a19,19,0,0,0,1.44-8.35c-.13-2.17-.92-5.65-3.59-6a7.93,7.93,0,0,1,5.07,0c2.64.89,2.69-.11,2.69-.19s5.06,1.5,7.81,8.25c1.78,4.36,4,10.08,5.46,14.42a28.6,28.6,0,0,1,1.41,5.45A31.36,31.36,0,0,1,317.27,230.64Z" transform="translate(-56.65 -47.43)"/><path class="cls-26" d="M317.27,230.64a9.56,9.56,0,0,1-4.45.25s-1.78-18-2-20.27c.3,1.59,2.31,10.63,5.51,10a28.6,28.6,0,0,1,1.41,5.45A31.36,31.36,0,0,1,317.27,230.64Z" transform="translate(-56.65 -47.43)"/><path class="cls-27" d="M297.44,212.47c-1.54,3.68-7.57,12.65-12.48,19.47-3.33,4.63-6.14,8.27-6.68,8.61-1.34.84-27.75,5.75-28.17,5.67s-1.75-2.67-1.42-4.25,24.42-8.67,25.75-9.5,8.09-17.67,10.17-22.17a41.49,41.49,0,0,1,4.33-7.69c1.31-1.74,3.9-4.72,6.35-4.45,2.67.31,3.46,3.79,3.59,6A19,19,0,0,1,297.44,212.47Z" transform="translate(-56.65 -47.43)"/><path class="cls-26" d="M314.39,246.72c-1.81,8.8-3.95,17.21-5.28,18-2.75,1.63-11.12,1.87-17.75,1.13s-6.13-2.38-6.37-4.88c0-.26-.05-.8-.07-1.57,3.09,0,7.61-1.68,12.43-8.64,8.76-12.62,9.43-40.28,13.26-33.12s4,23.91,3.66,27.57A6.37,6.37,0,0,0,314.39,246.72Z" transform="translate(-56.65 -47.43)"/><path class="cls-16" d="M312.78,224.88,301,279.66a8,8,0,0,1-7.82,6.31H273.59a1.21,1.21,0,1,1,0-2.41c4.05,0,15.25-.05,18.81-.59,4.38-.67,5.21-2.5,6-3.75s9.66-46.75,11.26-55a1.57,1.57,0,1,1,3.08.64Z" transform="translate(-56.65 -47.43)"/><path class="cls-17" d="M332.2,224.88l-11.81,54.78a8,8,0,0,1-7.82,6.31H293.15a8,8,0,0,0,7.82-6.31l11.81-54.78a1.58,1.58,0,0,0-1.54-1.91h19.42A1.58,1.58,0,0,1,332.2,224.88Z" transform="translate(-56.65 -47.43)"/><path class="cls-16" d="M278.94,286l-7.67,50.24a1,1,0,0,1-1.17.83l-.36-.06a1,1,0,0,1-.81-1.14L276.69,286Z" transform="translate(-56.65 -47.43)"/><path class="cls-17" d="M299.13,286l-7.68,50.24a1,1,0,0,1-1.16.83l-.36-.06a1,1,0,0,1-.81-1.14L296.88,286Z" transform="translate(-56.65 -47.43)"/><path class="cls-17" d="M312.79,286l7.68,50.24a1,1,0,0,0,1.16.83L322,337a1,1,0,0,0,.82-1.14L315,286Z" transform="translate(-56.65 -47.43)"/><path class="cls-16" d="M292.6,286l7.68,50.24a1,1,0,0,0,1.16.83l.37-.06a1,1,0,0,0,.81-1.14L294.85,286Z" transform="translate(-56.65 -47.43)"/><path class="cls-11" d="M162,325.14s-.59,3.21,1.5,4.54,6.33,2.88,6,4a2.35,2.35,0,0,1-1.71,1.71c-.58.08-9,.29-9.17-.21s-1.76-9.9-1.33-10.42S162,325.14,162,325.14Z" transform="translate(-56.65 -47.43)"/><path class="cls-11" d="M145.78,327.06a18.79,18.79,0,0,1,.29,4.7c-.25,1.84-.66,4.05.07,4.13s9.7.75,11.11,0,.9-2.54-.22-3.38-3.67-.75-4.84-2.66a15,15,0,0,1-1.62-4Z" transform="translate(-56.65 -47.43)"/><path class="cls-23" d="M138.44,284.89a129.7,129.7,0,0,0,1.92,24.75c2.33,12.5,4.5,17.83,5.33,18.08s6.6-.11,6.8-1.35-1.05-19.73-1.46-23.81-.42-17.25-.42-17.25Z" transform="translate(-56.65 -47.43)"/><path class="cls-24" d="M143.44,263.14s25.67,9.08,30.17,13.33,4.25,7.59,3.83,9.5-10.5,28.92-11.83,31.84-2.17,7.75-3.08,8.33-6.68,0-6.42-.92,1.17-19.58,1.92-24.66,4.66-13.25,4.5-14.09-8-.83-8-.83-20.45,1.65-24-3.5-3.6-10.73-2.72-12.66S143.44,263.14,143.44,263.14Z" transform="translate(-56.65 -47.43)"/><path class="cls-28" d="M143,260.91a3.28,3.28,0,0,1,.4,2.23c-.33.92-13.93,7.19-15.63,6.34a2.38,2.38,0,0,1-1.32-3.26c.49-.74,14.79-6,15.37-6.16S143,260.91,143,260.91Z" transform="translate(-56.65 -47.43)"/><path class="cls-11" d="M127.05,179s1.19-2.12.37-3.5-7.31-6-8.5-2.37-8,5.69-8.06,12,3.06,9.19,4.63,10.31,4.53.3,4.53.3,5.22,1.77,6.65-1.27S127.05,179,127.05,179Z" transform="translate(-56.65 -47.43)"/><path class="cls-12" d="M119.74,202.64l-.62-6.78s5.43-.64,4.87-3-2.13-1.81-2.32-3.63,2.32-1.5,1.07-3.12-1.58-2.25-.7-3.81,5-3.32,5-3.32,5.25,9.13,4.31,13.13-5.7,4.5-5.6,5.44,0,4.56,0,4.56-1.4,1.25-2.4.87A15.2,15.2,0,0,0,119.74,202.64Z" transform="translate(-56.65 -47.43)"/><path class="cls-13" d="M129.58,195c-2.17,1.39-6.68,1.23-6.68,1.23a3.49,3.49,0,0,0,2.9,2.37,9.17,9.17,0,0,0,0-1C125.69,196.9,127.88,196.46,129.58,195Z" transform="translate(-56.65 -47.43)"/><path class="cls-12" d="M153.55,208.6a16.86,16.86,0,0,0,1.31-6.44c-.19-2.94-.81-5.12.56-3.94s2.07-.31,2-2.18,1.63-2.19,2.82-.44a7.57,7.57,0,0,1,0,7.37A13,13,0,0,0,158,208.6c-.5,2.37-1.25,2.62-2.19,2.12A10.7,10.7,0,0,1,153.55,208.6Z" transform="translate(-56.65 -47.43)"/><path class="cls-8" d="M143.78,260.39c-1.34,1.25-13.59,7-17.34,6.41-3.59-.55-18-40.14-19.25-43.59l-.08-.24s2.38-8.06,5.06-12.31,3.69-6.25,5.25-7.44a14.21,14.21,0,0,1,3.25-1.81,42.45,42.45,0,0,1,6.63.56c2,.5,7.39,5.58,9.48,9.25s2.58,29.08,3.75,32.58S145.11,259.14,143.78,260.39Z" transform="translate(-56.65 -47.43)"/><path class="cls-28" d="M111.53,223s.16-2.91.58-6.33a35.49,35.49,0,0,1,2.08-7.5,20.88,20.88,0,0,0-2.91,6.92,13.46,13.46,0,0,1-4.17,6.91Z" transform="translate(-56.65 -47.43)"/><path class="cls-10" d="M130.19,206.14c-4.28,1.37-4.38,6-2.67,9.46a51.42,51.42,0,0,0,6.81,9.93,46.72,46.72,0,0,0,8.64,8c2.3,1.66,7,5.87,10,4,2.75-1.75,4.92-11.39,5.17-15.4s1.42-12.26.5-12.93-5.33-2-6-1.08-1.42,8.66-3,12.75-1.58,3.83-2.33,2.91-7.5-11.16-10.84-14.58S131.85,205.61,130.19,206.14Z" transform="translate(-56.65 -47.43)"/><path class="cls-29" d="M143.78,260.39c-1.34,1.25-13.59,7-17.34,6.41-3.59-.55-18-40.14-19.25-43.59a34.73,34.73,0,0,0,4.68-4.42s6.24,17.52,14.62,23.85,14.42,3.62,12.9,6.22-11.25,2.11-8.51,5.61S134.69,263.05,143.78,260.39Z" transform="translate(-56.65 -47.43)"/><path class="cls-16" d="M115.71,224.88l11.81,54.78a8,8,0,0,0,7.82,6.31H154.9a1.21,1.21,0,1,0,0-2.41c-4.05,0-15.25-.05-18.81-.59-4.38-.67-5.21-2.5-6-3.75s-9.66-46.75-11.26-55a1.57,1.57,0,1,0-3.08.64Z" transform="translate(-56.65 -47.43)"/><path class="cls-17" d="M96.29,224.88l11.81,54.78a8,8,0,0,0,7.82,6.31h19.42a8,8,0,0,1-7.82-6.31l-11.81-54.78a1.58,1.58,0,0,1,1.54-1.91H97.83A1.58,1.58,0,0,0,96.29,224.88Z" transform="translate(-56.65 -47.43)"/><path class="cls-16" d="M149.55,286l7.68,50.24a1,1,0,0,0,1.16.83l.36-.06a1,1,0,0,0,.81-1.14L151.8,286Z" transform="translate(-56.65 -47.43)"/><path class="cls-17" d="M129.36,286,137,336.21a1,1,0,0,0,1.16.83l.36-.06a1,1,0,0,0,.82-1.14L131.61,286Z" transform="translate(-56.65 -47.43)"/><path class="cls-17" d="M115.7,286,108,336.21a1,1,0,0,1-1.16.83l-.36-.06a1,1,0,0,1-.81-1.14L113.45,286Z" transform="translate(-56.65 -47.43)"/><path class="cls-16" d="M135.89,286l-7.68,50.24a1,1,0,0,1-1.16.83l-.36-.06a1,1,0,0,1-.81-1.14L133.64,286Z" transform="translate(-56.65 -47.43)"/><circle class="cls-2" cx="304.02" cy="121.64" r="1.9"/><circle class="cls-2" cx="106.74" cy="104.08" r="1.9"/><circle class="cls-2" cx="160.28" cy="177.56" r="1.56"/><path class="cls-2" d="M172.73,109.29a2.26,2.26,0,1,1-2.25-2.26A2.25,2.25,0,0,1,172.73,109.29Z" transform="translate(-56.65 -47.43)"/><path class="cls-1" d="M77.38,254.47a2.26,2.26,0,1,1-2.26-2.25A2.26,2.26,0,0,1,77.38,254.47Z" transform="translate(-56.65 -47.43)"/><path class="cls-2" d="M234,279.64a1.66,1.66,0,1,1-1.66-1.66A1.66,1.66,0,0,1,234,279.64Z" transform="translate(-56.65 -47.43)"/><path class="cls-1" d="M284.26,56.84a1.66,1.66,0,1,1-1.66-1.66A1.66,1.66,0,0,1,284.26,56.84Z" transform="translate(-56.65 -47.43)"/><path class="cls-2" d="M85.13,292.51a2.41,2.41,0,1,1-2.41-2.41A2.41,2.41,0,0,1,85.13,292.51Z" transform="translate(-56.65 -47.43)"/><circle class="cls-2" cx="81.82" cy="143.96" r="0.6"/><circle class="cls-1" cx="77.58" cy="106.58" r="0.6"/><path class="cls-2" d="M378,158.11a1.11,1.11,0,1,1-1.11-1.11A1.11,1.11,0,0,1,378,158.11Z" transform="translate(-56.65 -47.43)"/><circle class="cls-1" cx="307.96" cy="32.76" r="1.1"/><path class="cls-1" d="M380.16,114.43a1.1,1.1,0,1,1-1.1-1.1A1.11,1.11,0,0,1,380.16,114.43Z" transform="translate(-56.65 -47.43)"/><circle class="cls-2" cx="153.08" cy="218.83" r="1.1"/><circle class="cls-1" cx="202.74" cy="14.49" r="1.1"/><circle class="cls-2" cx="308.82" cy="82.52" r="2.6"/><path class="cls-1" d="M391.29,133.57a2.6,2.6,0,1,1-2.59-2.6A2.59,2.59,0,0,1,391.29,133.57Z" transform="translate(-56.65 -47.43)"/><path class="cls-1" d="M121.72,147.15a2.6,2.6,0,1,1-2.6-2.59A2.59,2.59,0,0,1,121.72,147.15Z" transform="translate(-56.65 -47.43)"/><circle class="cls-2" cx="307.96" cy="147.38" r="0.86"/><path class="cls-1" d="M231.34,50.42a.86.86,0,1,1-.86-.86A.86.86,0,0,1,231.34,50.42Z" transform="translate(-56.65 -47.43)"/><circle class="cls-1" cx="345.62" cy="109.14" r="0.86"/><path class="cls-2" d="M161.2,179a.86.86,0,1,1-.86-.86A.86.86,0,0,1,161.2,179Z" transform="translate(-56.65 -47.43)"/><path class="cls-1" d="M146.59,116.61a.86.86,0,0,1-1.72,0,.86.86,0,0,1,1.72,0Z" transform="translate(-56.65 -47.43)"/><path class="cls-2" d="M239.35,306.34a.87.87,0,1,1-.86-.86A.86.86,0,0,1,239.35,306.34Z" transform="translate(-56.65 -47.43)"/><path class="cls-2" d="M337.21,269.56a.86.86,0,0,1-1.72,0,.86.86,0,0,1,1.72,0Z" transform="translate(-56.65 -47.43)"/><path class="cls-2" d="M356.41,223.71a2,2,0,1,1-2-2A2,2,0,0,1,356.41,223.71Z" transform="translate(-56.65 -47.43)"/><path class="cls-1" d="M144.71,133.57a2,2,0,1,1-2-2A2,2,0,0,1,144.71,133.57Z" transform="translate(-56.65 -47.43)"/><path class="cls-1" d="M418,256.73a2,2,0,1,1-2-2A2,2,0,0,1,418,256.73Z" transform="translate(-56.65 -47.43)"/></svg>