<svg id="圖層_1" data-name="圖層 1" xmlns="http://www.w3.org/2000/svg" viewBox="0 0 586.86 130.82"><defs><style>.cls-1{fill:#fff;stroke:#fff;stroke-miterlimit:10;stroke-width:0.7px;}</style></defs><rect class="cls-1" x="335.79" y="129.09" width="56.78" height="1.29"/><rect class="cls-1" x="196.36" y="129.09" width="78.68" height="1.29"/><rect class="cls-1" x="379.88" y="58.43" width="1.29" height="39.1"/><rect class="cls-1" x="327.1" y="58.43" width="1.29" height="29.46"/><path class="cls-1" d="M915.79,423.63H850.88l11.88-23.75H905.7ZM853,422.34h60.87l-9-21.17H863.56Z" transform="translate(-529.23 -364.56)"/><rect class="cls-1" x="170.99" y="129.09" width="21.96" height="1.29"/><rect class="cls-1" x="125.03" y="128.71" width="21.96" height="1.29"/><polygon class="cls-1" points="118.4 95.98 117.11 95.98 117.11 45.6 155.98 45.6 155.98 11.03 172.75 0.35 200.41 0.35 200.41 57.76 199.11 57.76 199.11 1.64 173.13 1.64 157.28 11.74 157.28 46.9 118.4 46.9 118.4 95.98"/><polygon class="cls-1" points="156.16 67.61 123.25 67.61 123.25 57.85 130.99 57.85 130.99 59.14 124.55 59.14 124.55 66.32 154.87 66.32 154.87 59.14 145.86 59.14 145.86 57.85 156.16 57.85 156.16 67.61"/><polygon class="cls-1" points="156.16 84.72 123.25 84.72 123.25 74.96 127.93 74.96 127.93 76.25 124.55 76.25 124.55 83.43 154.87 83.43 154.87 76.25 149.78 76.25 149.78 74.96 156.16 74.96 156.16 84.72"/><polygon class="cls-1" points="451.84 81.24 450.55 81.24 450.55 78.62 458.77 78.62 458.77 69.8 450.55 69.8 450.55 60.31 458.77 60.31 458.77 51.49 450.55 51.49 450.55 42 458.77 42 458.77 33.18 450.55 33.18 450.55 26.68 401.16 26.68 401.16 25.39 451.84 25.39 451.84 31.89 460.06 31.89 460.06 43.29 451.84 43.29 451.84 50.2 460.06 50.2 460.06 61.6 451.84 61.6 451.84 68.51 460.06 68.51 460.06 79.91 451.84 79.91 451.84 81.24"/><polyline class="cls-1" points="451.84 78.76 451.84 85.26 460.06 85.26 460.06 96.66 451.84 96.66 451.84 103.57 460.06 103.57 460.06 114.97 451.84 114.97 451.84 129.87 450.55 129.87 450.55 113.68 458.77 113.68 458.77 104.86 450.55 104.86 450.55 95.37 458.77 95.37 458.77 86.55 450.55 86.55 450.55 80.05"/><polygon class="cls-1" points="391.95 97.53 390.65 97.53 390.52 18.04 440.65 18.04 440.65 19.33 391.81 19.33 391.95 97.53"/><rect class="cls-1" x="455.36" y="42.64" width="1.29" height="8.2"/><rect class="cls-1" x="455.36" y="60.61" width="1.29" height="8.2"/><polygon class="cls-1" points="445.5 43.29 437.26 43.29 437.26 41.99 444.2 41.99 444.2 33.18 403.53 33.18 403.53 41.99 426.71 41.99 426.71 43.29 402.24 43.29 402.24 31.88 445.5 31.88 445.5 43.29"/><polygon class="cls-1" points="445.5 61.26 402.24 61.26 402.24 49.86 414.5 49.86 414.5 51.15 403.53 51.15 403.53 59.97 444.2 59.97 444.2 51.15 427.91 51.15 427.91 49.86 445.5 49.86 445.5 61.26"/><polygon class="cls-1" points="445.5 79.23 437.26 79.23 437.26 77.94 444.2 77.94 444.2 69.12 403.53 69.12 403.53 77.94 414.39 77.94 414.39 79.23 402.24 79.23 402.24 67.83 445.5 67.83 445.5 79.23"/><path class="cls-1" d="M966.49,443.79h-1.64V442.5h1.64Zm-3.52,0h-1.88V442.5H963Zm-3.76,0h-1.88V442.5h1.88Zm-3.76,0h-1.88V442.5h1.88Zm-3.76,0h-1.88V442.5h1.88Zm-3.75,0h-1.88V442.5h1.88Z" transform="translate(-529.23 -364.56)"/><polyline class="cls-1" points="201.14 62.09 233.9 62.09 267.1 39.69 267.8 39.69 298.31 62.09 325.71 62.09 325.71 63.41 297.87 63.41 267.44 41.08 234.34 63.41 201.14 63.41"/><polyline class="cls-1" points="240.54 57.99 199.61 57.99 199.61 56.7 240.54 56.7"/><polygon class="cls-1" points="241.47 58.21 240.18 58.21 240.18 46.26 226.09 46.26 226.09 29.15 204.66 29.15 204.66 27.86 227.38 27.86 227.38 44.97 241.47 44.97 241.47 58.21"/><polygon class="cls-1" points="151.14 46.77 149.85 46.77 149.85 29.02 143.63 29.02 143.63 46.34 142.34 46.34 142.34 27.73 151.14 27.73 151.14 46.77"/><polyline class="cls-1" points="142.83 34.91 127.61 34.91 127.61 46.25 126.32 46.25 126.32 33.62 142.12 33.62"/><line class="cls-1" x1="126.32" y1="33.62" x2="143.12" y2="33.62"/><polygon class="cls-1" points="169.78 117.66 168.48 117.66 168.48 87.88 215.34 87.88 215.34 89.14 169.78 89.14 169.78 117.66"/><path class="cls-1" d="M844.88,477.75a5.48,5.48,0,0,1-5.47-5.27,12.68,12.68,0,0,1-5.72-5.5l1.07-.57a11.51,11.51,0,0,0,5.5,5.13l.38.17,0,.4v.1a.13.13,0,0,0,0,.06,4.27,4.27,0,0,0,8.54,0s0,0,0-.06v-.1l0-.4.38-.17a11.44,11.44,0,0,0,3.81-18.2l-.21-.22.06-.31a8.75,8.75,0,0,0,.17-1.7,8.45,8.45,0,0,0-16.9,0,8.75,8.75,0,0,0,.17,1.7l-1.19.25a9.77,9.77,0,0,1-.19-1.95,9.66,9.66,0,1,1,19.32,0,10,10,0,0,1-.14,1.64,12.64,12.64,0,0,1-4,19.73A5.49,5.49,0,0,1,844.88,477.75Z" transform="translate(-529.23 -364.56)"/><path class="cls-1" d="M833.69,467a13.77,13.77,0,0,1-.66-1.47l1.13-.42a11.15,11.15,0,0,0,.6,1.32Zm-1.18-3.24a12.58,12.58,0,0,1-.25-1.83l1.21-.08a10.24,10.24,0,0,0,.23,1.65Zm1-3.58-1.21-.1a12.64,12.64,0,0,1,.28-1.83l1.18.28A11.32,11.32,0,0,0,833.48,460.16Zm.74-3.25-1.12-.44a12.16,12.16,0,0,1,.8-1.67l1.05.6A12.34,12.34,0,0,0,834.22,456.91Z" transform="translate(-529.23 -364.56)"/><polygon class="cls-1" points="316.99 130 316.35 114.4 317.55 114.28 318.19 129.89 316.99 130"/><polygon class="cls-1" points="314.52 130 313.32 129.88 313.99 114.28 315.19 114.4 314.52 130"/><path class="cls-1" d="M844.72,470.32a9,9,0,0,1-9-9h1.21a7.81,7.81,0,1,0,15.62,0h1.21A9,9,0,0,1,844.72,470.32Z" transform="translate(-529.23 -364.56)"/><path class="cls-1" d="M1065.35,481.66a4.51,4.51,0,0,1-4.5-4.34,10.43,10.43,0,0,1-4.71-4.53l.88-.47a9.54,9.54,0,0,0,4.53,4.23l.31.13V477s0,.05,0,.08v0a3.52,3.52,0,0,0,7,0v0a.22.22,0,0,1,0-.08v-.34l.31-.13a9.42,9.42,0,0,0,3.13-15l-.17-.19.05-.24a6.61,6.61,0,0,0,.14-1.41,7,7,0,0,0-13.92,0,6.62,6.62,0,0,0,.15,1.41l-1,.19a7.75,7.75,0,0,1-.16-1.6,8,8,0,0,1,15.91,0,8.81,8.81,0,0,1-.11,1.36,10.41,10.41,0,0,1-3.34,16.24A4.52,4.52,0,0,1,1065.35,481.66Z" transform="translate(-529.23 -364.56)"/><path class="cls-1" d="M1056.14,472.79a9.31,9.31,0,0,1-.54-1.21l.93-.35a8.86,8.86,0,0,0,.49,1.09Zm-1-2.67a9.46,9.46,0,0,1-.21-1.51l1-.06a10.12,10.12,0,0,0,.19,1.36Zm.79-2.95-1-.08a10.87,10.87,0,0,1,.23-1.5l1,.22A10.39,10.39,0,0,0,1056,467.17Zm.62-2.67-.93-.36a10.94,10.94,0,0,1,.66-1.38l.86.5A10.84,10.84,0,0,0,1056.58,464.5Z" transform="translate(-529.23 -364.56)"/><polygon class="cls-1" points="538.89 130.47 533.5 130.47 534.75 118 535.74 118.1 534.6 129.47 537.8 129.47 536.7 118.1 537.69 118 538.89 130.47"/><path class="cls-1" d="M1065.22,475.54a7.44,7.44,0,0,1-7.43-7.43h1a6.44,6.44,0,1,0,12.87,0h1A7.43,7.43,0,0,1,1065.22,475.54Z" transform="translate(-529.23 -364.56)"/><path class="cls-1" d="M756.94,478.69a5.36,5.36,0,0,1-5.42-5.09,12.46,12.46,0,0,1-5.66-5.32l1-.57a11.26,11.26,0,0,0,5.44,5l.37.16v.55a4.18,4.18,0,1,0,8.35-.1.13.13,0,0,0,0-.06v-.09l0-.4.36-.17a11.18,11.18,0,0,0,3.52-17.85l-.21-.22.06-.3a7.81,7.81,0,0,0,.15-1.67,8.27,8.27,0,1,0-16.36,1.86l-1.16.25a10.05,10.05,0,0,1-.21-1.9,9.46,9.46,0,1,1,18.91-.22,9.61,9.61,0,0,1-.11,1.61,12.38,12.38,0,0,1-3.74,19.35A5.36,5.36,0,0,1,756.94,478.69Z" transform="translate(-529.23 -364.56)"/><path class="cls-1" d="M745.86,468.28a12.34,12.34,0,0,1-.66-1.43l1.1-.43a10.07,10.07,0,0,0,.6,1.29Zm-1.19-3.16a11.89,11.89,0,0,1-.27-1.79l1.18-.09a10.91,10.91,0,0,0,.24,1.62Zm.9-3.52-1.18-.08a13.52,13.52,0,0,1,.25-1.79l1.16.26A12.48,12.48,0,0,0,745.57,461.6Zm.7-3.18-1.11-.42a12.8,12.8,0,0,1,.76-1.64l1,.58A11,11,0,0,0,746.27,458.42Z" transform="translate(-529.23 -364.56)"/><polygon class="cls-1" points="231.19 129.98 224.77 130.05 226.09 115.22 227.27 115.32 226.07 128.85 229.87 128.81 228.4 115.31 229.58 115.18 231.19 129.98"/><path class="cls-1" d="M756.69,471.43a8.84,8.84,0,0,1-8.93-8.73l1.18,0a7.65,7.65,0,1,0,15.29-.18h1.19A8.85,8.85,0,0,1,756.69,471.43Z" transform="translate(-529.23 -364.56)"/><path class="cls-1" d="M1035.68,481.48a4.54,4.54,0,0,1-4.53-4.37,10.52,10.52,0,0,1-4.73-4.55l.88-.47a9.55,9.55,0,0,0,4.56,4.25l.31.13v.34s0,.05,0,.08v.05a3.54,3.54,0,1,0,7.07,0v-.05a.22.22,0,0,1,0-.08v-.34l.31-.13a9.46,9.46,0,0,0,3.15-15.07l-.17-.19,0-.25a6.74,6.74,0,0,0,.14-1.41,7,7,0,0,0-14,0,6.76,6.76,0,0,0,.15,1.41l-1,.2a8.7,8.7,0,0,1-.16-1.61,8,8,0,1,1,16,0,7.81,7.81,0,0,1-.12,1.36,10.47,10.47,0,0,1-3.35,16.33A4.54,4.54,0,0,1,1035.68,481.48Z" transform="translate(-529.23 -364.56)"/><path class="cls-1" d="M1026.42,472.56a11.11,11.11,0,0,1-.55-1.22l.94-.35a11.91,11.91,0,0,0,.49,1.1Zm-1-2.69a9.46,9.46,0,0,1-.21-1.51l1-.07a9,9,0,0,0,.19,1.37Zm.8-3-1-.08a10.78,10.78,0,0,1,.23-1.51l1,.22A10.54,10.54,0,0,0,1026.24,466.91Zm.62-2.69-.93-.37a9.18,9.18,0,0,1,.66-1.38l.87.5A9.57,9.57,0,0,0,1026.86,464.22Z" transform="translate(-529.23 -364.56)"/><polygon class="cls-1" points="509.24 130.36 503.81 130.36 505.07 117.82 506.07 117.92 504.92 129.36 508.14 129.36 507.03 117.92 508.03 117.82 509.24 130.36"/><path class="cls-1" d="M1035.55,475.33a7.48,7.48,0,0,1-7.47-7.48h1a6.47,6.47,0,1,0,12.94,0h1A7.48,7.48,0,0,1,1035.55,475.33Z" transform="translate(-529.23 -364.56)"/><path class="cls-1" d="M781.67,493h-1.29v-20.2a14.36,14.36,0,0,1,14.34-14.35v1.3a13.06,13.06,0,0,0-13.05,13.05Z" transform="translate(-529.23 -364.56)"/><rect class="cls-1" x="250.11" y="79.48" width="31" height="1.29"/><path class="cls-1" d="M732.88,494.18h-1.3a4.8,4.8,0,0,1,4.09-4.74,5.41,5.41,0,0,1,9.49-4.44,3.25,3.25,0,0,1,4.86,2.81h-1.29a2,2,0,0,0-3.27-1.44l-.57.52-.42-.64a4.12,4.12,0,0,0-7.6,2.21,4.22,4.22,0,0,0,.23,1.36l.31.89-.94,0h-.07A3.51,3.51,0,0,0,732.88,494.18Z" transform="translate(-529.23 -364.56)"/><rect class="cls-1" x="277.78" y="129.09" width="45.46" height="1.29"/><polygon class="cls-1" points="362.12 129.37 360.99 129.37 360.99 96.91 403.39 96.91 403.39 129.87 402.26 129.87 402.26 98.2 362.12 98.2 362.12 129.37"/><rect class="cls-1" x="327.1" y="101.93" width="1.29" height="16.5"/><polygon class="cls-1" points="338.12 116.2 336.83 116.2 336.83 66.32 345.48 66.32 345.48 113.93 344.19 113.93 344.19 67.61 338.12 67.61 338.12 116.2"/><polygon class="cls-1" points="352.99 115.74 351.7 115.74 351.7 66.32 360.35 66.32 360.35 95.82 359.06 95.82 359.06 67.61 352.99 67.61 352.99 115.74"/><path class="cls-1" d="M881,492.71h-1.3a6.27,6.27,0,0,0-1.13-3.6l-.44-.64.71-.32a2.73,2.73,0,0,0-1.12-5.22,2.68,2.68,0,0,0-1.84.72l-.57.52-.41-.65a5.56,5.56,0,0,0-10.24,3,5.44,5.44,0,0,0,.31,1.82l.31.89-.94,0h-.13a4.73,4.73,0,0,0-2.15.51l-.4.21-.33-.31a6.6,6.6,0,0,0-3-1.54l-.88-.2.47-.77a2,2,0,1,0-3.66-1,2,2,0,0,0,0,.42l.11.5-.46.22a1.64,1.64,0,0,0-.88,1.12L851.8,488a2.9,2.9,0,0,1,1.16-1.75,1.77,1.77,0,0,1,0-.23,3.27,3.27,0,1,1,6.54,0,3.41,3.41,0,0,1-.14.95,8,8,0,0,1,2.55,1.35,6.1,6.1,0,0,1,1.64-.43,6.84,6.84,0,0,1,12.06-5.67,4,4,0,0,1,2.14-.62A4,4,0,0,1,880,489,7.52,7.52,0,0,1,881,492.71Z" transform="translate(-529.23 -364.56)"/><path class="cls-1" d="M705.16,494.2h-1.29a6.27,6.27,0,0,0-1.13-3.6l-.45-.64.71-.32a2.73,2.73,0,0,0-1.12-5.22,2.7,2.7,0,0,0-1.84.72l-.57.52-.41-.65a5.55,5.55,0,0,0-9.93,4.81l.31.89-.94,0h-.12a4.78,4.78,0,0,0-2.16.52l-.4.21-.33-.31a6.6,6.6,0,0,0-3-1.54l-.88-.2.48-.77a2,2,0,0,0,.29-1,2,2,0,0,0-4,0,2,2,0,0,0,0,.42l.11.5-.46.22a1.64,1.64,0,0,0-.88,1.12l-.06.29-.26.14a4,4,0,0,0-2.42,3.43h-1.29a5.29,5.29,0,0,1,2.85-4.43,3,3,0,0,1,1.08-1.46c0-.08,0-.15,0-.23a3.27,3.27,0,1,1,6.54,0,3.41,3.41,0,0,1-.14.95,7.5,7.5,0,0,1,2.55,1.35,6.2,6.2,0,0,1,1.64-.43,6.85,6.85,0,0,1,6.7-8.28,6.8,6.8,0,0,1,5.36,2.6,4,4,0,0,1,4.43,6.72A7.52,7.52,0,0,1,705.16,494.2Z" transform="translate(-529.23 -364.56)"/><rect class="cls-1" x="507.83" y="129.17" width="78.68" height="1.29"/><rect class="cls-1" x="0.35" y="128.71" width="94.69" height="1.29"/><rect class="cls-1" x="488.13" y="129.17" width="21.96" height="1.29"/><polygon class="cls-1" points="165.67 103.63 102.23 103.63 102.23 96.69 167.16 96.69 167.16 97.98 103.53 97.98 103.53 102.34 165.67 102.34 165.67 103.63"/><rect class="cls-1" x="104.94" y="102.99" width="1.29" height="26.41"/><polygon class="cls-1" points="480.16 54.5 478.87 54.5 478.87 44.39 460.65 44.39 460.65 43.09 480.16 43.09 480.16 54.5"/><polygon class="cls-1" points="491.44 126.72 490.15 126.72 490.15 55.15 464.76 55.15 464.76 53.86 491.44 53.86 491.44 126.72"/><rect class="cls-1" x="476.6" y="66.7" width="9.96" height="1.29"/><rect class="cls-1" x="476.6" y="89.67" width="9.96" height="1.29"/><rect class="cls-1" x="476.6" y="99.95" width="9.96" height="1.29"/><rect class="cls-1" x="476.6" y="109.05" width="9.96" height="1.29"/><rect class="cls-1" x="476.6" y="78.4" width="9.96" height="1.29"/><rect class="cls-1" x="80.22" y="75.51" width="9.96" height="1.29"/><rect class="cls-1" x="80.22" y="98.47" width="9.96" height="1.29"/><rect class="cls-1" x="80.22" y="108.76" width="9.96" height="1.29"/><rect class="cls-1" x="80.22" y="117.86" width="9.96" height="1.29"/><rect class="cls-1" x="80.22" y="87.2" width="9.96" height="1.29"/><rect class="cls-1" x="74.15" y="95.37" width="1.29" height="34.03"/><polygon class="cls-1" points="75.5 92.85 74.2 92.85 74.2 66.32 92.72 66.32 92.72 51.24 115.62 51.24 115.62 52.53 94.02 52.53 94.02 67.61 75.5 67.61 75.5 92.85"/><path class="cls-1" d="M809.7,493H811v-20.2a14.37,14.37,0,0,0-14.35-14.35v1.3a13.06,13.06,0,0,1,13.05,13.05Z" transform="translate(-529.23 -364.56)"/><path class="cls-1" d="M942.21,494.43H941V481.55a13.42,13.42,0,0,1,13.4-13.41v1.21a12.21,12.21,0,0,0-12.19,12.2Z" transform="translate(-529.23 -364.56)"/><path class="cls-1" d="M968.4,494.43h1.21V481.55a13.43,13.43,0,0,0-13.41-13.41v1.21a12.21,12.21,0,0,1,12.2,12.2Z" transform="translate(-529.23 -364.56)"/><polyline class="cls-1" points="403.74 95.68 403.74 90.88 444.41 90.88 444.41 99.7 430.8 99.7 430.8 100.99 445.71 100.99 445.71 89.59 402.45 89.59 402.45 95.68"/><polyline class="cls-1" points="292.05 58.17 323.27 58.17 323.27 56.87 291.05 56.87"/></svg>