<svg xmlns="http://www.w3.org/2000/svg" xmlns:xlink="http://www.w3.org/1999/xlink" viewBox="0 0 3249.88 1974.84"><defs><style>.cls-1{isolation:isolate;}.cls-2{opacity:0.75;}.cls-3{fill:url(#鍊踑臇_蜸馯鳺艜_7);}.cls-4{fill:url(#鍊踑臇_蜸馯鳺艜_7-2);}.cls-5{fill:url(#鍊踑臇_蜸馯鳺艜_7-3);}.cls-6{fill:url(#鍊踑臇_蜸馯鳺艜_7-4);}.cls-7{fill:url(#鍊踑臇_蜸馯鳺艜_7-5);}.cls-8{fill:url(#鍊踑臇_蜸馯鳺艜_7-6);}.cls-9{fill:url(#鍊踑臇_蜸馯鳺艜_7-7);}.cls-10,.cls-16{fill:#4625ac;}.cls-10{opacity:0.25;mix-blend-mode:multiply;}.cls-11{fill:#f17785;}.cls-12{fill:#462261;}.cls-13{fill:#f68895;}.cls-14{fill:#311649;}.cls-15{fill:url(#鍊踑臇_蜸馯鳺艜_8);}.cls-17{fill:#f4e4eb;}.cls-18{fill:#703cd5;}.cls-19{fill:#5229b7;}.cls-20{fill:#fff;}.cls-21{fill:#f23b6b;}.cls-22{fill:#d81d56;}.cls-23{fill:#f9dee4;}.cls-24{fill:url(#鍊踑臇_蜸馯鳺艜_13);}.cls-25{fill:#713dd3;}.cls-26{fill:#0386e9;opacity:0.5;}.cls-27{fill:#231038;}.cls-28{fill:#34184c;}.cls-29{fill:url(#鍊踑臇_蜸馯鳺艜_36);}.cls-30{fill:url(#鍊踑臇_蜸馯鳺艜_8-2);}.cls-31{fill:#4120a8;}.cls-32{fill:#fbd5e2;}.cls-33{fill:url(#鍊踑臇_蜸馯鳺艜_5);}.cls-34{fill:url(#鍊踑臇_蜸馯鳺艜_8-3);}.cls-35{fill:#fb446c;}.cls-36{fill:url(#鍊踑臇_蜸馯鳺艜_21);}.cls-37{mix-blend-mode:screen;}.cls-38{fill:#fff188;}.cls-39{fill:url(#鍊踑臇_蜸馯鳺艜_27);}.cls-40{fill:#fffffd;}.cls-41{fill:#f7dae8;}.cls-42{fill:#e52356;}</style><linearGradient id="鍊踑臇_蜸馯鳺艜_7" x1="413.09" y1="2154.73" x2="3610.45" y2="1176.92" gradientUnits="userSpaceOnUse"><stop offset="0" stop-color="#e58def"/><stop offset="0.27" stop-color="#d8aef4"/><stop offset="0.56" stop-color="#ccccf8"/><stop offset="0.82" stop-color="#c5defa"/><stop offset="1" stop-color="#c2e4fb"/></linearGradient><linearGradient id="鍊踑臇_蜸馯鳺艜_7-2" x1="510.36" y1="2472.81" x2="3707.72" y2="1495" xlink:href="#鍊踑臇_蜸馯鳺艜_7"/><linearGradient id="鍊踑臇_蜸馯鳺艜_7-3" x1="193.36" y1="1436.23" x2="3390.71" y2="458.43" xlink:href="#鍊踑臇_蜸馯鳺艜_7"/><linearGradient id="鍊踑臇_蜸馯鳺艜_7-4" x1="369.22" y1="2011.27" x2="3566.57" y2="1033.47" xlink:href="#鍊踑臇_蜸馯鳺艜_7"/><linearGradient id="鍊踑臇_蜸馯鳺艜_7-5" x1="609.04" y1="2795.48" x2="3806.4" y2="1817.67" xlink:href="#鍊踑臇_蜸馯鳺艜_7"/><linearGradient id="鍊踑臇_蜸馯鳺艜_7-6" x1="474.78" y1="2356.46" x2="3672.14" y2="1378.65" xlink:href="#鍊踑臇_蜸馯鳺艜_7"/><linearGradient id="鍊踑臇_蜸馯鳺艜_7-7" x1="310.15" y1="1818.15" x2="3507.51" y2="840.34" xlink:href="#鍊踑臇_蜸馯鳺艜_7"/><linearGradient id="鍊踑臇_蜸馯鳺艜_8" x1="1814.9" y1="1187.38" x2="1694.06" y2="724.65" gradientUnits="userSpaceOnUse"><stop offset="0" stop-color="#4625ac"/><stop offset="0.22" stop-color="#522cb8"/><stop offset="0.69" stop-color="#6838cd"/><stop offset="1" stop-color="#703cd5"/></linearGradient><linearGradient id="鍊踑臇_蜸馯鳺艜_13" x1="2928.92" y1="1108.38" x2="2737.27" y2="1424.7" gradientUnits="userSpaceOnUse"><stop offset="0" stop-color="#0386e9"/><stop offset="0.05" stop-color="#1690ec"/><stop offset="0.16" stop-color="#36a1f1"/><stop offset="0.27" stop-color="#50aff5"/><stop offset="0.4" stop-color="#65baf8"/><stop offset="0.54" stop-color="#73c1fa"/><stop offset="0.71" stop-color="#7bc6fc"/><stop offset="1" stop-color="#7ec7fc"/></linearGradient><linearGradient id="鍊踑臇_蜸馯鳺艜_36" x1="1056.45" y1="834.32" x2="1154.56" y2="701.17" gradientTransform="translate(-38.53 273.99) rotate(-4.29)" gradientUnits="userSpaceOnUse"><stop offset="0" stop-color="#371a4f"/><stop offset="0.15" stop-color="#3d1d57"/><stop offset="0.45" stop-color="#44215f"/><stop offset="1" stop-color="#462261"/></linearGradient><linearGradient id="鍊踑臇_蜸馯鳺艜_8-2" x1="1200.85" y1="1465.14" x2="1020.91" y2="1148.53" gradientTransform="translate(-17.43 19.58) rotate(-1.73)" xlink:href="#鍊踑臇_蜸馯鳺艜_8"/><linearGradient id="鍊踑臇_蜸馯鳺艜_5" x1="550.02" y1="782.8" x2="669.66" y2="1282.25" gradientUnits="userSpaceOnUse"><stop offset="0" stop-color="#703cd5"/><stop offset="0.54" stop-color="#6e3bd3"/><stop offset="0.73" stop-color="#6737cd"/><stop offset="0.87" stop-color="#5c31c1"/><stop offset="0.98" stop-color="#4b28b1"/><stop offset="1" stop-color="#4625ac"/></linearGradient><linearGradient id="鍊踑臇_蜸馯鳺艜_8-3" x1="761.13" y1="596.48" x2="613.01" y2="519" xlink:href="#鍊踑臇_蜸馯鳺艜_8"/><radialGradient id="鍊踑臇_蜸馯鳺艜_21" cx="805.1" cy="631.13" r="237.64" gradientTransform="translate(-407.43 428.83) rotate(-20.55)" gradientUnits="userSpaceOnUse"><stop offset="0" stop-color="#fff188"/><stop offset="0.18" stop-color="#ffef83"/><stop offset="0.41" stop-color="#fee873"/><stop offset="0.66" stop-color="#fddd59"/><stop offset="0.93" stop-color="#fcce36"/><stop offset="1" stop-color="#fcc92b"/></radialGradient><linearGradient id="鍊踑臇_蜸馯鳺艜_27" x1="3388.93" y1="1110.7" x2="3409.36" y2="1563.23" gradientUnits="userSpaceOnUse"><stop offset="0" stop-color="#462261"/><stop offset="1" stop-color="#311649"/></linearGradient></defs><g class="cls-1"><g id="_鋋嶱x5F_2" data-name="—鋋嶱x5F 2"><g class="cls-2"><path class="cls-3" d="M3390,1478.11c-78.25,0-148.25,18-194.94,46.37l-655.73-305c0-.62,0-1.24,0-1.87,0-62.15-98.72-112.53-220.49-112.53-101.76,0-187.42,35.18-212.82,83L845.58,1280.76c-30.48-46.69-116.79-80.35-218.51-80.35-127.18,0-230.28,52.63-230.28,117.53s103.1,117.53,230.28,117.53a421.84,421.84,0,0,0,97.71-11.08l248.7,572.23h0c-132.39,32-224,100.82-224,180.55,0,110.27,175.16,199.68,391.23,199.68S1532,2287.44,1532,2177.17c0-94.68-129.1-174-302.36-194.51l354.86-247.08c47.12,15.83,103.55,25.05,164.19,25.05,94.08,0,178-22.18,232.81-56.85l599.87,329.81c-47.63,28.23-76.41,65-76.41,105.15,0,89.06,141.45,161.26,315.95,161.26s316-72.2,316-161.26c0-42.16-31.7-80.55-83.62-109.27l235.41-302.21A471,471,0,0,0,3390,1738c140.59,0,254.57-58.17,254.57-129.92S3530.57,1478.11,3390,1478.11ZM2173.35,1151.22c38.48-19.64,90.15-30.46,145.5-30.46s107,10.82,145.5,30.46c32.25,16.47,51.11,37.36,52.05,57.59,0,.53,0,1.06,0,1.59,0,11.6-6,23.47-17,34.63-8.69,8.77-20.52,17.11-35.08,24.55-38.48,19.64-90.16,30.45-145.5,30.45-48.37,0-93.93-8.26-130.33-23.44q-4.62-1.93-9-4-3.12-1.45-6.14-3c-24.43-12.47-41.16-27.48-48.26-42.81a38.75,38.75,0,0,1-3.83-16.37c0-8,2.83-16.13,8.21-24.06C2138,1173.73,2153,1161.59,2173.35,1151.22Zm-1698.24,221c-34.57-17.65-54.4-40.17-54.4-61.8s19.83-44.16,54.4-61.81c40.19-20.51,94.16-31.81,152-31.81s111.77,11.3,151.95,31.81c19.68,10.05,34.59,21.67,43.77,33.81,7,9.19,10.64,18.68,10.64,28a38.22,38.22,0,0,1-1.81,11.46c-5.62,17.94-24.1,35.79-52.6,50.34-40.18,20.52-94.15,31.81-151.95,31.81S515.3,1392.75,475.11,1372.23Zm923.82,687.16c58.75,30,92.44,68.25,92.44,105s-33.69,75-92.44,105c-68.27,34.86-160,54-258.17,54s-189.89-19.19-258.17-54c-58.74-30-92.43-68.25-92.43-105s33.69-75,92.43-105c68.28-34.85,160-54,258.17-54q16.74,0,33.22.74,10.21.45,20.3,1.19C1272,2013,1343.24,2031,1398.93,2059.39Zm-232.48-81.47q-12.73-.43-25.69-.43a738,738,0,0,0-127.28,10.81h0L763.31,1412.7c56-21,92.72-54.65,94-92.7l1242.11-91.34c4.57,23.9,23.79,45.61,53,62.76l-261.82,182.29c-42.22-11.65-90.56-18.26-141.92-18.26-165.12,0-299,68.32-299,152.59,0,43,34.76,81.75,90.71,109.49Zm582.24-258.1c-43,0-84.29-4.81-121.57-13.91a382.65,382.65,0,0,1-48.28-15.12q-14.4-5.62-27.43-12.27c-44.89-22.91-70.64-52.16-70.64-80.24s25.75-57.33,70.64-80.24c52.17-26.64,122.24-41.3,197.28-41.3,41.83,0,82.11,4.55,118.61,13.2a386.11,386.11,0,0,1,48.68,14.84,305.84,305.84,0,0,1,30,13.26c44.89,22.91,70.64,52.15,70.64,80.24,0,20-13,40.53-36.7,59a211.42,211.42,0,0,1-33.94,21.26c-1.81.92-3.63,1.83-5.48,2.72C1888.94,1706.15,1821.13,1719.82,1748.69,1719.82Zm1355.36,408.61c0,29.68-27.21,60.58-74.65,84.8-55.14,28.15-129.18,43.64-208.49,43.64s-153.36-15.49-208.49-43.64c-47.44-24.22-74.65-55.12-74.65-84.8,0-28.29,24.72-57.69,68.12-81.36q3.2-1.74,6.53-3.44a331.51,331.51,0,0,1,39.5-16.9c48.88-17.38,107.34-26.74,169-26.74,66.53,0,129.34,10.9,180.41,31q14.71,5.81,28.08,12.61,4.65,2.37,9,4.83C3080.28,2071.88,3104.05,2100.69,3104.05,2128.43ZM3016.17,2012c-53.74-21.59-121.55-34.47-195.26-34.47-73.87,0-141.81,12.94-195.61,34.61l-609.72-335.22c20.52-20.68,32.08-44.07,32.08-68.84,0-47.71-42.9-90.31-110.09-118.29l257.24-179.11c35.34,12.3,78,19.49,124,19.49,94.53,0,175.17-30.37,206.52-73L3160,1552.29c-15.75,16.89-24.56,35.8-24.56,55.75,0,44.71,44.26,84.15,111.63,107.52ZM3558,1668.05c-44.42,22.68-104.08,35.16-168,35.16a456.66,456.66,0,0,1-77.56-6.46,371,371,0,0,1-42.94-10,281.68,281.68,0,0,1-47.48-18.72c-38.22-19.51-60.15-44.41-60.15-68.32,0-12.79,6.27-25.85,17.94-38.23,9.06-9.6,21.38-18.79,36.56-27.11q2.76-1.52,5.65-3c44.42-22.67,104.08-35.16,168-35.16s123.56,12.49,168,35.16c38.23,19.51,60.15,44.41,60.15,68.33S3596.19,1648.54,3558,1668.05Z" transform="translate(-394.67 -402.01)"/><path class="cls-4" d="M3521.81,1538.56c-34.87-17.8-81.68-27.6-131.83-27.6s-97,9.8-131.83,27.6c-30,15.3-47.2,34.85-47.2,53.61s17.21,38.31,47.2,53.62c34.87,17.8,81.69,27.6,131.83,27.6s97-9.8,131.83-27.6c30-15.31,47.2-34.85,47.2-53.62S3551.81,1553.86,3521.81,1538.56Z" transform="translate(-394.67 -402.01)"/><path class="cls-5" d="M746.32,1255.09c-31.54-16.1-73.89-25-119.25-25s-87.71,8.86-119.25,25c-27.13,13.85-42.7,31.53-42.7,48.5s15.57,34.66,42.7,48.51c31.54,16.09,73.89,25,119.25,25s87.71-8.87,119.25-25c27.13-13.85,42.7-31.53,42.7-48.51S773.45,1268.94,746.32,1255.09Z" transform="translate(-394.67 -402.01)"/><path class="cls-6" d="M1903.52,1526.44c-41-20.9-95.94-32.41-154.83-32.41s-113.88,11.51-154.82,32.41c-35.23,18-55.43,40.93-55.43,63s20.2,45,55.43,63c40.94,20.9,95.93,32.41,154.82,32.41s113.88-11.51,154.83-32.41c35.22-18,55.42-40.93,55.42-63S1938.74,1544.41,1903.52,1526.44Z" transform="translate(-394.67 -402.01)"/><path class="cls-7" d="M2984.53,2052.51c-43.28-22.09-101.38-34.25-163.62-34.25s-120.35,12.16-163.62,34.25c-37.23,19-58.58,43.25-58.58,66.54s21.35,47.55,58.58,66.55c43.27,22.09,101.38,34.25,163.62,34.25s120.34-12.16,163.62-34.25c37.23-19,58.58-43.25,58.58-66.55S3021.76,2071.51,2984.53,2052.51Z" transform="translate(-394.67 -402.01)"/><path class="cls-8" d="M938.16,2070.38c-46.1,23.53-72.54,53.57-72.54,82.41s26.44,58.87,72.54,82.4c53.58,27.35,125.54,42.41,202.6,42.41s149-15.06,202.61-42.41c46.1-23.53,72.54-53.56,72.54-82.4s-26.44-58.88-72.54-82.41C1289.78,2043,1217.83,2028,1140.76,2028S991.74,2043,938.16,2070.38Z" transform="translate(-394.67 -402.01)"/><path class="cls-9" d="M2204.66,1250.3c30.2,15.41,70.75,23.9,114.19,23.9s84-8.49,114.18-23.9c26-13.26,40.88-30.19,40.88-46.45s-14.9-33.18-40.88-46.44c-30.2-15.41-70.75-23.9-114.18-23.9s-84,8.49-114.19,23.9c-26,13.26-40.88,30.19-40.88,46.44S2178.68,1237,2204.66,1250.3Z" transform="translate(-394.67 -402.01)"/></g><path class="cls-10" d="M1874.72,1586.32c-26.83,18.69-72.78,31-125,31s-98.13-12.33-125-31c26.83-18.7,72.79-31,125-31S1847.89,1567.62,1874.72,1586.32Z" transform="translate(-394.67 -402.01)"/><path class="cls-11" d="M1803.57,886s-12.49-7.38,10.4-90.24l32.86-16.07S1848.09,855.26,1803.57,886Z" transform="translate(-394.67 -402.01)"/><path class="cls-12" d="M1700.5,595.12c-5.27,4-10.53,9-11.48,15.52-1.1,7.53,3.83,14.68,4.16,22.28.31,7-3.27,13.51-7.53,19s-9.35,10.42-12.89,16.42c-7.75,13.13-6.89,30.42.69,43.64s21.19,22.44,35.93,26.35,30.49,2.84,45.19-1.22c9.69-2.68,19.25-6.78,26.47-13.76s11.81-17.26,10.1-27.16c-1-6-4.17-11.36-5.4-17.27-3.41-16.28,8-31.7,11.13-48a50,50,0,0,0-9.16-39.17c-8.44-11.1-25.16-21.86-39.68-19.08C1731.47,575.82,1713.82,585.06,1700.5,595.12Z" transform="translate(-394.67 -402.01)"/><path class="cls-13" d="M1746,1199.74q0,7.9,0,16-.11,14.46-.34,29.42c-.18,10-.35,20.08-.61,30.31s-.48,20.34-.77,30.31-.58,19.8-.85,29.44c-.58,19.32-1.15,37.94-1.68,55.69q-.2,6.66-.4,13.15t-.33,12.8c-.26,8.42-.41,16.58-.6,24.47s-.31,15.52-.45,22.87-.22,14.37-.3,21.09c0,3.37-.09,6.65-.13,9.85s0,6.32,0,9.34c0,6.06-.11,11.79-.06,17.13s-.05,10.35-.06,14.94,0,8.79,0,12.58-.15,7.18-.22,10.11-.24,5.44-.47,7.49c-.46,4.09-1.2,6.35-2.33,6.56s-2.6-1.63-4.42-5.36c-.9-1.86-1.9-4.19-3-7-.55-1.4-1.12-2.89-1.7-4.51s-1.12-3.34-1.71-5.16q-1.77-5.51-3.78-12.23c-1.29-4.49-2.59-9.39-4-14.66s-2.78-10.91-4.21-16.92q-1.07-4.5-2.18-9.27l-2.16-9.77c-1.44-6.69-3-13.7-4.39-21s-3-14.94-4.38-22.84-2.95-16.07-4.34-24.51c-.71-4.21-1.41-8.49-2.14-12.83s-1.37-8.74-2.07-13.19-1.37-9-2.06-13.54-1.31-9.18-2-13.85c-1.34-9.34-2.55-18.88-3.79-28.61s-2.34-19.61-3.47-29.66-2.13-20.24-3.08-30.56-1.83-20.53-2.55-30.59-1.4-20-1.93-29.72q-1-17.71-1.49-34.65-.33-11-.46-21.55c-.19-17.91,0-34.94.68-50.87s1.74-30.77,3.22-44.32c2.95-27.08,7.54-49,13.23-64.07s12.46-23.39,19.51-23.3,13.61,8.47,19.12,23.53,10,36.79,13.12,63.62c1.58,13.41,2.83,28.1,3.79,43.87s1.6,32.61,1.94,50.34C1745.88,1172.87,1746,1186.12,1746,1199.74Z" transform="translate(-394.67 -402.01)"/><path class="cls-13" d="M1827.84,1161.3c-.22,17.92-.85,36.72-1.94,56.2q-.8,14.63-1.93,29.72-.59,8-1.27,16-.62,7.23-1.28,14.56c-1,10.32-2,20.52-3.08,30.56s-2.23,19.94-3.48,29.66-2.44,19.27-3.79,28.61q-1,7-2,13.85T1807,1394q-1.05,6.67-2.07,13.19t-2.14,12.83c-1.4,8.44-2.89,16.61-4.34,24.51s-2.93,15.53-4.38,22.84-2.95,14.33-4.4,21q-1.1,5-2.15,9.77t-2.18,9.27c-1.43,6-2.78,11.65-4.21,16.92s-2.7,10.17-4,14.66-2.6,8.56-3.79,12.23c-.59,1.82-1.15,3.55-1.71,5.16s-1.15,3.11-1.69,4.51c-1.09,2.78-2.09,5.11-3,7-1.83,3.73-3.28,5.57-4.42,5.36s-1.87-2.47-2.33-6.56c-.23-2-.38-4.56-.47-7.49s-.14-6.31-.22-10.11-.07-8,0-12.58,0-9.58-.06-14.94,0-11.07-.06-17.13c0-3,0-6.14,0-9.34s-.09-6.48-.13-9.85c-.08-6.72-.13-13.74-.3-21.09s-.23-15-.46-22.87-.33-16-.59-24.47q-.17-6.31-.33-12.8c-.14-4.32-.26-8.71-.4-13.15-.53-17.75-1.1-36.37-1.68-55.69q-.42-14.46-.85-29.44c-.3-10-.53-20.08-.77-30.31s-.43-20.34-.61-30.31-.27-19.78-.34-29.42c0-4.56,0-9.1,0-13.59,0-14.47.09-28.51.37-42,.35-17.73,1-34.57,2-50.34s2.2-30.46,3.79-43.87c3.15-26.83,7.59-48.57,13.12-63.62s12.08-23.44,19.12-23.53,13.84,8.21,19.51,23.3,10.28,37,13.23,64.07c1.48,13.55,2.57,28.38,3.22,44.32S1828,1143.39,1827.84,1161.3Z" transform="translate(-394.67 -402.01)"/><path class="cls-13" d="M1715.83,1598.13c1.83,6.77,5.38,9.47,11.41,13s14.41,3.61,19.65-1c4.75-4.21,6.39-7.43,5.5-13.72s-3.93-15.92-6.2-21.85c-.49-1.3-1-2.61-1.41-3.92a124.59,124.59,0,0,1-6.15-53c-6.8-.62-13.72-3.66-20.51-4.28q-2.59,20.86-3.66,41.88-.46,9.06-.64,18.13C1713.7,1580.43,1714,1591.36,1715.83,1598.13Z" transform="translate(-394.67 -402.01)"/><path class="cls-14" d="M1715.83,1598.13c1.83,6.77,5.38,9.47,11.41,13s14.41,3.61,19.65-1c4.75-4.21,6.39-7.43,5.5-13.72s-3.93-15.92-6.2-21.85c-.49-1.3-1-2.61-1.41-3.92a14,14,0,0,1-5.63,9,14.46,14.46,0,0,1-18.63-2.47c-2.72-3.21-3.84-7.45-4.63-11.59a96.78,96.78,0,0,1-1.43-10.29q-.46,9.06-.64,18.13C1713.7,1580.43,1714,1591.36,1715.83,1598.13Z" transform="translate(-394.67 -402.01)"/><path class="cls-13" d="M1757.83,1598.13c1.83,6.77,5.38,9.47,11.42,13s14.4,3.61,19.65-1c4.74-4.21,6.39-7.43,5.5-13.72s-3.93-15.92-6.2-21.85c-.5-1.3-1-2.61-1.42-3.92a124.74,124.74,0,0,1-6.15-53c-6.79-.62-13.72-3.66-20.51-4.28q-2.59,20.86-3.66,41.88-.46,9.06-.64,18.13C1755.7,1580.43,1756,1591.36,1757.83,1598.13Z" transform="translate(-394.67 -402.01)"/><path class="cls-14" d="M1757.83,1598.13c1.83,6.77,5.38,9.47,11.42,13s14.4,3.61,19.65-1c4.74-4.21,6.39-7.43,5.5-13.72s-3.93-15.92-6.2-21.85c-.5-1.3-1-2.61-1.42-3.92a14,14,0,0,1-5.63,9,14.46,14.46,0,0,1-18.63-2.47c-2.71-3.21-3.83-7.45-4.63-11.59a99.43,99.43,0,0,1-1.43-10.29q-.46,9.06-.64,18.13C1755.7,1580.43,1756,1591.36,1757.83,1598.13Z" transform="translate(-394.67 -402.01)"/><path class="cls-11" d="M1745.6,1160.1c.28,12.77.39,26,.39,39.64-24.17-7.78-50.07-9.93-74.54-16.89q-.33-11-.46-21.55c-.19-17.91,0-34.94.68-50.87s1.74-30.77,3.22-44.32c2.95-27.08,7.54-49,13.23-64.07s12.46-23.39,19.51-23.3,13.61,8.47,19.12,23.53,10,36.79,13.12,63.62c1.58,13.41,2.83,28.1,3.79,43.87S1745.26,1142.37,1745.6,1160.1Z" transform="translate(-394.67 -402.01)"/><path class="cls-11" d="M1827.84,1161.3c-.22,17.92-.85,36.72-1.94,56.2q-.8,14.63-1.93,29.72-.59,8-1.27,16c-.62-1.17-1.26-2.33-1.93-3.48a132.72,132.72,0,0,0-64.85-56.45c-1-.41-2-.81-3.06-1.19,0-14.47.09-28.51.37-42,.35-17.73,1-34.57,2-50.34s2.2-30.46,3.79-43.87c3.15-26.83,7.59-48.57,13.12-63.62s12.08-23.44,19.12-23.53,13.84,8.21,19.51,23.3,10.28,37,13.23,64.07c1.48,13.55,2.57,28.38,3.22,44.32S1828,1143.39,1827.84,1161.3Z" transform="translate(-394.67 -402.01)"/><path class="cls-15" d="M1791.34,890.6c-.18.56-.36,1.1-.53,1.65h0s62.57,51.89,38.36,283.43a224.47,224.47,0,0,1-159.83.49l-1.3-.49c-23.28-222.63,33.68-279.17,38.1-283.19l-.41-.2-.06,0c-1-3.25-2.12-6.92-3.19-10.86-2-7.32-4-15.56-5.89-23.78-5.52-24.1-10-48-10-48-1.14-4.62-2.27-9.23-3.36-13.85-21.74-4.47-37.62-18.37-37.62-18.37,9.46-43.2,69.93-58.74,71.75-59.19a0,0,0,0,1,0,0c1.17-.54,2.33-1.1,3.48-1.67a129.81,129.81,0,0,0,27.7-18.62,129.69,129.69,0,0,0,28.05,18.79q1.55.78,3.12,1.5l0,0c1.81.45,62.28,16,71.75,59.19a71,71,0,0,1-6.69,5c-6.64,4.45-17.7,10.66-30.92,13.39-1.11,4.62-3.39,13.85-3.39,13.85C1803.78,836.91,1799.69,864.07,1791.34,890.6Z" transform="translate(-394.67 -402.01)"/><path class="cls-13" d="M1776.66,716.66c-2.93,27.68-14.29,48.31-27.86,48.31s-25-20.72-27.88-48.49a130.22,130.22,0,0,0,27.7-18.6A130.19,130.19,0,0,0,1776.66,716.66Z" transform="translate(-394.67 -402.01)"/><path class="cls-13" d="M1770.19,714.46c.18.69.37,1.38.56,2.07a31.77,31.77,0,0,1-43.13-.32c.15-.58.31-1.16.47-1.74a109,109,0,0,0,3.46-23.77,110.51,110.51,0,0,0-.22-11.79,50.48,50.48,0,0,0,35.49,2.09,109.37,109.37,0,0,0,1.56,25.22Q1769.13,710.36,1770.19,714.46Z" transform="translate(-394.67 -402.01)"/><path class="cls-11" d="M1768.38,706.22a74.39,74.39,0,0,1-36.83-15.52,110.51,110.51,0,0,0-.22-11.79,50.48,50.48,0,0,0,35.49,2.09A109.37,109.37,0,0,0,1768.38,706.22Z" transform="translate(-394.67 -402.01)"/><path class="cls-13" d="M1779.33,649.74a87,87,0,0,1-.66,9.2c-.13,1.1-.28,2.19-.47,3.27a77,77,0,0,1-1.68,7.92c-4,14.82-11.85,26-21.87,27a15.56,15.56,0,0,1-2.73.05c-.2,0-.4,0-.6-.06a17,17,0,0,1-1.85-.32c-.23-.05-.47-.11-.7-.18s-.37-.1-.56-.17-.47-.14-.7-.23l-.73-.28-.55-.24a8.25,8.25,0,0,1-.8-.37l-.58-.29-.42-.23a26.36,26.36,0,0,1-3.74-2.55l-.73-.61c-.24-.2-.48-.42-.72-.64s-.39-.35-.58-.53l-.85-.83c-.23-.24-.47-.48-.7-.73l-.69-.75-.69-.79c-.22-.26-.45-.53-.67-.81s-.45-.55-.67-.83c-.67-.85-1.31-1.73-1.94-2.66l-.63-.94-.62-1c-.41-.64-.81-1.31-1.2-2h0c-.49-.83-1-1.68-1.42-2.55a80.47,80.47,0,0,1-5.09-11.92,92.78,92.78,0,0,1-4.12-17.59l0-.24.54-.11c5.78-1.23,10.79-6,14.1-11.18,4.09-6.37,6.71-13.72,11.78-19.33a28.16,28.16,0,0,1,7.78-6c2.5,12,11.19,19.85,17.7,24.14A18,18,0,0,1,1779.33,649.74Z" transform="translate(-394.67 -402.01)"/><path class="cls-13" d="M1719.73,647.55c-.47-1.56-2.89-2.32-4.75-1.77a5.16,5.16,0,0,0-3.5,3.66,9.79,9.79,0,0,0,.3,4.77c.72,2.93,1.78,5.91,4.14,8.18a10.8,10.8,0,0,0,9.82,2.73C1722.91,659.29,1721.57,653.64,1719.73,647.55Z" transform="translate(-394.67 -402.01)"/><path class="cls-16" d="M1844.89,782.35c-6.64,4.45-17.7,10.66-30.92,13.39-1.11,4.62-3.39,13.85-3.39,13.85-6.8,27.32-10.89,54.48-19.24,81A44,44,0,0,0,1768,869.34c-11.45-4.38-24.34-3.71-36.16-.42-10.27,2.85-19.88,7.55-29.35,12.47-2-7.32-4-15.56-5.89-23.78,1.09-.76,2.26-1.43,3.41-2.08l134.9-77.18c2-1.13,4.29-2.31,6.47-1.6a5.64,5.64,0,0,1,3.45,4.76A5.93,5.93,0,0,1,1844.89,782.35Z" transform="translate(-394.67 -402.01)"/><path class="cls-13" d="M1824,772.63a57.4,57.4,0,0,1-3.75,8.38q-1.47,2.55-3.36,5.63c-1.25,2.05-2.64,4.27-4.29,6.53s-3.37,4.74-5.29,7.29-4.11,5.1-6.37,7.85-4.85,5.41-7.48,8.3c-1.29,1.47-2.72,2.82-4.16,4.27s-2.91,2.87-4.41,4.35c-3,2.91-6.34,5.75-9.71,8.77-1.73,1.43-3.51,2.86-5.32,4.31l-2.74,2.2c-.92.75-1.84,1.47-2.82,2.16l-5.86,4.27c-1,.7-2,1.46-3,2.14l-3.13,2-6.38,4.15c-2.22,1.29-4.45,2.61-6.71,3.92l-3.42,2c-1.16.64-2.34,1.23-3.53,1.85l-7.17,3.69c-2.45,1.15-5,2.27-7.46,3.41l-3.78,1.69-3.89,1.54c-2.59,1-5.16,2-7.74,3l-1,.32c-2.3.76-4.57,1.51-6.82,2.27l-3.87,1.24-3.89,1.07-7.7,2a20.6,20.6,0,0,1-24-11.2l-.72-1.53a142.94,142.94,0,0,1-9.42-27,130.46,130.46,0,0,1-3.55-26,125.15,125.15,0,0,1,1.26-23.27c.59-3.59,1.28-7,2.1-10.26.51-2.11,1.09-4.14,1.72-6.08,3.27,2.67,17.82,13.83,36.86,17.78,0,.33,0,.66,0,1,.44,5.5.78,11.34,1.69,17.43.66,4.83,1.45,9.85,2.56,15,.28,1.33.59,2.67.93,4,.2.8.4,1.62.62,2.43l.89.52,1.86-.48q2.48-.66,5-1.3l3.46-.88,3.39-1,6.77-2,6.61-2.2c1.1-.36,2.19-.7,3.27-1.08l3.21-1.2,6.36-2.34,6.17-2.53,3-1.25c1-.4,2-.88,3-1.32l5.85-2.64c1-.42,1.92-.88,2.85-1.36s1.87-.92,2.79-1.39l5.5-2.73c3.52-2,7-3.76,10.33-5.67l4.84-2.87c1.58-1,3.18-1.82,4.66-2.82,3-1.94,5.91-3.74,8.63-5.58s5.3-3.65,7.74-5.35,4.68-3.44,6.81-5,4.09-3.07,5.9-4.47,3.51-2.65,5.06-3.77a64.33,64.33,0,0,1,7.29-5.12c1.86-1,3.14-1.38,3.76-.89S1824.64,770.58,1824,772.63Z" transform="translate(-394.67 -402.01)"/><path class="cls-11" d="M1687.51,829.11A88.62,88.62,0,0,0,1644.63,784c.51-2.11,1.09-4.14,1.72-6.08,3.27,2.67,17.82,13.83,36.86,17.78,0,.33,0,.66,0,1,.44,5.5.78,11.34,1.69,17.43C1685.61,819,1686.4,824,1687.51,829.11Z" transform="translate(-394.67 -402.01)"/><path class="cls-13" d="M1844.77,770.29c1.41.27,2.48,2.28,3.36,5.75a52.81,52.81,0,0,1,1.15,6.26c.31,2.42.58,5.18.79,8.22s.3,6.39.3,10-.09,7.43-.37,11.47c-.13,2-.28,4.1-.52,6.22s-.43,4.28-.77,6.46-.67,4.42-1.08,6.66-.89,4.5-1.39,6.78-1.11,4.47-1.7,6.65-1.26,4.26-1.92,6.31c-1.36,4.07-2.81,7.94-4.39,11.45a95,95,0,0,1-4.93,9.69A68.4,68.4,0,0,1,1828,880c-3.61,4.52-7.34,7.74-10.92,9.43s-7,1.87-9.9.36-4.94-4.54-6-8.66a39.33,39.33,0,0,1-.39-15.2,76.06,76.06,0,0,1,1.89-9.25c.83-3.21,1.91-6.56,3.11-10s2.6-6.91,4.12-10.48c.74-1.78,1.54-3.57,2.36-5.39s1.61-3.64,2.49-5.48,1.67-3.68,2.53-5.47,1.65-3.58,2.49-5.32,1.62-3.49,2.44-5.18,1.6-3.37,2.36-5c1.58-3.31,3.07-6.47,4.47-9.42s2.74-5.81,4-8.37,2.44-4.92,3.57-7,2.14-3.83,3.12-5.25C1841.71,771.51,1843.36,770,1844.77,770.29Z" transform="translate(-394.67 -402.01)"/><path class="cls-13" d="M1798.24,787.34c4.07-9.1,10.13-25.59,18.38-31,2.77,9.77,4.93,28.35,5.28,38.52a61.1,61.1,0,0,1-19.24,11.28C1802,799.78,1801.05,793.06,1798.24,787.34Z" transform="translate(-394.67 -402.01)"/><rect class="cls-12" x="1813.26" y="726.13" width="36.15" height="70.24" rx="5.16" transform="translate(-308.98 -582.04) rotate(5.76)"/><path class="cls-13" d="M1851.68,785.54a48.46,48.46,0,0,0,5-30.68c-.46-2.73-1.6-5.9-4.3-6.56-2-.48-3.92.6-5.63,1.66q-5.43,3.39-10.63,7.14c-3.25,2.35-6.58,5-8,8.74-1.84,4.72-.21,10.23,2.86,14.25s7.41,6.87,11.65,9.64C1845.9,788.51,1850,788.6,1851.68,785.54Z" transform="translate(-394.67 -402.01)"/><path class="cls-17" d="M1723.86,665.42a4,4,0,1,1-4-4A4,4,0,0,1,1723.86,665.42Z" transform="translate(-394.67 -402.01)"/><path class="cls-17" d="M1776.48,660.75c-1,.81-2,1.57-2.89,2.25h0c-3-5.25-7.66-9.11-13.88-9.94-7.57-1-15.88,2.69-22.07,8.51-.82-.53-1.65-1.07-2.48-1.65-9.54-6.53-15.5-14-16-13.52-.23.17,1,2.26,3.48,5.23a55.27,55.27,0,0,0,4.74,4.9,64.76,64.76,0,0,0,6.54,5.22c.72.49,1.44,1,2.15,1.41a30,30,0,0,0-7,11.65c-4.17-5.47-5.57-11-6.2-10.84-.28,0-.3,1.58.34,4a23.41,23.41,0,0,0,1.52,4,27.76,27.76,0,0,0,2.78,4.5,27.42,27.42,0,0,0,2.5,2.79c6.69,11.49,15.6,18.92,24.65,17.93,10-1.09,17.91-12.23,21.87-27a31.94,31.94,0,0,0-2-5.3h0a29.23,29.23,0,0,0,3.33-2.34l.32-.27c.19-1.08.34-2.17.47-3.27C1778,659.52,1777.25,660.14,1776.48,660.75Z" transform="translate(-394.67 -402.01)"/><path class="cls-10" d="M2445,1205.86c-26.83,15-72.79,24.85-125,24.85s-98.13-9.88-125-24.85c26.83-15,72.79-24.86,125-24.86S2418.21,1190.88,2445,1205.86Z" transform="translate(-394.67 -402.01)"/><path class="cls-13" d="M2281.83,588.25c0,1,0,2.11,0,3.2a83.36,83.36,0,0,1-1.72,14.28,102.89,102.89,0,0,1-4.72,16,116.22,116.22,0,0,1-8.08,17,133.4,133.4,0,0,1-11.61,16.91v0l-.42.58a17.06,17.06,0,0,1-30.07-4.92c-1.05-3.32-2.08-6.72-3.09-10.16l0-.14-.48-2.14-.93-4.3c-.3-1.45-.64-2.89-.88-4.36l-.6-4.44c-.2-1.48-.39-3-.58-4.47l-.14-1.13-.07-1.13-.13-2.27c-.12-2.3-.23-4.59-.35-6.86s.07-4.53.12-6.76l.09-3.34c0-1.11.18-2.2.26-3.3,2-45.8,37.14-91.4,37.14-91.4l5.29,3.67c5.11-3.69,8.3-5.17,9.41-4.14s0,4.58-2.61,9.93c-.58,1.4-1.24,2.93-2,4.57l-1.18,2.53-.64,1.33c-.18.46-.38.94-.57,1.42-.78,1.93-1.63,4-2.54,6.09-.49,1-.82,2.21-1.25,3.35s-.84,2.32-1.27,3.53c-1,2.35-1.61,5-2.44,7.59-.37,1.33-.87,2.63-1.18,4s-.67,2.8-1,4.24c-.18.71-.35,1.43-.53,2.16s-.37,1.45-.49,2.2c-.27,1.5-.55,3-.83,4.55-.67,3-.94,6.24-1.39,9.46-.1.81-.23,1.62-.31,2.44s-.11,1.65-.16,2.48c-.13,1.66-.25,3.33-.37,5s-.07,3.41-.12,5.12c0,.86,0,1.73-.05,2.59,0,.55,0,1.1,0,1.65.92-2.07,1.82-4.05,2.67-5.94.11-.23.22-.45.32-.68l1.92-4c.75-1.49,1.51-2.89,2.21-4.22a51.89,51.89,0,0,1,4.44-6.83,19.27,19.27,0,0,1,4.56-4.37,8.16,8.16,0,0,1,4.77-1.42,7.33,7.33,0,0,1,4.54,2,16,16,0,0,1,3.83,5.45,34.86,34.86,0,0,1,2.57,8.78,44.12,44.12,0,0,1,.64,5.54C2281.75,586.2,2281.8,587.21,2281.83,588.25Z" transform="translate(-394.67 -402.01)"/><path class="cls-11" d="M2281.83,588.25c0,1,0,2.11,0,3.2a83.36,83.36,0,0,1-1.72,14.28,102.89,102.89,0,0,1-4.72,16,116.22,116.22,0,0,1-8.08,17c-3.4-31.6-18.49-39.15-18.49-39.15l3.44-15.26,1.92-4c.75-1.49,1.51-2.89,2.21-4.22a51.89,51.89,0,0,1,4.44-6.83,19.27,19.27,0,0,1,4.56-4.37,8.16,8.16,0,0,1,4.77-1.42,7.33,7.33,0,0,1,4.54,2,16,16,0,0,1,3.83,5.45,34.86,34.86,0,0,1,2.57,8.78,44.12,44.12,0,0,1,.64,5.54C2281.75,586.2,2281.8,587.21,2281.83,588.25Z" transform="translate(-394.67 -402.01)"/><path class="cls-13" d="M2255.19,516.66c0-9.4.1-19.07,3.61-27.79a37.49,37.49,0,0,1,20.38-20.45c4.06,10.25,7.4,21.4,4.57,32.05a26.59,26.59,0,0,1-21.11,19Z" transform="translate(-394.67 -402.01)"/><path class="cls-14" d="M2396.17,1166.26a84.36,84.36,0,0,1,13,47.85c-16.9,1.51-34,2.08-50.9.55-2.14-7.88,1.23-16,4.09-23.65s5.86-15.79,4.17-23.77C2376.13,1166.63,2386.59,1166,2396.17,1166.26Z" transform="translate(-394.67 -402.01)"/><path class="cls-14" d="M2291.67,1158a115.22,115.22,0,0,0,2.51,52.82,214.12,214.12,0,0,1-72.73,2.93c-3-3.64-1.75-9.84,1.2-13.55s7.5-5.73,12-7.12,9.24-2.3,13.49-4.4a26.87,26.87,0,0,0,14.33-26.92C2270.92,1157.41,2282.3,1156.57,2291.67,1158Z" transform="translate(-394.67 -402.01)"/><path class="cls-18" d="M2395.41,1168.94q-12.32,1.26-24.94,2.09a10.29,10.29,0,0,1-10.52-7.27c-12.92-42.82-31.14-124.29-43.83-268.36q-2.72-30.9-5.07-65.73c-3.28,19.6-6.49,41.7-9.28,65.94-8.41,73-13,165.09-3.51,265.15a10.32,10.32,0,0,1-10.69,11.25q-13.05-.55-25.76-1.53a10.28,10.28,0,0,1-9.38-8.76c-7.7-52.37-17.4-146.05-11.82-262.17q1-21.22,2.76-43.41,1.64-20.55,3.94-41.85l.72-6.47q1.06-9.29,2.27-18.68h0q1-8.08,2.17-16.26,1.79-12.68,3.84-25.52.93-5.82,1.91-11.66c.07-.47.16-1,.23-1.43.36-2.08.73-4.15,1.09-6.23l51-1.09,78.39-1.66c-.73,5.41-1.64,12.89-2.54,22.55-.18,2.06-.36,4.22-.56,6.47,0,.41-.07.83-.09,1.25q-.45,5.4-.86,11.53c-.06.91-.12,1.84-.18,2.78-.61,9.58-1.15,20.47-1.56,32.7-.1,2.92-.18,5.92-.26,9-.36,14.18-.53,30-.41,47.55q.12,18.21.71,38.9c1.92,66.26,7.82,152,21.33,259.43A10.25,10.25,0,0,1,2395.41,1168.94Z" transform="translate(-394.67 -402.01)"/><path class="cls-19" d="M2292.17,1171.14a10.28,10.28,0,0,0,6.09-10.38c-9.47-100-4.9-192.17,3.51-265.15,2.79-24.23,6-46.34,9.27-65.93l-22.18-5.54S2264.11,1028.24,2292.17,1171.14Z" transform="translate(-394.67 -402.01)"/><path class="cls-19" d="M2389,725.28c-.73,5.41-1.64,12.89-2.54,22.55-.18,2.06-.36,4.22-.56,6.47,0,.41-.07.83-.09,1.25q-.45,5.4-.86,11.53c-.06.91-.12,1.84-.18,2.78-.61,9.58-1.15,20.47-1.56,32.7-.1,2.92-.18,5.92-.26,9a346.59,346.59,0,0,0-130.43-38.69q1.79-12.68,3.84-25.52.93-5.82,1.91-11.66c.07-.47.16-1,.23-1.43.36-2.08.73-4.15,1.09-6.23l51-1.09Z" transform="translate(-394.67 -402.01)"/><rect class="cls-14" x="2274.49" y="449.82" width="33.45" height="59.15" rx="4.98" transform="translate(24.31 -1327.68) rotate(25.07)"/><rect class="cls-20" x="2278.18" y="453.92" width="27.4" height="48.09" transform="translate(23.77 -1328.09) rotate(25.07)"/><path class="cls-21" d="M2358.46,451.28q-4.12,15.41-8.26,30.8c-1.92,7.17-4.19,14.87-10.1,19.35a17.3,17.3,0,0,1-19.21.83,66.61,66.61,0,0,0,18.2-28.34c1.64-5.13,2.7-10.52,5.42-15.17S2353.1,450.77,2358.46,451.28Z" transform="translate(-394.67 -402.01)"/><path class="cls-12" d="M2398.31,610.91c-1.73,12.72-3.22,29.85-4.48,48.44-1.94,28.78-3.31,61-4.1,85.86-.22,6.85-.39,13.13-.52,18.61a524.84,524.84,0,0,1-107,4.37q-16.36-1-32.67-3c3-14.27,5.56-28.26,7.71-41.83q1.13-7.07,2.11-14c.34-2.39.67-4.78,1-7.14a932,932,0,0,0,7.87-97.76l-19.43-4.88a81.55,81.55,0,0,1,11.4-43.25,37.54,37.54,0,0,1,16-14.75c4.78-2.32,10.44-5,14-6.67,2.14-1,4.29-1.94,6.44-2.93,9.71-4.41,19.46-8.83,28.17-13.26l22.57,9,.37.16c4.21,1.68,8.43,3.37,12.62,5.06,11,4.43,22.55,9.18,30.16,18.32C2403.77,567.18,2401.1,590.43,2398.31,610.91Z" transform="translate(-394.67 -402.01)"/><path class="cls-13" d="M2337.83,510.28a64,64,0,0,0,5.94,24.18,108.54,108.54,0,0,1-46,1.54,86,86,0,0,0,4-24.4c0-1.54,0-3.07,0-4.61a85.16,85.16,0,0,0-1-10.45c7.92-13.76,27.18-21,44.84-20.46a65.47,65.47,0,0,0-7.79,33.84C2337.81,510,2337.82,510.16,2337.83,510.28Z" transform="translate(-394.67 -402.01)"/><path class="cls-13" d="M2290.21,534.92a25,25,0,0,0,3.62,6.09c5.9,7.29,15.64,11.06,25,10.4a32.93,32.93,0,0,0,23.66-12.84,32.43,32.43,0,0,0,5.26-10.63l-.37-.16-22.57-9c-8.71,4.43-18.46,8.86-28.17,13.26C2294.5,533,2292.35,534,2290.21,534.92Z" transform="translate(-394.67 -402.01)"/><path class="cls-22" d="M2295,428.14a37.58,37.58,0,0,0,2.67,31.07c1.15-7.51,2.34-14.72,3.5-22.23.53-3.47.88-7.56-1.67-10a3.23,3.23,0,0,0-2.92-1C2295.58,426.25,2294.49,427.21,2295,428.14Z" transform="translate(-394.67 -402.01)"/><path class="cls-11" d="M2338.24,499.18a65.39,65.39,0,0,0-.43,10.74c0,.12,0,.24,0,.36a29.3,29.3,0,0,0-10.25-1.61c-5,.12-9.95,1.52-14.9,2.43a33.79,33.79,0,0,1-10.88.5c0-1.54,0-3.07,0-4.61a85.16,85.16,0,0,0-1-10.45c7.92-13.76,27.18-21,44.84-20.46A65.26,65.26,0,0,0,2338.24,499.18Z" transform="translate(-394.67 -402.01)"/><path class="cls-13" d="M2333.71,490.56a52.29,52.29,0,0,1-13,13.05,31.52,31.52,0,0,1-13.77,5.36c-11.07,1.36-23.55-6.11-24.54-17.23-.76-8.44,4.74-15.95,8.67-23.46.81-1.55,1.57-3.14,2.25-4.75a69.84,69.84,0,0,0,4.73-38.76c15.43-2.48,34.53.49,48.47,7.55A76.78,76.78,0,0,1,2333.71,490.56Z" transform="translate(-394.67 -402.01)"/><path class="cls-21" d="M2343.69,470.1a56.38,56.38,0,0,1-3-32.3c-10.19,4.37-22.62,3.87-32.7-.77a40.28,40.28,0,0,1-21.3-24.3,90.55,90.55,0,0,1,38.09-10.66c5.65-.25,11.59.11,16.46,3a18,18,0,0,1,8,19.32c4.65-1.23,9.41,2.49,11.4,6.86s1.58,9.48.41,14.14C2358.38,455.91,2352.46,463.69,2343.69,470.1Z" transform="translate(-394.67 -402.01)"/><path class="cls-13" d="M2342.86,469.24a4.6,4.6,0,0,1,3.91-4.55,6,6,0,0,1,5.62,2.72,8.6,8.6,0,0,1,1.06,6.34,15.86,15.86,0,0,1-2.72,5.95c-1.86,2.67-4.33,5.09-7.44,6.06s-6.93.14-8.76-2.56C2338.45,479,2343.25,475,2342.86,469.24Z" transform="translate(-394.67 -402.01)"/><path class="cls-14" d="M2393.83,659.35c-1.94,28.78-3.31,61-4.1,85.86a265.64,265.64,0,0,0-132.5-21.88q1.13-7.07,2.11-14A455.38,455.38,0,0,0,2393.83,659.35Z" transform="translate(-394.67 -402.01)"/><path class="cls-13" d="M2404.91,632a174.55,174.55,0,0,1-4,25.78,196.93,196.93,0,0,1-5.61,19.61q-1.24,3.67-2.67,7.37l-3.79,9.83-7.39,2.74-5.74,2.13-2.89,1.06c-1,.35-1.94.72-2.93,1l-5.94,1.94c-2,.64-4,1.31-6,1.88l-7.78,2.21c-2.58.71-5.18,1.31-7.74,2-5.11,1.32-10.23,2.27-15.22,3.31-10.05,1.81-19.76,3.29-29.07,4.09s-18.16,1.27-26.42,1.41c-4.14,0-8.13-.07-11.95-.12s-7.5-.36-11-.55l-.23,0c-3.42-.26-6.66-.59-9.72-.88s-6.07-.78-8.81-1.15l-4-.6-3.65-.7c-2.33-.46-4.46-.91-6.36-1.35a55.42,55.42,0,0,1-8.67-2.78l-.12-.06,10.74-6.55c1.45-.24,3-.49,4.67-.73l3.55-.5,3.83-.61c2.63-.44,5.45-.78,8.41-1.31l9.37-1.59,3.09-.58,7.14-1.36,11-2.35c7.55-1.76,15.57-3.68,23.88-6.08s16.94-5.1,25.79-8.05c4.38-1.62,8.89-3.08,13.36-4.86,2.24-.87,4.52-1.68,6.78-2.59l6.8-2.74c1.79-.69,3.53-1.47,5.28-2.21l5.21-2.2.29-.13c.8-5.24,1.46-10.37,2-15.34.88-7.53,1.39-14.76,1.87-21.61v-.05c.53-6.86.75-13.36,1.16-19.45s.68-11.78,1.06-17c.1-1.31.22-2.59.35-3.85s.24-2.48.36-3.67c.26-2.39.61-4.68.9-6.82s.76-4.19,1.18-6.08a46.42,46.42,0,0,1,1.45-5.29,37.65,37.65,0,0,1,1.6-4,19.69,19.69,0,0,1,2.37-3.94,10.36,10.36,0,0,1,5.54-3.87,9.44,9.44,0,0,1,6.66,1,22.44,22.44,0,0,1,7.08,6.05l.33.42a50.68,50.68,0,0,1,3.12,4.49,61.63,61.63,0,0,1,3.21,6.15,68.9,68.9,0,0,1,2.89,7.34c.45,1.32.92,2.68,1.31,4.09s.77,2.87,1.13,4.37a125.68,125.68,0,0,1,3.08,20A156.77,156.77,0,0,1,2404.91,632Z" transform="translate(-394.67 -402.01)"/><path class="cls-13" d="M2248.88,701.15c-2.94-5.12-7.49-11.81-12.48-16.57a3.22,3.22,0,0,0-5.41,2.88c.79,4.11,2.56,8.39,4.67,10.49A62.56,62.56,0,0,0,2203,712.56c-3.82,3.31-7.53,8.4-5,13.06a8,8,0,0,0,5.32,3.78c4,.92,8-.43,11.71-1.76l34.44-12.18C2248.69,710.49,2251.39,705.52,2248.88,701.15Z" transform="translate(-394.67 -402.01)"/><path class="cls-11" d="M2404.91,632a174.55,174.55,0,0,1-4,25.78,196.93,196.93,0,0,1-5.61,19.61c0-.34,0-.69,0-1-.29-10.91-3.09-22.06-9.82-30.65-6.32-8.07-15.55-13.26-25.18-17v-.05c.53-6.86.75-13.36,1.16-19.45s.68-11.78,1.06-17c.1-1.31.22-2.59.35-3.85s.24-2.48.36-3.67c.26-2.39.61-4.68.9-6.82s.76-4.19,1.18-6.08a46.42,46.42,0,0,1,1.45-5.29,37.65,37.65,0,0,1,1.6-4,155,155,0,0,1,22-.36,50.68,50.68,0,0,1,3.12,4.49,61.63,61.63,0,0,1,3.21,6.15,68.9,68.9,0,0,1,2.89,7.34c.45,1.32.92,2.68,1.31,4.09s.77,2.87,1.13,4.37a125.68,125.68,0,0,1,3.08,20A156.77,156.77,0,0,1,2404.91,632Z" transform="translate(-394.67 -402.01)"/><path class="cls-12" d="M2390.54,551.32s20.78,22.18,18.28,73.68c0,0-21.86,14.5-55.18-3.5l8.36-70.18Z" transform="translate(-394.67 -402.01)"/><path class="cls-23" d="M2344.28,466.39c-.43-.48-5.79,3.77-13,8-3.89,2.28-7.51,4.07-10,5.34-3.12-7.86-9.07-14.6-16.54-16.68a18.47,18.47,0,0,0-11.4.52c-.68,1.61-1.44,3.2-2.25,4.75-3.93,7.51-9.43,15-8.67,23.46,1,11.12,13.47,18.59,24.54,17.23a30.79,30.79,0,0,0,12.39-4.48,34.59,34.59,0,0,0,4.13-2.42,37.7,37.7,0,0,0,9.2-9,33.06,33.06,0,0,0,2.73-4.51c1.33-2.69,1.75-4.51,1.49-4.62-.61-.28-3.67,6.34-10,12.45a48.23,48.23,0,0,1-4.78,4.16c.25-.68.48-1.36.68-2.07a29.65,29.65,0,0,0-1-17.38,53.76,53.76,0,0,0,10.61-4.8C2339.84,471.94,2344.69,466.81,2344.28,466.39Z" transform="translate(-394.67 -402.01)"/><path class="cls-13" d="M2881.23,1091.8a170.43,170.43,0,0,1-47.1,6.51,173.89,173.89,0,0,1-31.07-2.77c.88-4.59,1.69-9.19,2.4-11.81.79-3,1.5-6,2.09-8.94.13-.62.25-1.25.37-1.87s.23-1.24.34-1.86c.17-.94.32-1.89.46-2.84.6-3.82,1-7.67,1.3-11.53a142.15,142.15,0,0,0-.79-28.5c18.71-12.51,38.34-22,60.74-24-.07,7.5.15,15.05.64,22.59.22,3.59.51,7.18.85,10.78s.76,7.26,1.24,10.9,1,7.54,1.65,11.3q1.38,8.55,3.24,17,1.63,7.56,3.62,15S2881.22,1091.77,2881.23,1091.8Z" transform="translate(-394.67 -402.01)"/><path class="cls-11" d="M2877.59,1076.74a151.16,151.16,0,0,1-42.87,2.44c-6.77-.59-13.6-1.67-19.84-4.37a34.6,34.6,0,0,1-6.62-3.75c.17-.94.32-1.89.46-2.84.6-3.82,1-7.67,1.3-11.53a142.15,142.15,0,0,0-.79-28.5c18.71-12.51,38.34-22,60.74-24-.07,7.5.15,15.05.64,22.59.22,3.59.51,7.18.85,10.78s.76,7.26,1.24,10.9,1,7.54,1.65,11.3Q2875.73,1068.29,2877.59,1076.74Z" transform="translate(-394.67 -402.01)"/><path class="cls-14" d="M2954.88,2056.05a134.79,134.79,0,0,1,20.85,76.5c-27,2.41-54.35,3.32-81.37.87-3.42-12.59,2-25.58,6.53-37.8s9.38-25.24,6.67-38C2922.84,2056.65,2939.57,2055.56,2954.88,2056.05Z" transform="translate(-394.67 -402.01)"/><path class="cls-14" d="M2787.82,2042.86a184.41,184.41,0,0,0,4,84.45c-37.95,8.38-77.7,9.55-116.26,4.68-4.84-5.82-2.8-15.73,1.91-21.66s12-9.17,19.24-11.39,14.77-3.67,21.56-7c15.55-7.7,25.22-25.85,22.91-43.05C2754.65,2041.9,2772.84,2040.55,2787.82,2042.86Z" transform="translate(-394.67 -402.01)"/><path class="cls-12" d="M2953.67,2060.34q-19.68,2-39.89,3.33a16.39,16.39,0,0,1-16.78-11.61c-20.69-68.46-49.81-198.7-70.08-429q-4.36-49.39-8.13-105.07c-5.23,31.32-10.36,66.66-14.82,105.4-13.44,116.67-20.75,263.94-5.62,423.88a16.46,16.46,0,0,1-17.08,18q-20.85-.88-41.19-2.45a16.42,16.42,0,0,1-15-14c-12.31-83.72-27.81-233.5-18.88-419.14,1.09-22.6,2.53-45.77,4.41-69.38q3-37.85,7.45-77.26,1.68-14.83,3.61-29.86h0q2.59-20.34,5.65-41,1.89-12.84,4-25.79,1.68-10.41,3.44-20.92c.56-3.32,1.14-6.64,1.72-10l81.57-1.73,125.31-2.66c-1.17,8.65-2.61,20.59-4,36.06-.29,3.28-.59,6.73-.9,10.33,0,.66-.1,1.33-.17,2q-.69,8.63-1.36,18.43c-1.79,26.79-3.27,60.28-3.74,100.93q-.27,21.72-.1,46.2.21,29.12,1.13,62.18c3.07,106,12.51,242.93,34.1,414.74A16.42,16.42,0,0,1,2953.67,2060.34Z" transform="translate(-394.67 -402.01)"/><path class="cls-14" d="M2788.62,2063.85a16.42,16.42,0,0,0,9.74-16.6c-15.14-159.93-7.84-307.2,5.61-423.88,4.45-38.73,9.59-74.07,14.83-105.4l-35.47-8.84S2743.76,1835.41,2788.62,2063.85Z" transform="translate(-394.67 -402.01)"/><path class="cls-14" d="M2943.33,1351.08c-1.17,8.65-2.61,20.59-4,36.06-.29,3.28-.59,6.73-.9,10.33,0,.66-.1,1.33-.17,2q-.69,8.63-1.36,18.43c-1.79,26.79-3.27,60.28-3.74,100.93a230.48,230.48,0,0,0-71.95-64.82c-40.84-23.23-87.46-33.37-133.84-41.87q1.89-12.84,4-25.79,1.68-10.41,3.44-20.92c.56-3.32,1.14-6.64,1.72-10l81.57-1.73Z" transform="translate(-394.67 -402.01)"/><path class="cls-24" d="M2951.38,1390q0,3.75.07,7.57A431.85,431.85,0,0,1,2773,1411.09h-.09c-2.33-.32-4.66-.66-7-1-4.72-.69-9.42-1.48-14.1-2.34q-10.65-2-21.25-4.49c-3.22-.77-6.46-1.57-9.66-2.41q-.35-18.28-.57-35-.33-19.92-.43-37.77c0-2.8,0-5.54,0-8.25,0-1.93,0-3.84,0-5.74q-.12-22.75,0-42.14c0-1.82,0-3.63.06-5.42q0-4.48.07-8.81c.08-8.13.19-15.79.34-23a183.54,183.54,0,0,1-29.87-27.68l18.6-57.82c7.82-24.27,26.69-43.75,51.1-51.1a70.63,70.63,0,0,1,17.33-3c1.55-.48,3.08-.94,4.63-1.38.86-.24,1.72-.49,2.62-.73l1.83-.46c1.06-.28,2.12-.55,3.18-.8.71-.17,1.44-.35,2.16-.51l.52-.11c1.15-.27,2.3-.52,3.45-.76s2.12-.43,3.19-.62a188.58,188.58,0,0,1,32.53-3.25,191.79,191.79,0,0,1,36,2.85l2.45.46-.29-.45c4.72.53,9.44,1.11,14.16,1.77h.07s.06,0,.1,0l.7.1c1.31.18,2.61.39,3.91.59,1.66.25,3.31.52,4.95.79,0,0,.65,0,1.86,0a93.74,93.74,0,0,1,9.67.77l.07,0c.43.06,3.28.56,7.67,1.61a165.09,165.09,0,0,1,21.39,6.68h0c.56.29,1.13.57,1.69.88,1.72.92,3.5,1.93,5.29,3,.58.35,1.15.72,1.73,1.11l1.8,1.2c1.21.82,2.42,1.69,3.65,2.62,12.39,9.32,25.56,23.72,36.75,45.93a215.1,215.1,0,0,1,14.81,39.07,162.18,162.18,0,0,1-51.56,18.87v43.55c.05,1.23.09,2.46.14,3.71.08,2.21.15,4.43.23,6.7.1,2.71.2,5.45.29,8.24q.55,17.6,1,37.78c0,.22,0,.44,0,.66,0,2.06.07,4.15.12,6.27q.33,14.71.59,30.83C2951.09,1364.15,2951.25,1376.75,2951.38,1390Z" transform="translate(-394.67 -402.01)"/><path class="cls-25" d="M2985.22,1156.81c0-.12,0-.24,0-.39l0,0C2985.21,1156.58,2985.21,1156.7,2985.22,1156.81Z" transform="translate(-394.67 -402.01)"/><path class="cls-13" d="M2888.65,1091.78c-9.4,25.21-27.37,42.24-48,42.24-20.8,0-38.91-17.34-48.24-42.93,1.15-.27,2.3-.52,3.45-.76s2.12-.43,3.19-.62a188.58,188.58,0,0,1,32.53-3.25,191.79,191.79,0,0,1,36,2.85l2.45.46-.29-.45c4.72.53,9.44,1.11,14.16,1.77h.07s.06,0,.1,0l.7.1C2886.05,1091.37,2887.35,1091.58,2888.65,1091.78Z" transform="translate(-394.67 -402.01)"/><path class="cls-14" d="M2804.47,1003.48a59.22,59.22,0,0,1-24.11-48.07c6.47.58,13.69,2,18.28,6.6,5,5,5.52,12.9,5.7,20S2804.3,996.27,2804.47,1003.48Z" transform="translate(-394.67 -402.01)"/><path class="cls-13" d="M2863,1036.43a78.86,78.86,0,0,1-5,10.16c-5.43,9.3-12.94,17.33-22.75,21.48-13.25,5.61-31,1.83-37.8-10.86-5.53-10.35-2.71-22.82-1-34.53.08-.5.14-1,.21-1.49a120.19,120.19,0,0,0-5.39-54.57c15.6-19.29,42.76-27.41,65.35-17.17A100.13,100.13,0,0,1,2863,1036.43Z" transform="translate(-394.67 -402.01)"/><path class="cls-12" d="M2870.12,999.85a42.64,42.64,0,0,1-25.61-45.37c-12.83,8.46-27.87,13.11-43.19,14.33-6.35.5-13,.29-18.74-2.44-11.06-5.24-16.25-19.42-12.95-31.2,3.72-13.31,16.47-22.81,30-25.49a48.72,48.72,0,0,1,53.77,27.57h.23a22.79,22.79,0,0,1,22,22.61A128.62,128.62,0,0,1,2870.12,999.85Z" transform="translate(-394.67 -402.01)"/><path class="cls-14" d="M2804.84,1012a12.57,12.57,0,0,1-2.27.16,12.26,12.26,0,0,1-4.84-1.18,12.73,12.73,0,0,1-6.5-7.42,13.07,13.07,0,0,1-.68-5,11.89,11.89,0,0,1,1.32-5,12.72,12.72,0,0,1,3.21-4,14.71,14.71,0,0,1,4.45-2.49,13.47,13.47,0,0,1,2.35-.59,14.73,14.73,0,0,1,7.68.84,4.58,4.58,0,0,0,7.75.19l.36-.06a8.37,8.37,0,0,1,4.3.44,12.89,12.89,0,0,1,3.08-3.38,15,15,0,0,1,4.55-2.31,14.08,14.08,0,0,1,1.77-.4,14.64,14.64,0,0,1,8.25,1.09,10.3,10.3,0,0,1,4.1,3.28,9.47,9.47,0,0,1,1.46,2.64l.3-.18a24.56,24.56,0,0,1,4.26-1.93,28.23,28.23,0,0,1,4.63-1.15l.94-.13a28.73,28.73,0,0,1,5.72-.09,25.6,25.6,0,0,1,4.58.86c1.78.53,3.73,1.37,4.06,2l.09.2-.06.28a.67.67,0,0,1-.57.41h0a9.34,9.34,0,0,1-2.32-.23l-1.72-.25a41.18,41.18,0,0,0-4.25-.34,40.77,40.77,0,0,0-5.15.23l-1.13.17a35.06,35.06,0,0,0-3.94.84,38,38,0,0,0-4,1.34l-.76.3a14.42,14.42,0,0,1-1.83,9.41,13.19,13.19,0,0,1-7.52,6.17,14.89,14.89,0,0,1-2,.47,12.08,12.08,0,0,1-7.64-1.25,12.76,12.76,0,0,1-6.18-7.67,12.59,12.59,0,0,1-.47-5,12.14,12.14,0,0,1,.56-2.73,8.06,8.06,0,0,0-2.5,0l-.28,0a13.25,13.25,0,0,0-3.19,1.17,12.13,12.13,0,0,1,1.32,3.32,14.52,14.52,0,0,1-1.37,9.76,13.26,13.26,0,0,1-7.26,6.47A14.08,14.08,0,0,1,2804.84,1012Zm-2.45-22.37a10.87,10.87,0,0,0-1.85.45,11.67,11.67,0,0,0-3.5,1.9,10.58,10.58,0,0,0-2.52,3,8.92,8.92,0,0,0-1.14,3.75,10.53,10.53,0,0,0,.4,4,10.32,10.32,0,0,0,5,6.18,9.86,9.86,0,0,0,6.15,1,9.6,9.6,0,0,0,1.84-.49c5.05-2,8.08-8.25,6.61-13.68a8.83,8.83,0,0,0-1.4-2.94c-.13-.17-.26-.32-.39-.47a4.64,4.64,0,0,0-.38-.39,8.24,8.24,0,0,0-2.76-1.78,9,9,0,0,0-.91-.31,6,6,0,0,0-1-.22l-.37-.06c-.21,0-.43-.08-.64-.1l-1-.06A14.49,14.49,0,0,0,2802.39,989.64Zm29.45-4.67a11.53,11.53,0,0,0-1.35.29,12,12,0,0,0-3.58,1.76,10.29,10.29,0,0,0-2.64,2.92,7.24,7.24,0,0,0-.61,1.14,9.45,9.45,0,0,0-.68,2.55,10.59,10.59,0,0,0,.22,4,10.18,10.18,0,0,0,4.72,6.37,9.85,9.85,0,0,0,6.48,1.24,9,9,0,0,0,1.47-.36c5-1.74,8.34-7.79,7.22-13.2l0-.22c-.05-.18-.1-.39-.16-.6a8.1,8.1,0,0,0-1.49-2.85,8.27,8.27,0,0,0-3.05-2.31l-.22-.09c-.22-.09-.45-.19-.68-.26a6.13,6.13,0,0,0-.95-.25l-.35-.07a5.64,5.64,0,0,0-.67-.13l-1-.1A12.61,12.61,0,0,0,2831.84,985Z" transform="translate(-394.67 -402.01)"/><path class="cls-26" d="M2951.38,1390c-11.11-20.45-28.24-37.86-48.11-50.22-29.69-18.44-65-26.39-99.95-27.44-28-.84-55.85,2.54-83.45,7.44,0-1.93,0-3.84,0-5.74q-.12-22.75,0-42.14c0-1.82,0-3.63.06-5.42q0-4.48.07-8.81c1.54-.37,3.09-.69,4.61-1,34.44-6.64,69.84-5.53,104.89-4.38l119,3.88v1.75c.05,1.23.09,2.46.14,3.71.08,2.21.15,4.43.23,6.7.1,2.71.2,5.45.29,8.24q.55,17.6,1,37.78c0,.22,0,.44,0,.66,0,2.06.07,4.15.12,6.27q.33,14.71.59,30.83C2951.09,1364.15,2951.25,1376.75,2951.38,1390Z" transform="translate(-394.67 -402.01)"/><path class="cls-13" d="M3001,1247.92c.08,3.51-.17,7.07-.33,10.65-.09,1.79-.2,3.59-.3,5.39s-.31,3.62-.47,5.42-.35,3.63-.54,5.44-.36,3.65-.67,5.47q-.87,5.46-1.73,11l-.66,4.2,0,.11a29.87,29.87,0,0,1-39.27,23.58l-10.14-3.51c-3.11-1.11-6.27-2.12-9.38-3.18s-6.23-2-9.35-3c-6.2-2-12.37-3.93-18.48-5.74l-9.13-2.67c-3-.87-6-1.77-9-2.61-6-1.67-11.85-3.31-17.56-4.92s-11.4-3.13-16.85-4.64-10.82-2.94-16-4.44c-6.66-1.87-13-3.71-19.08-5.51a160.43,160.43,0,0,1-73.89-.5c-.49-10.32,3.74-20.53,10.7-28.21a42.15,42.15,0,0,1,5-4.67,44.51,44.51,0,0,1,4.69-3.3,55.72,55.72,0,0,1,30.69-7.67c11.69.41,23.1,4,33.49,9.43l15.19,1,16.45,1.06q8.52.53,17.54,1.19c6,.38,12.22.82,18.57,1.36s12.85,1,19.49,1.64l10.07,1,.5,0c-.37-2.43-.68-4.85-1.06-7.24-.53-2.54-1-5.08-1.44-7.57-.21-1.25-.44-2.48-.73-3.72s-.55-2.43-.81-3.65c-.55-2.41-1-4.8-1.68-7.14-.06-.23-.11-.45-.16-.67-.36-1.42-.7-2.82-1-4.22a163.81,163.81,0,0,0,72.47-19.35c.69,3.19,1.3,6.45,1.83,9.76A235.47,235.47,0,0,1,3001,1247.92Z" transform="translate(-394.67 -402.01)"/><polygon class="cls-14" points="2379.05 719.56 2410.34 874.53 2523.5 874.53 2523.5 887.69 2413 887.69 2405.01 887.69 2201 887.69 2167.05 719.56 2379.05 719.56"/><path class="cls-13" d="M2674.94,1289.56c9,1.15,17.91-1.61,26.24-5.28s17-7.62,26.05-7.37,18.78,6.2,19.87,15.24c.75,6.25-2.84,12.48-8,16.1s-11.59,5-17.88,5.13C2704,1313.87,2685.65,1303.11,2674.94,1289.56Z" transform="translate(-394.67 -402.01)"/><path class="cls-11" d="M3001,1247.92c.08,3.51-.17,7.07-.33,10.65-.09,1.79-.2,3.59-.3,5.39s-.31,3.62-.47,5.42-.35,3.63-.54,5.44-.36,3.65-.67,5.47q-.87,5.46-1.73,11l-.66,4.2a138.79,138.79,0,0,0-2.81-14.12c-4.51-17.46-13.38-34.32-27.64-45.35-11.72-9.07-26.34-13.61-41.23-14.74-.36-1.42-.7-2.82-1-4.22a163.81,163.81,0,0,0,72.47-19.35c.69,3.19,1.3,6.45,1.83,9.76A235.47,235.47,0,0,1,3001,1247.92Z" transform="translate(-394.67 -402.01)"/><path class="cls-10" d="M3007,2122.86c-39.61,23.81-107.46,39.5-184.51,39.5s-144.88-15.69-184.49-39.5c39.61-23.82,107.46-39.52,184.49-39.52S2967.39,2099,3007,2122.86Z" transform="translate(-394.67 -402.01)"/><path class="cls-23" d="M2868.44,1014c-.35,0-.52,3.24-1.58,8.3a60.88,60.88,0,0,1-7.26,18.67c-.66,1.1-1.35,2.14-2.06,3.16a48.09,48.09,0,0,0-14.37-24.66,72.18,72.18,0,0,0,10.74-8.2A70.07,70.07,0,0,0,2864,999.75c2.21-3.24,3.26-5.44,3-5.59-.57-.38-6,7.57-14.59,15.47a115.93,115.93,0,0,1-10.56,8.66c-7.51-6.41-16.76-10.13-26-8.59-7.89,1.32-14.55,6.27-19.45,13-1.67,11.71-4.49,24.18,1,34.53,6.78,12.69,24.55,16.47,37.8,10.86,8.83-3.74,15.8-10.62,21.06-18.75a51.69,51.69,0,0,0,12.12-26.75C2869.1,1017.29,2868.7,1014,2868.44,1014Z" transform="translate(-394.67 -402.01)"/><path class="cls-13" d="M2866.13,994.88c-.07-4.56,4.39-8.43,8.95-8.37s8.66,3.5,10.23,7.77a17,17,0,0,1-1.16,13.24c-1.61,3.24-4.18,6.18-7.6,7.37s-7.72.17-9.61-2.91C2863.87,1007,2866.22,1000.73,2866.13,994.88Z" transform="translate(-394.67 -402.01)"/><path class="cls-10" d="M1347.72,2150.68C1307,2173.15,1237.19,2188,1158,2188s-149-14.83-189.75-37.3c40.74-22.5,110.53-37.32,189.75-37.32S1307,2128.18,1347.72,2150.68Z" transform="translate(-394.67 -402.01)"/><path class="cls-27" d="M1009.25,2060.38a195.29,195.29,0,0,1-7.79,89.21c39.82,10.47,81.84,13.38,122.86,9.84,5.37-6,3.62-16.53-1.12-23s-12.31-10.22-19.88-12.87-15.48-4.5-22.52-8.34c-16.14-8.8-25.61-28.41-22.45-46.52C1044.4,2060.75,1025.2,2058.56,1009.25,2060.38Z" transform="translate(-394.67 -402.01)"/><path class="cls-27" d="M1192.6,2060.38a195.29,195.29,0,0,1-7.79,89.21c39.81,10.47,81.84,13.38,122.86,9.84,5.36-6,3.61-16.53-1.12-23s-12.32-10.22-19.88-12.87-15.49-4.5-22.53-8.34c-16.14-8.8-25.6-28.41-22.44-46.52C1227.75,2060.75,1208.55,2058.56,1192.6,2060.38Z" transform="translate(-394.67 -402.01)"/><path class="cls-28" d="M1260,2089.65l-2.11-.05-2.23,0h0l-75-1.34-2.43,0-2.09,0c24.69-223.67-3.07-425-24.91-555.8-21.67,323.63-61,482.92-84.25,552.38-.13.43-.27.84-.41,1.25l-67.21-1.43-.95,0c29-221.79,38.08-387.65,38.92-505.24.39-52.74-.89-95.75-2.78-129.7-.2-3.46-.4-6.82-.61-10.1q-.69-10.89-1.41-20.41c-.14-1.66-.26-3.28-.4-4.87q-.53-6.5-1.06-12.32c-1.41-15.41-2.84-27.33-4-36l125,2.66,81.33,1.71c.6,3.33,1.16,6.64,1.72,10q1.77,10.45,3.43,20.87,1.85,11.57,3.55,23c2,13.34,3.85,26.62,5.53,39.75q.89,6.89,1.73,13.71c4.1,33.09,7.32,65.47,9.81,97C1278.16,1815.4,1273.8,2006.51,1260,2089.65Z" transform="translate(-394.67 -402.01)"/><path class="cls-27" d="M1180.69,2088.22l-4.52-.09c24.69-223.66-3.07-425-24.9-555.79l41.56-14.93S1238.34,1748.78,1180.69,2088.22Z" transform="translate(-394.67 -402.01)"/><path class="cls-27" d="M1247.62,1463.87a577.32,577.32,0,0,1-213.64-24.4q-.69-10.89-1.41-20.41c-.14-1.66-.26-3.28-.4-4.87q-.53-6.5-1.06-12.32c-1.41-15.41-2.84-27.33-4-36l125,2.66,81.33,1.71c.6,3.33,1.16,6.64,1.72,10q1.77,10.45,3.43,20.87,1.85,11.57,3.55,23C1244.08,1437.46,1245.94,1450.74,1247.62,1463.87Z" transform="translate(-394.67 -402.01)"/><path class="cls-13" d="M1167.74,1125.07a239.43,239.43,0,0,0-45.25,2.16c-8.15,1.15-16.07,2.66-23.69,4.52a70.18,70.18,0,0,1-5.31-15.32c0-1.59,0-3.18.07-4.78.2-16,.09-32.16-.14-48.28-.07-4.47-.13-8.93-.21-13.4q-.27-15.57-.6-31.1c17.62,5.28,34.2,12.52,51.16,21.35,1.75,9.8,3.83,19.55,6.22,29.19q3,12.21,6.71,24.19h0c0,.11.07.22.1.33q2,6.54,4.23,13Q1164.19,1116.1,1167.74,1125.07Z" transform="translate(-394.67 -402.01)"/><path class="cls-11" d="M1156.81,1093.93a63.13,63.13,0,0,1-29.81-5.48,64.2,64.2,0,0,1-33.79-38.48q-.27-15.57-.6-31.1c17.62,5.28,34.2,12.52,51.16,21.35,1.75,9.8,3.83,19.55,6.22,29.19q3,12.21,6.71,24.19h0C1156.74,1093.71,1156.78,1093.82,1156.81,1093.93Z" transform="translate(-394.67 -402.01)"/><path class="cls-14" d="M1156.48,972a39,39,0,0,1,0,38.59A73.26,73.26,0,0,1,1140,982.22c-.87-2.77-1.5-6,.12-8.41s4.69-3,7.51-3.08S1153.87,973,1156.48,972Z" transform="translate(-394.67 -402.01)"/><path class="cls-13" d="M1174.79,1050.06c-2.4,10.54-10.69,18.93-20.74,23.07a36.79,36.79,0,0,1-13.22,2.8,41.23,41.23,0,0,1-13.48-2.06,47,47,0,0,1-5.35-2.08,53.64,53.64,0,0,1-20.3-16.64c-9.17-12.28-13.35-27.71-14.44-43s.73-30.64,2.55-45.85c16.82-12.27,39.31-9.06,57,1.85-.47,14.75,8.22,28,16,40.52,1.39,2.24,2.77,4.55,4.08,6.91C1172.93,1026.38,1177.47,1038.25,1174.79,1050.06Z" transform="translate(-394.67 -402.01)"/><path class="cls-29" d="M1086.83,1016a34.72,34.72,0,0,0,6.74-43.93,59.52,59.52,0,0,0,41.23,11.22c10.4-1,20.7-4.86,28.4-11.93s12.53-17.5,11.76-27.92-7.58-20.45-17.42-24c-11.13-4-23.51.52-33.61,6.66s-19.36,14-30.58,17.71c-8.17,2.68-17.95,3.56-23,10.55-3.73,5.2-3.5,12.24-2.27,18.52C1071.15,988.33,1079,1002.31,1086.83,1016Z" transform="translate(-394.67 -402.01)"/><path class="cls-30" d="M1236.78,1357.07q2.64,31.5,7.06,62.6a365.72,365.72,0,0,1-221.22,7.82q.39-36.56.94-73.06a34.05,34.05,0,0,0-.28-5.13c-1.37-10.2-7.51-14.39-14.12-24.24a93.74,93.74,0,0,1-10.28-20.78,114.9,114.9,0,0,1-4.89-18.77,171.17,171.17,0,0,1-2.28-27.31c-1.72-.23-3.45-.51-5.14-.83-4.5-35.84,6.53-72.88,12.49-89.51a.53.53,0,0,1,.06-.14c1.79-5,3.11-8.14,3.38-8.77a.58.58,0,0,0,0-.13,67.81,67.81,0,0,1,31.37-32L1082,1103l15.1-7.46c17.58-8.67,36.56-.42,56.07-2.16,6.18,3.72,12.36,7.24,18.6,10.56a373.52,373.52,0,0,0,39.2,18.16,41.39,41.39,0,0,1,26.14,42.17,1120.1,1120.1,0,0,0-4.11,119.07Q1233.69,1320.3,1236.78,1357.07Z" transform="translate(-394.67 -402.01)"/><path class="cls-31" d="M1236.78,1357.07a203.93,203.93,0,0,0-57.65-10.63c-30-1.07-59.71,4.4-89.6,6.74-22.11,1.75-45,1.63-66.25-3.88-1.37-10.2-7.51-14.39-14.12-24.24a93.74,93.74,0,0,1-10.28-20.78c56.54,4.08,113.51,6.94,169.31-2.59a309.69,309.69,0,0,0,64.84-18.31Q1233.69,1320.3,1236.78,1357.07Z" transform="translate(-394.67 -402.01)"/><path class="cls-13" d="M1263,1277a52.46,52.46,0,0,1-9.08,8.63q-3.17,2.4-7.14,5.09c-2.65,1.8-5.57,3.68-8.78,5.53s-6.65,3.84-10.36,5.82-7.7,3.91-11.89,6-8.71,3.94-13.39,6-9.64,3.88-14.77,5.87-10.55,3.74-16.12,5.61c-5.6,1.7-11.36,3.56-17.36,5.16s-12.13,3.26-18.5,4.62c-3.17.71-6.38,1.46-9.63,2.1s-6.57,1.23-9.9,1.85-6.71,1.16-10.11,1.66c-2.24.32-4.49.67-6.76,1l-3.57.49c-7,.77-14,1.65-21.24,2.1-1.68.11-3.38.22-5.06.35s-3.37.25-5,.3l-10,.34c-3.32.13-6.62.14-9.9.1l-9.74-.09a30.54,30.54,0,0,1-28.33-19.87l-1.07-2.88,0,0a267.11,267.11,0,0,1-11-34.59,226.21,226.21,0,0,1-5.28-30.33,133.88,133.88,0,0,0,69.85-7.18c.32,2.93.65,5.93,1,9,.56,5.08,1.18,10.32,1.9,15.66.32,2.45.65,4.94,1,7.45h.35c1.49.06,3,0,4.5,0H1072c6.43.11,12.79-.13,19.07-.14l9.36-.28c3.1-.06,6.16-.14,9.21-.32l9.08-.38,8.91-.54c5.9-.27,11.65-.81,17.3-1.21s11.12-1,16.5-1.42q8.07-.87,15.63-1.65l14.64-1.74,13.57-1.74c4.33-.63,8.48-1.18,12.41-1.66s7.64-1.1,11.17-1.51l9.82-1.19q4.57-.51,8.43-.74a55.66,55.66,0,0,1,12.24,0c3,.45,4.91,1.38,5.53,2.88S1264.83,1274.56,1263,1277Z" transform="translate(-394.67 -402.01)"/><path class="cls-13" d="M1185,1068.45c3.34-.7,7.23,1.71,11.53,6.47,1.07,1.19,2.17,2.53,3.3,4s2.36,3.07,3.57,4.79c2.45,3.45,4.9,7.43,7.67,11.76,1.36,2.17,2.73,4.45,4.11,6.82l4.37,7.35c2.88,5.11,6.09,10.46,9.2,16.14q2.38,4.23,4.89,8.65c.8,1.48,1.62,3,2.44,4.48l2.56,4.52c1.72,3,3.3,6.18,5.08,9.3s3.47,6.32,5.16,9.57,3.49,6.38,5.12,9.54,3.33,6.23,4.86,9.31c.77,1.54,1.53,3.06,2.28,4.58l2.28,4.47c1.5,3,2.83,5.92,4.21,8.78,2.77,5.71,5.12,11.32,7.35,16.6,1.09,2.65,2,5.29,3,7.81s1.8,5,2.55,7.42a123.39,123.39,0,0,1,3.41,13.6c.37,2.12.61,4.18.78,6.13a46,46,0,0,1,.21,5.55c-.2,7-2.3,12.61-6.48,15.82s-10,3.72-17.07,1.6a45.14,45.14,0,0,1-5.48-2.07,60.78,60.78,0,0,1-5.74-3.11,82.62,82.62,0,0,1-12.21-9.11q-3.11-2.76-6.3-6c-2.11-2.14-4.15-4.47-6.25-6.91a171.26,171.26,0,0,1-12.3-16.33c-2-3-3.88-6.15-5.81-9.38q-1.41-2.45-2.86-4.93t-2.69-5.15c-1.75-3.49-3.6-7-5.2-10.72s-3.24-7.46-4.8-11.29-2.86-7.74-4.19-11.55-2.42-7.64-3.54-11.39l-1.58-5.58-1.34-5.55c-.85-3.67-1.71-7.24-2.36-10.79-1.28-7.08-2.39-13.82-3-20.22-.31-3.19-.63-6.26-.78-9.24s-.23-5.86-.27-8.6a124.75,124.75,0,0,1,.62-14.9c.23-2.21.48-4.26.82-6.17s.77-3.68,1.22-5.27C1179.15,1072.9,1181.65,1069.14,1185,1068.45Z" transform="translate(-394.67 -402.01)"/><path class="cls-13" d="M1171.8,1104c0,1.14,0,2.29,0,3.43-.31,9.52-2.86,19.22-8.69,26.76-9.19,11.85-25.84,16.7-40.47,13.36s-27-14.06-34.12-27.23A69.87,69.87,0,0,1,1082,1103l15.1-7.46c17.58-8.67,36.56-.42,56.07-2.16C1159.38,1097.14,1165.56,1100.66,1171.8,1104Z" transform="translate(-394.67 -402.01)"/><path class="cls-13" d="M1225.57,1276a20.86,20.86,0,0,1,17.9-16.18c6.9-.68,13.61,2.17,20.47,3.22s15.23-.59,18.07-6.92c2.09-4.67,1.31-11.66,6.13-13.37,3.17-1.12,6.71,1.45,7.78,4.64s.3,6.68-.71,9.89a69,69,0,0,1-83.11,46C1218.27,1295.1,1223.55,1286,1225.57,1276Z" transform="translate(-394.67 -402.01)"/><path class="cls-11" d="M1154.05,1073.13a36.79,36.79,0,0,1-13.22,2.8,41.27,41.27,0,0,1-13.48-2.06,17,17,0,0,1,1-6.71,17.83,17.83,0,0,1,11.61-10.88C1144.2,1062.24,1149.28,1067.56,1154.05,1073.13Z" transform="translate(-394.67 -402.01)"/><path class="cls-11" d="M1099.25,1341.51c0,.12,0,.23-.08.35l-3.57.49c-7,.77-14,1.65-21.24,2.1-1.68.11-3.38.22-5.06.35s-3.37.25-5,.3l-10,.34c-3.32.13-6.62.14-9.9.1l-9.74-.09a30.54,30.54,0,0,1-28.33-19.87l-1.07-2.88,0,0a267.11,267.11,0,0,1-11-34.59,226.21,226.21,0,0,1-5.28-30.33,133.88,133.88,0,0,0,69.85-7.18c.32,2.93.65,5.93,1,9l-.74.79a39.52,39.52,0,0,0-37.22,61.8c8,11.52,21.73,18,35.58,20.26S1085.32,1343.15,1099.25,1341.51Z" transform="translate(-394.67 -402.01)"/><path class="cls-32" d="M1166.91,1015.57c-11.79-4.19-24.89-2.94-35,5.91a31.83,31.83,0,0,0-8.06,10.82c-1.42-1.19-3-2.44-4.8-3.75-2.55-1.83-5.42-3.73-8.55-5.56s-6.21-3.35-9.07-4.65-5.49-2.3-7.73-3.06c-4.49-1.51-7.37-2.07-7.46-1.79-.21.65,10.86,4.25,23.14,11.43a151.31,151.31,0,0,1,13.77,9c-2.76,7.16-3,15.07-3.16,22.77-.1,4.11-.1,8.46,1,12.35l-.42-.19c-.59-.29-1.19-.65-1.82-1-1.27-.65-2.55-1.49-3.92-2.34a63.56,63.56,0,0,1-8.18-6.46,64.42,64.42,0,0,1-6.89-7.83c-.92-1.32-1.83-2.55-2.54-3.79-.37-.61-.77-1.19-1.08-1.77l-.92-1.68c-2.28-4.32-3.28-7.22-3.63-7.11s.22,3.16,2.21,7.79c.27.58.54,1.19.82,1.81s.65,1.23,1,1.89c.68,1.32,1.56,2.64,2.46,4a51.22,51.22,0,0,0,15.66,14.85c1,.54,1.86,1.07,2.76,1.55h0l5.48,3a47,47,0,0,0,5.35,2.08,41.23,41.23,0,0,0,13.48,2.06,36.79,36.79,0,0,0,13.22-2.8c10-4.14,18.34-12.53,20.74-23.07C1177.47,1038.25,1172.93,1026.38,1166.91,1015.57Z" transform="translate(-394.67 -402.01)"/><path class="cls-13" d="M1197.1,1080c-.42-8.8-1.55-18.92-8.88-23.81-5.28-3.52-12.16-3.1-18.49-2.55l-25,2.16c-3.6.32-7.61.83-9.9,3.63-2.54,3.09-1.89,7.68-.59,11.46a44.3,44.3,0,0,0,54.6,28C1191.42,1092.65,1197.42,1086.83,1197.1,1080Z" transform="translate(-394.67 -402.01)"/><path class="cls-13" d="M1093.05,1021a12.94,12.94,0,0,0-8.15-9.07l-.08,0a10.53,10.53,0,0,0-7.94.19c-3.18,1.55-5,5.07-5.54,8.58a17,17,0,0,0,27.23,16A81.9,81.9,0,0,1,1093.05,1021Z" transform="translate(-394.67 -402.01)"/><path class="cls-10" d="M768.31,1300c-31.07,12.21-84.28,20.26-144.7,20.26s-113.62-8-144.69-20.26c31.07-12.22,84.28-20.27,144.69-20.27S737.24,1287.74,768.31,1300Z" transform="translate(-394.67 -402.01)"/><path class="cls-14" d="M702.94,1254.77c2,7.46-2.68,15.31-8.87,20s-13.73,7.06-20.56,10.69-13.42,9.16-15,16.74c24.49,4.61,50.17,5,74.34-1,2-14.67-1.95-37.37-7.2-51.22C717.25,1247.28,711.78,1254.85,702.94,1254.77Z" transform="translate(-394.67 -402.01)"/><path class="cls-14" d="M550.12,1257.65c2,6.76-2.13,14-7.68,18.38s-12.36,6.71-18.52,10.16-12,8.63-13.28,15.57c22.42,3.69,43.49,3.55,65.4-2.48,1.52-13.42-2.55-34-7.63-46.54C560.66,1250.53,558.18,1257.55,550.12,1257.65Z" transform="translate(-394.67 -402.01)"/><path class="cls-33" d="M731.37,1267.46H698c-77-180.36-88.61-380.64-88.69-382.11a1165.74,1165.74,0,0,0-35.62,382.11c-9.39.8-18.2,1.46-27.57,2.24a911.44,911.44,0,0,1-25.28-223.52v-.06c2.44-79.64,15.37-141.11,29.64-185.74,15.27-47.79,32.07-76.27,39.15-87A117.92,117.92,0,0,0,609.25,775,115.73,115.73,0,0,0,661,762.92c2.75,6.75,5.64,14.3,8.42,22.3a317.07,317.07,0,0,1,11.07,39.15c2.46,11.86,3.91,23.58,3.64,34.28-.07.82-.13,1.64-.19,2.46-.14,1.84-.27,3.72-.37,5.59,0,.74-.1,1.48-.13,2.22s-.09,1.52-.11,2.27c-.09,1.49-.14,3-.2,4.47q-.2,4.58-.27,9.28c0,1.56-.06,3.12-.08,4.71v0c0,.81,0,1.6,0,2.41s0,1.6,0,2.4c-.07,16.72.55,34.6,1.68,53.16q.27,4.41.57,8.87c.1,1.49.21,3,.32,4.48q.33,4.49.69,9h0c.24,3,.49,6,.75,9.07h0c.27,3,.54,6.09.83,9.13,1.28,13.76,2.76,27.67,4.4,41.55q.84,7,1.69,13.88t1.78,13.81c.2,1.54.4,3.07.61,4.6l1.23,9.13h0c.28,1.9.54,3.78.8,5.68q1.19,8.49,2.43,16.86c1.53,10.41,3.1,20.63,4.68,30.58.32,2,.63,4,1,5.93,0,.29.09.58.14.87q.46,2.92,1,5.84c2.26,13.86,4.52,27.1,6.71,39.46C723.39,1230.26,731.37,1267.46,731.37,1267.46Z" transform="translate(-394.67 -402.01)"/><path class="cls-16" d="M573.66,1267.46c-33.33-112.33,15.62-390.81,15.62-390.81l20,8.69A1165.52,1165.52,0,0,0,573.66,1267.46Z" transform="translate(-394.67 -402.01)"/><path class="cls-34" d="M719.66,498.37c-.28,6.58-5,12.53-4.47,19.09.56,7.06,6.77,12.06,11.2,17.57,9.87,12.26,11.58,30,6,44.7S714.65,606.11,700.49,613s-30.18,9.21-45.91,8.86c-11.73-.26-23.9-2.18-33.49-8.93S605.29,593.53,609,582.4c3.61-10.91,15.35-17.81,18.27-28.92,2.7-10.26-2.89-20.65-4.73-31.09-4-22.64,10-39,27-51.56,15.28-11.32,32-6.08,47.79,2.21C706.73,478,720.18,486.09,719.66,498.37Z" transform="translate(-394.67 -402.01)"/><path class="cls-13" d="M690.73,537a179.78,179.78,0,0,0-4.82,20.43v0c-.36,2.06-.69,4.11-1,6.17-.08.42-.13.85-.18,1.28a182.05,182.05,0,0,0-1.55,21.75c0,1.64,0,3.26,0,4.89v.12c0,1.41.07,2.82.13,4.22A177.19,177.19,0,0,0,685,614.11c-6.5,5.59-13.87,9.26-22.47,9.62a39,39,0,0,1-24.26-7.25A166.68,166.68,0,0,0,651,586.37a1,1,0,0,1,.07-.18c.43-1.33.81-2.66,1.2-4q.76-2.7,1.44-5.44c.06-.19.1-.38.15-.57.59-2.41,1.13-4.81,1.61-7.25.16-.66.28-1.34.42-2,.78-4.17,1.43-8.36,1.91-12.6C667.21,546,678.93,541.18,690.73,537Z" transform="translate(-394.67 -402.01)"/><path class="cls-35" d="M709.4,665.53l-6.15,10.94h0L701.8,679c-.44.61-.88,1.24-1.34,1.87-4.15,5.87-8.52,11.64-12.52,17.59-14,20.78-22.21,44.24-26.27,68.16a149.39,149.39,0,0,1-38.94,4.72,153.79,153.79,0,0,1-29.69-3l0-.1c-.06-.27-.12-.54-.19-.81s-.17-.68-.26-1.12c-3.77-16.93-27-134.2,45.81-161.36a55.1,55.1,0,0,1,9.09-1c11.06-.34,20.54-3.17,31.57-2.52a62.48,62.48,0,0,1,9.75,1.34h0c.19.06,1.32.44,3.18,1.16a155.82,155.82,0,0,1,14.56,6.5C717.56,631,709.4,665.53,709.4,665.53Z" transform="translate(-394.67 -402.01)"/><path class="cls-13" d="M688.78,602.76a65.39,65.39,0,0,1-29.38,28.89A31,31,0,0,1,647,635.22c-4.33.15-8.85-1.21-11.81-4.35-4.2-4.46-4.41-11.57-2.16-17.26a33.24,33.24,0,0,1,5.31-8.65,54.87,54.87,0,0,1,9.09-1c11.07-.34,20.54-3.17,31.57-2.51A61.3,61.3,0,0,1,688.78,602.76Z" transform="translate(-394.67 -402.01)"/><path class="cls-11" d="M690.73,537a179.78,179.78,0,0,0-4.82,20.43v0c-.36,2.06-.69,4.11-1,6.17-.08.42-.13.85-.18,1.28a182.05,182.05,0,0,0-1.55,21.75,58.86,58.86,0,0,0-29.48-9.89c.06-.19.1-.38.15-.57.59-2.41,1.13-4.81,1.61-7.25.16-.66.28-1.34.42-2,.78-4.17,1.43-8.36,1.91-12.6C667.21,546,678.93,541.18,690.73,537Z" transform="translate(-394.67 -402.01)"/><path class="cls-13" d="M689,546.68c-.9,2.67-1.87,5.36-2.51,8.1a27,27,0,0,0-.6,3.08l-1,1.22a48.73,48.73,0,0,1-11.84,10.82,30.84,30.84,0,0,1-9.35,4c-8.53,2-18.56-.76-23.29-8.15-4.37-6.82-3.43-15.85-.45-23.39.47-1.17,1-2.31,1.52-3.45,2.93-6.17,6.78-11.92,9.54-18.18a38.12,38.12,0,0,0,3.24-11.89,22.56,22.56,0,0,0-1.11-9.74,40.85,40.85,0,0,0,9.28,7.36c5.81,3.5,12.13,6.16,17.63,10.13s10.29,9.62,11.14,16.35C691.86,537.58,690.52,542.23,689,546.68Z" transform="translate(-394.67 -402.01)"/><path class="cls-13" d="M689.18,542.34c.57-1.62,1.56-3.39,3.25-3.66s3.17,1.11,4,2.58a10.67,10.67,0,0,1-12.92,15.35C685.14,551.88,687.52,547.05,689.18,542.34Z" transform="translate(-394.67 -402.01)"/><path class="cls-36" d="M635.25,554.88c8,31.69-5.45,63.9-12.72,96-.63,2.79-1.2,5.54-1.72,8.3a185,185,0,0,0,14.24,111.44,152.33,152.33,0,0,1-90.28,33.84,185,185,0,0,0-62.53-93.34c-2.2-1.73-4.44-3.44-6.75-5.12-26.6-19.44-57.92-34.86-72.71-64-17.32-34.16-5.08-77.33,19.59-106.64l.47-.55a139.63,139.63,0,0,1,126.84-47.54l.71.1C588.25,493.26,625.85,517.75,635.25,554.88Z" transform="translate(-394.67 -402.01)"/><g class="cls-37"><path class="cls-38" d="M536.33,715.53c-6.58-11.7-13.48-22.48-20.13-32-3.41-4.72-6.61-9.22-9.84-13.25-1.6-2-3.1-4-4.63-5.87l-4.43-5.28c-11.43-13.35-19.52-20.64-20.07-20.12-.7.64,6.22,9,16.66,22.84l4.07,5.47c1.42,1.9,2.81,3.94,4.3,6,3,4.12,6,8.67,9.24,13.41,6.31,9.57,13,20.28,19.44,31.81s12,22.85,16.89,33.24c2.34,5.23,4.64,10.18,6.56,14.9,1,2.36,2,4.61,2.87,6.81s1.71,4.31,2.52,6.34c6.35,16.17,9.79,26.42,10.7,26.16.74-.2-1.23-10.9-6.6-27.64q-1-3.14-2.17-6.54c-.76-2.27-1.67-4.6-2.56-7-1.74-4.87-3.9-10-6.12-15.32C548.4,738.8,542.85,727.27,536.33,715.53Z" transform="translate(-394.67 -402.01)"/><path class="cls-38" d="M578.26,601.13c-.75,0-2.06,10.78-1.9,28.35,0,2.21.09,4.51.13,6.9s.24,4.88.37,7.46c.22,5.17.76,10.66,1.3,16.45,1.25,11.56,3.13,24.22,5.87,37.36s6.2,25.47,9.72,36.55c1.85,5.51,3.57,10.76,5.46,15.57.92,2.41,1.77,4.76,2.68,7s1.81,4.32,2.67,6.36c7,16.14,12.51,25.49,13.19,25.16.85-.4-3.29-10.39-9.13-26.75q-1.08-3.09-2.27-6.43c-.78-2.24-1.5-4.6-2.31-7-1.66-4.82-3.18-10.06-4.85-15.54-3.18-11-6.36-23.22-9.12-36.15s-4.72-25.39-6.27-36.75c-.68-5.7-1.41-11.1-1.84-16.19-.24-2.54-.53-5-.72-7.35s-.35-4.62-.52-6.79C579.45,612,579.21,601.16,578.26,601.13Z" transform="translate(-394.67 -402.01)"/><path class="cls-38" d="M567.64,609.52c4.1-.29,6.36-.55,6.38-.94s-2.23-.88-6.35-1.28-10.11-.65-17.45-1.2l-1.69-.12-.4,1.79a146.77,146.77,0,0,0-3.38,29c-4.07-6.13-8.52-12.37-13.4-18.61-5.75-7.32-11.66-14.11-17.53-20.28L510.09,594l-1.31,5.21a215.86,215.86,0,0,0-6.47,44,44.67,44.67,0,0,0-10.81-5.77c-3.58-1.26-5.65-1.45-5.76-1.12s1.72,1.24,4.88,3a57.2,57.2,0,0,1,12.22,9.19l2.88,2.87.38-4.21a274.33,274.33,0,0,1,7-41.14c4.45,5,8.93,10.33,13.34,16,7.06,9,13.39,18,18.92,26.56l6.31,9.75-1-11.51a167.34,167.34,0,0,1,1.16-36.64C558.56,610.11,563.88,609.75,567.64,609.52Z" transform="translate(-394.67 -402.01)"/></g><path class="cls-12" d="M646.42,780.39a9.06,9.06,0,0,0-3.87-2.34,9.62,9.62,0,0,0-1.38-11.68,8.42,8.42,0,0,0-12.32-.12A101.57,101.57,0,0,1,544.17,798,8.41,8.41,0,0,0,535,806.2a9.62,9.62,0,0,0,6.64,9.69,8.94,8.94,0,0,0-1.38,4.33,9.61,9.61,0,0,0,6.64,9.69,9.06,9.06,0,0,0-1.39,4.33,9.63,9.63,0,0,0,6.64,9.69,8.94,8.94,0,0,0-1.38,4.32,9.51,9.51,0,0,0,8.22,10,118,118,0,0,0,98.39-36.89,9.52,9.52,0,0,0-.43-13,9.06,9.06,0,0,0-3.87-2.34,9.62,9.62,0,0,0-1.38-11.68,9.09,9.09,0,0,0-3.88-2.34A9.6,9.6,0,0,0,646.42,780.39Z" transform="translate(-394.67 -402.01)"/><path class="cls-13" d="M727.12,679.14q-.12-3-.24-5.92c-.15-1.94-.32-3.86-.5-5.74-.09-.94-.18-1.88-.29-2.8s-.26-1.84-.38-2.75q-.4-2.71-.82-5.34a129.8,129.8,0,0,0-5-19c-.5-1.41-1-2.78-1.52-4.11s-1.09-2.6-1.63-3.83a69.87,69.87,0,0,0-3.42-6.82c-1.2-2.08-2.34-4-3.55-5.66a52.84,52.84,0,0,0-3.59-4.45,24.59,24.59,0,0,0-3.48-3.25,17.33,17.33,0,0,0-3.28-2,6.88,6.88,0,0,0-5.56-.46,7.51,7.51,0,0,0-3.83,4.11,18.61,18.61,0,0,0-1.17,3.52c-.3,1.31-.52,2.77-.73,4.39a51.61,51.61,0,0,0-.34,5.2c-.05,1.86-.12,3.87-.07,6s.08,4.34.19,6.68.24,4.78.37,7.36c.28,5.07.59,10.63.92,16.61,0,1.49.1,3,.17,4.54l.12,2.32c0,.78,0,1.56.05,2.35,0,1.58.1,3.19.15,4.81s0,3.28,0,4.95c0,6.67,0,13.7-.51,21-.27,4.34-.65,8.79-1.13,13.3a219.51,219.51,0,0,1-24.25,5.58l-6,1-5.91.75c-1,.12-2,.27-2.92.38l-2.9.26-5.71.53-5.61.32-2.76.17-2.72.06-5.35.13c-1.76,0-3.48,0-5.19,0s-3.39,0-5-.07l-4.87-.2c-3.2-.07-6.24-.38-9.18-.56s-5.72-.51-8.39-.75c-1.32-.14-2.63-.21-3.88-.38l-3.64-.45c-4.73-.48-8.78-1.13-12.2-1.44-1.71-.14-3.21-.36-4.55-.45a30.29,30.29,0,0,0-3.45-.09c-1.93.08-3.09.45-3.38,1.17s.31,1.76,1.73,3.1a28.93,28.93,0,0,0,2.74,2.24,40.7,40.7,0,0,0,3.94,2.63,109.62,109.62,0,0,0,11.44,6l3.56,1.61c1.23.55,2.53,1,3.86,1.55,2.67,1,5.49,2.17,8.52,3.11s6.2,2.07,9.58,2.92l5.16,1.38c1.76.47,3.57.81,5.41,1.23s3.72.82,5.64,1.17l5.88,1,3,.48,3.07.37,6.29.72c2.13.18,4.29.3,6.49.45l3.31.21c1.11,0,2.22,0,3.35.08l6.83.1,7-.23a184.84,184.84,0,0,0,29-3.54c1.08-.22,2.15-.41,3.21-.64l3.16-.78,6.27-1.57h0a15.54,15.54,0,0,0,11.15-10.82l.51-1.8a183.33,183.33,0,0,0,5.47-26.62A163.77,163.77,0,0,0,727.12,679.14Z" transform="translate(-394.67 -402.01)"/><path class="cls-35" d="M727.16,659.66a46,46,0,0,1-23.91,16.81h0a48.94,48.94,0,0,1-16,2l-3.74-63.11,7.88-10.49.58-.91a155.82,155.82,0,0,1,14.56,6.5S727.2,632.37,727.16,659.66Z" transform="translate(-394.67 -402.01)"/><path class="cls-13" d="M592.92,724.49c-3.88-2.2-5-6.58-6-10.5s-2.61-8.3-6.82-10c-1.1,1.12-.78,2.83-.19,4.22s1.42,2.81,1.12,4.27c-.48,2.4-3.9,3.61-6.65,3.09s-5-2.19-7.16-3.72a20.9,20.9,0,0,0-6-3.16,9.37,9.37,0,0,0-6.78.36A8.59,8.59,0,0,0,550.4,715c-2.25,9.2,3.51,19.42,13.27,23.55s22.59,1.76,29.58-5.44C592.8,730.41,593.37,727.17,592.92,724.49Z" transform="translate(-394.67 -402.01)"/><path class="cls-13" d="M483.88,713c1.7,5.82,3.49,11.81,7.36,16.48s10.42,7.66,16.12,5.58A18.17,18.17,0,0,0,510,718.8a17.91,17.91,0,0,0-12-11.06C492.43,706.29,488.19,709.32,483.88,713Z" transform="translate(-394.67 -402.01)"/><path class="cls-32" d="M691.21,538.73c-.29-.2-2.89,4.11-7.69,7.8a36.58,36.58,0,0,1-6.53,4c-1.13-3.26-3.35-6.07-5.53-8.79a43.19,43.19,0,0,0-6.8-7.23,14.54,14.54,0,0,0-9.14-3.41c-4.17.12-7.89,2.6-11.09,5.28-1,.81-1.91,1.65-2.88,2.48-.55,1.14-1,2.28-1.52,3.45-3,7.54-3.92,16.57.45,23.39,4.73,7.39,14.76,10.16,23.29,8.15a30.55,30.55,0,0,0,8.34-3.37l.56-.19a25.86,25.86,0,0,0,5-2.53,26.41,26.41,0,0,0,4.23-3.61,22.06,22.06,0,0,0,2.72-3.63c1.32-2.23,1.72-3.79,1.6-3.83s-.82,1.36-2.26,3.4a27.11,27.11,0,0,1-2.8,3.35,30.59,30.59,0,0,1-4.11,3.4,28.88,28.88,0,0,1-3.29,1.85c.71-1.41,1.41-2.83,2-4.29,1.67-4,2.68-8.5,1.61-12.72,0-.13-.08-.26-.12-.39h0a26.77,26.77,0,0,0,12.42-9.66C690.84,540,691.33,538.79,691.21,538.73Z" transform="translate(-394.67 -402.01)"/><path class="cls-10" d="M3492.5,1585.65c-21.19,12.74-57.5,21.13-98.72,21.13s-77.51-8.39-98.7-21.13c21.19-12.74,57.49-21.14,98.7-21.14S3471.31,1572.91,3492.5,1585.65Z" transform="translate(-394.67 -402.01)"/><path class="cls-14" d="M3402.46,1578.37c-3.61,8.84-11.81,16.15-21.86,19.48s-21.09,2.74-31.78,2.09c-4.49-.26-9.15-.57-13.13-2.42s-7.15-5.66-6.39-9.54c1-4.85,6.94-7.24,12.37-9l1-.32a192.52,192.52,0,0,0,44.7-20.09c6.58-4,11.42-9.84,15.38-1a19.53,19.53,0,0,1,1.18,3.48A29.07,29.07,0,0,1,3402.46,1578.37Z" transform="translate(-394.67 -402.01)"/><path class="cls-11" d="M3404,1561.05a69,69,0,0,1-45.59,21.07c-5.71.3-11.88-.31-16.72-3.11l1-.32a192.52,192.52,0,0,0,44.7-20.09c6.58-4,11.42-9.84,15.38-1A19.53,19.53,0,0,1,3404,1561.05Z" transform="translate(-394.67 -402.01)"/><path class="cls-39" d="M3429.54,1166.21c-1.47,109.17-10,282.22-21.93,396.94l-1.29.13-11.6.68-17.23.7-4.72.46-24.9-459.5h1.9c20.77,0,59.77-1.89,79.51-5.55.12,3.72.2,7.68.29,11.9C3429.83,1127.22,3429.81,1145.58,3429.54,1166.21Z" transform="translate(-394.67 -402.01)"/><path class="cls-14" d="M3440.21,1578.37c-3.61,8.84-11.81,16.15-21.86,19.48s-21.1,2.74-31.78,2.09c-4.49-.26-9.15-.57-13.13-2.42s-7.15-5.66-6.39-9.54c.95-4.85,6.94-7.24,12.37-9l1-.32a192.71,192.71,0,0,0,44.7-20.09c6.58-4,11.41-9.84,15.38-1a19.53,19.53,0,0,1,1.18,3.48A29.07,29.07,0,0,1,3440.21,1578.37Z" transform="translate(-394.67 -402.01)"/><path class="cls-11" d="M3441.73,1561.05a69.07,69.07,0,0,1-45.6,21.07c-5.7.3-11.87-.31-16.71-3.11l1-.32a192.71,192.71,0,0,0,44.7-20.09c6.58-4,11.41-9.84,15.38-1A19.53,19.53,0,0,1,3441.73,1561.05Z" transform="translate(-394.67 -402.01)"/><path class="cls-12" d="M3466.82,1175.44c-1.47,106.65-10,275.69-21.93,387.75l-1.29.14-11.6.66-17.22.68-4.73.45-24.9-448.86h1.9c20.77,0,59.77-1.85,79.51-5.43.12,3.64.21,7.51.29,11.63C3467.11,1137.36,3467.09,1155.29,3466.82,1175.44Z" transform="translate(-394.67 -402.01)"/><polygon class="cls-12" points="2772.49 450.27 2831.53 547.29 2901.55 531.27 2846.46 439.56 2772.49 450.27"/><polygon class="cls-40" points="2777.87 453.87 2831.99 542.8 2896.18 528.12 2845.68 444.05 2777.87 453.87"/><path class="cls-41" d="M3214.77,860.24c-14.48,2.12-26.11,4.55-26,5.44s12-.12,26.45-2.24,26.12-4.56,26-5.44S3229.26,858.11,3214.77,860.24Z" transform="translate(-394.67 -402.01)"/><path class="cls-41" d="M3219.34,867.81c-14.49,2.12-26.12,4.56-26,5.44s12-.12,26.45-2.24,26.12-4.56,26-5.44S3233.82,865.69,3219.34,867.81Z" transform="translate(-394.67 -402.01)"/><path class="cls-41" d="M3223.9,875.38c-14.49,2.12-26.12,4.56-26,5.45s12-.12,26.46-2.24,26.11-4.56,26-5.45S3238.38,873.26,3223.9,875.38Z" transform="translate(-394.67 -402.01)"/><path class="cls-41" d="M3228.46,883c-14.48,2.12-26.12,4.55-26,5.44s12-.12,26.46-2.24,26.11-4.56,26-5.44S3242.94,880.84,3228.46,883Z" transform="translate(-394.67 -402.01)"/><path class="cls-41" d="M3233,890.53c-14.48,2.12-26.12,4.56-26,5.44s12-.12,26.46-2.24,26.11-4.55,26-5.44S3247.5,888.41,3233,890.53Z" transform="translate(-394.67 -402.01)"/><path class="cls-41" d="M3237.58,898.1c-14.48,2.13-26.12,4.56-26,5.45s12-.12,26.46-2.24,26.12-4.56,26-5.45S3252.06,896,3237.58,898.1Z" transform="translate(-394.67 -402.01)"/><path class="cls-41" d="M3242.14,905.68c-14.48,2.12-26.12,4.56-26,5.44s12-.12,26.46-2.24,26.12-4.56,26-5.44S3256.62,903.56,3242.14,905.68Z" transform="translate(-394.67 -402.01)"/><polygon class="cls-41" points="2782.18 454.57 2843.12 550.42 2912.81 533.02 2855.93 442.41 2782.18 454.57"/><path class="cls-42" d="M3356.92,936.23l-76.69-37c-2.09,4.2-4.32,8.46-6.42,12.66,23,18.08,45.32,37.24,68.34,55.32C3346.32,954.75,3352.74,948.67,3356.92,936.23Z" transform="translate(-394.67 -402.01)"/><polygon class="cls-40" points="2793.35 455.54 2846.2 545.24 2910.59 531.47 2861.3 446.69 2793.35 455.54"/><path class="cls-42" d="M3341.72,1111.59q5.55,1.48,11.26,2.74a275.2,275.2,0,0,0,28.42,4.72c-1.55-46.65-5.39-72.9-11.67-119.33-5.61,3-11.3,5.2-17,7.62-3.24,1.4-6.47,2.84-9.68,4.57C3344.93,1051.9,3344.46,1071.65,3341.72,1111.59Z" transform="translate(-394.67 -402.01)"/><path class="cls-13" d="M3421.87,860.78a52.93,52.93,0,0,1-37,8.07,62.39,62.39,0,0,0-6.79-34.87c7.53-9.82,17.69-15.15,29.83-17.5a116.06,116.06,0,0,0,8.89,33.68C3418.32,853.76,3420,857.31,3421.87,860.78Z" transform="translate(-394.67 -402.01)"/><path class="cls-11" d="M3416.78,850.16a65.69,65.69,0,0,0-33.12-.82,61.91,61.91,0,0,0-5.6-15.36c7.53-9.82,17.69-15.15,29.83-17.5A116.06,116.06,0,0,0,3416.78,850.16Z" transform="translate(-394.67 -402.01)"/><path class="cls-13" d="M3386.49,839.32a38.49,38.49,0,0,1-4.29,5c-5.15,5-11.81,8.43-18.5,6.61-8.59-2.33-12.75-12-14.87-20.6a138.22,138.22,0,0,1-2.25-54.7c8.88-9.34,28.14-21.86,36.58-12.12C3401,784.11,3402.5,817.2,3386.49,839.32Z" transform="translate(-394.67 -402.01)"/><path class="cls-35" d="M3469.34,1115.7a287.71,287.71,0,0,1-54.88,5.21,295.87,295.87,0,0,1-33.06-1.85,280.69,280.69,0,0,1-28.42-4.73c1.65-31.37,2-42.45,1.18-73.84q-.47-16.57-1.4-33.15c-.07-1.43-.16-2.85-.24-4.27-.38-6.47-.8-13-1.16-19.55-1.76-32.23-1.78-65.06,13.11-93.2a95.32,95.32,0,0,1,9.89-15.08A96.49,96.49,0,0,1,3394.88,856l0,0c7.93-5.48,17.46-5.34,26.95-1.79.93.35,1.87.73,2.79,1.15h0c2.62,1.77,6.86,6.34,11.75,17.95,5.09,12.11,10.89,28,16.31,56C3459.71,965.46,3466,1021.67,3469.34,1115.7Z" transform="translate(-394.67 -402.01)"/><path class="cls-42" d="M3396.1,943.76s-10.57,61-41.95,96.73q-.51-18.72-1.63-37.42c-.38-6.46-.81-13-1.16-19.54Z" transform="translate(-394.67 -402.01)"/><path class="cls-35" d="M3376.35,873.33a326.86,326.86,0,0,0-53.19,117.18c-29.66-20-55.52-40.46-85.18-60.46-1.91,5.69-7.3,9.54-9.2,15.23,30.49,28.77,59.32,59.09,89.28,88.35a21.42,21.42,0,0,0,32.17-2.54c26.63-36.15,46.35-77.8,55-121.68A98.72,98.72,0,0,0,3376.35,873.33Z" transform="translate(-394.67 -402.01)"/><path class="cls-40" d="M3385.13,863.77c-.12-.14-.86.33-2.18,1.35a30.33,30.33,0,0,0-2.35,2l-3,2.91a130.45,130.45,0,0,0-16.18,21.24c-12.06,19.09-24.8,47.63-35.29,80.23-1.59,5-3.09,9.86-4.47,14.73-22.93-16.13-43.27-30.18-58.15-40.19-15.53-10.45-25.12-16.51-25.5-16s8.49,7.6,23.49,18.81,36.1,26.6,60.17,43.8l3.05,2.18,1-3.65c1.64-5.88,3.51-12,5.47-18.08,10.39-32.3,22.42-60.7,33.45-79.92a175.42,175.42,0,0,1,14.49-21.81l2.62-3.18c.73-1,1.44-1.66,2-2.31C3384.76,864.64,3385.26,863.9,3385.13,863.77Z" transform="translate(-394.67 -402.01)"/><path class="cls-42" d="M3452.73,929.34c-13.67-2.72-26.63-8.41-37.11-17.5-15.72-13.64-24.78-35.56-20.74-55.82l0,0c7.93-5.48,17.46-5.34,26.95-1.79.93.35,1.87.73,2.79,1.15h0c2.62,1.77,6.86,6.34,11.75,17.95C3441.51,885.41,3447.31,901.34,3452.73,929.34Z" transform="translate(-394.67 -402.01)"/><path class="cls-12" d="M3483.57,883.74c-9.24,15.43-29,23.47-46.55,19.71s-32.07-18.62-36.21-36.12c-2.25-9.51-1.69-19.43-2.58-29.16-.7-7.61-2.89-15.06-7.28-21.08-.5-.68-1-1.35-1.58-2a31.27,31.27,0,0,0-2.61-2.67,23.14,23.14,0,0,0,3.31-2.44c.34-.3.68-.61,1-.94a14.51,14.51,0,0,0,2.12-2.75,10,10,0,0,0,1-8.6,7,7,0,0,0-7-4.5,5.57,5.57,0,0,0-4.65,4.84,3.55,3.55,0,0,0,0,.92,3.45,3.45,0,0,0,.15.71l-.61-.28q-.6-.25-1.2-.54a180.33,180.33,0,0,1-34.6-20.91c-3.85-12,1.29-25.72,10.64-34.19s22.2-12.23,34.8-12.85c6.9-.33,13.94.22,20.4,2.65s12.34,6.87,15.57,13c8.6,16.2-3.44,37.33,4,54.1,3.89,8.76,12.39,14.51,20.9,18.93s17.63,8.1,24.61,14.68C3490.29,846.56,3492.82,868.31,3483.57,883.74Z" transform="translate(-394.67 -402.01)"/><path class="cls-13" d="M3237.6,933.26a44.12,44.12,0,0,1-2.5-17.46c.11-1.75,0-4-1.65-4.59s-3.14,1.16-3.69,2.79c-.67,2-.74,4.11-1.25,6.14s-1.66,4.08-3.62,4.82-3.88,0-5.67-.76c-6.67-3-13.29-7.46-16.75-13.9a57.52,57.52,0,0,0-2.51,12.61c-.49,4.58,0,9.39,2.33,13.37a19.06,19.06,0,0,0,11.94,8.65,26.65,26.65,0,0,0,14.92-.92C3232.06,940.63,3234.69,936.64,3237.6,933.26Z" transform="translate(-394.67 -402.01)"/><path class="cls-13" d="M3288.89,905.66a35.54,35.54,0,0,1-13.71-3.85,6.44,6.44,0,0,1-2.35-1.76,2.5,2.5,0,0,1-.26-2.77c1.21-1.87,4.35-.42,6.23-1.61a3.36,3.36,0,0,0,1.33-3,9.61,9.61,0,0,0-1-3.29q-2.55-6-5.11-11.9a23.77,23.77,0,0,1,13.7,10.76C3290.77,893.28,3290.23,899.92,3288.89,905.66Z" transform="translate(-394.67 -402.01)"/><path class="cls-32" d="M3391.06,809.05c-.31.33-.65.64-1,.94-.18,1.29-.39,3-.7,5.11a88.72,88.72,0,0,1-7.52,25,53.85,53.85,0,0,0-1.35-8c-1.31-5.11-3.73-10.07-7.66-13.59a20.64,20.64,0,0,0-2.67-2c.17-.48.35-1,.55-1.48a43.09,43.09,0,0,1,2.62-5.36,44.32,44.32,0,0,1,3.43-4.88,43.47,43.47,0,0,1,3.34-3.58c.76-.73,1.44-1.34,2-1.83l.46-.43a3.55,3.55,0,0,1,0-.92,11.49,11.49,0,0,0-1.64.81c-.53.31-1.13.69-1.78,1.16a26.77,26.77,0,0,0-3.87,3.44,32.06,32.06,0,0,0-3.8,5.1,31.24,31.24,0,0,0-2.64,5.78c-.13.4-.24.79-.35,1.17a36,36,0,0,0-11.2-3.53c-3.88-.63-7.82-.86-11.74-1.23a137.8,137.8,0,0,0,3.33,19.56c2.12,8.64,6.28,18.27,14.87,20.6,6.69,1.82,13.35-1.61,18.5-6.61,0-.48-.07-1-.1-1.44.26-.41.54-.83.82-1.3a54.82,54.82,0,0,0,3.06-5.87,60.44,60.44,0,0,0,4.58-15.52c.16-1.07.29-2.1.39-3.07.13-1.27.21-2.45.23-3.52A36.43,36.43,0,0,0,3391.06,809.05Z" transform="translate(-394.67 -402.01)"/><path class="cls-20" d="M3385.65,812.48a4,4,0,1,0,4-4A4,4,0,0,0,3385.65,812.48Z" transform="translate(-394.67 -402.01)"/></g></g></svg>