<svg xmlns="http://www.w3.org/2000/svg" width="50" height="50" viewBox="0 0 50 50">
  <g id="组_23" data-name="组 23" transform="translate(-979 -3451)">
    <g id="椭圆_10" data-name="椭圆 10" transform="translate(979 3451)" fill="none" stroke="#00c300" stroke-width="1">
      <circle cx="25" cy="25" r="25" stroke="none"/>
      <circle cx="25" cy="25" r="24.5" fill="none"/>
    </g>
    <path id="Icon_simple-line" data-name="Icon simple-line" d="M23.034,11.909a.75.75,0,0,1,0,1.5H20.947v1.338h2.088a.749.749,0,1,1,0,1.5H20.2a.751.751,0,0,1-.746-.748V9.822a.752.752,0,0,1,.749-.749h2.838a.749.749,0,0,1,0,1.5H20.947v1.338h2.088ZM18.449,15.5a.749.749,0,0,1-.514.709.768.768,0,0,1-.237.037.735.735,0,0,1-.607-.3L14.186,12v3.5a.748.748,0,1,1-1.5,0V9.822a.745.745,0,0,1,.511-.708.692.692,0,0,1,.231-.039.769.769,0,0,1,.589.3l2.929,3.961V9.822a.749.749,0,1,1,1.5,0Zm-6.829,0a.748.748,0,1,1-1.5,0V9.822a.748.748,0,1,1,1.5,0Zm-2.933.748H5.849A.754.754,0,0,1,5.1,15.5V9.822a.749.749,0,0,1,1.5,0v4.926H8.687a.749.749,0,0,1,0,1.5m19.861-3.8C28.548,6.057,22.142.858,14.274.858S0,6.057,0,12.446c0,5.723,5.079,10.517,11.936,11.429.465.1,1.1.307,1.258.7a2.906,2.906,0,0,1,.045,1.285l-.2,1.213c-.054.358-.285,1.411,1.248.767s8.226-4.851,11.224-8.3a10.257,10.257,0,0,0,3.031-7.1" transform="translate(990 3461.142)" fill="#00c300"/>
  </g>
</svg>
