<svg id="圖層_1" data-name="圖層 1" xmlns="http://www.w3.org/2000/svg" xmlns:xlink="http://www.w3.org/1999/xlink" viewBox="0 0 99 99"><defs><style>.cls-1,.cls-11{fill:none;}.cls-1,.cls-11,.cls-2,.cls-3,.cls-4,.cls-5,.cls-6,.cls-7,.cls-9{stroke:#484f59;stroke-width:3px;}.cls-1,.cls-2,.cls-3,.cls-4,.cls-5,.cls-6,.cls-7{stroke-linejoin:round;}.cls-2{fill:#01dee9;}.cls-3{fill:#ff8f8f;}.cls-4{fill:#d5e962;}.cls-10,.cls-5{fill:#ffdc69;}.cls-6{fill:#e5e8ec;}.cls-7{fill:#fff;}.cls-8{clip-path:url(#clip-path);}.cls-9{fill:#ffc400;}.cls-11,.cls-9{stroke-miterlimit:10;}</style><clipPath id="clip-path" transform="translate(-0.5 -0.5)"><path class="cls-1" d="M50,36.7c-14.8,0-27.69,5.36-34.47,13.3C22.31,57.94,35.2,63.3,50,63.3S77.7,57.94,84.47,50C77.7,42.06,64.8,36.7,50,36.7Z"/></clipPath></defs><path class="cls-2" d="M6.74,70.83A47,47,0,0,0,45,97.74,48.06,48.06,0,0,1,6.74,70.83Z" transform="translate(-0.5 -0.5)"/><path class="cls-3" d="M87,19.46c.62.75,1.21,1.53,1.8,2.33l-6.67,4.84A39.6,39.6,0,0,1,89.76,50H98c0,.82,0,1.63-.07,2.44,0-.81.07-1.63.07-2.44A47.74,47.74,0,0,0,87,19.46Z" transform="translate(-0.5 -0.5)"/><path class="cls-2" d="M50,89.76A39.76,39.76,0,0,1,37.71,12.19L35.17,4.35l-.39.14c-.59.2-1.18.4-1.76.62l-.49.19A47.1,47.1,0,0,0,2,48c0,.45,0,.91,0,1.36,0,.2,0,.4,0,.6v.12c0,.64,0,1.28,0,1.92,0,.19,0,.38,0,.57,0,.5.08,1,.12,1.5,0,.34.05.69.09,1s.07.55.1.82q.11.87.24,1.71a.3.3,0,0,0,0,.1A47.33,47.33,0,0,0,6.11,69.44c.2.45.4.91.62,1.35v0A48.06,48.06,0,0,0,45,97.74l.28,0L47,97.9l.87,0L49,98l1,0a47.81,47.81,0,0,0,28.21-9.17l-4.85-6.67A39.59,39.59,0,0,1,50,89.76Z" transform="translate(-0.5 -0.5)"/><path class="cls-4" d="M87,19.46A46.18,46.18,0,0,0,52.58,2.07C51.73,2,50.87,2,50,2h0A45.57,45.57,0,0,0,35.17,4.35l-.39.14.39-.14,2.54,7.84A39.63,39.63,0,0,1,50,10.24h0A39.7,39.7,0,0,1,82.16,26.63l6.67-4.84C88.24,21,87.65,20.21,87,19.46Z" transform="translate(-0.5 -0.5)"/><path class="cls-5" d="M98,50H89.76a39.72,39.72,0,0,1-16.4,32.16l4.85,6.67h0c.75-.55,1.49-1.11,2.21-1.7A46.05,46.05,0,0,0,97.75,54.94c0-.09,0-.18,0-.26.06-.66.11-1.32.15-2v-.11a.61.61,0,0,0,0-.14c0-.81.07-1.62.07-2.44Z" transform="translate(-0.5 -0.5)"/><path class="cls-6" d="M50,25.65c-14.8,0-27.69,9.82-34.47,24.35C22.31,64.54,35.2,74.35,50,74.35S77.7,64.54,84.47,50C77.7,35.47,64.8,25.65,50,25.65Z" transform="translate(-0.5 -0.5)"/><path class="cls-7" d="M50,36.7c-14.8,0-27.69,5.36-34.47,13.3C22.31,57.94,35.2,63.3,50,63.3S77.7,57.94,84.47,50C77.7,42.06,64.8,36.7,50,36.7Z" transform="translate(-0.5 -0.5)"/><path class="cls-7" d="M50,36.7c-14.8,0-27.69,5.36-34.47,13.3C22.31,57.94,35.2,63.3,50,63.3S77.7,57.94,84.47,50C77.7,42.06,64.8,36.7,50,36.7Z" transform="translate(-0.5 -0.5)"/><g class="cls-8"><path class="cls-9" d="M69.1,50A19.1,19.1,0,1,1,50,30.9,19.1,19.1,0,0,1,69.1,50Z" transform="translate(-0.5 -0.5)"/><path class="cls-10" d="M63.32,50A13.32,13.32,0,1,1,50,36.68,13.32,13.32,0,0,1,63.32,50Z" transform="translate(-0.5 -0.5)"/><path class="cls-11" d="M54.27,44.94V44a3.11,3.11,0,0,0-3.11-3.11h-2.5A3.11,3.11,0,0,0,45.55,44v2.12a3.15,3.15,0,0,0,1.76,2.43l4.74,1.81" transform="translate(-0.5 -0.5)"/><path class="cls-11" d="M45.55,54.09v1a3.11,3.11,0,0,0,3.11,3.11h2.5a3.11,3.11,0,0,0,3.11-3.11V53a3.27,3.27,0,0,0-1.81-2.48l-4.53-1.75" transform="translate(-0.5 -0.5)"/><line class="cls-11" x1="49.6" y1="38.43" x2="49.6" y2="59.72"/></g><path class="cls-1" d="M50,36.7c-14.8,0-27.69,5.36-34.47,13.3C22.31,57.94,35.2,63.3,50,63.3S77.7,57.94,84.47,50C77.7,42.06,64.8,36.7,50,36.7Z" transform="translate(-0.5 -0.5)"/></svg>