<svg xmlns="http://www.w3.org/2000/svg" viewBox="0 0 72.25 66.55"><defs><style>.cls-1{fill:#eb6c43;}.cls-2{fill:#ebc882;}.cls-3{fill:#fff;}.cls-4{fill:#c69857;}.cls-5{fill:#6581a5;}.cls-6{fill:#95b0be;}.cls-7{fill:none;stroke:#6581a5;stroke-miterlimit:10;stroke-width:0.55px;}.cls-8{fill:#231b00;}.cls-9{fill:#f29600;}</style></defs><g id="圖層_1" data-name="圖層 1"><path class="cls-1" d="M92.5,89.74v0Z" transform="translate(-58.52 -77.02)"/><path class="cls-1" d="M92.61,91.1v.05l.22,0-.22,0Z" transform="translate(-58.52 -77.02)"/><path class="cls-1" d="M92.53,90.17l0-.4Z" transform="translate(-58.52 -77.02)"/><path class="cls-1" d="M92.54,90.29v0Z" transform="translate(-58.52 -77.02)"/><path class="cls-1" d="M100,89.29c1,0,2,.06,3.06.13C102,89.35,101,89.29,100,89.29Z" transform="translate(-58.52 -77.02)"/><path class="cls-1" d="M92.55,90.41v0Z" transform="translate(-58.52 -77.02)"/><path class="cls-1" d="M118,86.42a6.24,6.24,0,0,0,1-1.09h0A6.24,6.24,0,0,1,118,86.42Z" transform="translate(-58.52 -77.02)"/><path class="cls-1" d="M92.6,91v0Z" transform="translate(-58.52 -77.02)"/><path class="cls-1" d="M92.61,91.09v0Z" transform="translate(-58.52 -77.02)"/><path class="cls-1" d="M92.6,91s0-.09,0-.15S92.59,90.94,92.6,91Z" transform="translate(-58.52 -77.02)"/><path class="cls-1" d="M117.7,86.64a6.68,6.68,0,0,1-.87.55A6.68,6.68,0,0,0,117.7,86.64Z" transform="translate(-58.52 -77.02)"/><path class="cls-1" d="M92.58,90.82v0Z" transform="translate(-58.52 -77.02)"/><path class="cls-1" d="M92.56,90.53v0Z" transform="translate(-58.52 -77.02)"/><path class="cls-1" d="M92.57,90.73v0Z" transform="translate(-58.52 -77.02)"/><path class="cls-1" d="M92.57,90.63v0Z" transform="translate(-58.52 -77.02)"/><path class="cls-2" d="M96.26,138.53v0Z" transform="translate(-58.52 -77.02)"/><path class="cls-2" d="M96.24,138.23a2,2,0,0,1,0,.25A2,2,0,0,0,96.24,138.23Z" transform="translate(-58.52 -77.02)"/><path class="cls-2" d="M96.27,138.82l0,.21Z" transform="translate(-58.52 -77.02)"/><path class="cls-2" d="M96.29,139.1v0Z" transform="translate(-58.52 -77.02)"/><path class="cls-2" d="M96.31,139.37v0Z" transform="translate(-58.52 -77.02)"/><path class="cls-2" d="M96.16,137l0,.27A2.45,2.45,0,0,0,96.16,137Z" transform="translate(-58.52 -77.02)"/><path class="cls-2" d="M96.18,137.33l0,.27Z" transform="translate(-58.52 -77.02)"/><path class="cls-2" d="M96.22,137.94l0,.25Z" transform="translate(-58.52 -77.02)"/><path class="cls-2" d="M96.2,137.64c0,.09,0,.17,0,.26C96.21,137.81,96.21,137.73,96.2,137.64Z" transform="translate(-58.52 -77.02)"/><path class="cls-2" d="M92.74,142.49h0Z" transform="translate(-58.52 -77.02)"/><path class="cls-2" d="M92.47,142.37l0,0Z" transform="translate(-58.52 -77.02)"/><path class="cls-2" d="M92.41,142.32l0,0Z" transform="translate(-58.52 -77.02)"/><path class="cls-2" d="M92.54,142.41l0,0Z" transform="translate(-58.52 -77.02)"/><path class="cls-2" d="M92.36,142.26l0,0Z" transform="translate(-58.52 -77.02)"/><path class="cls-2" d="M93.07,142.55h0l.81.06-.81-.06Z" transform="translate(-58.52 -77.02)"/><path class="cls-2" d="M92.65,142.46h0Z" transform="translate(-58.52 -77.02)"/><path class="cls-2" d="M92.2,141.94a.07.07,0,0,1,0-.05A.07.07,0,0,0,92.2,141.94Z" transform="translate(-58.52 -77.02)"/><path class="cls-2" d="M92.18,141.86s0,0,0-.06S92.18,141.84,92.18,141.86Z" transform="translate(-58.52 -77.02)"/><path class="cls-2" d="M92.25,142.1s0,0,0,0S92.25,142.08,92.25,142.1Z" transform="translate(-58.52 -77.02)"/><path class="cls-2" d="M92.31,142.2l-.06-.1Z" transform="translate(-58.52 -77.02)"/><path class="cls-2" d="M92.22,142s0,0,0-.06S92.22,142,92.22,142Z" transform="translate(-58.52 -77.02)"/><path class="cls-2" d="M94.72,142.57l.5-.08.27-.07-.27.07Z" transform="translate(-58.52 -77.02)"/><path class="cls-2" d="M95.68,142.38l-.14,0Z" transform="translate(-58.52 -77.02)"/><path class="cls-2" d="M96.37,140.59v0Z" transform="translate(-58.52 -77.02)"/><path class="cls-2" d="M96.36,140.35v0Z" transform="translate(-58.52 -77.02)"/><path class="cls-2" d="M92.09,123c-.09,3,.09,16.3.06,18.43a3.25,3.25,0,0,0,0,.33,8.39,8.39,0,0,0,1.88-1.39A8.67,8.67,0,0,0,96.16,137c-.33-5.22-.93-12.57-1.13-14.14,0-.29,0-.64-.32-.8A2,2,0,0,0,93,122C92.5,122.24,92.11,122.51,92.09,123Z" transform="translate(-58.52 -77.02)"/><path class="cls-2" d="M96.33,139.88v0Z" transform="translate(-58.52 -77.02)"/><path class="cls-2" d="M96.34,140.11v0Z" transform="translate(-58.52 -77.02)"/><path class="cls-2" d="M96.32,139.63v0Z" transform="translate(-58.52 -77.02)"/><path class="cls-2" d="M96.29,142.07a1.89,1.89,0,0,0,.09-1c0-.1,0-.21,0-.32,0,.11,0,.22,0,.32A1.89,1.89,0,0,1,96.29,142.07Z" transform="translate(-58.52 -77.02)"/><path class="cls-2" d="M92.84,142.52h0Z" transform="translate(-58.52 -77.02)"/><path class="cls-2" d="M93,142.54h0Z" transform="translate(-58.52 -77.02)"/><path class="cls-2" d="M94.15,142.61h0Z" transform="translate(-58.52 -77.02)"/><path class="cls-3" d="M93.78,96.08a2,2,0,0,0-1.2-1c0,1.36.11,3,.19,4.8.21-.4.42-.81.62-1.24A2.94,2.94,0,0,0,93.78,96.08Z" transform="translate(-58.52 -77.02)"/><path class="cls-3" d="M91.4,95.1a3.36,3.36,0,0,0-1.68,1.43,49.29,49.29,0,0,1-3.79,4.5,2.7,2.7,0,0,1-.89.68,16.1,16.1,0,0,1-7.36,1.58c-.07,0-.34,0-.57.06a5.91,5.91,0,0,1-2.15.32h-.22c-3.64.9-5.06,1.93-5.69,2.62a45.61,45.61,0,0,0-6.17,7.81c-.59,1-.58,1.08.15,2a68.88,68.88,0,0,0,6.77,5.92c.24.16,2.29,1.24,3.12-.59.66-1.16.2-1.84-.84-2.64-.67-.52-1.39-1-2.07-1.49a2.88,2.88,0,0,1-1-3.65A6.66,6.66,0,0,1,70.55,112c.32-.26.86-.17.94.2a25.78,25.78,0,0,1,.38,5.78l.61.43a2.61,2.61,0,0,1-.14,4.58c0,.94.06,3.8.06,4.49,0,4.3-.11,8.61-.14,12.92,0,1.53.57,2.24,1.83,2.53a1.86,1.86,0,0,0,1.65-.4c1-.94.92-2.1,1-3.38.28-3.53.27-7.07.48-10.61a13.22,13.22,0,0,1,.12-1.4c.09-.51.24-1.09.85-1.13a1.23,1.23,0,0,1,1.39.75c1,2.8,2,12.21,2.38,13.88a2,2,0,0,0,2,1.89,1.69,1.69,0,0,0,2-1.31,8.32,8.32,0,0,0,0-1.41c-.13-2.3-.56-4.57-.78-6.86-.4-4.12-.7-8.25-1.18-12.35a80.65,80.65,0,0,1-.67-9.44c0-.47,0-.94,0-1.4a2,2,0,0,1,.74-1.38c1.55-1,2.68-1.49,4.38-2.61a3.92,3.92,0,0,0,1.37-1.22c.83-1.24,1.64-2.41,2.37-3.64C92.11,98.6,92,96.54,92,95A1.47,1.47,0,0,0,91.4,95.1Z" transform="translate(-58.52 -77.02)"/><path class="cls-3" d="M74.73,103.67h-.17A.48.48,0,0,0,74.73,103.67Z" transform="translate(-58.52 -77.02)"/><path class="cls-3" d="M92.15,107.05a1.52,1.52,0,0,0,.36,1.08c0-.6-.05-1.19-.07-1.79A1.75,1.75,0,0,0,92.15,107.05Z" transform="translate(-58.52 -77.02)"/><path class="cls-4" d="M92.17,141.8h0s0,0,0,.06v0a.07.07,0,0,0,0,.05v0s0,0,0,.06v0s0,0,0,0h0l.06.1,0,0,0,0,0,0,0,0,0,0,0,0,0,0,0,0,.08,0h0l0,0h0l.06,0h.27l.81.06h.27l.57,0,.5-.08.27-.07h.05l.14,0,.33-.1.09-.05a.6.6,0,0,0,.19-.16,1.89,1.89,0,0,0,.09-1c0-.1,0-.21,0-.32V139l0-.21v-.34a2,2,0,0,0,0-.25v0l0-.25v0c0-.09,0-.17,0-.26v0l0-.27v0l0-.27v0a8.67,8.67,0,0,1-2.11,3.41A8.39,8.39,0,0,1,92.17,141.8Z" transform="translate(-58.52 -77.02)"/><path class="cls-3" d="M121.9,106.29a12.42,12.42,0,0,0-5.39-3.11,6.21,6.21,0,0,1-.61-.2.55.55,0,0,1-.2-.11,5.88,5.88,0,0,1-2.62.5,4.27,4.27,0,0,1-1.46-.17c-.37.08-.88.18-1.59.3-1.88.34-4.26,1.75-5.27,2.1s-1.84.66-2.74,1c-.31.14-6.23-1.47-6.91-1.54a3.32,3.32,0,0,0-2.11.63c0,1,.08,2,.12,3a5.15,5.15,0,0,0,.59.45c1.08.72,5.91,1.31,6.73,1.52,2,.52,3.13,0,5.17-.47,1.15-.27,1.76.3,1.79,1.5a2.25,2.25,0,0,1,0,.26c-.19,2.42-.36,4.85-.57,7.27-.34,4.12-1,8.21-1.24,12.35-.16,2.5-.54,5-.76,7.5-.13,1.56.27,2.56,1.83,2.76a2.27,2.27,0,0,0,1.84-.57,3.86,3.86,0,0,0,.7-1.9c.51-4.06,1-8.12,1.89-12.13a8.24,8.24,0,0,1,.86-2.79c.16-.26.33-.53.68-.51s.57.35.67.67a6.35,6.35,0,0,1,.27,1.89c.12,3.54.48,12.84.81,13.91a2.41,2.41,0,0,0,3.85.88c.88-.47.8-2.64.8-3.73,0-4.31-.16-10.43-.16-14.74a4.8,4.8,0,0,1,0-.85,2.93,2.93,0,0,1-1.11-1,2,2,0,0,1,0-2.67l1-1a32.66,32.66,0,0,1-.23-3.79c-.14-1,.08-1.91,0-3a11,11,0,0,1,3.51,2.4c.65.64.62,1,0,1.78-1,1.32-2.27,2.41-3.4,3.63a1.78,1.78,0,0,0-.42,2.37c.56.9,1.94.91,2.91.61s4.3-4,5.31-5.34a6.48,6.48,0,0,0,.7-1.36,2.28,2.28,0,0,0-.24-2.18A46.55,46.55,0,0,0,121.9,106.29Z" transform="translate(-58.52 -77.02)"/><path class="cls-5" d="M127.84,112.77c-.54-.86-1.12-1.7-1.74-2.51-1.35-1.76-2.88-3.37-4.35-5-1.14-1.27-3.61-2.24-5.31-2.77a4,4,0,0,0,.35-.26l-.72-.24h0a5.12,5.12,0,0,1-2.78.8,8.2,8.2,0,0,1-1.33-.22c-.54,0-1.09,0-1.64,0l-.13,0h-.07c.2.13.4.25.61.36a17.28,17.28,0,0,0-2.4.6c-1.67.64-4,1.58-5.63,2.35-.87.35-2.92-.16-5.68-.9a5.74,5.74,0,0,0-3.86-.06l-.18.08c-.06-1.35-.11-2.69-.16-4A18.53,18.53,0,0,0,94,98.76a3.7,3.7,0,0,0,.55-2.33,2.54,2.54,0,0,0-2-2c0-.74,0-1.37-.07-1.86a3.11,3.11,0,0,1,1-.76A9.93,9.93,0,0,1,98.17,90a24.66,24.66,0,0,1,6.25.14c3.69.53,7.27.43,10.72-1.29a13.88,13.88,0,0,0,5.48-4.24,6.2,6.2,0,0,1-5-1.38c1.39-1.89,2.21-4.1,3.53-6.2a2.36,2.36,0,0,0-1.41.6,13.56,13.56,0,0,1-7.88,2.17c-2.55-.11-5.09-.48-7.65-.44a17.89,17.89,0,0,0-9.08,2.19c-1,.59-1,.57-1.31-.47a2.78,2.78,0,0,0-.18-.48c-.14-.23-.34-.43-.62-.29s-.19.36-.09.57a3.56,3.56,0,0,1,.41,1.2c.15,1.8.52,8.67.51,10.21,0,0,0,.82.09,2.12l-.15,0a3.26,3.26,0,0,0-1.55.72A23.87,23.87,0,0,0,87.85,98c-1.51,2-3.07,3.76-5.71,4.1-.51.07-2.43.48-3.76.64a5.23,5.23,0,0,0,.77-.64c-.44.1-.88.18-1.32.25a5.17,5.17,0,0,1-2.67.72l-.62-.07c-.38.07-.78.14-1.18.23a1.53,1.53,0,0,1-.52,0,4,4,0,0,0,.73.26A12.27,12.27,0,0,0,69.72,105a14.6,14.6,0,0,0-3,3.11,46.16,46.16,0,0,0-4.32,5.53,2.18,2.18,0,0,0,.14,3c3.1,2.81,4.11,4,7.09,6a3.26,3.26,0,0,0,2.11.51c0,1.62.07,9.35,0,11.89-.08,2-.09,4-.09,6a3,3,0,0,0,3.55,2.43,2.92,2.92,0,0,0,2.1-2.73c.17-2,.34-10.52.67-12.77.06-.4,0-1.12.47-1.31.24,0,.7,0,.75.63.43,1.42,1.76,9.54,2.15,13.37a2.4,2.4,0,0,0,1.9,2.33,2.75,2.75,0,0,0,3-.8,3,3,0,0,0,.42-2.2c-.23-1.95-.5-3.9-.73-5.85-.64-5.54-1-11.12-1.72-16.66a50.75,50.75,0,0,1-.34-6.64c0-1-.08-1.54.64-2.16,1.59-.9,3.23-1.9,4.65-2.67a4.19,4.19,0,0,0,1.17-1.2,34.78,34.78,0,0,1,1.91-3c.05,1.13.1,2.31.15,3.49a2.39,2.39,0,0,0-.39,3.1,4.25,4.25,0,0,0,.55.7c.22,5.13.4,9.6.41,10.22,0,1.08,0,1.92,0,1.92-1.35.74-1.41,1.22-1.41,1.73,0,2.81-.1,7.3-.07,10.12v8.81c0,1.07.13,1.16,1.15,1.22a24.23,24.23,0,0,0,3.3-.14c1.19-.09,1.25-.13,1.19-1.38-.11-2.25-1.15-15.92-1.47-18.85-.12-1-.34-1.23-1.31-1.45-.59-.14-.59-.26-.67-.87-.06-.45-.27-5.25-.5-10.83a4.75,4.75,0,0,0,1.74.72c1.5.33,4.61.77,6.11,1.07,2,.4,2.5,0,4.54-.45.93-.21,1.22.1,1.18,1.12-.08,1.88-.14,3.76-.34,5.62-.5,4.8-1.06,9.58-1.49,14.38-.22,2.42-.51,4.84-.76,7.26a4.67,4.67,0,0,0,.16,1.66c.51,1.41,2.64,1.88,4,1.19a2.71,2.71,0,0,0,1.52-2.21c.42-3,.61-6.11,1.24-9.12.34-1.67.55-3.37,1-5,.09-.31.15-.65.62-.72a5,5,0,0,1,.3,2c.13,4,.56,12.82.69,13.28a2.82,2.82,0,0,0,2.84,2.13,3,3,0,0,0,2.84-1.92,8.42,8.42,0,0,0,.34-2.91c0-3.45-.22-6.9-.27-10.36,0-1.11,0-4-.06-5.14v0a3.32,3.32,0,0,0,1.15-.06,5.14,5.14,0,0,0,2.53-1.38c1.8-1.8,3.14-2.9,4.41-5.16C127.92,114.78,128.3,113.51,127.84,112.77Zm-38-8.25a3.92,3.92,0,0,1-1.37,1.22c-1.7,1.12-2.83,1.59-4.38,2.61a2,2,0,0,0-.74,1.38c0,.46,0,.93,0,1.4a80.65,80.65,0,0,0,.67,9.44c.48,4.1.78,8.23,1.18,12.35.22,2.29.65,4.56.78,6.86a8.32,8.32,0,0,1,0,1.41,1.69,1.69,0,0,1-2,1.31,2,2,0,0,1-2-1.89c-.35-1.67-1.43-11.08-2.38-13.88a1.23,1.23,0,0,0-1.39-.75c-.61,0-.76.62-.85,1.13a13.22,13.22,0,0,0-.12,1.4c-.21,3.54-.2,7.08-.48,10.61-.1,1.28-.07,2.44-1,3.38a1.86,1.86,0,0,1-1.65.4c-1.26-.29-1.84-1-1.83-2.53,0-4.31.1-8.62.14-12.92,0-.69,0-3.55-.06-4.49a2.61,2.61,0,0,0,.14-4.58l-.61-.43a25.78,25.78,0,0,0-.38-5.78c-.08-.37-.62-.46-.94-.2A6.66,6.66,0,0,0,69,113.68a2.88,2.88,0,0,0,1,3.65c.68.52,1.4,1,2.07,1.49,1,.8,1.5,1.48.84,2.64-.83,1.83-2.88.75-3.12.59A68.88,68.88,0,0,1,63,116.13c-.73-.95-.74-1-.15-2a45.61,45.61,0,0,1,6.17-7.81c.63-.69,2-1.72,5.69-2.62H75a5.91,5.91,0,0,0,2.15-.32c.23,0,.5,0,.57-.06A16.1,16.1,0,0,0,85,101.71a2.7,2.7,0,0,0,.89-.68,49.29,49.29,0,0,0,3.79-4.5A3.36,3.36,0,0,1,91.4,95.1,1.47,1.47,0,0,1,92,95c.06,1.54.15,3.6.24,5.88C91.47,102.11,90.66,103.28,89.83,104.52ZM71.44,117.64l-.73-.56c-1.53-1.24-2-2.68.34-4.54C71.35,113.29,71.23,116.18,71.44,117.64Zm20.67-34.1c0-.47.06-.48.55-.84A15.37,15.37,0,0,1,101.82,80c3-.07,5.87.28,8.81.43a13.12,13.12,0,0,0,4.25-.76c.69-.2,1.49-.59,2.4-.9a9.82,9.82,0,0,1-2.34,4c-.62.68-.6.74.25,1.13a16.45,16.45,0,0,0,3.71,1.44H119a6.24,6.24,0,0,1-1,1.09l-.27.22a6.68,6.68,0,0,1-.87.55c-1.25.65-2.53,1.25-3.82,1.81a10.24,10.24,0,0,1-3.64.78q-.75,0-1.5,0l-.75,0c-1.36-.09-2.72-.22-4.08-.32-1-.07-2-.13-3.06-.13H99a11.63,11.63,0,0,0-5.45,1.6,1.26,1.26,0,0,1-.67.28l-.22,0V91.1h0v0h0V91h0s0-.09,0-.15h0v-.28h0v-.36l0-.4v-.18C92.35,87.73,92.17,84.78,92.11,83.54Zm0,23.51a1.75,1.75,0,0,1,.29-.71c0,.6,0,1.19.07,1.79A1.52,1.52,0,0,1,92.15,107.05Zm.43-12a2,2,0,0,1,1.2,1,2.94,2.94,0,0,1-.39,2.58c-.2.43-.41.84-.62,1.24C92.69,98.1,92.63,96.46,92.58,95.1Zm2.13,27c.29.16.28.51.32.8.2,1.57.8,8.92,1.13,14.14v0l0,.27v0l0,.27v0c0,.09,0,.17,0,.26v0l0,.25v0a2,2,0,0,1,0,.25v.34l0,.21v1.75c0,.11,0,.22,0,.32a1.89,1.89,0,0,1-.09,1,.6.6,0,0,1-.19.16l-.09.05-.33.1-.14,0h-.05l-.27.07-.5.08-.57,0h-.27l-.81-.06H92.8l-.06,0h0l0,0h0l-.08,0,0,0,0,0,0,0,0,0,0,0,0,0,0,0,0,0-.06-.1h0s0,0,0,0v0s0,0,0-.06v0a.07.07,0,0,1,0-.05v0s0,0,0-.06h0a3.25,3.25,0,0,1,0-.33c0-2.13-.15-15.4-.06-18.43,0-.53.41-.8.89-1A2,2,0,0,1,94.71,122.06Zm32.48-7.35a6.48,6.48,0,0,1-.7,1.36c-1,1.39-4.36,5.05-5.31,5.34s-2.35.29-2.91-.61a1.78,1.78,0,0,1,.42-2.37c1.13-1.22,2.39-2.31,3.4-3.63.59-.77.62-1.14,0-1.78a11,11,0,0,0-3.51-2.4c0,1.06-.17,2,0,3a32.66,32.66,0,0,0,.23,3.79l-1,1a2,2,0,0,0,0,2.67,2.93,2.93,0,0,0,1.11,1,4.8,4.8,0,0,0,0,.85c0,4.31.12,10.43.16,14.74,0,1.09.08,3.26-.8,3.73a2.41,2.41,0,0,1-3.85-.88c-.33-1.07-.69-10.37-.81-13.91a6.35,6.35,0,0,0-.27-1.89c-.1-.32-.25-.66-.67-.67s-.52.25-.68.51a8.24,8.24,0,0,0-.86,2.79c-.86,4-1.38,8.07-1.89,12.13a3.86,3.86,0,0,1-.7,1.9,2.27,2.27,0,0,1-1.84.57c-1.56-.2-2-1.2-1.83-2.76.22-2.5.6-5,.76-7.5.26-4.14.9-8.23,1.24-12.35.21-2.42.38-4.85.57-7.27a2.25,2.25,0,0,0,0-.26c0-1.2-.64-1.77-1.79-1.5-2,.5-3.14,1-5.17.47-.82-.21-5.65-.8-6.73-1.52a5.15,5.15,0,0,1-.59-.45c0-1-.08-2-.12-3a3.32,3.32,0,0,1,2.11-.63c.68.07,6.6,1.68,6.91,1.54.9-.38,1.81-.72,2.74-1s3.39-1.76,5.27-2.1c.71-.12,1.22-.22,1.59-.3a4.27,4.27,0,0,0,1.46.17,5.88,5.88,0,0,0,2.62-.5.55.55,0,0,0,.2.11,6.21,6.21,0,0,0,.61.2,12.42,12.42,0,0,1,5.39,3.11,46.55,46.55,0,0,1,5,6.24A2.28,2.28,0,0,1,127.19,114.71ZM119,112.86a9.53,9.53,0,0,1,0-1.15c.37-.2,1.62.79,1.79.9,1.64,1.12,1.46,1.25.09,2.67-.57.6-1.16,1.17-1.75,1.75C119.12,116,119.13,113.86,119,112.86Z" transform="translate(-58.52 -77.02)"/><path class="cls-6" d="M74.73,103.67a.48.48,0,0,1-.17,0Z" transform="translate(-58.52 -77.02)"/><path class="cls-6" d="M130.08,113.05c-.14.87.41,1.72-.1,2.5a27.32,27.32,0,0,1-1.89,2C130.44,116.86,131.61,114.54,130.08,113.05Z" transform="translate(-58.52 -77.02)"/><path class="cls-6" d="M59.91,112.46c-.54-.31-.67.45-.87.8a2.79,2.79,0,0,0,.36,3.67c-.45-2-.42-2.13.18-3.39C59.75,113.19,60.34,112.7,59.91,112.46Z" transform="translate(-58.52 -77.02)"/><path class="cls-6" d="M119.64,141.75c-.21,0-.46,0-.43.31s.27.31.47.31h3.4v-.28A8.55,8.55,0,0,0,119.64,141.75Z" transform="translate(-58.52 -77.02)"/><path class="cls-6" d="M102,142.21a.31.31,0,0,0,.25.38,3,3,0,0,0,2.42-.39c-.77-.09-1.54-.18-2.31-.25A.3.3,0,0,0,102,142.21Z" transform="translate(-58.52 -77.02)"/><path class="cls-6" d="M79.44,142.62a.29.29,0,0,0-.35.28c0,.23.1.46.35.43a7,7,0,0,0,2.56-.41C81.28,142.46,80.07,142.71,79.44,142.62Z" transform="translate(-58.52 -77.02)"/><path class="cls-6" d="M68.58,143c0,.25.16.37.37.43a5.85,5.85,0,0,0,3.24-.32c-.76-.18-2.52-.2-3.12-.34C68.85,142.71,68.62,142.72,68.58,143Z" transform="translate(-58.52 -77.02)"/><path class="cls-7" d="M74.53,88.59A7.44,7.44,0,1,0,82,96,7.44,7.44,0,0,0,74.53,88.59Z" transform="translate(-58.52 -77.02)"/><path class="cls-5" d="M71.79,94.67a2.47,2.47,0,0,0-.23,1.7c.43,1.46,2.17,1.88,2.51,3.09.25.92.28,1.27,1,1.12.52-.12.63-.12.42-1.47-.18-1.13,1.64-2.31,1.15-4.19C76,92.63,72.58,93.29,71.79,94.67Z" transform="translate(-58.52 -77.02)"/><polygon class="cls-8" points="10.22 13.69 7.28 12.11 7.83 11.29 10.42 13.36 10.22 13.69"/><polygon class="cls-8" points="11.65 12 11.94 8.52 13.03 8.65 12 11.96 11.65 12"/><polygon class="cls-8" points="10.74 12.75 8.55 9.25 9.48 8.6 11.14 12.41 10.74 12.75"/><path class="cls-7" d="M112.26,88.12a7.44,7.44,0,1,1-7.46,7.41A7.42,7.42,0,0,1,112.26,88.12Z" transform="translate(-58.52 -77.02)"/><path class="cls-5" d="M115,94.21a2.44,2.44,0,0,1,.23,1.69c-.44,1.46-2.17,1.88-2.51,3.09-.26.93-.28,1.27-1,1.12-.52-.11-.63-.12-.42-1.47.17-1.13-1.64-2.31-1.16-4.19C110.76,92.17,114.21,92.82,115,94.21Z" transform="translate(-58.52 -77.02)"/><polygon class="cls-8" points="59.53 13.22 62.47 11.64 61.92 10.83 59.34 12.89 59.53 13.22"/><polygon class="cls-8" points="58.1 11.53 57.82 8.05 56.72 8.18 57.76 11.5 58.1 11.53"/><polygon class="cls-8" points="59.02 12.29 61.21 8.79 60.27 8.13 58.62 11.94 59.02 12.29"/><path class="cls-9" d="M92.46,83.42c0-.47.06-.49.55-.84a15.37,15.37,0,0,1,9.16-2.68c3-.07,5.88.28,8.81.43a13.12,13.12,0,0,0,4.25-.76c.69-.2,1.49-.59,2.4-.9a9.82,9.82,0,0,1-2.34,4c-.62.67-.6.74.25,1.13a15.88,15.88,0,0,0,3.72,1.43h.07a6.58,6.58,0,0,1-1,1.09l-.28.22a6.07,6.07,0,0,1-.87.55c-1.25.65-2.52,1.25-3.81,1.81a10.34,10.34,0,0,1-3.65.78q-.75,0-1.5,0l-.75,0c-1.36-.09-2.71-.22-4.07-.32-1-.07-2-.13-3.07-.13h-1a11.63,11.63,0,0,0-5.45,1.6,1.3,1.3,0,0,1-.67.28A.76.76,0,0,1,93,91v0h0v0h0v0h0s0-.09,0-.15h0v-.28h0V90.3h0V90l0-.39v-.18C92.7,87.61,92.52,84.66,92.46,83.42Z" transform="translate(-58.52 -77.02)"/></g></svg>