<svg xmlns="http://www.w3.org/2000/svg" viewBox="0 0 82.75 90.71"><defs><style>.cls-1{fill:#eb6c43;}.cls-2{fill:#eec134;}.cls-3{fill:#dc542e;}.cls-4{fill:#e3b22d;}.cls-5{fill:#fff;}.cls-6{fill:#fcf3df;}.cls-7{fill:#6581a5;}.cls-8{fill:none;stroke:#6581a5;stroke-miterlimit:10;stroke-width:0.5px;}.cls-9{fill:#231b00;}</style></defs><g id="圖層_1" data-name="圖層 1"><path class="cls-1" d="M169,166.4l-.43.25Z" transform="translate(-108.48 -104.18)"/><path class="cls-1" d="M170.47,165.56l-.32.18Z" transform="translate(-108.48 -104.18)"/><path class="cls-1" d="M168.58,166.65l-.45.26Z" transform="translate(-108.48 -104.18)"/><path class="cls-1" d="M171.37,165.05l-.17.09Z" transform="translate(-108.48 -104.18)"/><path class="cls-1" d="M171,165.26l-.53.3Z" transform="translate(-108.48 -104.18)"/><path class="cls-1" d="M165.09,168.7l-1.08.64Z" transform="translate(-108.48 -104.18)"/><path class="cls-1" d="M167.66,167.19l-.74.43Z" transform="translate(-108.48 -104.18)"/><path class="cls-1" d="M166.41,167.93l-1.06.62Z" transform="translate(-108.48 -104.18)"/><path class="cls-1" d="M185.22,153c-.1.24-.19.48-.28.72C185,153.51,185.12,153.27,185.22,153Z" transform="translate(-108.48 -104.18)"/><path class="cls-1" d="M163.47,169.67l-.54.32Z" transform="translate(-108.48 -104.18)"/><path class="cls-1" d="M178.34,166.84l-.13.17Z" transform="translate(-108.48 -104.18)"/><path class="cls-1" d="M186.34,150.06l-.56,1.48Z" transform="translate(-108.48 -104.18)"/><path class="cls-1" d="M186.6,149.36c-.09.22-.17.46-.26.7C186.43,149.82,186.51,149.58,186.6,149.36Z" transform="translate(-108.48 -104.18)"/><path class="cls-1" d="M178.09,167.15a1.33,1.33,0,0,1-.16.17A1.33,1.33,0,0,0,178.09,167.15Z" transform="translate(-108.48 -104.18)"/><path class="cls-1" d="M172.1,164.94l-.14,0Z" transform="translate(-108.48 -104.18)"/><path class="cls-1" d="M177.78,167.42a.46.46,0,0,1-.22.06A.46.46,0,0,0,177.78,167.42Z" transform="translate(-108.48 -104.18)"/><path class="cls-1" d="M177.93,167.32a.65.65,0,0,1-.15.1A.65.65,0,0,0,177.93,167.32Z" transform="translate(-108.48 -104.18)"/><path class="cls-1" d="M170.15,165.74l-.35.2Z" transform="translate(-108.48 -104.18)"/><path class="cls-1" d="M157.32,173.41l.62-.39.52-.32-.52.32Z" transform="translate(-108.48 -104.18)"/><path class="cls-1" d="M144.46,180.43c1-.53,1.91-1.09,2.88-1.59l1-.52-1,.52C146.37,179.34,145.42,179.9,144.46,180.43Z" transform="translate(-108.48 -104.18)"/><path class="cls-1" d="M136.3,180.74c-.24-.22-.48-.46-.7-.7.22.24.46.48.7.7a4.8,4.8,0,0,0,3.74,1.47A4.8,4.8,0,0,1,136.3,180.74Z" transform="translate(-108.48 -104.18)"/><path class="cls-1" d="M137.75,177.73a54.29,54.29,0,0,0,16-5.65c2.22-1.15,4.37-2.39,6.55-3.6,4.69-2.56,9.5-5,13.74-8.33,5.49-4.24,10.19-9.81,11.46-16.82l.29.23a22.71,22.71,0,0,0-3.52-2.23,125.7,125.7,0,0,0-12.69-5.8c-.7-.2-1.37-.51-2.09-.64a2.54,2.54,0,0,1-1.41,2.31,5.51,5.51,0,0,1-.78.24c-.28.88-.54,1.77-.77,2.66a.4.4,0,0,1-.27.28,2.15,2.15,0,0,1-1.21.9c-1.11.38-4.47,1.74-5.78,2.23a9,9,0,0,1,.88.45c1,.6,1.34,1.54,1.89,2.61,1.68,3.27,2.39,6.16,3.82,10.26a2.84,2.84,0,0,1-1.14,3.28,3.75,3.75,0,0,1-4.14.06c-.67-.59-2.55-6.06-3.33-7.84a4.07,4.07,0,0,0-4.14-2.71,40.4,40.4,0,0,1-8-1.22,7.45,7.45,0,0,1-1.28-.41,3.65,3.65,0,0,1-.76.3c-2.43,1.06-11.4,3.84-12.59,4.7a1.65,1.65,0,0,0-.74.91,18.22,18.22,0,0,0-.82,4.65,27.61,27.61,0,0,0,3,12.84,39,39,0,0,0,3.94,6.58A21.49,21.49,0,0,0,137.75,177.73Z" transform="translate(-108.48 -104.18)"/><path class="cls-1" d="M162.93,170l-.79.47Z" transform="translate(-108.48 -104.18)"/><path class="cls-1" d="M187.56,146.36a2.33,2.33,0,0,0,0-.53A2.33,2.33,0,0,1,187.56,146.36Z" transform="translate(-108.48 -104.18)"/><path class="cls-1" d="M187.1,144.82a4.3,4.3,0,0,0-.41-.47l-.27-.26.27.26A4.3,4.3,0,0,1,187.1,144.82Z" transform="translate(-108.48 -104.18)"/><path class="cls-1" d="M178.09,167.15l.12-.14Z" transform="translate(-108.48 -104.18)"/><path class="cls-1" d="M171.74,164.9a.75.75,0,0,1,.15,0A.75.75,0,0,0,171.74,164.9Z" transform="translate(-108.48 -104.18)"/><path class="cls-1" d="M186.72,149c.28-.77.52-1.43.68-1.89a3.21,3.21,0,0,0,.16-.77,3.21,3.21,0,0,1-.16.77C187.24,147.59,187,148.25,186.72,149Z" transform="translate(-108.48 -104.18)"/><path class="cls-1" d="M134.94,179.29l-.48-.6Z" transform="translate(-108.48 -104.18)"/><path class="cls-1" d="M159.26,172.21l-.8.49Z" transform="translate(-108.48 -104.18)"/><path class="cls-1" d="M144.46,180.43c-.47.27-1,.53-1.45.77C143.5,181,144,180.7,144.46,180.43Z" transform="translate(-108.48 -104.18)"/><path class="cls-1" d="M160.62,171.37l-1.15.71Z" transform="translate(-108.48 -104.18)"/><path class="cls-1" d="M186.13,143.84l.23.2Z" transform="translate(-108.48 -104.18)"/><path class="cls-1" d="M185.83,143.58l.25.21Z" transform="translate(-108.48 -104.18)"/><path class="cls-1" d="M134.37,178.57l-.45-.59Z" transform="translate(-108.48 -104.18)"/><path class="cls-2" d="M123.13,183.91l-.19-.18Z" transform="translate(-108.48 -104.18)"/><path class="cls-2" d="M123.33,184.05a1.33,1.33,0,0,1-.19-.14A1.33,1.33,0,0,0,123.33,184.05Z" transform="translate(-108.48 -104.18)"/><path class="cls-2" d="M128.37,178.3l.26.37Z" transform="translate(-108.48 -104.18)"/><path class="cls-2" d="M123.8,184.29a2,2,0,0,1-.44-.22A2,2,0,0,0,123.8,184.29Z" transform="translate(-108.48 -104.18)"/><path class="cls-2" d="M128.77,178.87c.14.18.27.36.42.54C129,179.23,128.91,179.05,128.77,178.87Z" transform="translate(-108.48 -104.18)"/><path class="cls-2" d="M125,184.48h0Z" transform="translate(-108.48 -104.18)"/><path class="cls-2" d="M124.05,184.37l-.21-.06Z" transform="translate(-108.48 -104.18)"/><path class="cls-2" d="M124.6,184.46l-.21,0Z" transform="translate(-108.48 -104.18)"/><path class="cls-2" d="M124.34,184.43l-.26-.05Z" transform="translate(-108.48 -104.18)"/><path class="cls-2" d="M128.05,177.84c-.83-1.24-1.58-2.54-2.35-3.83a21.82,21.82,0,0,1-3.1-9.69c-.06-1.17-.11-2.34-.21-3.51-.06-.75-.35-.9-1-.56a2.76,2.76,0,0,0-.72.55,21.15,21.15,0,0,0-3.66,5.46c-.59,1.3-.42,1.66.89,2.35,1.11.58,1.31,1,.84,2.22a9.85,9.85,0,0,1-1,1.74,53.68,53.68,0,0,0-4.07,7.2,4.64,4.64,0,0,0-.43,1.46c-.09.87.13,1.08.9.71,1.2-.58,2.45-1,3.7-1.48a2.87,2.87,0,0,1,4.08,1.65c.12.28.25.56.39.83a3.44,3.44,0,0,0,.58.79,9,9,0,0,0,5.11-5.89Zm-12.75,2.33c-1.63.72,2.3-5.77,2.69-5.81C118.87,174.27,116.11,179.81,115.3,180.17Zm4.9-17.3c-.68,2-1.3,5-2.15,4.75C116.28,167.11,120.49,162,120.2,162.87Z" transform="translate(-108.48 -104.18)"/><path class="cls-3" d="M186.69,144.35l-.27-.26-.06-.05-.23-.2,0-.05-.25-.21,0,0-.29-.23c-1.27,7-6,12.58-11.46,16.82-4.24,3.28-9.05,5.77-13.74,8.33-2.18,1.21-4.33,2.45-6.55,3.6a54.29,54.29,0,0,1-16,5.65,21.49,21.49,0,0,1-3.83.24h0l.45.59.09.12.48.6h0l.32.38c.11.12.22.25.34.37s.46.48.7.7a4.8,4.8,0,0,0,3.74,1.47,6.29,6.29,0,0,0,.72-.11c.24-.06.49-.14.74-.23.52-.2,1-.43,1.51-.67s1-.5,1.45-.77c1-.53,1.91-1.09,2.88-1.59l1-.52c1-.53,2-1.07,3-1.62l4-2.21.64-.35,1.26-.73.62-.39.52-.32.8-.49.21-.13,1.15-.71,1.52-.91.79-.47.54-.32.54-.33,1.08-.64.26-.15,1.06-.62.51-.31.74-.43.47-.28.45-.26.43-.25.79-.46.35-.2.32-.18.53-.3.2-.12.17-.09.12-.07a1.15,1.15,0,0,1,.17-.06l.08,0a.75.75,0,0,1,.15,0H172l.14,0c.18.06.35.16.54.22s.48.19.71.3l.46.24.23.12a21.55,21.55,0,0,0,2.25,1.26,3.54,3.54,0,0,0,1.27.4.46.46,0,0,0,.22-.06.65.65,0,0,0,.15-.1,1.33,1.33,0,0,0,.16-.17l.12-.14.13-.17.3-.42a39.7,39.7,0,0,0,2.75-4.7c.21-.41.41-.82.61-1.24.11-.21.21-.42.3-.62.5-1,1-2.07,1.42-3.06l.2-.48c.06-.13.12-.28.18-.44l.22-.53c.18-.47.4-1,.62-1.6.09-.24.18-.48.28-.72.18-.49.37-1,.56-1.49l.56-1.48c.09-.24.17-.48.26-.7l.12-.34c.28-.77.52-1.43.68-1.89a3.21,3.21,0,0,0,.16-.77,2.33,2.33,0,0,0,0-.53,2.42,2.42,0,0,0-.43-1A4.3,4.3,0,0,0,186.69,144.35Z" transform="translate(-108.48 -104.18)"/><path class="cls-4" d="M129.85,180.42l-.12-.23a6.21,6.21,0,0,0-.54-.78h0c-.15-.18-.28-.36-.42-.54a2.43,2.43,0,0,0-.14-.2l-.26-.37-.32-.46a9,9,0,0,1-5.11,5.89h0l.19.18h0a1.33,1.33,0,0,0,.19.14l0,0a2,2,0,0,0,.44.22l0,0,.21.06h0l.26.05h0l.21,0H125l.28,0a4.34,4.34,0,0,0,.52-.07,4.1,4.1,0,0,0,.5-.14,4.52,4.52,0,0,0,.47-.18L127,184a7,7,0,0,0,.65-.39,12.55,12.55,0,0,0,1-.76,3.38,3.38,0,0,0,1.32-1.49,1.27,1.27,0,0,0,0-.69A1.8,1.8,0,0,0,129.85,180.42Z" transform="translate(-108.48 -104.18)"/><path class="cls-5" d="M142.7,147.42a33,33,0,0,0,6.88,1.44,13.46,13.46,0,0,0,1.68,0c2.28-.15,3.57,1.2,4.49,3,.77,1.5,2.47,6.37,3.13,7.24,1.58,2.08,4.89.19,4.22-2.29-.56-2.09-2.89-8.36-3.42-9.46s-1-2.26-2.21-2.92a22.48,22.48,0,0,0-6.45-2.2c-.63-.11-1.35-.13-1.53-1.23a25.75,25.75,0,0,1,3.28.79,11.93,11.93,0,0,1,.16-1.69,12,12,0,0,0,0-2,7,7,0,0,1-1.23-1.42c-1-1.47-1.55-3.22-2.45-4.76a.4.4,0,0,1,.06-.55c.28-.17.48,0,.6.28.55,1.09,1.05,2.21,1.63,3.29,1.47,2.73,3.45,3.77,6.56,3.31,1.45-.21,5.91-1.29,6.71-1.47a4,4,0,0,0,1.53-.67c.78-.6.47-3.2-2.08-3.13a18.1,18.1,0,0,0-3.18.48c-.5.11-1,.24-1.5.31-1.93.27-2.24.07-2.89-1.8l-1.44-4.2a2.47,2.47,0,0,0-1.95-1.72,4.93,4.93,0,0,1-1.59-.68,17.3,17.3,0,0,0-4.05,1.82,8.85,8.85,0,0,0-2.6,3,33.82,33.82,0,0,0-3.08,9.27,27.44,27.44,0,0,0-.68,5.93C141.31,146.78,141.44,147,142.7,147.42Z" transform="translate(-108.48 -104.18)"/><path class="cls-6" d="M118.05,167.62c.85.24,1.47-2.79,2.15-4.75C120.49,162,116.28,167.11,118.05,167.62Z" transform="translate(-108.48 -104.18)"/><path class="cls-6" d="M118,174.36c-.39,0-4.32,6.53-2.69,5.81C116.11,179.81,118.87,174.27,118,174.36Z" transform="translate(-108.48 -104.18)"/><path class="cls-7" d="M130.13,179.29a42.12,42.12,0,0,1-3.53-5.17,22,22,0,0,1-3.3-10.55c0-1.07,0-2.14-.06-3.21s-.44-1.26-1.39-1.1a3,3,0,0,0-1.84,1,22,22,0,0,0-3.93,6.34,1.79,1.79,0,0,0,1.06,2.5c1.15.62,1.22.84.6,2a10.74,10.74,0,0,1-.56.92,55.15,55.15,0,0,0-4.15,7.49,4.6,4.6,0,0,0-.5,2.51c.13,1,.74,1.33,1.6.81a17.07,17.07,0,0,1,3.79-1.61c2.2-.67,3.2-.19,3.69,1.63s1.77,2.5,4.06,2.27a3.75,3.75,0,0,1,.47-.11c1.74-.26,2.81-1.59,4.08-2.59a1.44,1.44,0,0,0,.57-2A4.24,4.24,0,0,0,130.13,179.29Zm-.14,1.84a1.48,1.48,0,0,1,0,.19,3.38,3.38,0,0,1-1.32,1.49,12.55,12.55,0,0,1-1,.76,7,7,0,0,1-.65.39l-.22.11a4.52,4.52,0,0,1-.47.18,4.1,4.1,0,0,1-.5.14,4.34,4.34,0,0,1-.52.07l-.28,0h-.36l-.21,0h0l-.26-.05h0l-.21-.06,0,0a2,2,0,0,1-.44-.22l0,0a1.33,1.33,0,0,1-.19-.14h0l-.19-.18h0a3.44,3.44,0,0,1-.58-.79c-.14-.27-.27-.55-.39-.83a2.87,2.87,0,0,0-4.08-1.65c-1.25.47-2.5.9-3.7,1.48-.77.37-1,.16-.9-.71a4.64,4.64,0,0,1,.43-1.46,53.68,53.68,0,0,1,4.07-7.2,9.85,9.85,0,0,0,1-1.74c.47-1.17.27-1.64-.84-2.22-1.31-.69-1.48-1.05-.89-2.35a21.15,21.15,0,0,1,3.66-5.46,2.76,2.76,0,0,1,.72-.55c.64-.34.93-.19,1,.56.1,1.17.15,2.34.21,3.51a21.82,21.82,0,0,0,3.1,9.69c.77,1.29,1.52,2.59,2.35,3.83l.32.46.26.37a2.43,2.43,0,0,1,.14.2c.14.18.27.36.42.54h0a6.21,6.21,0,0,1,.54.78l.12.23a1.8,1.8,0,0,1,.08.21A1.49,1.49,0,0,1,130,181.13Z" transform="translate(-108.48 -104.18)"/><path class="cls-7" d="M186.67,143.1c-1.19-.79-2.37-1.59-3.61-2.29-4-2.26-13.28-6.28-13.74-6.17a9.45,9.45,0,0,0-1.95-.56,2.22,2.22,0,0,0-.66-1,2.94,2.94,0,0,0-2.75-.8c-1.31.18-2.62.4-3.93.61v0l-.31,0c-1.8.26-2,.16-2.58-1.52-.4-1.11-.77-2.22-1.14-3.33s-.45-1.41.06-1.68a.26.26,0,0,1,0-.09s-.06-.15-.1-.28c-.42-.1-.83-.23-1.26-.29l.67.09a9,9,0,0,1-3.36-1l-.24-.14-.81.06.11.1c-.14.06-.27.13-.41.18a10.69,10.69,0,0,0-6.72,5.5,44.66,44.66,0,0,0-2.09,6.56,31.84,31.84,0,0,0-1.31,7.69,3.57,3.57,0,0,0,.5,2.55l-.25.13c-3.05,1.56-8.18,2.86-11.34,4.16a4,4,0,0,0-2.86,3.38,23.5,23.5,0,0,0,.13,9.27,31.73,31.73,0,0,0,3.56,9.26,38,38,0,0,0,4.93,7.18,6.31,6.31,0,0,0,8,1.25,60.2,60.2,0,0,1,6.33-3.41c2.61-1.2,5.08-2.63,7.55-4.06,4.59-2.66,9-5.69,13.65-8.19a2.56,2.56,0,0,1,2.8.05c1.07.6,2.12,1.24,3.2,1.82s1.25.55,1.9-.41c.94-1.39,1.79-2.85,2.63-4.3a93.81,93.81,0,0,0,7-16.44A3.29,3.29,0,0,0,186.67,143.1ZM142,139.48a33.82,33.82,0,0,1,3.08-9.27,8.85,8.85,0,0,1,2.6-3,17.3,17.3,0,0,1,4.05-1.82,4.93,4.93,0,0,0,1.59.68,2.47,2.47,0,0,1,1.95,1.72l1.44,4.2c.65,1.87,1,2.07,2.89,1.8.51-.07,1-.2,1.5-.31a18.1,18.1,0,0,1,3.18-.48c2.55-.07,2.86,2.53,2.08,3.13a4,4,0,0,1-1.53.67c-.8.18-5.26,1.26-6.71,1.47-3.11.46-5.09-.58-6.56-3.31-.58-1.08-1.08-2.2-1.63-3.29-.12-.25-.32-.45-.6-.28a.4.4,0,0,0-.06.55c.9,1.54,1.4,3.29,2.45,4.76a7,7,0,0,0,1.23,1.42,12,12,0,0,1,0,2,11.93,11.93,0,0,0-.16,1.69,25.75,25.75,0,0,0-3.28-.79c.18,1.1.9,1.12,1.53,1.23a22.48,22.48,0,0,1,6.45,2.2c1.23.66,1.61,1.69,2.21,2.91s2.86,7.38,3.42,9.47c.67,2.48-2.64,4.37-4.22,2.29-.66-.87-2.36-5.74-3.13-7.24-.92-1.82-2.21-3.17-4.49-3a13.46,13.46,0,0,1-1.68,0,33,33,0,0,1-6.88-1.44c-1.26-.45-1.39-.64-1.37-2A27.44,27.44,0,0,1,142,139.48Zm11.75.31a10.3,10.3,0,0,0,.13-1.1l.1,0a9.81,9.81,0,0,0,4.69.33c1.45-.31,4-.93,5.75-1.37-.21.66-.4,1.33-.58,2a2.6,2.6,0,0,1-1.12.89c-1.21.53-5.41,2-6.44,2.52-.87-.34-1.79-.65-2.58-.93v-.06A11.88,11.88,0,0,1,153.76,139.79Zm33.64,7.34c-.16.46-.4,1.12-.68,1.89l-.12.33c-.09.23-.17.47-.26.71l-.56,1.48c-.19.5-.38,1-.56,1.49-.1.24-.19.48-.28.72-.22.58-.44,1.13-.62,1.6l-.22.53c-.06.16-.12.31-.18.44l-.2.48c-.45,1-.92,2-1.42,3.06-.09.2-.19.41-.3.62-.2.42-.4.83-.61,1.24a39.7,39.7,0,0,1-2.75,4.7l-.3.42-.13.17-.12.14a1.33,1.33,0,0,1-.16.17.65.65,0,0,1-.15.1.46.46,0,0,1-.22.06,3.54,3.54,0,0,1-1.27-.4,21.55,21.55,0,0,1-2.25-1.26l-.23-.12-.46-.24c-.23-.11-.47-.21-.71-.3s-.36-.16-.54-.22l-.14,0h-.07a.75.75,0,0,0-.15,0l-.08,0a1.15,1.15,0,0,0-.17.06l-.12.07-.17.09-.2.12-.53.3-.32.18-.35.2-.79.46-.43.25-.45.26-.47.28-.74.43-.51.31-1.06.62-.26.15-1.08.64-.54.33-.54.32-.79.47-1.52.91-1.15.71-.21.13-.8.49-.52.32-.62.39-1.26.73-.64.35-4,2.21c-1,.55-2,1.09-3,1.62l-1,.52c-1,.5-1.92,1.06-2.88,1.59-.47.27-1,.53-1.45.77s-1,.47-1.51.67c-.25.09-.5.17-.74.23a6.29,6.29,0,0,1-.72.11,4.8,4.8,0,0,1-3.74-1.47c-.24-.22-.48-.46-.7-.7s-.23-.25-.34-.37l-.32-.38h0l-.48-.6-.09-.12-.45-.59h0a39,39,0,0,1-3.94-6.58,27.61,27.61,0,0,1-3-12.84,18.22,18.22,0,0,1,.82-4.65,1.65,1.65,0,0,1,.74-.91c1.19-.86,10.16-3.64,12.59-4.7a3.65,3.65,0,0,0,.76-.3,7.45,7.45,0,0,0,1.28.41,40.4,40.4,0,0,0,8,1.22,4.07,4.07,0,0,1,4.14,2.71c.78,1.78,2.66,7.25,3.33,7.84a3.75,3.75,0,0,0,4.14-.06,2.84,2.84,0,0,0,1.14-3.28c-1.43-4.1-2.14-7-3.82-10.26-.55-1.07-.85-2-1.89-2.61a9,9,0,0,0-.88-.45c1.31-.49,4.67-1.85,5.78-2.23a2.15,2.15,0,0,0,1.21-.9.4.4,0,0,0,.27-.28c.23-.89.49-1.78.77-2.66a5.51,5.51,0,0,0,.78-.24,2.54,2.54,0,0,0,1.41-2.31c.72.13,1.39.44,2.09.64a125.7,125.7,0,0,1,12.69,5.8,22.71,22.71,0,0,1,3.52,2.23l0,0,.25.21,0,.05.23.2.06.05.27.26a4.3,4.3,0,0,1,.41.47,2.42,2.42,0,0,1,.43,1,2.33,2.33,0,0,1,0,.53A3.21,3.21,0,0,1,187.4,147.13Z" transform="translate(-108.48 -104.18)"/><path class="cls-7" d="M162.71,174.43c1.9-1.23,4.23-1.72,5.9-3.33-1.48.21-9.93,4.7-12.17,6.45A64.19,64.19,0,0,0,162.71,174.43Z" transform="translate(-108.48 -104.18)"/><path class="cls-7" d="M114.76,191.77c1.9-1.23,4.22-1.72,5.9-3.33-1.49.2-9.94,4.7-12.18,6.45A64.36,64.36,0,0,0,114.76,191.77Z" transform="translate(-108.48 -104.18)"/><path class="cls-7" d="M123.78,190.13c1.9-1.23,4.23-1.72,5.9-3.33-1.48.2-9.94,4.7-12.18,6.45A64.36,64.36,0,0,0,123.78,190.13Z" transform="translate(-108.48 -104.18)"/><path class="cls-7" d="M118.39,160.11c.2-.18.39-.38.14-.62s-.51,0-.68.13a9.07,9.07,0,0,0-3.22,6.88A15.45,15.45,0,0,1,118.39,160.11Z" transform="translate(-108.48 -104.18)"/><path class="cls-7" d="M190.86,145.14c-.26,2.16-.51,4-1.57,5.65A4.81,4.81,0,0,0,190.86,145.14Z" transform="translate(-108.48 -104.18)"/><path class="cls-8" d="M158.59,109.22A8.56,8.56,0,1,0,164.21,120,8.56,8.56,0,0,0,158.59,109.22Z" transform="translate(-108.48 -104.18)"/><path class="cls-7" d="M154.39,114.64a2.77,2.77,0,0,0-1.11,1.62c-.32,1.72,1.24,3.06.95,4.48-.21,1.08-.37,1.45.42,1.66.59.15.71.21,1.2-1.29.41-1.26,2.89-1.52,3.37-3.7C159.81,114.75,155.93,113.63,154.39,114.64Z" transform="translate(-108.48 -104.18)"/><polygon class="cls-9" points="41.91 5.88 39.1 3.26 39.96 2.51 42.22 5.58 41.91 5.88"/><polygon class="cls-9" points="44 4.43 45.35 0.64 46.53 1.11 44.4 4.49 44 4.43"/><polygon class="cls-9" points="42.76 5 41.36 0.45 42.59 0 43.31 4.73 42.76 5"/></g></svg>