<svg xmlns="http://www.w3.org/2000/svg" viewBox="0 0 75.36 55.17"><defs><style>.cls-1{fill:#ebc882;}.cls-2{fill:#f7eecd;}.cls-3{fill:#e7a896;}.cls-4{fill:#c6c65c;}.cls-5{fill:#f6bfab;}.cls-6{fill:#bb906c;}.cls-7{fill:#dfb772;}.cls-8{fill:#cfa666;}.cls-9{fill:#ad805e;}.cls-10{fill:#e8ddb6;}.cls-11{fill:#b3b14a;}.cls-12{fill:#c69857;}.cls-13{fill:#eb6c43;}.cls-14{fill:#6581a5;}.cls-15{fill:#fff;}.cls-16{fill:none;stroke:#6581a5;stroke-miterlimit:10;stroke-width:0.75px;}.cls-17{fill:#231b00;}</style></defs><g id="圖層_1" data-name="圖層 1"><path class="cls-1" d="M159.22,139.86c1.05-.68,2.11-1.34,3.18-2,1.76-1.07,3.4-2.31,5.14-3.41,4.75-3,9.33-6.23,14.05-9.28l4.2-2.75c1.63-1.07,3.27-2.14,4.89-3.22a9.63,9.63,0,0,0,.93-.8,16.88,16.88,0,0,0-3.89-.75.82.82,0,0,0-.5.13c-1.14.68-2.39,1.18-3.45,1.93-2.94,2.09-6.11,3.78-9.09,5.78-2.26,1.51-4.64,2.84-7,4.26-.45.27-.84.64-1.3.87-1.79.87-3.35,2.12-5.09,3.07-.88.48-1.61,1.21-2.47,1.75-1.28.82-2.52,1.72-4,2.58a15.7,15.7,0,0,1,3.64,1.85A.57.57,0,0,0,159.22,139.86Z" transform="translate(-143.38 -113.97)"/><path class="cls-2" d="M190.78,117.37a2.89,2.89,0,0,1,2.08,1.22,20.08,20.08,0,0,1,2.46,3.94h0a15.1,15.1,0,0,0,2.12-.8,21.18,21.18,0,0,0,2.25-1.34,7.72,7.72,0,0,0,2.64-3,3.4,3.4,0,0,0-3.38-2.43c-1.77.13-3.54.31-5.3.5A24.14,24.14,0,0,0,189,116.5c-.18.06-.52.06-.45.5C189.27,117.12,190,117.29,190.78,117.37Z" transform="translate(-143.38 -113.97)"/><path class="cls-2" d="M195.81,123.7l0-.06Z" transform="translate(-143.38 -113.97)"/><path class="cls-2" d="M196.12,124.61c0-.08-.05-.15-.07-.22S196.1,124.53,196.12,124.61Z" transform="translate(-143.38 -113.97)"/><path class="cls-2" d="M196,124.14l-.06-.16Z" transform="translate(-143.38 -113.97)"/><path class="cls-2" d="M202.43,117.84v0Z" transform="translate(-143.38 -113.97)"/><path class="cls-2" d="M202.4,117.66v0Z" transform="translate(-143.38 -113.97)"/><path class="cls-2" d="M202.45,118v0Z" transform="translate(-143.38 -113.97)"/><path class="cls-2" d="M202.37,117.5v0Z" transform="translate(-143.38 -113.97)"/><path class="cls-2" d="M196.26,125.09a2.76,2.76,0,0,0-.08-.27A2.76,2.76,0,0,1,196.26,125.09Z" transform="translate(-143.38 -113.97)"/><path class="cls-2" d="M202.46,118.18v0Z" transform="translate(-143.38 -113.97)"/><path class="cls-2" d="M196.43,125.72l-.12-.46Z" transform="translate(-143.38 -113.97)"/><path class="cls-3" d="M152.26,154l-.35-.42Z" transform="translate(-143.38 -113.97)"/><path class="cls-3" d="M157,153.2a2.46,2.46,0,0,1,0,.28A2.46,2.46,0,0,0,157,153.2Z" transform="translate(-143.38 -113.97)"/><path class="cls-3" d="M156.9,152.32c0,.08,0,.15,0,.23C156.93,152.47,156.91,152.4,156.9,152.32Z" transform="translate(-143.38 -113.97)"/><path class="cls-3" d="M151.81,153.46l-.25-.3Z" transform="translate(-143.38 -113.97)"/><path class="cls-3" d="M157,152.92c0,.06,0,.13,0,.19S157,153,157,152.92Z" transform="translate(-143.38 -113.97)"/><path class="cls-3" d="M156.74,151.72l.15.56Z" transform="translate(-143.38 -113.97)"/><path class="cls-3" d="M157,152.63l0,.19Z" transform="translate(-143.38 -113.97)"/><path class="cls-3" d="M156.65,151.45a2,2,0,0,1,.08.26A2,2,0,0,0,156.65,151.45Z" transform="translate(-143.38 -113.97)"/><path class="cls-3" d="M150.45,151.73l-.28-.4Z" transform="translate(-143.38 -113.97)"/><path class="cls-3" d="M151.45,153l-.23-.3Z" transform="translate(-143.38 -113.97)"/><path class="cls-4" d="M150.14,151.29c-.21-.31-.42-.62-.61-.94a16.76,16.76,0,0,0,2.95.87,9.63,9.63,0,0,0,4.07-.06l.09.27a17.26,17.26,0,0,0-.71-1.72,18.53,18.53,0,0,0-3.39-5.49,4.94,4.94,0,0,0-2.6-1.55c-1.51-.2-2.09.25-2.27,1.49a6.22,6.22,0,0,0,.33,3.08A18.43,18.43,0,0,0,150.14,151.29Z" transform="translate(-143.38 -113.97)"/><path class="cls-3" d="M150.78,152.17c-.09-.11-.17-.23-.25-.34C150.61,151.94,150.69,152.06,150.78,152.17Z" transform="translate(-143.38 -113.97)"/><path class="cls-3" d="M151.11,152.6l-.24-.31Z" transform="translate(-143.38 -113.97)"/><path class="cls-5" d="M162.57,146.81c0,.14.09.29.13.44C162.66,147.1,162.61,147,162.57,146.81Z" transform="translate(-143.38 -113.97)"/><path class="cls-5" d="M157.85,154a.41.41,0,0,1,0-.11A.41.41,0,0,0,157.85,154Z" transform="translate(-143.38 -113.97)"/><path class="cls-5" d="M157.81,153.63s0-.09,0-.13S157.81,153.59,157.81,153.63Z" transform="translate(-143.38 -113.97)"/><path class="cls-5" d="M157.22,151l0,0Z" transform="translate(-143.38 -113.97)"/><path class="cls-5" d="M157,150.24v0Z" transform="translate(-143.38 -113.97)"/><path class="cls-5" d="M156.82,149.9l0-.06Z" transform="translate(-143.38 -113.97)"/><path class="cls-5" d="M157.76,153.26a.69.69,0,0,0,0-.13A.69.69,0,0,1,157.76,153.26Z" transform="translate(-143.38 -113.97)"/><path class="cls-5" d="M157.34,151.36l0-.09Z" transform="translate(-143.38 -113.97)"/><path class="cls-5" d="M157.44,151.71l0-.1Z" transform="translate(-143.38 -113.97)"/><path class="cls-4" d="M154.1,145.07a34.37,34.37,0,0,1,2.06,3.44h0a12.12,12.12,0,0,0,1.82-.3,16,16,0,0,0,2.62-.85,14.67,14.67,0,0,0,1.82-1c0,.14.09.28.14.42a14,14,0,0,0-2.83-5,11.35,11.35,0,0,0-4.14-2.77,2.41,2.41,0,0,0-2.82.28c-.51.47-1.14.8-1.7,1.22a4.05,4.05,0,0,0-1.3,1.21,4.38,4.38,0,0,0,.57.29A7.53,7.53,0,0,1,154.1,145.07Z" transform="translate(-143.38 -113.97)"/><path class="cls-5" d="M157.53,152.06l0-.09A.29.29,0,0,1,157.53,152.06Z" transform="translate(-143.38 -113.97)"/><path class="cls-5" d="M156.67,149.55l0,0Z" transform="translate(-143.38 -113.97)"/><path class="cls-5" d="M157.7,152.87a.44.44,0,0,0,0-.1A.44.44,0,0,1,157.7,152.87Z" transform="translate(-143.38 -113.97)"/><path class="cls-6" d="M164.24,143.66l-.28.19Z" transform="translate(-143.38 -113.97)"/><path class="cls-6" d="M163.9,143.89l-.29.19Z" transform="translate(-143.38 -113.97)"/><path class="cls-6" d="M164.52,143.45l-.27.2Z" transform="translate(-143.38 -113.97)"/><path class="cls-7" d="M164.84,143.2l-.27.21c.75-.56,1.46-1.17,2.25-1.67,3-1.92,6-4,8.92-6s5.78-4,8.77-5.87,5.75-4,8.6-6l1.11-.8a.71.71,0,0,0,.33-.52,2.51,2.51,0,0,0-.35-.85c-.43-.64-.85-1.28-1.28-1.91-.56-.83-.66-.86-1.5-.32-1.2.78-2.38,1.58-3.57,2.37l-11,7.26L169.44,134c-2.27,1.5-4.55,3-6.8,4.49a17.53,17.53,0,0,0-2.56,1.62c-.51.48-.55.47-.08.92a9.27,9.27,0,0,1,1.6,2.14h.12A13,13,0,0,0,164.84,143.2Z" transform="translate(-143.38 -113.97)"/><path class="cls-8" d="M173.62,139.74c1.52-.87,3.1-1.61,4.63-2.47a59.94,59.94,0,0,0,5.27-3.33,47.53,47.53,0,0,0,8.55-7.85c.43-.5.85-1,1.25-1.55l1-.61a41.28,41.28,0,0,0-3.47,2.34c-1.35,1.06-2.76,2-4.19,3-2.44,1.62-4.95,3.13-7.4,4.75-1.94,1.3-3.83,2.67-5.73,4-2.39,1.72-4.93,3.22-7.3,5a18.25,18.25,0,0,0,2.52-.75A33.78,33.78,0,0,0,173.62,139.74Z" transform="translate(-143.38 -113.97)"/><path class="cls-9" d="M164.9,144l.62-.49Z" transform="translate(-143.38 -113.97)"/><path class="cls-9" d="M165.6,143.45l.6-.45Z" transform="translate(-143.38 -113.97)"/><path class="cls-10" d="M199.69,120.39a21.18,21.18,0,0,1-2.25,1.34,15.1,15.1,0,0,1-2.12.8h0c.16.36.32.73.46,1.11l0,.06c0,.09.07.18.1.28l.06.16c0,.08.05.16.08.25s0,.14.07.22l.06.21a2.76,2.76,0,0,1,.08.27,1.09,1.09,0,0,1,.05.17l.12.46c.07.32.08.69.39.92a.61.61,0,0,0,.2-.09c1.69-1.89,3.22-3.92,4.77-5.94a3.71,3.71,0,0,0,.67-2.23V118a.81.81,0,0,0,0-.16v0a.59.59,0,0,0,0-.13v0a.3.3,0,0,0,0-.1v-.06s0-.09,0-.14A7.72,7.72,0,0,1,199.69,120.39Z" transform="translate(-143.38 -113.97)"/><path class="cls-11" d="M152.48,151.22a16.76,16.76,0,0,1-2.95-.87c.19.32.4.63.61.94l0,0,.28.4.08.1c.08.11.16.23.25.34l.09.12.24.31.11.13.23.3.11.13.25.3.1.12.35.42a15.48,15.48,0,0,0,1.43,1.37,2.06,2.06,0,0,0,2.44.26,2,2,0,0,0,.93-2.15,2.46,2.46,0,0,0,0-.28s0-.06,0-.09,0-.13,0-.19,0-.07,0-.1l0-.19s0,0,0-.08,0-.15,0-.23v0l-.15-.56h0a2,2,0,0,0-.08-.26v0l-.09-.27A9.63,9.63,0,0,1,152.48,151.22Z" transform="translate(-143.38 -113.97)"/><path class="cls-11" d="M160.6,147.36a16,16,0,0,1-2.62.85,12.12,12.12,0,0,1-1.82.3h0c.18.33.34.66.49,1l0,0,.12.29,0,.06.12.29v.05c.09.23.18.46.25.69l0,0,.09.3,0,.09a2.33,2.33,0,0,1,.07.25l0,.1c0,.09.05.18.07.26l0,.09c.06.24.11.47.15.71a.44.44,0,0,1,0,.1c0,.09,0,.18,0,.26a.69.69,0,0,1,0,.13c0,.08,0,.16,0,.24s0,.09,0,.13l0,.26a.41.41,0,0,0,0,.11c0,.13,0,.25,0,.38.72-.45,1.31-1,2-1.4.87-.51,1.64-1.17,2.48-1.74a1.78,1.78,0,0,0,.73-1.42,6.76,6.76,0,0,0-.36-2.57c0-.15-.09-.3-.13-.44v0c-.05-.14-.1-.28-.14-.42A14.67,14.67,0,0,1,160.6,147.36Z" transform="translate(-143.38 -113.97)"/><path class="cls-8" d="M162.92,144.55c.23-.16.45-.32.69-.47l.29-.19.06,0,.28-.19h0l.27-.2,0,0,.27-.21a13,13,0,0,1-3.12,0h-.12c.08.13.16.26.23.39l.49.81C162.47,144.66,162.66,144.73,162.92,144.55Z" transform="translate(-143.38 -113.97)"/><path class="cls-12" d="M195.28,124.29c-.31-.66-.4-.74-1-.36l-1,.61c-.4.53-.82,1-1.25,1.55a47.53,47.53,0,0,1-8.55,7.85,59.94,59.94,0,0,1-5.27,3.33c-1.53.86-3.11,1.6-4.63,2.47a33.78,33.78,0,0,1-4.9,2.51,18.25,18.25,0,0,1-2.52.75h0l-.6.45-.08.06-.62.49c-.43.35-1,.59-1.37.95s-.64.54-.48,1.06a12.05,12.05,0,0,1,.8,4,2.39,2.39,0,0,0,1.16-.6c1.92-1.38,3.79-2.86,5.79-4.13,2.88-1.84,5.64-3.84,8.38-5.89,3.07-2.3,6.28-4.15,9.41-6.38.53-.38,2.21-1.52,2.84-2,.26-.19.86-.5,1.08-.71a39.2,39.2,0,0,1,3.35-2.67c.17-.12.37-.26.28-.5C195.77,126.24,195.72,125.21,195.28,124.29Z" transform="translate(-143.38 -113.97)"/><path class="cls-13" d="M203.27,118.12a4.39,4.39,0,0,0,1-2.66.85.85,0,0,0-.8-.83,7,7,0,0,0-2.39.08A6.36,6.36,0,0,1,203.27,118.12Z" transform="translate(-143.38 -113.97)"/><path class="cls-14" d="M185.54,168.65c.41-.16-.11-.39-.15-.49-2.68-.09-3.34-.31-4.21-.3-.24,0-.58,0-.59.27s.34.38.63.39C181.33,168.52,185.4,168.7,185.54,168.65Z" transform="translate(-143.38 -113.97)"/><path class="cls-14" d="M163.51,156.56a2.21,2.21,0,0,0-1.1-.26c-.79-.09-1.57-.14-2.36-.18-.47.31-.75.51.45.72.64,0,1.27.11,1.9.21a4.53,4.53,0,0,0,1,0,.2.2,0,0,0,.2-.2A.34.34,0,0,0,163.51,156.56Z" transform="translate(-143.38 -113.97)"/><path class="cls-14" d="M204.86,115.56c.08-1.27-.48-1.61-1.74-1.59a105.62,105.62,0,0,0-12.63,1.37,6.77,6.77,0,0,0-3.68,1.82,2.31,2.31,0,0,1-.6.42c-1.7,1-3.38,2-5,3-2.73,1.75-5.5,3.43-8.25,5.15l-7.11,4.42c-1.74,1.09-3.48,2.17-5.2,3.29-1.9,1.24-3.73,2.57-5.65,3.78a63,63,0,0,0-5.34,3.66,10.59,10.59,0,0,1-1.32,1,3.14,3.14,0,0,0-1.51,2.81,7.05,7.05,0,0,0,.77,3.42,24.45,24.45,0,0,0,4.81,7c1.56,1.59,2.24,1.75,4.33.87.16-.07,1.13-.69,1.24-.76a10.51,10.51,0,0,1,1.85-1.54c2.19-1.48,4.39-3,6.55-4.5,1.88-1.33,3.68-2.79,5.67-3.95a64.76,64.76,0,0,0,6.24-4.39c2-1.49,4-2.93,6-4.37,1-.73,2-1.45,3-2.19.49-.35,1-.71,1.44-1.07s5.78-4,6.44-4.36a11.39,11.39,0,0,0,3.28-3c1.63-2.18,3.42-4.24,4.91-6.52A7.81,7.81,0,0,0,204.86,115.56Zm-46,19.88c.86-.54,1.59-1.27,2.47-1.75,1.74-.95,3.3-2.2,5.09-3.07.46-.23.85-.6,1.3-.87,2.32-1.42,4.7-2.75,7-4.26,3-2,6.15-3.69,9.09-5.78,1.06-.75,2.31-1.25,3.45-1.93a.82.82,0,0,1,.5-.13,16.88,16.88,0,0,1,3.89.75,9.63,9.63,0,0,1-.93.8c-1.62,1.08-3.26,2.15-4.89,3.22l-4.2,2.75c-4.72,3-9.3,6.29-14.05,9.28-1.74,1.1-3.38,2.34-5.14,3.41-1.07.66-2.13,1.32-3.18,2a.57.57,0,0,1-.76,0,15.7,15.7,0,0,0-3.64-1.85C156.34,137.16,157.58,136.26,158.86,135.44Zm34.06-15.64c.43.63.85,1.27,1.28,1.91a2.51,2.51,0,0,1,.35.85.71.71,0,0,1-.33.52l-1.11.8c-2.85,2-5.63,4.1-8.6,6s-5.89,3.84-8.77,5.87-5.89,4.12-8.92,6c-.79.5-1.5,1.11-2.25,1.67l0,0-.27.2h0l-.28.19-.06,0-.29.19c-.24.15-.46.31-.69.47s-.45.11-.6-.15l-.49-.81c-.07-.13-.15-.26-.23-.39a9.27,9.27,0,0,0-1.6-2.14c-.47-.45-.43-.44.08-.92a17.53,17.53,0,0,1,2.56-1.62c2.25-1.52,4.53-3,6.8-4.49l7.41-4.92,11-7.26c1.19-.79,2.37-1.59,3.57-2.37C192.26,118.94,192.36,119,192.92,119.8Zm-36.79,35.83a2.06,2.06,0,0,1-2.44-.26,15.48,15.48,0,0,1-1.43-1.37l-.35-.42-.1-.12-.25-.3-.11-.13-.23-.3-.11-.13-.24-.31-.09-.12c-.09-.11-.17-.23-.25-.34l-.08-.1-.28-.4,0,0a18.43,18.43,0,0,1-2.14-4,6.22,6.22,0,0,1-.33-3.08c.18-1.24.76-1.69,2.27-1.49a4.94,4.94,0,0,1,2.6,1.55,18.53,18.53,0,0,1,3.39,5.49,17.26,17.26,0,0,1,.71,1.72v0a2,2,0,0,1,.08.26h0l.15.56v0c0,.08,0,.15,0,.23s0,0,0,.08l0,.19s0,.07,0,.1,0,.13,0,.19,0,.06,0,.09a2.46,2.46,0,0,1,0,.28A2,2,0,0,1,156.13,155.63Zm6.2-4.39c-.84.57-1.61,1.23-2.48,1.74-.67.41-1.26,1-2,1.4,0-.13,0-.25,0-.38a.41.41,0,0,1,0-.11l0-.26s0-.09,0-.13,0-.16,0-.24a.69.69,0,0,0,0-.13c0-.08,0-.17,0-.26a.44.44,0,0,0,0-.1c0-.24-.09-.47-.15-.71l0-.09c0-.08,0-.17-.07-.26l0-.1a2.33,2.33,0,0,0-.07-.25l0-.09-.09-.3,0,0c-.07-.23-.16-.46-.25-.69v-.05l-.12-.29,0-.06-.12-.29,0,0c-.15-.34-.31-.67-.49-1a34.37,34.37,0,0,0-2.06-3.44,7.53,7.53,0,0,0-3.76-3,4.38,4.38,0,0,1-.57-.29,4.05,4.05,0,0,1,1.3-1.21c.56-.42,1.19-.75,1.7-1.22a2.41,2.41,0,0,1,2.82-.28,11.35,11.35,0,0,1,4.14,2.77,14,14,0,0,1,2.83,5v0c0,.15.09.29.13.44a6.76,6.76,0,0,1,.36,2.57A1.78,1.78,0,0,1,162.33,151.24Zm33.53-23.55c-1.13.87-6.8,4.63-7.34,5-3.12,2.23-6.27,4.43-9.34,6.73-2.74,2-5.5,4-8.38,5.89-2,1.27-3.87,2.75-5.79,4.13a2.39,2.39,0,0,1-1.16.6,12.05,12.05,0,0,0-.8-4c-.16-.52.18-.8.48-1.06s.94-.6,1.37-.95l.62-.49.08-.06.6-.45h0c2.37-1.75,4.91-3.25,7.3-5,1.9-1.37,3.79-2.74,5.73-4,2.45-1.62,5-3.13,7.4-4.75,1.43-.94,2.84-1.91,4.19-3a41.28,41.28,0,0,1,3.47-2.34c.59-.38.68-.3,1,.36.44.92.49,1.95.86,2.9C196.23,127.43,196,127.57,195.86,127.69Zm5.93-7.08c-1.55,2-3.08,4-4.77,5.94a.61.61,0,0,1-.2.09c-.31-.23-.32-.6-.39-.92l-.12-.46a1.09,1.09,0,0,0-.05-.17,2.76,2.76,0,0,0-.08-.27l-.06-.21c0-.08-.05-.15-.07-.22s-.05-.17-.08-.25l-.06-.16c0-.1-.07-.19-.1-.28l0-.06c-.14-.38-.3-.75-.46-1.11a20.08,20.08,0,0,0-2.46-3.94,2.89,2.89,0,0,0-2.08-1.22c-.76-.08-1.51-.25-2.25-.37-.07-.44.27-.44.45-.5a24.14,24.14,0,0,1,4.67-1.07c1.76-.19,3.53-.37,5.3-.5a3.4,3.4,0,0,1,3.38,2.43s0,.1,0,.14v.06a.3.3,0,0,1,0,.1v0a.59.59,0,0,1,0,.13v0a.81.81,0,0,1,0,.16v.36A3.71,3.71,0,0,1,201.79,120.61Zm1.48-2.49a6.36,6.36,0,0,0-2.18-3.41,7,7,0,0,1,2.39-.08.85.85,0,0,1,.8.83A4.39,4.39,0,0,1,203.27,118.12Z" transform="translate(-143.38 -113.97)"/><path class="cls-14" d="M145.74,139.08c.41-.28.91-.52,1-1.17-1.35.57-2.62,1.25-3.1,2.77a4.87,4.87,0,0,0,.71,4.45,7.42,7.42,0,0,1-.28-3A3.71,3.71,0,0,1,145.74,139.08Z" transform="translate(-143.38 -113.97)"/><path class="cls-14" d="M145.69,155.86c.84.06,4.53.15,5.54.22.22,0,.46,0,.5-.23s-.24-.38-.48-.45a1.55,1.55,0,0,0-.31,0c-1.15,0-2.29-.11-3.44-.17-.8,0-1.61,0-2.41,0-.19,0-.36,0-.4.23s.19.32.38.36A4.2,4.2,0,0,0,145.69,155.86Z" transform="translate(-143.38 -113.97)"/><path class="cls-14" d="M190.84,168.38s0,0-.05,0l-.08.11c0,.09,0,.18,0,.26a.24.24,0,0,0,.08.14.53.53,0,0,0,.25.12c.51.05,1,.1,1.54.1.2,0,.41,0,.7-.4A16,16,0,0,0,190.84,168.38Z" transform="translate(-143.38 -113.97)"/><path class="cls-15" d="M194,133.68c-.37-.8-.48-1.43.13-5.61a8.79,8.79,0,0,1,.54-1.92,1.55,1.55,0,0,1,1.48-.6,1.89,1.89,0,0,1,1.12.71,2.1,2.1,0,0,1,.33.67,2.59,2.59,0,0,1,.09.4,6.67,6.67,0,0,1,.06.67c0,.48,0,1,0,1.45,0,.24,0,.48,0,.72s0,.48-.07.71a2.28,2.28,0,0,0,0,.26,4,4,0,0,0,0,.49c0,.07,0,.15,0,.23a4.91,4.91,0,0,0,.12.88,3.84,3.84,0,0,0,.2.6,5.23,5.23,0,0,0,1,1.57,6.33,6.33,0,0,0,.44.46,14.52,14.52,0,0,0,1.52,1.26c.34.25.7.54,1.06.85l.28.24.56.47.29.24.6.45c.2.14.41.28.62.4l.31.18a5.69,5.69,0,0,0,1,.41,1,1,0,0,1,.18.15l.07.08a1,1,0,0,1,.11.15.64.64,0,0,1,.08.14,3.24,3.24,0,0,1,.31.79,7.05,7.05,0,0,1,.18,1.13c0,.53.07,1,.1,1.55.06,1,.1,2,.14,3,0,.5,0,1,.06,1.55a9.45,9.45,0,0,0,.19,1.6c0,.13,0,.26.08.39s.14.51.22.76a8.41,8.41,0,0,0,1.81,3,3.1,3.1,0,0,1,.6.93,1.6,1.6,0,0,1,.05,1.08,1.72,1.72,0,0,1-.25.43,1.48,1.48,0,0,1-.25.25l-.16.12a1.66,1.66,0,0,1-.32.17,1.37,1.37,0,0,1-.66.08,1.76,1.76,0,0,1-.64-.2l-.15-.09a2.11,2.11,0,0,1-.31-.21l-.28-.26a9.26,9.26,0,0,1-.69-.73c-.1-.12-.2-.23-.29-.35l-.13-.17c-.22-.29-.4-.56-.56-.81s-.12-.2-.18-.3a6.62,6.62,0,0,1-.63-1.43,4.8,4.8,0,0,0,.12-.67c0-.26.08-.55.12-.86s0-.42.09-.64.1-.68.18-1,.1-.47.16-.71.14-.48.22-.71l.12-.35h0s0,0,0-.06a.14.14,0,0,0,0-.06c.13-.27.42-.58-.07-.66-.32-.06-.4.21-.47.45,0,.06,0,.11,0,.16a14.51,14.51,0,0,0-.51,1.79c-.14.6-.25,1.21-.36,1.82,0,.24-.08.48-.13.73s-.09.48-.14.72-.11.49-.17.73-.17.71-.25,1.07c-.12.54-.23,1.08-.36,1.62-.08.35-.17.71-.26,1.07l-.15.52a7.52,7.52,0,0,0-.33,1.54,4.86,4.86,0,0,0,0,.54,1,1,0,0,0,0,.17,1.65,1.65,0,0,0,.06.32,2.32,2.32,0,0,0,.16.44,2,2,0,0,0,.25.39,2.62,2.62,0,0,0,.22.25,3.4,3.4,0,0,0,.4.34,6.13,6.13,0,0,0,.68.43l.41.21.45.2.45.19a11.65,11.65,0,0,1,1.33.64,2.1,2.1,0,0,1,.87.82,1.4,1.4,0,0,1,.09.29.77.77,0,0,1,0,.15,2.41,2.41,0,0,1-.14.8l-.07.18a1.34,1.34,0,0,1-.07.18,1.54,1.54,0,0,1-2.22.73c-1.82-.72-3.62-1.51-5.45-2.22a1.8,1.8,0,0,1-1.13-1.47c0-.28-.09-.58-.13-.9s-.05-.5-.07-.75-.05-.53-.07-.79c0-.53-.06-1.06-.08-1.57,0-.17,0-.33,0-.49,0-.4,0-.77,0-1.09,0-.13,0-.25,0-.36,0-.39,0-.66,0-.76a1.65,1.65,0,0,0-1.49-1.71.92.92,0,0,0-.79.1,2.4,2.4,0,0,0-.8,1.05c-.39.8-.88,1.92-1.42,3.14-.06.14-.12.29-.19.44s-.12.29-.19.44l-.19.45-.39.91-.19.45-.19.45c-.41,1-.81,1.91-1.15,2.73l-.16.36c-.12.3-.24.58-.35.83l-.12.29-.06.14c0,.09-.08.17-.11.25-.14.31-.24.55-.31.69a3.42,3.42,0,0,1-.26.46,2.88,2.88,0,0,1-.3.39,1.4,1.4,0,0,1-1,.43,2.87,2.87,0,0,1-.39,0l-.21-.06c-1.2-.34-1.39-1-1.11-2.13a63.75,63.75,0,0,1,2.5-7.36c.22-.55.44-1.11.65-1.67l2.83-8,2.82-8a7.19,7.19,0,0,0-.18-4.35A14,14,0,0,0,194,133.68Z" transform="translate(-143.38 -113.97)"/><path class="cls-14" d="M194.06,126.12c.1-.14.31-.56.42-.69,1-1.25,2.69-.19,2.94,0,1,.88,1.18,2.58,1,3.83a8.7,8.7,0,0,0,0,3.37c.65,2.21,2.51,2.88,2.9,3.33a.13.13,0,0,1,0-.06,3.09,3.09,0,0,0,.95.6,8,8,0,0,0,.83.69,6.07,6.07,0,0,0,2.42,1.56,3.56,3.56,0,0,0,.68.14,3.65,3.65,0,0,0,.14.35,1.17,1.17,0,0,1,0,.11l0,.11a.93.93,0,0,0,.05.1h0c1.57,3.19.85,5.71,1,8.58a8.24,8.24,0,0,0,1.82,5.13c1.66,2.21,1.47,2.87.73,3.78a2.12,2.12,0,0,1-3,.45,5.23,5.23,0,0,1-1.83-2c-.15-.29-.8-1.11-1.17-1.77l-.58,2.44c-1.05,4.88-1.31,4.17,2.5,6.07,2.39,1.19,3.31,2.41,1.35,4.86-.56.43-2,.08-2.57-.15-2-.74-3.05-1.23-5-2a3.15,3.15,0,0,1-2-3c-.53-5.2,0-6.73-1-6.91-.58-.1-1.09.67-1.27,1.06-2.08,4.48-4.93,11.69-5.36,12.19a2.58,2.58,0,0,1-2.24.74c-.9-.31-2.33-1-1.82-2.93.16-.59.36-1.18.57-1.75,2.69-7.28,5.51-15.76,8.15-23.05a5.17,5.17,0,0,0,.41-3c-.09-1.78-2-5-2-5.81,0-.23.11-1.7.16-2.46A21.49,21.49,0,0,1,194.06,126.12Zm.08,1.95c-.61,4.18-.5,4.81-.13,5.61a14,14,0,0,1,1.27,3,7.19,7.19,0,0,1,.18,4.35l-2.82,8-2.83,8c-.21.56-.43,1.12-.65,1.67a63.75,63.75,0,0,0-2.5,7.36c-.28,1.12-.09,1.79,1.11,2.13l.21.06a2.87,2.87,0,0,0,.39,0,1.4,1.4,0,0,0,1-.43,2.88,2.88,0,0,0,.3-.39,3.42,3.42,0,0,0,.26-.46c.07-.14.17-.38.31-.69,0-.08.07-.16.11-.25l.06-.14.12-.29c.11-.25.23-.53.35-.83l.16-.36c.34-.82.74-1.76,1.15-2.73l.19-.45.19-.45.39-.91.19-.45c.07-.15.13-.3.19-.44s.13-.3.19-.44c.54-1.22,1-2.34,1.42-3.14a2.4,2.4,0,0,1,.8-1.05.92.92,0,0,1,.79-.1A1.65,1.65,0,0,1,198,156c0,.1,0,.37,0,.76,0,.11,0,.23,0,.36,0,.32,0,.69,0,1.09,0,.16,0,.32,0,.49,0,.51,0,1,.08,1.57,0,.26,0,.53.07.79s0,.51.07.75.09.62.13.9a1.8,1.8,0,0,0,1.13,1.47c1.83.71,3.63,1.5,5.45,2.22a1.54,1.54,0,0,0,2.22-.73,1.34,1.34,0,0,0,.07-.18l.07-.18a2.41,2.41,0,0,0,.14-.8.77.77,0,0,0,0-.15,1.4,1.4,0,0,0-.09-.29,2.1,2.1,0,0,0-.87-.82,11.65,11.65,0,0,0-1.33-.64l-.45-.19-.45-.2-.41-.21a6.13,6.13,0,0,1-.68-.43,3.4,3.4,0,0,1-.4-.34,2.62,2.62,0,0,1-.22-.25,2,2,0,0,1-.25-.39,2.32,2.32,0,0,1-.16-.44,1.65,1.65,0,0,1-.06-.32,1,1,0,0,1,0-.17,4.86,4.86,0,0,1,0-.54,7.52,7.52,0,0,1,.33-1.54l.15-.52c.09-.36.18-.72.26-1.07.13-.54.24-1.08.36-1.62.08-.36.16-.72.25-1.07s.12-.48.17-.73.1-.48.14-.72.09-.49.13-.73c.11-.61.22-1.22.36-1.82a14.51,14.51,0,0,1,.51-1.79c0-.05,0-.1,0-.16.07-.24.15-.51.47-.45.49.08.2.39.07.66a.14.14,0,0,1,0,.06s0,0,0,.06l-.12.35c-.08.23-.16.47-.22.71s-.12.47-.16.71-.13.7-.18,1-.07.44-.09.64-.08.6-.12.86a4.8,4.8,0,0,1-.12.67,6.62,6.62,0,0,0,.63,1.43c.06.1.12.19.18.3s.34.52.56.81l.13.17c.09.12.19.23.29.35a9.26,9.26,0,0,0,.69.73l.28.26a2.11,2.11,0,0,0,.31.21l.15.09a1.76,1.76,0,0,0,.64.2,1.37,1.37,0,0,0,.66-.08,1.66,1.66,0,0,0,.32-.17l.16-.12a1.48,1.48,0,0,0,.25-.25,1.72,1.72,0,0,0,.25-.43,1.6,1.6,0,0,0-.05-1.08,3.1,3.1,0,0,0-.6-.93,8.41,8.41,0,0,1-1.81-3c-.08-.25-.15-.51-.22-.76s-.06-.26-.08-.39a9.45,9.45,0,0,1-.19-1.6c0-.54,0-1-.06-1.55,0-1-.08-2-.14-3,0-.51-.06-1-.1-1.55a7.05,7.05,0,0,0-.18-1.13,3.24,3.24,0,0,0-.31-.79.64.64,0,0,0-.08-.14,1,1,0,0,0-.11-.15l-.07-.08a1,1,0,0,0-.18-.15,5.69,5.69,0,0,1-1-.41l-.31-.18c-.21-.12-.42-.26-.62-.4l-.6-.45-.29-.24-.56-.47-.28-.24c-.36-.31-.72-.6-1.06-.85a14.52,14.52,0,0,1-1.52-1.26,6.33,6.33,0,0,1-.44-.46,5.41,5.41,0,0,1-1-1.57,3.84,3.84,0,0,1-.2-.6,4.91,4.91,0,0,1-.12-.88c0-.08,0-.16,0-.23a4,4,0,0,1,0-.49,2.28,2.28,0,0,1,0-.26c0-.23,0-.47.07-.71s0-.48,0-.72c0-.49,0-1,0-1.45a6.67,6.67,0,0,0-.06-.67,2.59,2.59,0,0,0-.09-.4,2.1,2.1,0,0,0-.33-.67,1.89,1.89,0,0,0-1.12-.71,1.55,1.55,0,0,0-1.48.6A8.79,8.79,0,0,0,194.14,128.07Z" transform="translate(-143.38 -113.97)"/><path class="cls-16" d="M211.64,126.26a7.16,7.16,0,1,1-9.93,2A7.16,7.16,0,0,1,211.64,126.26Z" transform="translate(-143.38 -113.97)"/><path class="cls-14" d="M210.44,132.48a2.29,2.29,0,0,1-.72,1.47c-1.12,1-2.73.36-3.65,1.16-.7.6-.9.87-1.37.38s-.45-.43.44-1.4c.74-.82-.09-2.73,1.3-4C208.12,128.59,210.54,130.94,210.44,132.48Z" transform="translate(-143.38 -113.97)"/><polygon class="cls-17" points="72.23 18.01 75.01 18.27 75 17.44 72.25 17.7 72.23 18.01"/><polygon class="cls-17" points="71.92 15.75 73.92 13.63 73.23 13.03 71.75 15.52 71.92 15.75"/><polygon class="cls-17" points="71.96 16.74 75.36 16.15 75.24 15.21 71.95 16.3 71.96 16.74"/></g></svg>