<svg id="圖層_1" data-name="圖層 1" xmlns="http://www.w3.org/2000/svg" viewBox="0 0 40.97 80.14"><defs><style>.cls-1,.cls-3{fill:none;stroke:#fff;}.cls-1{stroke-miterlimit:10;stroke-width:0.83px;}.cls-2{fill:#fff;}.cls-3{stroke-width:0.52px;}</style></defs><path class="cls-1" d="M969.07,521.52A8,8,0,1,1,958.38,525,7.93,7.93,0,0,1,969.07,521.52Z" transform="translate(-939.58 -500.17)"/><path class="cls-2" d="M968.1,528.64a2.59,2.59,0,0,1-.6,1.71c-1.12,1.18-3,.74-3.88,1.72-.69.75-.88,1.07-1.46.59-.43-.35-.54-.41.32-1.59.71-1-.44-3,.93-4.54C965.07,524.66,968,526.94,968.1,528.64Z" transform="translate(-939.58 -500.17)"/><path class="cls-2" d="M977.54,549.09A17.78,17.78,0,0,0,975,543.8a19.4,19.4,0,0,0-5.1-5.5,29.84,29.84,0,0,0-3-1.56l-.11,0,0,0a3.08,3.08,0,0,1-.86-.28l-.35-.19a6.43,6.43,0,0,1-.76.17l.06.14a1.15,1.15,0,0,1,.13.49c.14,0,.24.19.38.16.43.24,1.91.78,2.36,1a11.85,11.85,0,0,1,2.92,1.75,24.56,24.56,0,0,1,5.25,6.93,5,5,0,0,1,.9,2.54c.21,1.11-.63,1.78-1.23,2.59-1.25,1.7-2.26,3.61-4.05,4.87a2.18,2.18,0,0,1-3.26-.44c-.76-.92-.1-2.44.16-2.79.83-1.11,1.68-2.2,2.57-3.27.72-.87.75-.91.13-1.73s-1.37-1.81-2-2.73a.69.69,0,0,0-.89-.33c-.51.13-.33.31-.33.77,0,1,.48,5.75.48,5.75-1.75,3.28-.88,5,.17,5.66a2.2,2.2,0,0,0,.09.75c.39,3.2.81,18.77.72,19.25a3,3,0,0,1-1.35,1.63,2.43,2.43,0,0,1-2.92-.88c-1.16-1.68-2.3-13.7-2.44-14.68a16,16,0,0,0-.89-3.91c-.19-.46-.41-1-1-.9a1.2,1.2,0,0,0-1,1l-.21.71c-.33,1.24-3,15.39-3.65,17.28a2,2,0,0,1-1.45,1.15c-1.78.34-2.61-.65-2.66-2.44a65.07,65.07,0,0,1,.72-9.77c.64-5.16,1.37-10.31,2-15.47.55-4.59,1.42-8.18.37-12.66-.31-1.31-3.26-6.73-3.75-7.69a3.72,3.72,0,0,1,.14-3.81,8.41,8.41,0,0,0,.37-.81,29.79,29.79,0,0,1,4.45-7.16c.51-.63,2.05-1.63,3.33-.84,1,.63,1.37,1,.81,2.21-1,2.1-2.18,4.12-3.12,6.25a1.68,1.68,0,0,0,.23,2.05,1.82,1.82,0,0,1,.23.66c0,.18,0,.36-.07.54A1.37,1.37,0,0,1,958,530h0a3.86,3.86,0,0,1-.14-1.55c-.05.13-.11.27-.15.41,0-.14,0-.27,0-.35h0a.89.89,0,0,1-.08-1c.06-.18.16-.36.22-.55a41.09,41.09,0,0,1,3.19-6.36,1.94,1.94,0,0,0-.84-2.45c-3.35-2.43-6,2-6.26,2.49a40.69,40.69,0,0,0-4,7.58,2.43,2.43,0,0,0-.06,2c.36.81,4.08,7.46,4.45,9.23,1,4.55-1.46,18.55-2.14,24-.51,4.13-.94,8.26-1.23,12.41a7.2,7.2,0,0,0,.14,2.07,2.31,2.31,0,0,0,1.69,1.82c2,.56,3.74-.48,4-1.9.87-4.83,2.07-9.59,2.81-14.44a9.72,9.72,0,0,1,1.09-3.56,1.13,1.13,0,0,1,.56.87c.89,3.61,1.89,14.59,2.78,17.47a3,3,0,0,0,4.29,1.72,3.09,3.09,0,0,0,1.81-3.21c-.16-2.19-.54-14.9-.69-18.41,0-.08,0-.17,0-.25a4.34,4.34,0,0,0,3.13-1.1,1,1,0,0,0,.21-.21,55.19,55.19,0,0,0,4.61-6.16A1.67,1.67,0,0,0,977.54,549.09Zm-7.13.14c.17.27-.06.57-.24.8-.28.39-.59.76-1.12,1.44-.12-1.79-.39-2.58-.54-4.79C969.06,546.69,969.86,548.36,970.41,549.23Z" transform="translate(-939.58 -500.17)"/><path class="cls-2" d="M980.37,549.43c-.08-.27-.26-.59-.61-.52s-.31.45-.21.71a3,3,0,0,1-.94,3.45,2.26,2.26,0,0,0-.75.92,3.56,3.56,0,0,0,2.51-4.56Z" transform="translate(-939.58 -500.17)"/><path class="cls-2" d="M958.06,515.74c.33,0,.8,0,.78-.45s-.43-.28-.72-.32c-1.72-.3-2.76.59-3.49,2A5.17,5.17,0,0,1,958.06,515.74Z" transform="translate(-939.58 -500.17)"/><polygon class="cls-2" points="33.8 24.83 37.59 24.12 37.26 23.03 33.7 24.41 33.8 24.83"/><polygon class="cls-2" points="32.83 22.47 33.72 18.55 32.47 18.31 32.45 22.32 32.83 22.47"/><polygon class="cls-2" points="33.56 23.62 37.19 20.54 36.4 19.49 33.24 23.11 33.56 23.62"/><path class="cls-2" d="M948.46,525.87l2.76-3.47c1-1.31.61-3.41-.94-4.85l2.24-3,3.39-3.11,1.5-.9c1.23,1.42,3,1.95,4.35,1.17l3.81-2.27c1.54-.91,1.83-3.26.64-5.25s-3.38-2.86-4.92-2l-3.81,2.27a2.15,2.15,0,0,0-.24.18l-4.65,2.74-4.19,3.86-6.48,8.78a.76.76,0,0,0-.13.73c-.92,1.41-.35,3.56,1.37,4.94S947.34,527.26,948.46,525.87Z" transform="translate(-939.58 -500.17)"/><path class="cls-3" d="M947.71,527l3.07-3.83c1.16-1.46.67-3.78-1-5.38l2.49-3.28L956,511l1.67-1c1.37,1.57,3.36,2.16,4.82,1.29l4.22-2.51c1.71-1,2-3.61.71-5.82s-3.75-3.16-5.45-2.15l-4.22,2.51a1.28,1.28,0,0,0-.26.2l-5.16,3-4.65,4.27-7.17,9.72a.83.83,0,0,0-.14.81c-1,1.56-.4,4,1.52,5.48S946.47,528.51,947.71,527Z" transform="translate(-939.58 -500.17)"/></svg>