<?xml version="1.0" encoding="utf-8"?>
<!-- Generator: Adobe Illustrator 24.1.1, SVG Export Plug-In . SVG Version: 6.00 Build 0)  -->
<svg version="1.1" id="圖層_1" xmlns="http://www.w3.org/2000/svg" xmlns:xlink="http://www.w3.org/1999/xlink" x="0px" y="0px"
	 viewBox="0 0 50 50" style="enable-background:new 0 0 50 50;" xml:space="preserve">
<style type="text/css">
	.st0{fill:#5487DE;}
</style>
<path class="st0" d="M48.92,29.21l-2.61-0.42c-0.32-1.76-1.03-3.43-2.07-4.95l1.17-3.16c0.27-0.74-0.15-1.28-0.93-1.19l-4.01,0.45
	c-1.77-1.33-3.86-2.42-6.17-3.21c2.4-1.5,4.01-4.16,4.01-7.2c0-4.69-3.82-8.51-8.51-8.51c-3.67,0-6.8,2.34-7.99,5.6
	C19,8,17.06,10.89,17.06,14.23c0,0.86,0.13,1.68,0.37,2.46c-7.23,2.42-12.3,7.87-12.3,14.16c0,0.02,0,0.04,0,0.06
	c-1.46,0.37-3.44,0.42-4.59-1.46C0.13,28.77,0.01,29.04,0,29.24c0,0,0.11,6.3,5.98,6c0.76,1.92,2.01,3.69,3.64,5.23v7.33h4.41
	l1.8-3.38c2.96,1.23,6.36,1.94,9.98,1.94c3.61,0,7.02-0.71,9.98-1.94l1.8,3.38H42v-7.33c0.65-0.62,1.24-1.27,1.77-1.96l3.55,0.57
	c0.7,0.11,1.36-0.37,1.48-1.07l1.19-7.33C50.1,29.99,49.62,29.32,48.92,29.21z M29.79,4.49c2.77,0,5.02,2.25,5.02,5.02
	c0,1.08-0.35,2.07-0.93,2.89c-0.78-3.54-3.75-6.26-7.42-6.64C27.35,4.97,28.52,4.49,29.79,4.49z M34.92,20.76
	c-0.16,0.45-0.67,0.69-1.12,0.52c-2.55-0.93-5.24-1.4-7.99-1.4c-2.75,0-5.44,0.47-7.99,1.4c-0.1,0.04-0.2,0.05-0.3,0.05
	c-0.36,0-0.69-0.22-0.82-0.57c-0.16-0.45,0.07-0.95,0.52-1.12c1.77-0.64,3.61-1.08,5.48-1.31c-1.3-0.91-2.15-2.41-2.15-4.11
	c0-2.77,2.25-5.02,5.02-5.02c2.77,0,5.02,2.25,5.02,5.02c0,1.67-0.82,3.15-2.09,4.06c2.02,0.21,3.99,0.66,5.89,1.36
	C34.85,19.81,35.08,20.31,34.92,20.76z M40.65,29.57c-0.94,0-1.7-0.76-1.7-1.7c0-0.94,0.76-1.7,1.7-1.7c0.94,0,1.7,0.76,1.7,1.7
	C42.35,28.81,41.59,29.57,40.65,29.57z"/>
</svg>
