<svg id="圖層_1" data-name="圖層 1" xmlns="http://www.w3.org/2000/svg" viewBox="0 0 50 50"><defs><style>.cls-1{fill:#f7f8fc;}.cls-2{fill:#484f59;}.cls-3{fill:#ff8f8f;}.cls-4{fill:#ffc400;}.cls-5{fill:#f6fafb;}.cls-6{fill:#e9f8ff;}.cls-7{fill:#ff7a7a;}.cls-8{fill:#d5e962;}</style></defs><polygon class="cls-1" points="35.64 3.2 1.29 3.2 1.29 27.59 7.26 27.59 7.26 34.07 13.73 27.59 35.64 27.59 35.64 3.2"/><path class="cls-2" d="M6.56,35.77V28.3h-6V2.5H36.34V28.3H14ZM2,26.89H8v5.48l5.47-5.48H34.93v-23H2Z"/><path class="cls-3" d="M1,46.79H2.62V44H1a.31.31,0,0,0-.31.31v2.2A.31.31,0,0,0,1,46.79Z"/><path class="cls-2" d="M2.62,47.49H1a1,1,0,0,1-1-1v-2.2a1,1,0,0,1,1-1H2.62a.7.7,0,0,1,.7.7v2.82A.7.7,0,0,1,2.62,47.49ZM1.41,46.08h.5v-1.4h-.5Z"/><rect class="cls-4" x="2.62" y="43.97" width="39.86" height="2.81"/><path class="cls-2" d="M42.48,47.49H2.62a.7.7,0,0,1-.71-.7V44a.7.7,0,0,1,.71-.7H42.48a.7.7,0,0,1,.7.7v2.82A.7.7,0,0,1,42.48,47.49ZM3.32,46.08H41.77v-1.4H3.32Z"/><path class="cls-5" d="M42.15,45.38a3.61,3.61,0,0,0,.28,1.4l5-1.4-5-1.41A3.66,3.66,0,0,0,42.15,45.38Z"/><path class="cls-2" d="M42.43,47.49a.7.7,0,0,1-.65-.44,4.39,4.39,0,0,1,0-3.34.69.69,0,0,1,.84-.41l5,1.4a.71.71,0,0,1,.51.68.72.72,0,0,1-.51.68l-5,1.4A.63.63,0,0,1,42.43,47.49Zm.48-2.65a2.94,2.94,0,0,0,0,1.08l1.9-.54Z"/><rect class="cls-6" x="2.54" y="43.94" width="3.31" height="2.85"/><path class="cls-2" d="M5.84,47.5H2.54a.7.7,0,0,1-.71-.7V43.94a.71.71,0,0,1,.71-.7h3.3a.71.71,0,0,1,.71.7V46.8A.7.7,0,0,1,5.84,47.5Zm-2.6-1.41h1.9V44.65H3.24Z"/><path class="cls-4" d="M45.78,44.92a3,3,0,0,0,0,.43,2.63,2.63,0,0,0,0,.49l1.62-.46Z"/><path class="cls-2" d="M45.21,46.73l-.12-.79a4.15,4.15,0,0,1-.05-.59,4,4,0,0,1,0-.5l.09-.83L50,45.37Z"/><rect class="cls-2" x="9.73" y="8.64" width="21.45" height="1.41"/><rect class="cls-2" x="9.73" y="12.39" width="21.45" height="1.41"/><rect class="cls-2" x="9.73" y="16.15" width="21.45" height="1.41"/><rect class="cls-2" x="9.73" y="19.91" width="21.45" height="1.41"/><rect class="cls-7" x="5.46" y="8.87" width="1.46" height="0.94"/><rect class="cls-7" x="5.46" y="12.63" width="1.46" height="0.94"/><rect class="cls-7" x="5.46" y="16.39" width="1.46" height="0.94"/><rect class="cls-7" x="5.46" y="20.14" width="1.46" height="0.94"/><path class="cls-8" d="M35.61,26.21l-6.74-9.27a11,11,0,0,1,6.74-2.19Z"/><path class="cls-2" d="M35.61,26.92a.7.7,0,0,1-.57-.29L28.3,17.35a.7.7,0,0,1-.13-.52.72.72,0,0,1,.28-.46,11.68,11.68,0,0,1,7.16-2.32.7.7,0,0,1,.7.7V26.21a.7.7,0,0,1-.49.67A.52.52,0,0,1,35.61,26.92Zm-5.75-9.81,5,6.94V15.48A10.07,10.07,0,0,0,29.86,17.11Z"/><path class="cls-3" d="M35.61,26.21V14.75A11.47,11.47,0,1,1,24.14,26.21a11.1,11.1,0,0,1,4.73-9.27Z"/><path class="cls-2" d="M35.61,38.38A12.18,12.18,0,0,1,23.44,26.21a11.9,11.9,0,0,1,5-9.84.76.76,0,0,1,.53-.13.74.74,0,0,1,.46.29l5.46,7.52v-9.3a.7.7,0,0,1,.71-.7,12.17,12.17,0,0,1,0,24.33ZM28.72,17.94a10.34,10.34,0,0,0-3.87,8.27A10.76,10.76,0,1,0,36.31,15.48V26.21a.7.7,0,0,1-.49.67.69.69,0,0,1-.78-.25Z"/><path class="cls-4" d="M35.6,26.21l10.9,3.55a11.47,11.47,0,0,0-7.36-14.45,10.88,10.88,0,0,0-3.54-.56Z"/><path class="cls-2" d="M46.5,30.46a.76.76,0,0,1-.21,0l-10.9-3.55a.7.7,0,0,1-.49-.67V14.75a.7.7,0,0,1,.7-.7,11.69,11.69,0,0,1,3.76.59A12.18,12.18,0,0,1,47.17,30a.65.65,0,0,1-.35.41A.72.72,0,0,1,46.5,30.46ZM36.31,25.7,46,28.86A10.78,10.78,0,0,0,38.93,16a10.18,10.18,0,0,0-2.62-.5Z"/></svg>