<?xml version="1.0" encoding="utf-8"?>
<!-- Generator: Adobe Illustrator 24.1.1, SVG Export Plug-In . SVG Version: 6.00 Build 0)  -->
<svg version="1.1" id="圖層_1" xmlns="http://www.w3.org/2000/svg" xmlns:xlink="http://www.w3.org/1999/xlink" x="0px" y="0px"
	 viewBox="0 0 50 50" style="enable-background:new 0 0 50 50;" xml:space="preserve">
<style type="text/css">
	.st0{fill:#742680;}
</style>
<path class="st0" d="M26.44,11.3c-0.12-0.09-0.25-0.16-0.38-0.23c1.52-3.01,4.96-3.18,7.35-6.95c0.35-0.59,0.86-1.55,0.5-2.22
	c-1.02-1.4-5.98,0.78-9.46-0.89c-2.22-1.12-4.18-1.23-5.48-0.67c-2.25,1.21-1.17,4.36-0.89,4.89c0.93,1.73,2.6,4.37,4.41,6.02
	C16.04,13.88,6.12,26.49,6.12,35.49C6.12,46.71,15.22,50,26.44,50c11.22,0,20.32-3.29,20.32-14.51
	C46.76,24.26,31.33,15.17,26.44,11.3z M31.99,39.89c-1.02,0.93-2.56,1.51-4.6,1.73v1.73h-2.74v-1.78c-1.59-0.12-2.99-0.59-4.18-1.41
	c-1.19-0.82-1.79-2.26-1.79-4.3v-0.9h5.96v1.13c0,1.24,0.06,2,0.18,2.3c0.12,0.3,0.42,0.45,0.89,0.45c0.4,0,0.7-0.1,0.9-0.31
	c0.2-0.21,0.3-0.52,0.3-0.93c0-1.03-0.09-1.77-0.28-2.21c-0.19-0.44-0.83-0.93-1.92-1.45c-1.82-0.88-3.06-1.52-3.71-1.94
	c-0.65-0.41-1.22-0.99-1.7-1.74c-0.48-0.75-0.72-1.6-0.72-2.55c0-1.37,0.5-2.45,1.51-3.23c1.01-0.78,2.52-1.26,4.54-1.44v-1.47h2.74
	v1.47c1.84,0.18,3.22,0.66,4.13,1.43c0.91,0.77,1.37,1.83,1.37,3.19c0,0.19-0.02,0.48-0.06,0.86h-5.96v-0.76
	c0-0.81-0.07-1.34-0.21-1.59c-0.14-0.25-0.43-0.38-0.89-0.38c-0.36,0-0.64,0.11-0.82,0.32c-0.18,0.22-0.27,0.54-0.27,0.97
	c0,0.72,0.19,1.22,0.56,1.51c0.36,0.29,1.44,0.85,3.22,1.68c1.51,0.7,2.55,1.24,3.1,1.62c0.55,0.38,1.02,0.91,1.39,1.59
	c0.38,0.69,0.57,1.54,0.57,2.56C33.52,37.67,33.01,38.95,31.99,39.89z"/>
</svg>
