<svg id="圖層_1" data-name="圖層 1" xmlns="http://www.w3.org/2000/svg" viewBox="0 0 103.88 111.93"><defs><style>.cls-1{fill:#fff;}</style></defs><path class="cls-1" d="M108.6,83.83C97,91.63,92.56,94,88.11,96.65c-6.57,3.92-10.7,4.46-20.71,4.51-6.74-.1-10.22-5.54,8.47-6.75,11-.71,16.39-4.08,15.5-8.81-1-5.45-18.35-2.77-32.27-2.36-7.21.21-14.62,3.5-19.93,6.48v30.37c19.6-.07,39.64-.58,39.64-.58,5.92,0,8-2.17,8-2.17s19.77-15.54,28-23C123.67,86.3,117,78.16,108.6,83.83Z" transform="translate(-15.14 -13.07)"/><path class="cls-1" d="M30.91,80.49H15.14V125h15.4s3.4-.36,3.61-3.18V84.6A4.07,4.07,0,0,0,30.91,80.49Z" transform="translate(-15.14 -13.07)"/><path class="cls-1" d="M70.22,73.43A30.18,30.18,0,1,0,40,43.25,30.18,30.18,0,0,0,70.22,73.43ZM59.39,52.06,63,48.56a.67.67,0,0,1,.94,0c2.21,2.19,4.34,3.3,6.33,3.3A3.47,3.47,0,0,0,72.73,51a2.71,2.71,0,0,0,.36-3.81,7.9,7.9,0,0,0-2.78-1.7A37.54,37.54,0,0,1,64,42.24a8.75,8.75,0,0,1-2.61-2.82,7,7,0,0,1-.88-3.4,6.74,6.74,0,0,1,2.33-5.13A8.67,8.67,0,0,1,68,28.69V25.56a.67.67,0,0,1,.67-.67h3.62a.67.67,0,0,1,.67.67V29a12.9,12.9,0,0,1,2.81,1,15.91,15.91,0,0,1,3.2,2.48.6.6,0,0,1,.21.49.64.64,0,0,1-.22.49l-3.7,3.38a.68.68,0,0,1-.92,0,6.82,6.82,0,0,0-4.55-2.25,3,3,0,0,0-2,.58,1.45,1.45,0,0,0-.66,1.15,1.67,1.67,0,0,0,.6,1.12,8.64,8.64,0,0,0,3,1.57,27.26,27.26,0,0,1,6,2.91,8.77,8.77,0,0,1,2.62,3,9,9,0,0,1-.06,8,8.38,8.38,0,0,1-2.53,3,10.6,10.6,0,0,1-3.81,1.52v3.61a.67.67,0,0,1-.67.67H68.63a.67.67,0,0,1-.67-.67V57.65A12.2,12.2,0,0,1,64,56.47,18.94,18.94,0,0,1,59.38,53a.67.67,0,0,1-.2-.48A.69.69,0,0,1,59.39,52.06Z" transform="translate(-15.14 -13.07)"/></svg>