<svg id="圖層_1" data-name="圖層 1" xmlns="http://www.w3.org/2000/svg" viewBox="0 0 131.69 129.29"><defs><style>.cls-1{fill:#fff;}</style></defs><path class="cls-1" d="M85.5,29a58.19,58.19,0,1,0,58.19,58.19A58.19,58.19,0,0,0,85.5,29Zm0,102a43.84,43.84,0,1,1,43.84-43.84A43.85,43.85,0,0,1,85.5,131Zm0-79a35.21,35.21,0,1,0,35.22,35.21A35.2,35.2,0,0,0,85.5,51.93Zm0,57.73A22.53,22.53,0,1,1,108,87.14,22.52,22.52,0,0,1,85.5,109.66Zm0-34.9A12.38,12.38,0,1,0,97.88,87.14,12.37,12.37,0,0,0,85.5,74.76Z" transform="translate(-27.31 -16.04)"/><path class="cls-1" d="M115.14,53.84l1-17.19L138,16,136.92,39,159,41.24,137.07,60.37,120.74,58,87.61,89.76s-6.53-1.86-4.2-5.59Z" transform="translate(-27.31 -16.04)"/></svg>