<?xml version="1.0" encoding="utf-8"?>
<!-- Generator: Adobe Illustrator 24.1.1, SVG Export Plug-In . SVG Version: 6.00 Build 0)  -->
<svg version="1.1" id="圖層_1" xmlns="http://www.w3.org/2000/svg" xmlns:xlink="http://www.w3.org/1999/xlink" x="0px" y="0px"
	 viewBox="0 0 50 50" style="enable-background:new 0 0 50 50;" xml:space="preserve">
<style type="text/css">
	.st0{fill:#43C1C4;}
</style>
<g>
	<polygon class="st0" points="14.37,40.67 2.29,30.23 0.57,30.86 14.61,43 49.24,29.3 47.21,27.68 	"/>
	<polygon class="st0" points="14.37,37.05 2.21,26.54 0.57,27.14 14.61,39.28 49.24,25.58 47.3,24.03 	"/>
	<path class="st0" d="M50,17.95L35.11,6.09L0,19.1l14.78,12.78L50,17.95z M32.87,16.7c1.86,2.17,1.07,4.61-1.65,6.06l-1.36-1.22
		c0.66-0.38,1.09-0.73,1.31-1.05c0.22-0.32,0.3-0.66,0.25-1.03c-0.05-0.37-0.26-0.71-0.61-1.02c-0.36-0.32-0.8-0.56-1.33-0.73
		c-0.53-0.17-1.11-0.27-1.76-0.29c-0.65-0.03-1.72,0.04-3.21,0.19c-0.84,0.09-1.44,0.1-1.8,0.04c-0.37-0.05-0.62-0.15-0.77-0.28
		c-0.17-0.16-0.19-0.34-0.06-0.55c0.13-0.21,0.4-0.38,0.81-0.51c0.7-0.23,1.62-0.27,2.77-0.12l0.67-1.33
		c-0.79-0.1-1.43-0.14-1.92-0.14c-0.49,0.01-1.03,0.06-1.63,0.16l-1.41-1.22c0.2-0.06,0.41-0.12,0.62-0.17
		C25.63,12.61,30.59,14.04,32.87,16.7z M19.77,14.28l1.21,1.05c-0.88,0.32-1.45,0.73-1.71,1.25c-0.25,0.52-0.14,1.01,0.35,1.47
		c0.29,0.28,0.68,0.5,1.16,0.67c0.48,0.17,1.05,0.27,1.71,0.3c0.66,0.03,1.81-0.02,3.44-0.16c0.8-0.07,1.4-0.08,1.78-0.01
		c0.38,0.07,0.68,0.2,0.9,0.4c0.26,0.24,0.32,0.5,0.17,0.81c-0.14,0.3-0.45,0.55-0.92,0.73c-0.92,0.36-2.18,0.43-3.79,0.22
		l-0.6,1.48c0.95,0.13,1.88,0.17,2.78,0.11c0.66-0.04,1.36-0.18,2.11-0.42l1.29,1.23c-0.2,0.06-0.4,0.13-0.61,0.18
		c-4.39,1.14-9.35-0.29-11.08-3.19C16.58,18.06,17.41,15.62,19.77,14.28z"/>
	<polygon class="st0" points="15.21,32.97 14.55,33.24 14.01,32.77 2.5,22.82 0.57,23.53 14.61,35.66 49.24,21.96 47.19,20.33 	"/>
</g>
</svg>
